/* XPM */
static char *badguy1[] = {
/* columns rows colors chars-per-pixel */
"64 64 251 2 ",
"   c #080604",
".  c #0C0C0B",
"X  c #160D07",
"o  c #19130B",
"O  c #1C140C",
"+  c #0C1215",
"@  c #141514",
"#  c #1D1913",
"$  c #17191A",
"%  c #26180D",
"&  c #241A0E",
"*  c #241C12",
"=  c #2B1D12",
"-  c #251F1A",
";  c #341E10",
":  c #342C0E",
">  c #2B2215",
",  c #25221A",
"<  c #2B241A",
"1  c #2A251A",
"2  c #322315",
"3  c #3B2414",
"4  c #392916",
"5  c #33251A",
"6  c #342A1D",
"7  c #3B2B1C",
"8  c #3D3117",
"9  c #141E27",
"0  c #1A2227",
"q  c #292724",
"w  c #332D23",
"e  c #3A2D22",
"r  c #352C29",
"t  c #3C3323",
"y  c #363328",
"u  c #3C332C",
"i  c #293036",
"p  c #383634",
"a  c #452A17",
"s  c #422D1C",
"d  c #47361B",
"f  c #553A1A",
"g  c #422E21",
"h  c #443323",
"j  c #4B3524",
"k  c #463826",
"l  c #4C3A25",
"z  c #42352B",
"x  c #433B2C",
"c  c #4B3B2B",
"v  c #543B23",
"b  c #593826",
"n  c #5B3D24",
"m  c #533D2A",
"M  c #443C33",
"N  c #453A37",
"B  c #4C3D32",
"V  c #563E31",
"C  c #633E28",
"Z  c #653C35",
"A  c #5C401D",
"S  c #63441A",
"D  c #4C422C",
"F  c #4A452E",
"G  c #55422C",
"H  c #5B4428",
"J  c #5B452C",
"K  c #4D4234",
"L  c #49443A",
"P  c #544434",
"I  c #5B4432",
"U  c #5C4A34",
"Y  c #52443A",
"T  c #554938",
"R  c #5C4C3B",
"E  c #5B513C",
"W  c #62442B",
"Q  c #65482B",
"!  c #714B2E",
"~  c #654536",
"^  c #634B33",
"/  c #6A4D34",
"(  c #634D3B",
")  c #6A4D3A",
"_  c #734B37",
"`  c #6D5136",
"'  c #625539",
"]  c #64533C",
"[  c #6B543C",
"{  c #6B5A3D",
"}  c #725336",
"|  c #73543C",
" . c #7B553B",
".. c #73593E",
"X. c #7A593E",
"o. c #7A683F",
"O. c #333B41",
"+. c #693F40",
"@. c #3D4447",
"#. c #3C4753",
"$. c #4A4A46",
"%. c #574842",
"&. c #524A44",
"*. c #5B4C42",
"=. c #58534A",
"-. c #444C57",
";. c #4C5359",
":. c #585858",
">. c #645342",
",. c #6C5442",
"<. c #6D5B43",
"1. c #665849",
"2. c #6C5B4B",
"3. c #725542",
"4. c #7C5545",
"5. c #745C44",
"6. c #7A5D44",
"7. c #72504F",
"8. c #745D4B",
"9. c #7B5E49",
"0. c #635B57",
"q. c #6C5C53",
"w. c #6B6446",
"e. c #746146",
"r. c #7C6245",
"t. c #74624B",
"y. c #7C644B",
"u. c #776B4A",
"i. c #7C694D",
"p. c #7C744E",
"a. c #67625A",
"s. c #7C6452",
"d. c #7D6A53",
"f. c #786558",
"g. c #7E7355",
"h. c #4A5766",
"j. c #555C66",
"k. c #4F5F70",
"l. c #685F61",
"z. c #55626D",
"x. c #556573",
"c. c #5B6B7A",
"v. c #696765",
"b. c #786A66",
"n. c #7B716C",
"m. c #66717A",
"M. c #747372",
"N. c #7A7576",
"B. c #8C601E",
"V. c #865B23",
"C. c #825A3B",
"Z. c #926831",
"A. c #A87633",
"S. c #F77522",
"D. c #F77A23",
"F. c #F67830",
"G. c #835D43",
"H. c #825C4B",
"J. c #845A52",
"K. c #856345",
"L. c #8A6546",
"P. c #83654C",
"I. c #8B664C",
"U. c #83694D",
"Y. c #8C6A4D",
"T. c #936E4E",
"R. c #8A7149",
"E. c #95734C",
"W. c #836651",
"Q. c #846B52",
"!. c #8C6C54",
"~. c #856658",
"^. c #856A5D",
"/. c #8C6D5A",
"(. c #926E53",
"). c #926E5A",
"_. c #847556",
"`. c #8B7255",
"'. c #84735A",
"]. c #8D745A",
"[. c #957254",
"{. c #997555",
"}. c #957B51",
"|. c #94735B",
" X c #99755C",
".X c #94795D",
"XX c #9B795D",
"oX c #A27C4D",
"OX c #836C63",
"+X c #876E64",
"@X c #8A7667",
"#X c #947363",
"$X c #957C62",
"%X c #997867",
"&X c #9B7C64",
"*X c #93746D",
"=X c #867876",
"-X c #A07E62",
";X c #D1754C",
":X c #BC8231",
">X c #CD8E33",
",X c #F88426",
"<X c #F98728",
"1X c #FA952C",
"2X c #E59E31",
"3X c #ECA337",
"4X c #FCA331",
"5X c #F6AA37",
"6X c #FEAE34",
"7X c #FEB03F",
"8X c #99845A",
"9X c #AF8C56",
"0X c #968469",
"qX c #9D826A",
"wX c #82837E",
"eX c #9D8C75",
"rX c #AA916B",
"tX c #A89577",
"yX c #BAA872",
"uX c #DA9B48",
"iX c #CE9154",
"pX c #E19D5E",
"aX c #E7A449",
"sX c #F5AC43",
"dX c #FCB146",
"fX c #EFAE58",
"gX c #CEA974",
"hX c #F3B66C",
"jX c #FBC27A",
"kX c #657685",
"lX c #777D85",
"zX c #7B858B",
"xX c #848788",
"cX c #8D9190",
"vX c #999B99",
"bX c #AA9984",
"nX c #AF9C94",
"mX c #9FA199",
"MX c #B1A694",
"NX c #9CA4A5",
"BX c #A8ABA5",
"VX c #B3B4AD",
"CX c #B2B5AF",
"ZX c #C7AE91",
"AX c #C8AC9A",
"SX c #BFC2BD",
"DX c #EFCB9D",
"FX c #CDC8B8",
"GX c #F3D8B0",
"HX c #D7D7CB",
"JX c #EEE7D2",
/* pixels */
"6X6X6X6X6X6X6X6X6X6X6X6X6X6X6X6X6X6X6X6XD.4X6X6X6X6X6X6X6X6X6X6X6X6X6X6X6X6X6X6X6X<X1X6X6X6X6X6X6X6X6X6X6X6X6X6X6X6X6X6X6X6X4XD.",
"6X6X6X6X6X6X6X6X6X6X6X6X6X6X6X6X6X6X6X1X<X6X6X6X6X6X6X6X6X6X6X6X6X6X6X6X6X6X6X6X4XD.6X6X6X6X6X6X6X6X6X6X6X6X6X6X6X6X6X6X6X6X,X4X",
"6X6X6X6X6X6X6X6X6X6X6X6X6X6X6X6X6X6X6X,X<X6X6X6X6X6X6X6X6X6X6X6X6X6X6X6X6X6X6X6X1XS.6X6X6X6X6X6X6X6X6X6X5X6X4XdX6X6X6X6X6X4XS.4X",
"} ! Q S S S S S f S A A A A H S / 3.4.K.Y.I.(.[.|.|. X&XXX$X#X X]./.!././.]./.^.~.^.^.~.OX/.^.f.f.b.n.n.n.M.M.l.0.&.2.eXMXAXMXMX",
"Q H f f f f d a d d d d d l l G ( ) 6.P.P.I.!.[.{.[. X X$X X X|.).).!./././.^.~.~.^.~.^.^.^.^.^.OXOXn.n.N.N.b.v.0.&.*.OXtXbXbXtX",
"x 8 5 < > > > > = > 2 < < 6 6 k V ) 3.H.P.I.T.[.[.[.[.[.|.|.|. X(.).).).)././.~.~.f.OX~././.+X+XOXOXOXN.N.lXlXb.0.&.M Y 8.@XtXtX",
"y r < * # # * * > , , , , < 6 z P >.5.K.I.I.Y.T.(.(.(.[.|.[. X[. X(.).(.!././.~.~.^.^.^.+X/.].+XOXOXOXn.=XlXlXM.0.&.M P '.tXMXZX",
"r w < * # * * , , , , - , > 6 z I ] 5.r.I.I.Y.Y.(.[.T.(.[.|.(.|.).|.).).).).).)././.^.OX^.#X+X#X+XOXOXn.n.N.N.m.l.=.*.t.0XMXVXAX",
"w q = * & # - < < < , * * < 7 x I ) 5.6.L.I.Y.T.T.(.(.(.).).|.|.|.).).).|.).|.).|./././.^./.#X#X+X^.n.f.v.a.j.j.:.0.f.@XeXeXtXbX",
"= - - * # - < < 1 , , * > > e c I ) X.G.K.I.I.T.Y.!.I.!././.#X|.).).).).)./.(.).).(.).|./.!. X].Q.s.w.:.=.=.0.v.v.M.wX=Xn._.0XeX",
"* * # O # * - < 1 , , * = < 7 k H ) ..G.L.Y.(.{.|./.]./.#X#X$X].].^./././.#X].].!.!.!.!.W.W.!.s.8.>.L L L =.1.a.M.zXwXb.a.w.@X0X",
"& # & # # * * < < , * , < * 5 h m ~ | K.Y.8XqXtXtXrXqXqXqX&XqX0X$X$X$X$X$X0X$X.XQ.6.5.6.9.9.` ^ R 1.w.w.$.F p L =.v.n.f.8.=.p.8X",
"o O * * * * - < > > * > , > 7 k G H / o.8XrXyXrXrX0X0X$X_.|._._._.'.p.d.g.'._.g.d.2.w.u.<.] m D U =.w.1.Y 6 @ o w ,.Q.C.G.C.9X9X",
"o O & & - < > > > * # # * 4 d G H H H R.9XyXyX8X8.] R T U P F P D c D F F K P E 1.u.p.8X<.K x T <.T x t < O X . 2 } R.C.C.A.>X3X",
"O # # & * 4 4 2 > # & & > 2 h H ' } { Z.yXyXyXo.l 8 8 d 8 8 : : : : : : 8 8 8 D T E p._.u.' E w.w.T : , O X X X % W ! S B.:X2X6X",
"& * * O & 5 7 : > > > > & < k R e.C.o.8X9XyXrX{ 8 8 d d d d d d 8 k F 8 k k F F D k { p._.p.u.u.w.F < # # O X X % d A a ! >X4X6X",
"= - & o & ; 4 s 7 3 5 > - 5 k ~ 6.K.Y.E.9X9X}.U h l m m G c G D F F F F F F t t t 6 E p.d.s.s.8.{ F # O O O X O % 3 a ; B.>X4X4X",
"< < * & O = s v v d 7 > - 5 z ^ 4.K.L.T.E.}.R.U h l l l c c c D F F F F u t y 6 < < U r.~.~.J.7.' k O O X O O % = 3 3 3 A.2X6X6X",
"5 5 < & & ; d W W m s 2 * < k I ..K.Y.T.E.R.r.G g g s s s t h t 8 t y y y w w 5 < < G 6.!.#X+XJ.<.x & o O X X = 5 5 3 A A.3X6X6X",
"< > > > 2 s b ! } / G 7 > > h I X.L.T.T.E.R.o.G s a s 7 7 7 7 e 8 6 w < w w q = > d ~ G.).#X*XJ.q.K : o X X X 2 g r g V.>X4X6X1X",
"> % % 3 s v C !  .} / m 5 5 g J X.K.T.T.E.R.r.G 3 a 7 7 7 7 7 e y 6 6 6 6 < > % 8 G ..I. X%X%X+Xf.%.e & X X X 5 H S B.:X2X4X6X<X",
"& & = a v C Q !  .C.X.Q t w e H X.Y.T.E.[.`.r.G a s a s 7 6 7 7 6 6 6 5 = % % ; k { K.T. X%X%X*Xb.1.j = X O = s S B.:X2X4X6X4X,X",
"& > a b C C ! C.C.L.K.| m 7 e I | I.[.[.[.[.R...~ I v s 3 ; ; > = = > % % % 5 G ` 6.Y.(.%X-X%X*XOXq.V g 5 g N ^ Z.>X2X6X6X6X1X4X",
"> : a C C.Z _ C.G.L.I.5.J k e B 3.I.[.}.[.[.}.E.P.5.) m j g s 8 3 3 3 4 7 s G ..K.L.I.[.%X%X%X*X=Xl.1.%.V %.*.J.9XuX6X6X6X6XS.4X",
"& = 8 ` 6.G.C.G.C.G.I.G.^ k r c 3.W.[.[.(.{.{.(.(.T.Y.K.6.X.6.{ ` ^ / ) ..6.r.L.L.G.Y.(. X#X%X*X*Xb.0.7.0.v.v.'.oXuX6X6X6X,XS.4X",
"& O 2 ` K.I.L.G.G.G.L.6.^ h w c ,.P.(.|.{.{.{.{.{.{.{.{.{.[.T.Y.K.r.G.I.Y.`.R.L.G.G.H.(.).#X#X*X*X=X=Xb.b.n.=X=X&XuX6X6X,XS.4X6X",
"# O > G | I.{.(.Y.K.K.X.^ h w x >.9./. X X X{.{.{.}.XXXX{.{.T.T.!.Y.(.(.(.T.L. . .4.J.).).#X%X%X+X=X=Xb.n.=X=X=XqXuX4X,XD.4X6X6X",
"& O * 6 I 6.(.{.Y.K.C. .^ h q u *.y.!.|.XXXXXXXXXXXXXXXX{.{.(.(.(.). X[.(.I.C. .G.J.!.). X#X%X X#X*X+Xb.b.=X=XwXqXuXF.S.4X6X6X6X",
"> , # o 8 ^ r.!.Y.L.K.4./ h 6 u >.s./.|. X XXX&X&XqXXXXXXXXX&XXX X X%X X(.H.C.H.J.(.).#X X#X-XXX)./.~.f.f.@X=X=X%X;XD.6X6X6X6X6X",
"u t < # = t ^ K.Y.E.(.P.| k q u >.W.].|. X&X&XXX-XqXqX&X-X-X&X%X%X%X-X X!.H.C.G.I.I.I.I.I.(.[.(.!.H.3.7.s.f.N.=X#XiX4X6X6X6X6X6X",
"F t < * O O h ( K.Y.[.I.,.c q u >.s./.|. X X&X&X-X-XqXXX&X&X&XqX-X-X-X#XJ.G.H.G.G.G. .) | | 9.6.| >.R ( ,.8.b.@XqXuX6X6X6X6X6X6X",
"e 6 > > & O = s ~ 5.L.6.~ z q r *.9.Q.|.|.XXXX&XXXqXXXqX&XqX%XqX%X-X&X).I.H.H.3./ b l h g j m c h z N B ( 8.f.@XrXuX6X6X6X6X6X6X",
"> > & * & O X & d ~ .. .^ t q r T 3.U.`.[..X.XXX0X&X&X$X&X0XqX&XtX%X#X!.I.J.8.,.V g g 5 - < w 5 - q r p B *.f.].9XaX6X6X6X6X6X6X",
"> > > & & O O & 2 l ` | ^ x q y T ,.i.Q.`..X.X.X.X$X.X&X$X%X$XqXeX-X/.P.9.8.7.%.N z r r q 5 < < q q q r p L 1.].9XaX6X6X6X6X6X6X",
"5 5 < > = & O & & j / | [ K r r K >.e.P.`.`..X.X.X.X$X&X$X&XqXqX%X#X!.3.,.%.%.N N r r q - - - - < 0 q 0 q p &.T.iXaX6X6X6X6X6X6X",
">.U h 5 > & & & & s / 4.5.I y r x ( ..i.U.!.`.].].{..X$X$X$X$X0X&X[.9.R B N p r u u u u z N z z z z N u r i $.E.uXsX6X6X6X6X6X6X",
"$Xg.R k > % > = = d ^ 5.6.R z y x R 5.P.Q.U.U.Q.`..X.X.X.X.X.X.X.X!.,.B N r r u u M B P ( ( >.( %.*.*.Y M p L R.uX5X6X6X6X6X6X6X",
"eX0X@X>.4 = > 8 7 j / 4.6.,.P u M I ,.r.i.U.i.U.Q.`.`.`.]..X.X.X].s.>.M r u z B U ] ,.[ )  ._ _ 3.) ~ R P M L E.aX5X6X6X6X6X6X6X",
"tXtXeXg.k < 7 j j J ` X.P.5.>.u u P ,.r.K.i.U.i.U.U.`.`.].].].|._.t.*.M x c V R [ 3.4. ._ _ _ 4._ ) ~ ~ P K L A.3X6X6X6X6X6X6X6X",
"rXyXtX'.R 6 h J U ^ | r.P.P.,.B u B ] 5.r.i.y.U.R.`.`.`.].Q._.'.Q.2.T M T ( ( [ / _ _ Z Z b Z Z Z +.%.%.Y K ] oX5X6X6X6X6X6X6X6X",
"iXgXyX8Xe.k d m U ) [ 6.P.W.9.R K u ^ { r.y.y.U.Q.`.`._.Q.Q.d.g.f.2.T P R { [  .| _ _ +.+.+.+.+.+.7.0.0.&.Y 5.:X5X6X6X6X6X4X6X4X",
"aXaXpX9X8X{ J D I U ] 6.P.I.y.<.T x P ] 5.r.y.u.i.Q.R._.U.d.d.d.d.2.E U { <...5.3.4.4.J.J.J.J.7.l.OXl.l.=.%.Z.>X5X6X6X6X6X6X6X<X",
"6X7XsXaXgXtX0Xg.E l >.8.P.!.P.y.E K K ^ { 5.5.e.e.i.i.i.i.u.d.d.u.w.] >.e.r.y.r.9.4.J.J.J.J.J.J.J.OXv.0.=.*.Z.uX5X6X6X6X6X6X6X,X",
"6X6X6XsXfXgXyX0X*.r >.9.W.P.U.P.5.R T R { { 5.<.<.e.t.t.t.t.t.i.t.*.E <.e.P.P.r.9.9.9.H.H.9.4.3.7.7.1.1.=.1.E.uX5X6X6X6X6X6X4X1X",
"6X6X6X6X7XhXgX8XY u 1.8.W.U.Y.W.y.8.>.R ] <.<.[ >.w.t.t.t.t.t.t.<.E T R e.U.U.K.5.[ ,.[ ) ~ P m B V %.*.&.w.9X2X6X6X6X6X6X6XS.4X",
"6X6X6X6XdXjXyXa.p z q.s.W.W.W.W.W.y.1.>.] ` { ] { ,.<.t.t.w.e.t.<.R P E e.P.U.6...` U G c k e e g z Y *.&.w.9X3X6X6X6X6X6X1XS.4X",
"6X6X5X7XhXDXbXL @ u q.s.W.!.P.W.Q.r.<.>.( E ] ] ' { <.<.5.w.<.e.<.E T >.e.y.K.o...` H d 6 6 w t k V R *.&.w.9XpX5X5X6X6X1XS.1X6X",
"6X6X5XjXDXFXeXp   z 2.s.Q.W.!.W.Q.r.5.] ] U R ^ ' { ,.<.e.5.t.5.>.K K R { r.r.5...} ^ m h t z c I ( >.=.$.0.bXgXfXdX6X1XS.1X6X6X",
"6XdXjXDXDXmXM.q   u 7.f.s.P.W.I.P.y.e.<.] R U R ^ ' { { 5.e.e.<.] K L K ,.e.r.6.5...` ( P P Y *.1.1.1.0.E :.zXMXgXhXpXF.<X6X6X6X",
"7XjXDXGXFXcX:.q   u ,.9.s.W.W.I.P.r.6.3.] ( R U R U ^ { { <.<.w.>.L M Y <.t.y.y.y.9.5.,.,.>.,.1.0.q.0.0.=.;.m.zXmXMXpXfX7X5X6X6X",
"jXDXJXGXSXxX$.,   t ) 8.9.W.P.U.K.r.6.5.[ ] U U U U R ' ] { <.w.>.L M Y 2.d.i.i.i.i.s.t.8.2.q.q.f.a.0.0.=.#.j.m.zXvXnXgXfXdX6X6X",
"GXJXJXHXBXM.@.$ . 6 J 2.9.s.i.P.P.6.r.5.,.' U U H U U ^ ] ] { <.*.Y L L 1.f.d.d.Q.Q.s.s.t.8.t.q.q.q.a.0.=.$.#.z.m.zXcXMXZXhXfXfX",
"JXJXHXSXmXv.p $ . 5 V >.8.9.9.9.y.6.y.5.<.] R I G G U U U ^ U ' E p p K =.f.i.Q.W.Q.i.s.t.t.t.t.q.q.w.0.$.p O.h.x.kXkXlXbXAXZXZX",
"JXHXSXCXNXv.i $ . = j ~ ,.9.9.9.4.9.6.9.5.{ ` U U G H J U U U U T L p L T <.i.K.y.i.i.y.e.e.t.2.<.2.1.=.L i i -.c.kXkXkXlXcXvXvX",
"HXSXNXVXBXM.O.$ . % g V ) 3.9.9.8.6.9.r.9.5.| ` ^ J J U U U U U K L p K Y >.u.P.K.y.y.e.e.5.e.<.>.1.*.$.y $ + #.z.c.c.x.x.m.lXwX",
"HXSXNXVXBXM.@.# . # 5 m ~ ,.5.9.5.9.9.9.9.5...[ ' / U J U J J U G T F K T { e.e.r.5.o.5.e.5.5.<.] R L y 0 . + i h.x.c.x.k.k.c.m.",
"SXVXvXVXVXM.@.$   O = j Z 3.3.4.9.8.6.y.6.6...[ ' / / ^ ^ Q ^ J U G P U R ' { { { { { } { { [ E T M y # . + + i -.h.c.x.k.h.k.z.",
"NXNXBXVXmXv.i $ . X = g Z 1.3.3.5.9.4.9.G.5...[ ` / ` ` } ` ` / / J J v G G U ^ ^ ^ Q U U H G k 7 < # . . + 9 9 O.;.x.x.k.h.h.h.",
"zXNXVXBXcX:.9 @ @ O % g I ) 3.3.6.9.4.6.6.6.X. .} ` ` } } } } ` / H f j f f A H b v f d d d 7 > # X   . . + $ $ 9 #.j.c.k.h.h.h.",
"zXNXVXmXM.@.9 $ @ # * 7 m ~ [ 3.3.3.6.6.G.4.X. .} ` } } } } ` ` Q A f f v n n f f f a 3 3 2 = & o X   . + $ 9 + + O.;.k.k.h.h.#.",
"c.cXCXcX:.O.9 $ @ * - 3 j ~ ) ) [ 3.3.3.5.X. .| } [ ` } / ` / Q W n v v n n W n f f a a ; ; ; % % X X X $ - $ @ $ p ;.j.k.h.;.-.",
"z.cXCXxX;.i 9 @ o O % 5 g V ( ~ ( ) ,.3.| [ [ } } ` ` / / / Q H n f n b J n W W A f d a a ; ; ; % X O O * < - O * N ;.j.h.;.-.#.",
"1X6X6X6X6X6X6X6X6X6X6X6X6X6X6X6X6X6X6X6X4X,X6X6X6X6X6X6X6X6X6X6X6X6X6X6X6X6X6X6X6X6XS.4X6X6X6X6X6X6X6X6X6X6X6X6X6X6X6X6X6X6X4XF.",
"6X6X6X6X6X6X6X6X6X6X6X6X6X6X6X6X6X6X6X6X4X4X6X6X6X6X6X6X6X6X6X6X6X6X6X6X6X6X6X6X6X6X,X6X6X6X6X6X6X6X6X6X6X6X6X6X6X6X6X6X6X6X6X<X"
};
