/* XPM */
static char *badguy2[] = {
/* columns rows colors chars-per-pixel */
"64 64 252 2 ",
"   c #080604",
".  c #0C0C0B",
"X  c #160D07",
"o  c #19130B",
"O  c #1C140C",
"+  c #0C1215",
"@  c #141514",
"#  c #1D1913",
"$  c #17191A",
"%  c #26180D",
"&  c #241A0E",
"*  c #241C12",
"=  c #2B1D12",
"-  c #251F1A",
";  c #341E10",
":  c #342C0E",
">  c #2B2215",
",  c #25221A",
"<  c #2B241A",
"1  c #2A251A",
"2  c #322315",
"3  c #3B2414",
"4  c #392916",
"5  c #33251A",
"6  c #342A1D",
"7  c #3B2B1C",
"8  c #3D3117",
"9  c #141E27",
"0  c #1A2227",
"q  c #292724",
"w  c #332D23",
"e  c #3A2D22",
"r  c #352C29",
"t  c #3C3323",
"y  c #363328",
"u  c #3C332C",
"i  c #282E33",
"p  c #2B333B",
"a  c #383634",
"s  c #452A17",
"d  c #422D1C",
"f  c #512C18",
"g  c #47361B",
"h  c #55391A",
"j  c #422E21",
"k  c #443323",
"l  c #4B3524",
"z  c #463826",
"x  c #4C3A25",
"c  c #42352B",
"v  c #433B2C",
"b  c #4B3B2B",
"n  c #543B23",
"m  c #593826",
"M  c #5B3D24",
"N  c #533D2A",
"B  c #443C33",
"V  c #453A37",
"C  c #4C3D32",
"Z  c #563E31",
"A  c #633E28",
"S  c #653C35",
"D  c #5C401D",
"F  c #63431B",
"G  c #4C422C",
"H  c #4A452E",
"J  c #55422C",
"K  c #5B4428",
"L  c #5B452C",
"P  c #4D4234",
"I  c #49443A",
"U  c #544434",
"Y  c #5B4432",
"T  c #5C4A34",
"R  c #52443A",
"E  c #554938",
"W  c #5C4C3B",
"Q  c #5B513C",
"!  c #62442B",
"~  c #66472C",
"^  c #71492E",
"/  c #654536",
"(  c #634B33",
")  c #6A4D34",
"_  c #634D3B",
"`  c #6A4D3A",
"'  c #734B37",
"]  c #6D5136",
"[  c #625539",
"{  c #64533C",
"}  c #6B543C",
"|  c #6B5A3D",
" . c #725336",
".. c #73543C",
"X. c #7B553B",
"o. c #73593E",
"O. c #7A593E",
"+. c #7A683F",
"@. c #333B41",
"#. c #693F40",
"$. c #3D4447",
"%. c #3C4753",
"&. c #4A4A46",
"*. c #574842",
"=. c #524A44",
"-. c #5B4C42",
";. c #58534A",
":. c #444C57",
">. c #4C5359",
",. c #585858",
"<. c #645342",
"1. c #6C5442",
"2. c #6D5B43",
"3. c #665849",
"4. c #6C5B4B",
"5. c #725542",
"6. c #7C5546",
"7. c #745C44",
"8. c #7B5D44",
"9. c #72504F",
"0. c #745D4B",
"q. c #7B5E49",
"w. c #635B57",
"e. c #6C5C53",
"r. c #6C6345",
"t. c #746146",
"y. c #7C6245",
"u. c #74624B",
"i. c #7C644B",
"p. c #776B4A",
"a. c #7C694D",
"s. c #7C744E",
"d. c #69625B",
"f. c #7C6452",
"g. c #7D6A53",
"h. c #786558",
"j. c #7E7355",
"k. c #4A5766",
"l. c #555C66",
"z. c #4F5F70",
"x. c #685F61",
"c. c #55626D",
"v. c #556573",
"b. c #5B6B7A",
"n. c #696765",
"m. c #786A66",
"M. c #7B716C",
"N. c #66717A",
"B. c #747372",
"V. c #7A7576",
"C. c #8C5F1D",
"Z. c #865922",
"A. c #81583B",
"S. c #AD5A28",
"D. c #926831",
"F. c #A87733",
"G. c #CC7128",
"H. c #E76E21",
"J. c #F77522",
"K. c #F77A23",
"L. c #835D43",
"P. c #825C4B",
"I. c #845A52",
"U. c #856345",
"Y. c #8A6546",
"T. c #83654C",
"R. c #8B664C",
"E. c #83694D",
"W. c #8C6A4D",
"Q. c #936E4E",
"!. c #8A7149",
"~. c #95734C",
"^. c #836651",
"/. c #846B52",
"(. c #8C6C54",
"). c #856658",
"_. c #856A5D",
"`. c #8C6D5A",
"'. c #926E53",
"]. c #926E5A",
"[. c #847556",
"{. c #8B7255",
"}. c #84735A",
"|. c #8D735A",
" X c #957254",
".X c #997555",
"XX c #957B51",
"oX c #94735B",
"OX c #99755C",
"+X c #94795D",
"@X c #9B795D",
"#X c #A67952",
"$X c #836C63",
"%X c #876E64",
"&X c #8A7667",
"*X c #947363",
"=X c #957C62",
"-X c #9A7867",
";X c #9B7C64",
":X c #93746D",
">X c #867876",
",X c #A07E62",
"<X c #DB7642",
"1X c #BC8335",
"2X c #CC8D33",
"3X c #F88426",
"4X c #F98828",
"5X c #FA942C",
"6X c #EC9537",
"7X c #FCA330",
"8X c #FEAE34",
"9X c #F0A63A",
"0X c #F6AA38",
"qX c #99845A",
"wX c #B08C54",
"eX c #968469",
"rX c #9C826A",
"tX c #82837E",
"yX c #9D8C75",
"uX c #AA926B",
"iX c #A89577",
"pX c #BAA872",
"aX c #D99B47",
"sX c #D29753",
"dX c #DF9C5E",
"fX c #F5AC43",
"gX c #F1AD50",
"hX c #CEA974",
"jX c #F1B66E",
"kX c #FAC37D",
"lX c #657685",
"zX c #777D85",
"xX c #7B858B",
"cX c #848788",
"vX c #8D9190",
"bX c #999B99",
"nX c #AA9984",
"mX c #A29E99",
"MX c #9FA199",
"NX c #B2A693",
"BX c #9CA4A5",
"VX c #A8ABA5",
"CX c #B3B4AD",
"ZX c #B2B5AF",
"AX c #C7AE91",
"SX c #DBBD9D",
"DX c #BFC2BD",
"FX c #EFC99E",
"GX c #CCC6B8",
"HX c #F3D8B0",
"JX c #D7D7CB",
"KX c #EEE7D2",
/* pixels */
"8X8X8X8X8X8X8X8X8X8X8X8X8X8X8X8X8X8X8X8XJ.7X8X8X8X8X8X8X8X8X8X8X8X8X8X8X8X8X8X8X8X4X5X8X8X8X8X8X8X8X8X8X8X8X8X8X8X8X8X8X8X8X7X3X",
"8X8X8X8X8X8X8X8X8X8X8X8X8X8X8X8X8X8X8X5X3X8X8X8X8X8X8X8X8X8X8X8X8X8X8X8X8X8X8X8X7XK.8X8X8X8X8X8X8X8X8X8X8X8X8X8X8X8X8X8X8X8X3X7X",
"8X8X8X8X8X8X8X8X8X8X8X8X8X8X8X8X8X8X8X3X4X8X8X8X8X8X8X8X8X8X8X8X8X8X8X8X8X8X8X8X5XJ.8X8X8X8X8X8X8X8X8X8X8X8X8X8X8X7X8X8X8X7XK.7X",
"NXAXAXNXyXe.=.w.n.m.B.B.M.$Xm.m._._._._._._._._._.`.].`.`.`.`.oXoXoX=X@X@XOXoXOX].'.^.R.Y.y.o.) ! K M K D D h F F F F F F F F ^ ",
"nXnXnXyX&X-.*.,.n.B.V.V.M.M.m.$X_.`._.%X_.).).).`._.`.].`.`.].].oXOXOX@XOX.XoXoXoXW.R.R.T.8.1./ J h h k g g g s s g h h f h K ~ ",
"iXyX&X4.R C *.,.m.V.zXV.M.$X$X$X%X%X`.`.$X_._.h.).).(.`.].`.]..XoXoXOX.XoXoXQ. X X(.R.Y.8.7.{ U z w 6 < 5 < > , = > = - 2 5 t u ",
"AXNXiX}.U B =.x.V.zXzX>XV.$X$X$X%X%X`._._.h.)._.`.`.(.`.].].].]..XoXoX XoX'.'. XQ.W.Y.T.T.7.1.Z c 6 , , , , , , , % * # = < w u ",
"AXCXNXeXu.-.;.w.n.zXV.M.m.$X$X%X].*X%X%X_.%X`.(.].`.].'.'.].]..XoXoX].oXQ.Q.'.Q.W.W.W.T.L.8.{ U c 6 > , > , , , > , * O * - w r ",
"nXiXyXeXeXh.w.w.l.x.n.d.n.m.%X%X*X*X`._.`.`.].].].oX].oXoX].].oX].].].].].'.'.Q.W.W.R.Y.U.o.` Y v 7 1 * * , , q , > # * * , < w ",
"yXeXM.&XtXV.B.n.x.,.;.,.3.r.f./.|.oX`.`.`.oX`.oX].].].].].`.`.`.].oX].`.R.(.R.(.W.W.R.U.L.O.` Y b e > - - - , 1 , , * * # - = - ",
"eX&Xu.e.n.cXzXB.n.,.;.I I -.<.0.^.^.E.^.(.W.(.`.oXoX%X|.`.(.`.|.oX*X*X*XoX`.oX.XoX(.W.Y.A.8.` Y z e > > * , , 1 1 , - # O # * - ",
"eXs.4.8.f.M.n.;.V a v Q 3.3.<.W / } q.T.8.8.y./.&X=X=X=X=X=X+XeXeXrXeXeXeXrXuXiXuXuX@XW.y.} / J k 5 > > * * > , 1 , * o * & O % ",
"wX~.A.+.P.^.1.w # o q I ;.r.;.T H b _ 7.y.t.r.u.g.}.j.j.s.s.[.[.[.|.[.=X=XeXeXiXiXpXuXqX+.[ L n l 4 1 > , & > > = - * * * * O o ",
"9XG.S.Z.A.D...2 . X # : t H E r.Q H G 2.[.j.u.r.Q J P P H H b b G G J T E E [ t.qXpXpXpXqXF K K N k : > & & , > < 1 > - & O O o ",
"5XH.S.Z.~  .! % . X o O , 6 H +.r.Q Q s.qXr.<.Q H 8 8 8 : : : : : : 8 8 8 8 8 x p.pXpXwXD. . .] L z < > * * * > 2 5 6 = O * * O ",
"7XH.G.Z.4 h g % o o o O * 1 H r.r.p.s.s.s.r.z G H H g H 8 H 8 H g g g z g g g 8 ] uXuXwXqX+.+.o._ z > & % > > > 3 7 5 * O * * * ",
"J.H.2XC.: s 3 % O X O O # = v [ r.u.T./.s.Q 6 t t t H H H H H H J J J J N N x k T qXwXqX~.Y.Y.8./ b 5 > > 5 3 7 d 4 2 & O & * > ",
"J.5X7XC.: s 3 % % O X X O O c { 0.).).^.p.E 1 1 w w t v v H H H H b z b b x x k E D.XX#X~.R.L.5.T z < - > 7 k x n d % % O * 1 1 ",
"K.7X9XF.h 4 3 5 = X X X X % V 9.h.%X].).8.J > 1 1 w w w y 8 y t t t e 7 j d d j J y.!.~.Q.Q.Y.o.Y z < * 2 g K ! ! l ; % = 1 5 5 ",
"4X8X0X2XC.f e e ; O X X O 2 Z e.$X*X-X].8.( g 2 > 1 w w q w 6 t t 7 7 7 7 s s j H +.Q.Q.Q.Q.Y.O.Y k < > 7 N ~  .^ m s 2 > > > > ",
"8X8X8X6X1XC.D z 5 X X X % 7 *.x.%X*X-XOXR.o.L 4 % = 5 w 6 7 6 e 7 7 7 7 d d s 3 J +.!.~.~.'.R.o.L j < 5 x ) O.X.^ A h s : % * = ",
"8X8X8X0X6X2XF.~ d = % X = j 9.m.:X-X-XOX'.Y.} z = % = = 5 6 6 7 7 6 7 7 7 s s 3 J y.~. X~.Q.Y.X.J k 6 k ( O.A.X.^ ^ A m s = & & ",
"8X8X8X8X8X9X2XD./ c e r j Z 9.>X:X:X;XOX XW.8.] N 4 % % % = = > 5 2 ; 3 d N K { o.!.XX X X XR...Z t t b ..U.U.X.X.^ A ~ n 3 > & ",
"8X8X8X8X8X8X2X#X^.-.*.Z W ;.x.:X:X-X-XOX'.W.Y.U.5.N d 7 2 3 3 3 3 d d k J ( y.E.W. X X X.XoXR.5.N e k Y 8.Y.Y.L.A.' ^ ' ~ g > : ",
"8X8X8X8X8X8XaXwX_.x.x.e.e.x.$X>X:X-X-X*X'.R.Y.Y.Y.U.O.o.' ) ( ] ..7.y.y.U.E.Q. X X.X.X.X.X'.R.5.b w z T A.W.L.A.A.L.A.P.) 7 * * ",
"8X8X8X8X8X8XsX,X&XV.V.m.m.M.>X:X:X-X*X].'.P.L.L.Y.Q. XW.R.P.8.U.W.'.~..X.X.XXX X.X.X.XoXoX'.^.1.C w z ( y.W.L.L.L.P.R.T.` 3 O & ",
"8X8X8X8X8X8XaXrX>X>X>XM.m.>X:X:X*X-X*X].`.I.L.A.A.U.W. XQ.R.R.Q.W.Q. X.X@X#X@X.X.XOXOXOXoX'.i._ c w z ( O.A.U.R..X'.R...H > O & ",
"8X8X8X8X8X8XaXrX>XzX>X$Xm.$X:XoX-X-XOX*X].I.P.P.6.X.R.'.OXOX].OX X X.X.X@X@X@X@XOX@X@XOXoX`.q.-.k q k ~ O.Y.Y.W..X'.L.Y 4 & O & ",
"8X8X8X8X8X8XsXrX>X>X&Xm.h.).`.oXOX;XOXOXOX].(.I.L.X.P.'.*XOX-X-XOXOX@X@X@X@X,X,X@X;XOXOXoX`.f.<.u q k ) O.U.Y.W.Q.y.( 8 O # > 1 ",
"8X8X8X8X8X8XsX=X>X>Xh.0.1.7.T.^.'.'.(.R.R.^.'.R.L.6.L.'.-X,X-X,X;X;X;X;XrX;X,X,X;X@X@XOXoX|.f.<.u q c 5.T.'.Q.W.y./ k * * 1 t t ",
"8X8X8X8X8X0XaX;X>X$Xf.1.-.-.` 5.P.6.5.} ..X.8.L.L.L.P.^.OX-X,X-X,X-X;XrX;XrX;X,X;X;X@X@XoX`.f.<.u q b ' R.].(.U.( z & O * 1 t H ",
"8X8X8X8X8X5XaX.X&Xh.2.W Z V c k m m l k j l m ) 6.P.L.R.OX-X,X,XrX;X;X=X;XrX@XrX;X@X@XoXoX^.f.W y q c / 8.U.8./ 7 = O & * , 6 y ",
"8X8X8X7XJ.K.<X#X].h.-.V a r q , 5 5 5 = 5 e l Z 1.q.I.^.(.OXrXrXrX-XeX;X;X=X=X;X;X+XoXoX(.a.7.R y q c ( ..X.( k % O O & & & > 5 ",
"8X8X3XJ.J.K.<XsX|.w.Z a i q q q q 1 q q r r c V *.3.0.q.T.oXrXrXrXrX-X;X;X=X=X=XqX+X+X{./.i.2.U r q c / ....l 2 % O O & * * = > ",
"8X4XJ.J.K.7XfXwX'.=.a q q q q - - - - q q r r c V *.*.9.2.^.+X;XrXeX;X=X;X+X+X+X+X|.{.{.T.t.{ P r r P ..X.) l % O O & = > 5 5 5 ",
"7XK.K.5X7X8X9XsXW.&.r i a c c c c c c c c r a a r a V C W q.{.+X;X;X=X=X+X+X+X|.{.{.{.E.U.7._ v r t U 7.5.( g % & & * > 5 t T <.",
"7XJ.K.7X8X8X0XaX~.I a a R -.-.W *.` _ / U C V c r r a c C 2.).+XqX+X+X+X+X+X|.{.{.a.E.E.i.8.W v y u T 8.8.( g = > & * > k W s.&X",
"3XJ.7X8X8X8X0XfX~.I G P W / ` 5.6.' ..5...} _ W Z c r r B <.f.oX+X|.+X+X+X{.{.!.E.T.a.T.y.5.E v y E 1.8.8.( l 7 4 2 > 4 <.&XeXuX",
"J.3X8X8X8X8X8X9X~.I P R / / S 9.' ^ ' ' X.5.7.} W N C V B W f.}.|.|.|.|.{.{./.E.T.a.a.i.y.} R u u { q.T.8.) K x x 7 1 b g.iXiXiX",
"J.7X8X8X8X8X8X9X1X{ P P *.*.S #.S S m S S ^ ) ] } ` _ R B R 4.g._.[.[.{.{.{.{.E.E.a.i.i.8.{ P u P 2.i.T.8...( Y J g 6 Q }.iXiXpX",
"4X8X8X8X8X8X8X0XsX .E =.,.w.9.#.S 9.S S 9.S S A...| } [ U E 4.g.[.g./.[.{.{.{.{.a.i.i.y.| T z B W q.T.T.8...` ( J 7 H r.qXpXsXsX",
"7X8X8X8X8X8X8X0X2XD.E ;.w.n.m.h.9.I.I.I.I.P.6.6.7.8.5.[ T Q r.p.g.g.p././././.a.p.y.t.8.} U c E 5.T.^.T.7.{ T U J T [ qXwXgXgXaX",
"8X8X8X8X8X8X8X0X2X~.Q ;.e.n.h.f.I.I.I.I.I.P.P.6.y.y.y.t.| <.2.h.g.f.u.i.g.a.i.u.t.0.7.| W U C { i.E.E.T.0._ b W j.eXiXhXdXfXfX4X",
"8X8X8X8X8X8X8X0X2X#X<.=.e.9.9.9.6.9.I.P.q.q.q.6.i.T.a.y.<.Q <.u.a.p.u.u.p.t.t.2.| 7.| } W E W 2.E.^.E.^.q.<.t ;.eXpXhXgXfX8X7X5X",
"8X8X8X8X8X8X8X0XaXwX] -.-.*.U C N U / { 1.} ..8.U.T.E.t.Q U Q 2.u.u.u.u.u.t.2.| | | 1.| W -.0.f.^.E.R.^.f.3.u I |.hXjXgX8X8XK.7X",
"8X8X8X8X8X8X8X0XfXwX2.=.-.U b t 7 t k b U / } ..+.E.T.t.Q E E 2.t.u.r.t.t.2.2.<.} } | { -.2.i./.^.^.^.^.h.3.c u u.dXFXgX8X5XJ.7X",
"8X8X8X8X8X8X8X8XdXwX4.=.-.W U b t w 1 7 z J ) ..8.y.T.0.[ E W 2.r.2.0.0.r.2.| [ [ [ _ _ <.2.i.E.W.(.^.^.f.9.c @ &.nXSXjX6XJ.5X8X",
"8X8X8X8X8X8XfXgXhXiX,.=.<.-._ U b c t g J ~ ] o.8.y.7.2.E U E <.t.t.t.r.2.2.| _ [ T T W 1.t.i.T.^.^.^.^.h.4.c   u vXSXFXjX7X8X8X",
"8X8X8X8XfXgXjXhXNXcX,.=.;.3.3.<.*.U U U _ ] 5.t.y.y.t.<.E B I <.0.t.t.0.| } [ [ _ T W _ 2.u.y.T.W.^.^.^.h.3.c   q B.NXFXFXjXfX8X",
"8X8X8X8XgXjXAXmXcXN.>.;.w.w.e.e.4.3.<.1.| 0.7.y.i.y.u.2.R B P <.2.2.| 2.| [ T T T W W _ 5.8.y.T.E.E.^.^.q.<.c   q ,.bXGXJXFXkXfX",
"8X8XgXjXAXAXbXxXlXl.:.;.w.d.d.d.0.4.4.4.0.i.f./.a.a.g.4.Q V I 2.2.2.| [ [ T T T T T [ | 8.8.U.U.E.^.^.i.9._ j . $ :.tXCXKXKXHXkX",
"fXgXjXAXNXvXzXlXl.:.@.;.d.w.e.h.d.0.0.f.f.g./././.a.h.3.I B I -.2.| [ [ _ T L T T T [ 1.7.y.8.i.T.T.f.q.9.#.5 . $ &.B.MXGXKXHXHX",
"AXAXAXmXcXlXlXb.>.$.p &.w.d.4.u.u.u.4.u.a.g.g.E.E.f.u.;.I a P Q { Q T ( T L J J L ( { 2.y.8.q.i.q.q.q.0.<.Z 2 . $ p n.MXGXJXKXKX",
"nXbXvXzXv.lXlXb.%.i q I ;.3.3.3.4.u.u.u.i.i.E.p.E.a.2.*.B a a E W T T T T L J L T { } 8.0.q.q.8.q.q.6.2./ l = . $ i n.MXDXDXJXKX",
"zXzXlXv.v.lXv.v.%.+ @ a E ;.<.<.2.t.t.t.u.y.p.U.a.i.| R P a P U T T T T T L T ( { } 0.8.q.q.q.q.q.8.5.` Z j % . $ @.B.VXZXBXDXJX",
"N.b.z.z.v.b.z.k.@.+ + , a P Q { | 7.t.o.7.8.y.y.y.t.{ E P P P E J L T ~ L ! ( ` } o.7.y.q.q.5.7.q.7.1./ N 5 # . # $.B.VXZXbXDXJX",
"v.z.k.z.v.b.l.%.i + + . # 8 H E Q [ o.|  .| | o.| | [ T W J T L T L ~ ( ( ~ [ ] ] 5.8.y.8.q.7.q.8.7.` / x > O   $ $.B.DXVXMXDXDX",
"k.k.k.z.v.v.>.p 0 9 + . . # , y z J J T T ~ T ~ ~ T J J n K L ~ ]  .] ] ] ] ] ] ..o.8.8.8.q.q.q.7.5.` / l & o . # i n.MXCXMXBXBX",
"k.k.k.v.v.z.%.0 9 9 + .     . O 2 7 g g g J h K K J n h g n ! ~ ]  . . . . .] ] X.O.8.8.8.q.7.8.5.5.` Z j & o @ $ 9 ,.vXVXBXbXxX",
"%.:.k.z.v.>.@.@ + + $ + . . X O % = 3 3 s s g h M h M n h h K ~ )  . . . . . . .5.X.L.L.q.8.5.5.5.` / Z e & # @ $ 9 $.B.MXDXBXxX",
"%.:.k.l.l.>.a @ @ $ * # o X o % % ; ; ; 3 d f M ! M M M h n K K ~ ] ) ] ] ] ]  .o.X.o.5.5.5.1.1.} ` Y l 5 * & @ $ 9 @.,.vXDXxXb.",
"%.k.k.k.,.>.I $ # , , % o o O % ; ; ; 3 s f h M ! ! ! K M K h K L ~ ~ ] ] ) ] ] ] ....5.5.1.` ` _ / Z j : , O o + 9 p &.tXCXvXc.",
"5X8X8X8X8X8X8X8X8X8X8X8X8X8X8X8X8X8X8X8X7X4X8X8X8X8X8X8X8X8X8X8X8X8X8X8X8X8X8X8X8X8XK.7X8X8X8X8X8X8X8X8X8X8X8X8X8X8X8X8X8X8X8X5X",
"8X8X8X8X8X8X8X8X8X8X8X8X8X8X8X8X8X8X8X8X5X7X8X8X8X8X8X8X8X8X8X8X8X8X8X8X8X8X8X8X8X8X4X8X8X8X8X8X8X8X8X8X8X8X8X8X8X8X8X8X8X8X8X4X"
};
