/* XPM */
static char *col1[] = {
/* columns rows colors chars-per-pixel */
"64 64 256 2 ",
"   c #390B0E",
".  c #290615",
"X  c #1E0724",
"o  c #311333",
"O  c #372838",
"+  c #4C160E",
"@  c #6C1311",
"#  c #4A2302",
"$  c #572A05",
"%  c #5C3204",
"&  c #5E340A",
"*  c #572D17",
"=  c #663705",
"-  c #63350B",
";  c #653A0D",
":  c #6A3C0C",
">  c #663B15",
",  c #6A3D13",
"<  c #703014",
"1  c #4C1131",
"2  c #6D142C",
"3  c #522E34",
"4  c #71302F",
"5  c #73430C",
"6  c #72460D",
"7  c #7A490A",
"8  c #6C4114",
"9  c #6E431B",
"0  c #684619",
"q  c #764817",
"w  c #6A4525",
"e  c #764B23",
"r  c #774A25",
"t  c #7B5328",
"y  c #624F32",
"u  c #794F36",
"i  c #361846",
"p  c #350E51",
"a  c #1F245E",
"s  c #36274F",
"d  c #370F6B",
"f  c #342C70",
"g  c #342679",
"h  c #4C114A",
"j  c #68104D",
"k  c #513050",
"l  c #6A2F4B",
"z  c #4C366D",
"x  c #5F2372",
"c  c #365072",
"v  c #78504D",
"b  c #56487D",
"n  c #70516F",
"m  c #6C6960",
"M  c #901619",
"N  c #A81914",
"B  c #8A331C",
"V  c #B02C13",
"C  c #AE1025",
"Z  c #913431",
"A  c #AD302B",
"S  c #C82C1A",
"D  c #865109",
"F  c #88540B",
"G  c #844D16",
"H  c #875717",
"J  c #935E19",
"K  c #B94314",
"L  c #96640A",
"P  c #97661B",
"I  c #A77315",
"U  c #845827",
"Y  c #904C30",
"T  c #845C37",
"R  c #B04F33",
"E  c #9A6926",
"W  c #886539",
"Q  c #976B31",
"!  c #A26E26",
"~  c #A77729",
"^  c #B16738",
"/  c #AA7935",
"(  c #B47C36",
")  c #D14A13",
"_  c #DF581A",
"`  c #CA552F",
"'  c #D16E36",
"]  c #E8762F",
"[  c #F77522",
"{  c #F77A23",
"}  c #8A1E4E",
"|  c #8D324C",
" . c #A6335F",
".. c #92366B",
"X. c #C73F40",
"o. c #8F504C",
"O. c #B0534C",
"+. c #8D6B45",
"@. c #946C4B",
"#. c #967958",
"$. c #AF724F",
"%. c #925773",
"&. c #AD5272",
"*. c #977568",
"=. c #B36F73",
"-. c #D0514A",
";. c #CD7052",
":. c #E37455",
">. c #C7556E",
",. c #D07472",
"<. c #B4831B",
"1. c #B88728",
"2. c #A88537",
"3. c #B78739",
"4. c #C58C1E",
"5. c #C58636",
"6. c #D09136",
"7. c #F88426",
"8. c #F98828",
"9. c #FA932B",
"0. c #FB982D",
"q. c #E69335",
"w. c #EFA538",
"e. c #FCA330",
"r. c #FEAE34",
"t. c #F9AA3A",
"y. c #AF8F4F",
"u. c #BC8B46",
"i. c #BC9347",
"p. c #B78956",
"a. c #BCA25A",
"s. c #9C8566",
"d. c #B0896C",
"f. c #A99377",
"g. c #C48B4A",
"h. c #C2944C",
"j. c #C49849",
"k. c #C78956",
"l. c #D78D53",
"z. c #C49453",
"x. c #C89854",
"c. c #C6995B",
"v. c #C99C5C",
"b. c #E6934C",
"n. c #CAA355",
"m. c #CCA25D",
"M. c #D4AD53",
"N. c #EAA547",
"B. c #F8AC46",
"V. c #FEBE42",
"C. c #E8A758",
"Z. c #F0B458",
"A. c #C78A68",
"S. c #D88666",
"D. c #C89A65",
"F. c #D49274",
"G. c #E59670",
"H. c #CDA263",
"J. c #CDA36B",
"K. c #D1A564",
"L. c #D2A66B",
"P. c #D4AA6B",
"I. c #D8AB69",
"U. c #D2B16A",
"Y. c #CCA473",
"T. c #D5AC73",
"R. c #D9AE74",
"E. c #D6A979",
"W. c #DBB275",
"Q. c #D8B57B",
"!. c #DCB37C",
"~. c #E4AA67",
"^. c #EAB26B",
"/. c #E6A979",
"(. c #E6B778",
"). c #F0D158",
"_. c #F3DD5E",
"`. c #FEDB59",
"'. c #E2CC64",
"]. c #ECD266",
"[. c #FCE561",
"{. c #FEE761",
"}. c #352292",
"|. c #5B2990",
" X c #70328C",
".X c #510DA9",
"XX c #5C22A4",
"oX c #7335AC",
"OX c #2C499B",
"+X c #565290",
"@X c #764E91",
"#X c #7554B4",
"$X c #5A60A2",
"%X c #7170AD",
"&X c #6E3CC5",
"*X c #625ACD",
"=X c #8B398A",
"-X c #972994",
";X c #905092",
":X c #AB588D",
">X c #93708D",
",X c #B1718F",
"<X c #8D56AF",
"1X c #B44EA8",
"2X c #946DAB",
"3X c #B270B0",
"4X c #C75892",
"5X c #CF728F",
"6X c #CD7DAC",
"7X c #8C53CA",
"8X c #A459CB",
"9X c #9173CA",
"0X c #AD6DCD",
"qX c #B475C9",
"wX c #A96EE1",
"eX c #738C9E",
"rX c #6F8BD4",
"tX c #75BCD6",
"yX c #948690",
"uX c #B39689",
"iX c #8BB59D",
"pX c #B6A691",
"aX c #9694AE",
"sX c #AF8FB0",
"dX c #93ACB1",
"fX c #B0AAB0",
"gX c #D79584",
"hX c #D28C92",
"jX c #E39894",
"kX c #CEA98C",
"lX c #D6AA89",
"zX c #DCB482",
"xX c #DCBA86",
"cX c #DDBC96",
"vX c #E9A98C",
"bX c #E5B884",
"nX c #E3BD8C",
"mX c #E4BC93",
"MX c #CD8FAD",
"NX c #E193AF",
"BX c #CEADB2",
"VX c #EAB0AD",
"CX c #A0D2BF",
"ZX c #DEC29B",
"AX c #E5C28B",
"SX c #E4C194",
"DX c #E5C49A",
"FX c #DEC3A3",
"GX c #9591D0",
"HX c #B38ACE",
"JX c #A1ABD2",
"KX c #8E96E5",
"LX c #CA95CE",
"PX c #CCADCA",
"IX c #A6CDC7",
"UX c #C3C1D0",
/* pixels */
"r.r.r.r.r.r.r.r.r.r.r.r.r.r.r.r.r.r.r.w.' 3.u.g.g.l.z.l.g.g.5.5.5.5.( ( 3.g.Y.zXxXzX/.^.^.Z.B.r.r.r.r.r.r.r.r.r.r.r.r.r.r.r.e.8.",
"r.r.r.r.r.r.r.r.r.r.r.r.r.r.r.r.r.d.u t 0 & - 5 H ! ~ H # # + # $ & B D J ~ j.L.ZXZXcXFXFXDXcXt.r.r.r.r.r.r.r.r.r.r.r.r.r.r.7.e.",
"r.r.r.r.r.r.r.r.r.r.r.r.r.r.r.r.r.N.W e 0 & & 5 F I 1.6.u.w + # $ = D D L I 5.m.ZXZXZXZXDXDXnXr.r.r.r.r.r.r.r.r.r.r.r.r.r.e.[ e.",
"r.r.r.r.r.r.r.r.r.r.r.r.r.r.r.r.r.N.+.r > & % = 7 L 1.3.K.p.  # $ : J L L I 1.x.xXZXxXZXmXnX(.t.r.r.r.r.r.r.r.r.r.r.r.r.e.[ 7.r.",
"r.r.r.r.r.r.r.r.r.r.r.r.r.r.r.r.r.q.+.e - % = 5 D L <.6.H.J.+ $ % 7 I I L I I 6.Y.DXSXAXAXQ.(.r.r.r.r.r.r.r.r.r.r.r.r.e.[ 7.r.r.",
"r.r.r.r.r.r.r.r.r.r.r.r.r.r.r.r.8.] W 9 & = 5 7 F I <.6.m.Y.# $ $ F I <.<.<.<.1.n.cXSXQ.Q.Q.^.r.r.r.r.r.r.r.r.r.r.r.e.{ 8.r.r.r.",
"r.r.r.r.r.r.r.r.r.r.r.r.r.e.0.{ { q.+., & - 8 7 7 L 4.a.K./.> $ = F I 4.5.5.3.1.j.zXDXQ.W.Q.C.r.r.r.r.r.r.r.r.r.e.8.[ { r.r.r.r.",
"r.r.r.r.r.r.r.r.r.r.r.r.e.{ [ [ e.q.T > > * 4 v *.N O.%X@X;X-.S.G.l.l.b.j.;.,.uXd.Y.ZXAXW.U.C.r.r.r.r.r.r.r.r.0.[ [ 7.r.r.r.r.r.",
"r.r.r.r.r.r.r.r.r.e.e.7.[ 7.9.r.r.1.W 4 h h n *. .` <XeX*X@XO.:X&.,.S.~.~.^.G.:.,.:.Y.lX!.R.N.r.r.r.r.r.e.e.[ [ 8.e.r.r.r.r.r.r.",
"r.r.r.r.r.r.r.9.8.{ [ [ e.e.r.r.r.$.4 j 2 Z o.O.R O.>X%.<X,X,XsXsXsX3X3X6XjXlX/.vX^.C.gXlXR.t.r.r.r.8.7.[ [ 7.e.r.r.r.r.r.r.r.r.",
"r.r.r.r.e.{ [ [ { 8.r.e.r.r.V.`.zX@.Z Z Y A R Z O.O.,.:.S.A.,XaXrXJXHXLXqXqXHXHX5X6XNXVXjXzXN.e.r.7.[ 7.7.7.r.r.r.r.r.r.r.r.r.r.",
"r.r.e.8.[ [ [ 0.e.r.).`.`.`.[.U.%.l } l 2 } M C C  .&.:X3XsX3X3X9X9X3XHXHXqX3XF.:.l.,.6XhXG.d.B.7.[ e.r.r.r.r.r.r.r.r.r.r.r.r.r.",
"r.e.{ [ [ 7.9.r.r.t.{.{.[.[.a.k l z @X;X>X@X X Xx } C >.4X8X1X4X;X7X9XGX6X;.gX5XMXqXhXfXjXjXG.F.B.`.{.{.`.r.r.r.r.r.r.r.r.r.r.r.",
"r.8.[ [ 7.r.r.r.r.t.{.{.[.3.4 n +X+X#X#X#X#X<X<X<X.. .S K -.&.:X X9XqX-.A.MXMX3XqX0X4XPXmXhX] pXBX{.{.{.`.r.r.r.r.r.r.r.r.r.r.r.",
"e.[ [ e.r.r.r.r.r.r.{.{.].#.n z |.|. X=X .O.` ` -.-.-.C A ' R  .2X,X^ ,.,XuX2X9XHXuX4XBXlXjX[ MXJXhX{.{.`.r.r.r.r.r.r.r.r.r.r.r.",
"e.[ 7.r.r.r.r.r.r.r.{._.@.| 4 o.| A A A  .=X;X>X,XhXhX=.o.&.:.;.=.$.^ o.eX%X=.] ' ' :.G.G.G.:.F.HXMXF.{.`.).r.r.r.r.r.r.r.r.r.r.",
"[ [ r.r.r.r.r.r.r.r.{.y.| 4 2 j k x n ;X*.=.c.E.gXgXlXlXS.R k.g.=.$.v b o.' ` S.G.^.C.^.^.bX^.^.^.NX5X^.[.V.e.r.r.r.r.r.r.r.r.r.",
"[ 9.r.r.r.r.r.r.r.r.].*.o.o.l u r Z Y O.=.=.:X,XuXaXfXsX2X2XO.G.$.k z } A -.F.E./.G.5X,.5X5X,.jXE.bXjXhX_.V.r.r.r.r.r.r.r.r.r.r.",
"{ e.r.r.r.r.r.r.r.r.f.b h h d d d p j j  XaXeXyX%X>X2X1X:X2X:Xn n s 2 N O.A.F.>.1X4X:.-.MXlXmXNX5XhXLX5X].).r.r.r.r.r.r.r.r.r.r.",
"8.r.r.r.r.r.r.r.r.C.m n OX}.f f d d }.b eX%.XXXX*X*XrX8X0X<X;X2Xs 2 M Y ;.&...8X<Xq._ ,XMX(.vXqXqXNXNXBXBXZ.r.r.r.r.r.r.r.r.r.9.",
"r.r.r.r.r.r.r.r.r.$.v k 3 |.OXOX}.g g +Xx .X*XrXyXsX5X6X0XwXwX<Xk @ B A j %X#X&X;.) >.sXZ.mX5XHXLXPXPXLXqXgXr.r.r.r.r.r.r.r.r.8.",
"r.r.r.r.r.r.r.r.6.Y v 3 k 3 j f g }.z |.OX*X*XXX;X:X;.,.hXMXA.4X4 @ @ h }.+X&X%._ -.HXv.DX5XqXPXBXHXwXLXLXMXt.r.r.r.r.r.r.r.e.{ ",
"r.r.r.r.r.r.r.r.@.2 l c b b d s s d }.}.XXoX+X#X%X*X*X:X,.:.jX-.@ + 3 p c XX X) S 3XsXP.mX4XUXfXqXJXLXMXG.,.Z.r.r.r.r.r.r.r.0.e.",
"r.r.r.r.r.r.r.N.*.< 1 h s @X:XZ 2 4 B Z | ..|.&X&X<X2X9XrX3XS.F.3 k o a f }.R S  .GXh.DX,.PXfX1XKXHXLXb.,.VXvXr.r.r.r.r.r.r.[ e.",
"r.r.r.r.r.r.t.o.*.Y < p O s 3 &.>.O.Z Z N V K ` O.=X#X<X3XGXKX,X1 1 p a d l K C 9XuXT.jXMXIX3XKXHXqXhXG.jXVXNXB.r.r.r.r.r.7.[ e.",
"r.r.r.r.r.r.3.y o.o.B @ p i s i >XhXk.u.;.A.=.R N ) ` =.1XqXsXGXo o a i p B N ;X2Xh.lX,XIX,XwXtXNXNXjXG.S./.VX^.r.r.r.r.7.[ e.r.",
"r.r.r.t.q.I 1 *.n Y Y < @ h p i i k d.kXD.u.u.A.A.;.A ) [ ,.sXsXX i s d < M } #Xp.E.:XfXdX1XKXBXG.S.6XLXNXPXHXBXr.r.r.7.{ e.r.r.",
"r.w.' y 3 * v f.m 4 Y U < $ l d p s p o.jXBXjXA.( 3.D.S.:._ b.=.X s p 1 @ j XX@.D.>.;XCX=.wXtX,.6XLXPXPXPXLXLXBXB.9.7.[ e.r.r.r.",
"1.3 t 3.@.< d.s.+.y Y r G < @ |  X|.s s 1 =.jXuX5Xk.k.6.I.vX:.` X 1 1 @ @ }.v p.O.-X2XiX-XwXKX0XLXBXLXLXMXlXcXcXb.[ { r.r.r.r.r.",
"r.w.r.r.w.( kX*.+.o.4 Y G Y ^ Z Z =X&X<Xk i 4 ,X3X1X>.F.I.Z.AX$.. 1 2 @ i 3 Y o.} ..sXyX1X7XHXNXLXLXhXb.Z.AXmXmXG.9.e.r.r.r.r.r.",
"r.r.r.r.t.~.uXs.@.W u , O.@.H ^ R A Z =X8X:Xc k | ;X-X:X,.vX].y.. @ @ h 4 < 4 h  X.XsX%X<XsXHXHXhXb.q.vXSXDXDXAXT.e.r.r.r.r.r.r.",
"r.r.r.r.r.uXuXs.@.v t w < O.p./ ^ ;.-.R | <X2X9X-X4 m dXsX,.jX;.  @ 1 4 4 1 d }.}.|.@X>X5X0X3X;.b.~.bXmXDXDXDXAXQ.l.r.r.r.r.r.r.",
"r.r.e.e.:.pXf.#.+.+.t e w < R A.h.;.l.l.] $. X..o.iXdXyXJ.VX4Xo.. + 4 B 1 p d p 3 n *.%.7X:X6.b.vXnXnXmXSXDXDXSXxXD.r.r.r.r.r.r.",
"r.r.7.[ l.pXf.#.+.u r e e w w < p.!.5.n.E.:.>.d.yXyX>XJ.PX5X_ Z . 1 * h p h O k n +X@XoX%.6.H.R.zXnXxXnXmXmXSXAXxXQ.r.r.r.r.r.r.",
"r.8.[ [ F.pXf.#.+.u u 4 r U E Q Q O.E.~.b.W.S.$.hXp.D.3X>.) q.4     1 i O O 3 k g z |.o.5.c.L.T.!.!.xXxXxXmXSXAXxXxXB.r.r.r.r.r.",
"e.{ [ 0.kXpXs.#.u u U , r r U ^ $.p.p.p.I.M.M.S.K O.=.-._ 7.d.o .   o O 3 h 1 o s k Y ! 3.z.D.L.T.E.!.zXxXnXxXmXAXZXZ.r.r.r.r.r.",
"e.[ { e.kXf.s.+.W t t e r r H Q / p.D.D.D.p.~ 5.L.R C _ q.gXyXo X X 1 3 1 + 3 O * < G ! ( h.c.H.L.T.!.Q.Q.xXxXAXAXnX^.r.r.r.r.r.",
"7.{ e.r.pXf.#.+.u t e w r G H Q / y.c.D.Y.T.k., U d.;.` 2XsX>X+ .   + + y y w & & - 7 P ( i.x.n.H.K.P.P.T.zXnXAXAXnXbXr.r.r.r.r.",
"[ 7.r.B.pXf.#.W T r w 9 9 q G E / 3.x.D.J.L.H.@.% % 4 K =.JXn     * 4 y 0 - & - - = 7 P ( i.j.n.m.m.K.P.T.!.xXnXmXAX(.r.r.r.r.r.",
"[ e.r.^.pXs.@.T T r w 9 9 B G J / $.x.D.J.P.P.H.H : 6 U J m m t e # * & & - - - - ; 7 P ~ 3.i.j.x.n.m.U.P.!.bXAXSXmXbXr.r.r.r.r.",
"8.r.r.^.pXs.+.T U r w w 9 q G J ! ( g.v.L.P.P.K.2.J t ! W W _.{.[.y.# & ; ; ; ; % = 7 P ~ 1.3.i.j.n.m.m.P.!.bXnXnXSXbXr.r.r.r.e.",
"e.r.r.I.pXs.+.T t e 9 , , q G J ! ( g.x.v.L.L.L.y.W 7 q W _.{.{.{.{.2.& ; 0 ; ; ; ; 6 L I 2.3.3.i.n.m.K.P.W.Q.xXmXmXnXr.r.r.r.8.",
"r.r.r.T.uXs.W T t q 9 , , G G J ! ( 3.z.c.H.L.H.a.0 6 a._.{.{.{.[.[.a.; ; ; ; ; ; ; 8 7 L P <.2.3.j.v.K.P.W.W.bXnXSXbXr.r.r.r.8.",
"r.r.r.lXf.s.+.U e e 9 , , , G J ! 3.u.h.D.H.L.T.2.% 2.{.[.{.{.{.[._.'.% % ; ; 0 ; % 6 6 7 H P I 3.j.m.K.I.W.!.zXbXAXbXr.r.r.e.0.",
"r.r.r.Y.f.s.W t e q 0 8 , 5 G J ! ( u.v.D.L.T.Y.y # i.{.{.{.{.{.[.{.'.# % % ; & % % ; = 6 7 P 2.3.j.M.U.P.P.W.!.bXAXbXr.r.r.[ e.",
"r.r.r.~.f.s.W t e q 8 8 : : F P ~ 3.h.v.K.P.J.u # # a.{.{.{.{.{.{.{._.0 & % ; & & & & ; 5 D P 1.3.j.m.K.P.R.R.!.xXnXbXr.r.9.[ e.",
"r.r.r.B.s.#.W U e 9 8 8 8 5 H P ~ 1.h.v.P.y.& # # # '.{.{.{.{.{.{.{._.y & & ; & & % & ; 7 P ! 2.i.j.n.H.P.P.W.!.!.AX/.r.0.[ 9.r.",
"r.r.r.r.y.#.W t q q , , , 5 7 J P / i.H.W.U.W $ # * ).{.{.{.{.{.{.{.[.t & & % & % % % 6 H P 2.2.i.j.v.m.H.P.P.!.!.bX^.9.[ 9.r.r.",
"r.r.r.r.h.@.W t 5 8 : 8 5 7 P E 3.x.I.(.(.AXY.& # u {.{.{.{.{.{.{.{.{.3.; & & % % % 8 H P 2.3.u.i.j.x.n.H.L.P.T.!.xXG.[ 9.r.r.r.",
"r.r.r.r.N.+.W t 9 8 : 0 U E ~ i.j.m.I.(.xX(.Y.& * a.{.{.{.{.{.{.{.{.{.M.0 8 = = % % 5 E 2.3.i.i.i.i.i.c.m.H.K.P.!.!.b.0.r.r.r.r.",
"r.r.r.r.r.@.W U q 8 : 8 U ! 1.u.x.K.W.(.(.Q.T.& 0 _.{.{.{.{.{.{.{.`.e.e.0 0 & % % = H ~ 3.j.h.h.h.i.i.c.c.m.H.P.W.zXN.r.r.r.r.r.",
"r.r.r.r.r.#.T U e 0 > 8 q E ~ 3.j.H.U.W.Q.(.J.& 2.{.{.{.{.{.`.e.e.r.)._.2.8 8 % % = F 2.i.j.v.x.c.z.z.c.v.v.v.P.W.Q.t.r.r.r.r.r.",
"r.r.r.r.r.p.W t e 9 , ; 5 H ~ 3.h.H.P.W.W.!.a.0 M.[.`.`.).{ 7.e.r.r.{.{.'.0 5 = = = H 2.i.v.v.v.c.c.c.c.c.v.v.P.R.!.r.r.r.r.r.r.",
"r.r.r.r.9.$.W t 9 , , > 5 7 P 3.h.K.T.W.W.!.p.U r.r.e.7.[ 9.r.r.r.r.{.{.[.2.8 ; ; = 7 ~ i.m.D.v.D.c.c.c.v.v.m.P.R.W.r.r.r.r.r.r.",
"r.r.0.[ [ k.+.q 9 , ; ; : D ! 1.h.m.P.W.(.!.@.6.{ { [ [ 9.r.r.r.r.r.r.r.r.q.9 5 : : t ~ h.v.v.c.v.v.v.v.D.H.H.P.R.T.r.r.r.r.r.r.",
"r.9.{ [ [ l.@.e 0 > - ; : H ! 2.h.H.P.W.(.!.Q ] { { 7.e.r.r.r.r.r.r.r.r.r.r.Q 8 8 : q ~ h.x.v.x.x.c.c.v.m.H.P.P.W.I.r.r.r.r.r.r.",
"t.7.[ 7.9.C.+.t 9 = - ; 8 H E 3.h.K.I.!.!.zX;.{ 7.9.r.r.r.r.r.r.r.r.r.r.r.r.6.t : : : P 3.i.g.i.i.h.x.v.m.K.P.I.W.~.r.r.r.r.r.r.",
"e.[ [ e.r.C.Q e , ; - : 7 P ~ u.z.m.T./.zXY.] [ 8.r.r.r.r.r.r.r.r.r.r.r.r.r.r.2.5 : : J / 3.3.2.3.i.h.x.m.L.R.!.zX~.r.r.r.r.r.r.",
"9.[ 9.r.r.N.+.e 8 ; ; 7 G E ( i.v.H.W.zXzXz.{ 7.r.r.r.r.r.r.r.r.r.r.r.r.r.r.r.w.U : : G E ~ P P / 3.h.x.m.P.T.E.zX~.r.r.r.r.r.r.",
"[ [ r.r.r.w.W t 9 ; : q P / 3.z.v.J.T.E.F.] [ e.r.r.r.r.r.r.r.r.r.r.r.r.r.r.r.r.w.q 5 q U q : 7 J 3.i.j.m.P.E.!.!.C.r.r.r.r.r.r.",
"[ e.r.r.r.N.W t , ; 8 H E ( u.p.D.J.E.lXp.8.8.r.r.r.r.r.r.r.r.r.r.r.r.r.r.r.r.r.r.q.F : , - - : 7 ~ u.i.m.P.T.Q.zXC.r.r.r.r.r.r.",
"7.e.r.r.t.N.u q , , 5 H Q 3.u.x.H.Y.E.!.i.8.e.r.r.r.r.r.r.r.r.r.r.r.r.r.r.r.r.r.r.r.q.D : - - - 5 J 3.h.v.P.W.Q.zXC.r.r.r.r.r.r.",
"9.r.r.r.r.C.T q , , q E / u.z.D.J.Y.lX!.k.8.r.r.r.r.r.r.r.r.r.r.r.r.r.r.r.r.r.r.r.r.[ 6., : ; ; = 7 ! i.m.P.T.zXzXZ.r.r.r.r.r.8.",
"r.r.r.r.e.C.T 9 : , U E / i.c.D.Y.E.zXlXC.e.r.r.r.r.r.r.r.r.r.r.r.r.r.r.r.r.r.r.r.r.7.w.Y : : : : : E u.H.P.R.!.bXC.r.r.r.r.r.8."
};
