/* XPM */
static char *col2[] = {
/* columns rows colors chars-per-pixel */
"64 64 256 2 ",
"   c #3B041B",
".  c #310C36",
"X  c #49070C",
"o  c #4A1E04",
"O  c #491A08",
"+  c #4F0B13",
"@  c #4D1816",
"#  c #571B1A",
"$  c #701618",
"%  c #4C2205",
"&  c #4C220A",
"*  c #552908",
"=  c #5B2C0B",
"-  c #5C3207",
";  c #5C330B",
":  c #4C2616",
">  c #5A2419",
",  c #5B3518",
"<  c #622D0C",
"1  c #6E3B07",
"2  c #64360B",
"3  c #6C3B0D",
"4  c #723A08",
"5  c #723D0B",
"6  c #682616",
"7  c #772615",
"8  c #653616",
"9  c #653A12",
"0  c #6C3C12",
"q  c #733F12",
"w  c #763A19",
"e  c #4F0F2A",
"r  c #6D0E2B",
"t  c #6A1D34",
"y  c #771C37",
"u  c #5A2926",
"i  c #532931",
"p  c #662625",
"a  c #6F312E",
"s  c #734206",
"d  c #75420C",
"f  c #7A440E",
"g  c #7B4A0D",
"h  c #6D4216",
"j  c #744213",
"k  c #7B4413",
"l  c #7D4B13",
"z  c #75431B",
"x  c #7A451C",
"c  c #774B1C",
"v  c #7C4B1C",
"b  c #7E5019",
"n  c #7B4925",
"m  c #7E5328",
"M  c #724B35",
"N  c #340D50",
"B  c #371F68",
"V  c #4F114C",
"C  c #681748",
"Z  c #5A2546",
"A  c #4F2754",
"S  c #712E4B",
"D  c #50166C",
"F  c #532C72",
"G  c #663171",
"H  c #744A4C",
"J  c #60596E",
"K  c #821718",
"L  c #8A3812",
"P  c #A82B1A",
"I  c #8C1834",
"U  c #90312F",
"Y  c #AC3937",
"T  c #C63421",
"R  c #8A4707",
"E  c #97540C",
"W  c #814413",
"Q  c #834B15",
"!  c #834D1A",
"~  c #894819",
"^  c #904E11",
"/  c #8B531B",
"(  c #88551A",
")  c #97581A",
"_  c #A45517",
"`  c #986217",
"'  c #A96D16",
"]  c #864B25",
"[  c #924B2B",
"{  c #885625",
"}  c #8D5A2C",
"|  c #935D23",
" . c #925A2A",
".. c #8A5A36",
"X. c #995737",
"o. c #AF5533",
"O. c #986528",
"+. c #8B6936",
"@. c #9A6935",
"#. c #A46C2B",
"$. c #A5742B",
"%. c #A87638",
"&. c #B07235",
"*. c #E75B10",
"=. c #CF4C33",
"-. c #E24F31",
";. c #D27038",
":. c #F77522",
">. c #F67A25",
",. c #E87434",
"<. c #8D324E",
"1. c #A5394B",
"2. c #933469",
"3. c #B03A67",
"4. c #CE3B61",
"5. c #8C4F4A",
"6. c #AC4E4D",
"7. c #956A47",
"8. c #976F50",
"9. c #A87745",
"0. c #AE734F",
"q. c #904C70",
"w. c #B35470",
"e. c #957869",
"r. c #B36F6F",
"t. c #C9574F",
"y. c #CE7154",
"u. c #E67A51",
"i. c #C5566E",
"p. c #D16C70",
"a. c #E37673",
"s. c #B8882C",
"d. c #B7843B",
"f. c #CF8D32",
"g. c #F88426",
"h. c #F98828",
"j. c #FA952C",
"k. c #E89935",
"l. c #ECA335",
"z. c #FCA331",
"x. c #FEAE34",
"c. c #F7A93A",
"v. c #FEB238",
"b. c #B88648",
"n. c #B38C4F",
"m. c #AC8456",
"M. c #B88757",
"N. c #BB8C53",
"B. c #BBA445",
"V. c #9B8067",
"C. c #AA8A68",
"Z. c #B58A6C",
"A. c #B89367",
"S. c #C5884A",
"D. c #D0904D",
"F. c #C69758",
"G. c #C3945C",
"H. c #D99957",
"J. c #EC934F",
"K. c #DCA35C",
"L. c #CEB052",
"P. c #F8AC43",
"I. c #FEBC43",
"U. c #EBA756",
"Y. c #C69965",
"T. c #CB9D6B",
"R. c #D1956E",
"E. c #EA8D6F",
"W. c #E99B79",
"Q. c #CDA268",
"!. c #D6A569",
"~. c #CEA375",
"^. c #D5AA74",
"/. c #D5A778",
"(. c #DAAE7C",
"). c #DBB27D",
"_. c #ECB072",
"`. c #DAC457",
"'. c #EBCD57",
"]. c #FADC5B",
"[. c #FBE35F",
"{. c #F4DB62",
"}. c #FEE761",
"|. c #FEE861",
" X c #581689",
".X c #4C2A8B",
"XX c #723594",
"oX c #6E2DA6",
"OX c #744F92",
"+X c #765BAB",
"@X c #704CC8",
"#X c #7368CF",
"$X c #9B3095",
"%X c #A436A4",
"&X c #905293",
"*X c #AE538E",
"=X c #966F92",
"-X c #B27194",
";X c #9252AC",
":X c #AF5BB0",
">X c #9074AE",
",X c #B272AF",
"<X c #C97488",
"1X c #D47493",
"2X c #E27A94",
"3X c #CD7BAC",
"4X c #9061CE",
"5X c #B273CE",
"6X c #C776C5",
"7X c #7A8BCD",
"8X c #B78891",
"9X c #8D96A8",
"0X c #B58AB6",
"qX c #B7A6B1",
"wX c #D38F90",
"eX c #E79986",
"rX c #E89493",
"tX c #D7AB81",
"yX c #D4AF8E",
"uX c #DDB382",
"iX c #DCB788",
"pX c #DCB58B",
"aX c #E6A987",
"sX c #E4B787",
"dX c #E2BA8B",
"fX c #EDAC92",
"gX c #E6B396",
"hX c #E3BD93",
"jX c #C986A8",
"kX c #D293AF",
"lX c #C985B7",
"zX c #D698B8",
"xX c #E397AF",
"cX c #D4AAB1",
"vX c #E8B0AD",
"bX c #E6A9B9",
"nX c #EEC088",
"mX c #E5C294",
"MX c #E5C59C",
"NX c #E9C69D",
"BX c #D3C1A0",
"VX c #E7C6A3",
"CX c #E9CAA5",
"ZX c #ECCCA9",
"AX c #EECAB2",
"SX c #B090CF",
"DX c #99A3DF",
"FX c #B2B3CE",
"GX c #CC91CD",
"HX c #E696C5",
"JX c #D7A8C6",
"KX c #D6ABD5",
"LX c #CFB0D2",
"PX c #E6AECA",
"IX c #CA99E4",
"UX c #D4C3D1",
/* pixels */
"x.x.x.x.x.x.x.x.x.x.x.x.x.x.x.x.x.x.x.x.,.k.l.l.l.c.c.l.l.l.l.l.k.f.f.f.s.&.' &.O.{ ..5.%.D.P.x.x.x.x.x.x.x.x.x.x.x.x.x.x.x.z.g.",
"x.x.x.x.x.x.x.x.x.x.x.x.x.x.x.x.x.x.k.&. .~ W ^ ' s.f.S.b.b.m % o - < < - * * * & & o O & : V.AXc.x.x.x.x.x.x.x.x.x.x.x.x.x.g.z.",
"x.x.x.x.x.x.x.x.x.x.x.x.x.x.x.x.k.&.) E E R L R ' ' s.f.D.L.Q.* o * < < = = * * & & & & % % e.hXx.x.x.x.x.x.x.x.x.x.x.x.x.z.:.z.",
"x.x.x.x.x.x.x.x.x.x.x.x.x.x.x.N.$._ E E R R R E ` ' $.s.f.H.Q.n o % < < = = * & & O & O o o 8.(.x.x.x.x.x.x.x.x.x.x.x.x.z.:.g.x.",
"x.x.x.x.x.x.x.x.x.x.x.x.x.x.F.b.$._ E E E R R E E ' ' s.f.f.!.+.% % ; = = = * & & & & & o & 8._.x.x.x.x.x.x.x.x.x.x.x.z.:.g.x.x.",
"x.x.x.x.x.x.x.x.x.x.x.x.x.x.N.n.$.` E E E R R E E ' ' &.F.Q.W.A.; % * < = = 6 & & & O & o o M _.x.x.x.x.x.x.x.x.x.x.z.:.g.x.x.x.",
"x.x.x.x.x.x.x.x.x.x.x.x.x.z.H.m.%._ E E R L ~ [  .P _ q.=X9X<Xa.wXwXR.0.o._ 7 * : & o o o o , !.x.x.x.x.x.x.x.x.z.g.:.g.x.x.x.x.",
"x.x.x.x.x.x.x.x.x.x.x.x.z.g.,.m.%.` E [ L K 5.5.6.P 6.;X+X#X*Xi.3X-XwXrXrXW.R.7.a e @ @ o o o G.x.x.x.x.x.x.x.j.:.:.g.x.x.x.x.x.",
"x.x.x.x.x.x.x.x.x.x.z.g.:.g.j.N.%.` ) U I P 6.t.4.T 3.*X-X:X8X-X0XqXSXqX,XjXbXfXR.U p + + O o 9.x.x.x.x.z.z.:.:.g.x.x.x.x.x.x.x.",
"x.x.x.x.x.x.x.j.h.:.:.:.z.x.x.F.9.o.U Y 6.t.y.t.3.3.3.i.<XjXjX3XSXSXDXSXGXGX3X0XzX,X*XS e X O { x.x.g.g.:.:.g.j.x.x.x.x.x.x.x.x.",
"x.x.x.x.z.g.:.:.:.h.x.x.x.x.I.Y.6.Y U P K K I I P I I Y <.w.1X,X3X0XSX3X3X2XxXxXbXPXbXcX-Xr.p M c.h.:.g.h.h.x.x.x.x.x.x.x.x.x.x.",
"x.x.z.g.:.:.:.j.x.x.I.].].].`.H a U U I <.2.<.<.I I <.1.t.T o.i.3X:XGXlXa.E.E.wXkXlXjXBXcXbXxXi.u.:.z.x.x.x.x.x.x.x.x.x.x.x.x.x.",
"x.z.:.:.:.g.j.x.v.v.|.|.}.L.M q.y I 1.I I S <.5.6.w.w.3.1.=.y.o.-XwXwX8XwXrXr.-X,X3X1XPXvXvXa.E.Z.L.|.}.].x.x.x.x.x.x.x.x.x.x.x.",
"x.g.:.:.g.x.x.x.x.v.|.|.L.y S i V C C C 2.&X=X,X,X>X:X3.1.t.y.y.R.W.wX>X:X*Xw.w.p.a.a.rXeXfXa.J.zXcXyX{.].x.x.x.x.x.x.x.x.x.x.x.",
"z.:.:.z.x.x.x.x.x.x.|.B.I Z Z D F F F XXoXoX@X4X,XSX:X:X$Xw.<XtX8XkX>X*Xy.;.o.y.R./.aXrXaXdXaXW.zXLXFXyX].v.x.x.x.x.x.x.x.x.x.x.",
"z.:.g.x.x.x.x.v.x.x.).S t Z G G G G XXXX+X@X@X;X*X1X3X,X5X;X2.q.-X=Xt.;.y.R.6.e.r.E.p.1X2XeXrXvXvXcXzXjXpXI.x.x.x.x.x.x.x.x.x.x.",
":.:.x.x.x.x.x.x.x.U.H S H G G S t y I 1.6.*X;X;X4X5X-XwX6X5X$Xq.1.=.;.E.R.X.q.;Xw.-.i.jXgXfXHX2XkXxXvXrXxX_.x.x.x.x.x.x.x.x.x.x.",
":.j.x.x.x.x.x.x.v.C.U a M S <.5.6.9.0.y.=.=.t.*X:X5X5X3XkX1X*X2.T ,.S.6.q.;X$X1.T w.jXaXfXrXlXGXxXHXbXxXPXbXv.x.x.x.x.x.x.x.x.x.",
":.z.x.x.x.x.x.x.).S y 5.q.<.<.U [ 0.r.0.D.R.y.=.y.3X5X5X3X2X4.6.f.&.U OX>XF y P 3.jX!.fXwX3XIXIXGXJXPXbXbXPXW.z.x.x.x.x.x.x.x.x.",
"h.x.x.x.x.x.x._.8XZ S G F F D A S 1.r.R.wXH.H.E.-.u.lXGX5X2Xp.1.5.<.$X@XF i K 2.,XY.fX<X,XIXUXKXKXKXKXPXUXLXkXP.x.x.x.x.x.x.x.j.",
"x.x.x.x.x.x.x.dX5.U a S G F D .X.XG 1.r.r.p.eX!._.u.,.1XGXSXr.Z =Xq.oXB V $ I &XC.gX<XlXLXcX3X5XIXIXIXIXIXKXKXaXx.x.x.x.x.x.x.h.",
"x.x.x.x.x.x.P.7.[ L L U K Z D D .XoX.X2.p.<Xw.rX_.sXu.a.6XSX&XJ 9XA B V $ r  Xe.wX8X0XLX0X4XDXIXIXGXHXxXHXHXHXGXv.x.x.x.x.x.z.>.",
"x.x.x.x.x.x.P.8.o.o.o._ L $ 7 y D  XoX@X$Xa.6X*XrX_.sXu.E.GX+X9XA N N e r D H Z.-X0XcX-X4XDXlXGXGXrXW.eXrXaXfXbX_.z.x.x.x.x.j.z.",
"x.x.x.x.x.v.v.@.[ 0.X.[ [ _ [ P P G oX4X;X%X$X1XjXfX_.dX,.lX9XJ . D C r V A 0.r.=XFX*X4XDXkXrXrXeXeXeXrXbXvXxXzXrXx.x.x.x.x.:.z.",
"x.x.x.x.v.v.b.n n 7 U [ X.[ ~ [ o.=.q.oX2.w.qXUXLX1XfX_.J.wXOX. N V r r Z 5.<.G 9X9X%X7XSX<X2X3XkXlXkXcXvXvXbXPXcXP.x.x.x.g.>.z.",
"x.x.x.x.P.Q...{ } n z w 7 ] X.L X.0.p.i.8XFXFXFXtXvXxXnX_.p.i . N r r C U t C +X9X$X@X4X,XGXIXKXKXJXJXJXcXPXJXcXbXaXx.x.g.:.z.x.",
"x.x.P.0.H i { } } ] x x w w ] r.&.S.y.r.cXcXtXpXPXPX2XrXsXo.. . e $ y U r V  X+X>X&X,XlXGXGXGX3XlXlXlXzXGXJXKXJXPXvXU.h.>.z.x.x.",
"c.| M M H M { } } ] n n z n z w r.G.H.y.6.W.vXxX2X-.-.2XdXU . . + y U t N N  XG =X-X0X5X,X<XR.R.H.H.!.aXdXhXVXvXVXvXgX>.x.x.x.x.",
"f.u p > a m  .} } ] n c n z z w 0 m d.!.y.u.2Xa.*.*.J.wXwX6   e r a t V D A A q.q.;X;Xp.y.S.R.!.(.dXNXCXCXVXCXZXZXAXvXc.x.x.x.x.",
"#.> # : z m +...{ m ] n x x z z ] ..@.&._.-.*.J.J.E.lX5Xw.#     p y V V A D B J oXw.y.D.!.tXaXgXgXmXgXCXCXCXZXZXZXZXhXU.x.x.x.x.",
"c.&.f.f.M { +.} { ! m c z z z z n ..9.M.0.W.-.E.eXGXFXFXa u X X $ V A Z A B B  Xq.9.S.Y././.pXsXhXnXNXCXCXCXZXZXZXZXVXdXx.x.x.x.",
"x.x.x.D.M } O.} } m v c z z z z z { 9.m.R.Y.y.p.FXcXcX-Xt p X   e i Z i V A S S 5.9.S.Y.R./.tXsXhXhXgXNXVXCXCXZXZXZXZXMXv.x.x.x.",
"x.x.c.8...} O.} } b n x z j h h j c } b.Y././.y.jXqXLX=Xe # X   e A t e i a , z } %.b.G.R.~.tXyXdXhXhXMXMXVXVXCXCXZXCXBX_.v.x.x.",
"x.x.u.e...} { } } { ! x z h j j h w } 9.A.~.tXyX8XDXSXq.+ p X   . t $ H u 8 8 h { @.b.G.T.~.~.tXpXpXhXhXMXMXVXCXCXCXCXCXnXv.x.x.",
"x.g.r.8.....} O.{ ! v k j j h j w j n @.M.R./.gXyX-X-X$ # p X   # $ M 8 0 0 0 q ! O.%.M.A.T.~./.tXiXpXhXhXMXMXCXCXCXMXCXMXI.x.x.",
"z.>.e.7.X.} | } { ! l d j j j j j j k { 9.N.T.(.aXtX7.a # p +   # a a w q q 0 0 j { %.b.G.Y.~.~.tXtXiXpXhXmXMXMXMXCXMXCXVXU.x.x.",
"z.,.e.H ..] { ( ( ! l j q j j j j j z x { 9.N.Y.~.Y.u i , 6 # X @ a < w w q q 3 d l O.$.b.G.Y.~./.tXiXiXpXmXmXMXMXNXNXNXMX_.v.v.",
"g.;.V.+.[ ] ! ( ( l l j q d j j z j j j j { %.9.m.n u i > 6 7 X + # 8 q j j q 5 3 g ( $.d.N.A.Q.~.).tXtXiXpXhXmXmXNXNXNXMXsXx.x.",
"g.;.V.H ] ~ ! Q Q f k q 5 j 5 j j j 5 q d q l v 0 8 > e # 6 a + # # # k k k k q h s g ` $.b.n.G.Q.Q./.).iXiXpXmXmXMXmXmXMXhXx.x.",
":.U.V.H n x Q Q R W q k j j 0 1 4 j j j j 3 3 2 < ; = : # 4 $ @ p @ @ 8 x x l j d s s g O.$.d.n.Y.Q.^.^.).uXiXmXmXmXmXmXmXpXv.x.",
"g.U.e.M ] ! W W f f f k q q j l v v c j d 2 2 2 - ; % o > 6 : @ p a > # 8 v v l d s s g g ' s.m.N.F.Q.!.).).iXnXdXmXmXmXmXiXl.z.",
"x.K.8.n w W W q f L f q k k z j j h 0 h 9 9 2 - - * % o @ @ i m n.u @ : O = v l l f g s g b O.s.b.F.L.Q.^.^.).).iXdXmXmXmXY.f.h.",
"x.K.7.] W q W L 5 W k L q q 0 0 0 0 h 0 0 9 2 - - * % o c M m |.}.{.{.].B.O 3 l b g g g g g b s.d.B.Q.Q.Q.^.^.).).nXdXmXiX+.f.h.",
"x.H.7.! L W f f f f f 5 q 0 0 0 3 0 0 8 9 9 9 - - * % : '.{.|.|.}.}.}.}.`.% 2 h g l Q g g s g ` $.b.N.Q.Q.L.^.^.).iXdXmXA.c f.j.",
"x.K.8.~ W L k f W f q 5 5 3 3 9 9 9 0 9 9 9 , ; * % % : {.}.}.}.}.}.}.}.'.* - s g g g l g g g R $.b.n.N.Q.Q.!.^.).uXdXA.} V.' z.",
"x.!.0.[ W f L W W 5 5 q 5 3 2 3 2 2 2 9 9 9 9 ; - * % : ].|.}.|.}.}.}.}.|., - s g g l l l d g Q ' d.N.F.F.Q.!.^.^.uXY...~.8.=.z.",
"x.K.e. .~ Q l W W l 5 q q 9 3 q w 0 0 9 9 9 , ; * % % : {.|.}.}.}.}.}.}.|.+.2 1 s d l l g g g g ` %.b.B.F.L.Q.~.!.m.z Y.sXn ' v.",
"v.K.m.X./ ~ ~ ~ ~ W W w q q d x { @.%.+.h 9 9 , ; * * , {.|.}.|.}.}.}.}.|.B.; 1 1 d j g g j g j b O.d.b.F.F.Y.Y.@.c Y.sXZ.7.s.v.",
"v.K.r.@./ / / ~ ~ ~ W x k j 4 f { %.N.Y.n.m h ; ; * * , ].}.}.}.|.|.|.|.[.l.2 2 1 d d d d g d g g | $.d.N.F.b.m +.Y.sXtX7.7.d.x.",
"x.K.0.@.) / / / / ~ Q x k 5 d d ( %.b.Y.^.A.h ; ; * % M [.}.}.|.|.|.].I.v.v.m ; 1 4 j j d d d d s ( | $.%.} b 9.T.(./...r.7.S.x.",
"x.H.C.@.| ~ / ) / / ! W k f d l | %.S.T.^.^.m h - - - m }.}.}.}.|.].x.x.I.[.B.s 2 1 d d d g d d s g g b { %.S.Y.~.~...0.M.m.Y.v.",
"x.H.C.@.| ) / | | ) ( Q k q k ! O.b.F.Q.^.(.7.9 - - , B.|.|.].x.z.x.I.].|.|.`.h 4 3 5 3 d s d d s s s b @.b.M.G.M.{ 7.tX8.C.Q.x.",
"x.H.C.@.| | | | | | / Q k q W / #.b.G.~.^.).m.; - ; , L.'.>.g.z.x.I.|.|.|.}.}.m 4 3 1 d d 4 d d d d d l | %.9.@.k 7.uX8.T.C.~.v.",
"z.P.C.@.| O.#. .O.O./ ~ k q W | @.b.Y.^.).iXA.h ; ; 8 S.:.j.x.x.x.v.|.|.|.|.}.d.d s s 5 3 s 4 s d d d d d b d l 0./.M.7.tXZ.(.x.",
"x.U.C.@.@.%.#.O.O.| / ! x k ( O.d.G.Q.^.).).).m 9 , m h.j.x.x.x.x.x.x.x.x.x.x.f.h d 5 3 s 1 1 s s d d d s s { 9.Y.9.m ~.9.iXtXx.",
"x.k.C.9.#.9.%.@.O./ ( W l W / %.N.Y.^.).).).uXQ.h h d.l.x.x.x.x.x.x.x.x.x.x.x.l.b j d s 4 1 1 1 s d 1 1 s v O.+.c m ~.tX8.iXyXx.",
"v.h.C.%.9.9.%.@.O./ ~ Q l l | &.F.Q.(.).sX).uXuX+.h l.x.x.x.x.x.x.x.x.x.x.x.x.x.@.v d 1 1 1 1 s 4 4 4 4 4 4 1 3 ..Q.(.0./.dXpXv.",
"z.,.C.8.9.n.9.%.O.| ( ! f Q O.%.F.~.(.).sX).uXaXm.O.x.x.x.x.x.x.x.x.x.x.x.x.x.x.f.! k s 4 1 1 4 4 5 4 4 4 1 { 9.A.^.T.m.hXdXdXc.",
"j.>.A.9.b.b.9.@.O.| / Q f ( O.d.G.^.).uX).sX).pXn.f.x.x.x.x.x.x.x.x.x.x.x.x.x.x.c.{ l d s 4 4 4 5 5 4 4 l O.b.n.Q.^.M.).dXdXpXP.",
">.>.C.m.0.M.%.%.O.| ( Q l / #.b.F.^.).).sX).).{.Y.v.x.x.x.x.x.x.x.x.x.x.x.x.x.x.x.d.c f 4 5 4 4 5 5 4 3 ! %.n.G.T.^.(.sXsXdXpXP.",
":.z.Z.C.C.m.9.@.O./ Q W Q | %.S.T.^.(.uX).nXiXiX!.x.x.x.x.x.x.x.x.x.x.x.x.x.x.x.x.l...v f 4 5 5 q 4 4 5 ! %.N.G.Q.^.).sXsXdXyXP.",
"g.c.Y.e.C.m.%.@.O.( Q W / #.d.F.Q.^.(.uXuX).iX^.v.v.x.x.x.x.x.x.x.x.x.x.x.x.x.x.x.x.M.{ Q L 5 5 q q 5 5 ! %.N.Y.Q.^.).sXdXdXpXP.",
"j.v.Q.C.C.m.%.@.| ( l x ) $.b.F.~.^.(.uXuXiXBXK.x.x.x.x.x.x.x.x.x.x.x.x.x.x.x.x.x.x.>.9.! d q 5 q q L 5 b %.N.Y.~.^.).iXdXhXtXh.",
"x.c.T.C.C.m.@.+.| ! l l ) %.b.G.Q.~.(.).uXiX~.c.x.x.x.x.x.x.x.x.x.x.x.x.x.x.x.x.x.x.h.c.@.l f q f f k 5 g #.N.Y.!.(.uXuXsXdXtXh."
};
