/* XPM */
static char *col3[] = {
/* columns rows colors chars-per-pixel */
"64 64 256 2 ",
"   c #370807",
".  c #3B1804",
"X  c #390B16",
"o  c #3F211A",
"O  c #1D0236",
"+  c #310A2D",
"@  c #342537",
"#  c #451905",
"$  c #491917",
"%  c #511110",
"&  c #6F0E14",
"*  c #4B2403",
"=  c #542A05",
"-  c #582C08",
";  c #5D3005",
":  c #5E320B",
">  c #5B2915",
",  c #543316",
"<  c #653705",
"1  c #6B3C05",
"2  c #62350B",
"3  c #65390C",
"4  c #6B3C0B",
"5  c #733E07",
"6  c #702613",
"7  c #6C3D12",
"8  c #683815",
"9  c #723D16",
"0  c #501032",
"q  c #6E0F30",
"w  c #562A2F",
"e  c #75302D",
"r  c #744206",
"t  c #74430A",
"y  c #71430C",
"u  c #7A450B",
"i  c #79490A",
"p  c #7C4A0C",
"a  c #6D4113",
"s  c #744414",
"d  c #764717",
"f  c #7C4C13",
"g  c #7A4B1B",
"h  c #7D5119",
"j  c #5C402D",
"k  c #764722",
"l  c #7B4D24",
"z  c #7E5227",
"x  c #71502C",
"c  c #34114F",
"v  c #382C56",
"b  c #360F6A",
"n  c #362F6A",
"m  c #4C1350",
"M  c #4F2E52",
"N  c #6C2051",
"B  c #4B1766",
"V  c #4D2E6E",
"C  c #6A2A6A",
"Z  c #3B447D",
"A  c #5E515E",
"S  c #7C5B68",
"D  c #775872",
"F  c #871A12",
"G  c #8E2513",
"H  c #A21726",
"J  c #8F332D",
"K  c #B0322E",
"L  c #CF2621",
"P  c #824E0B",
"I  c #89560D",
"U  c #95580B",
"Y  c #844C16",
"T  c #825214",
"R  c #83531B",
"E  c #8C5818",
"W  c #935B15",
"Q  c #9F620D",
"!  c #99661A",
"~  c #A46919",
"^  c #A86F1B",
"/  c #825523",
"(  c #875A29",
")  c #94532E",
"_  c #885C32",
"`  c #B24F31",
"'  c #8C612C",
"]  c #986727",
"[  c #8C6437",
"{  c #946938",
"}  c #A26A24",
"|  c #A97628",
" . c #B27E29",
".. c #AF7036",
"X. c #A97936",
"o. c #E74E12",
"O. c #D35134",
"+. c #E15B21",
"@. c #CB722D",
"#. c #F77522",
"$. c #F77A23",
"%. c #E87432",
"&. c #8E3254",
"*. c #A3295F",
"=. c #98524B",
"-. c #AF4E51",
";. c #926C44",
":. c #976C45",
">. c #997449",
",. c #916650",
"<. c #9A7855",
"1. c #B06E4C",
"2. c #A37E59",
"3. c #8E546D",
"4. c #B1546C",
"5. c #8A666F",
"6. c #B07172",
"7. c #D0534A",
"8. c #CA7150",
"9. c #E97853",
"0. c #D35862",
"q. c #D07071",
"w. c #E4746F",
"e. c #9C863A",
"r. c #B5832D",
"t. c #AE8F3E",
"y. c #B98638",
"u. c #C8871E",
"i. c #E5841A",
"p. c #D1852C",
"a. c #C28C39",
"s. c #C7933D",
"d. c #F88426",
"f. c #F98828",
"g. c #FA962C",
"h. c #E99033",
"j. c #EBA029",
"k. c #FDA431",
"l. c #FEAE34",
"z. c #F9AA3B",
"x. c #BB8945",
"c. c #AE8A52",
"v. c #BAA446",
"b. c #94846C",
"n. c #A78667",
"m. c #A98C77",
"M. c #B78D71",
"N. c #C59343",
"B. c #C3934B",
"V. c #CB9849",
"C. c #C69655",
"Z. c #CF9053",
"A. c #CC9C55",
"S. c #CC9D5A",
"D. c #E8924F",
"F. c #CDA853",
"G. c #D5A358",
"H. c #F5AB47",
"J. c #FEBB43",
"K. c #EBAA52",
"L. c #CB9B64",
"P. c #D79B66",
"I. c #D18F71",
"U. c #E7926E",
"Y. c #CEA166",
"T. c #D3A463",
"R. c #D6A86B",
"E. c #CFAF79",
"W. c #DAAC73",
"Q. c #D8AB77",
"!. c #DCB175",
"~. c #DDB37B",
"^. c #D8B578",
"/. c #ECAE6B",
"(. c #E9AA7A",
"). c #E5B67C",
"_. c #DAC455",
"`. c #EBCE58",
"'. c #FBDA59",
"]. c #FAE25F",
"[. c #EAC76C",
"{. c #FEE761",
"}. c #FEE861",
"|. c #391B97",
" X c #56208D",
".X c #71348B",
"XX c #512DAD",
"oX c #7134B2",
"OX c #5F42A5",
"+X c #6857A2",
"@X c #6A5DD2",
"#X c #962F95",
"$X c #924F8E",
"%X c #AF5591",
"&X c #8D6D8D",
"*X c #B66F91",
"=X c #8B50AF",
"-X c #AE55B2",
";X c #906EB5",
":X c #B070B0",
">X c #D2758F",
",X c #D86997",
"<X c #C775AE",
"1X c #8734C9",
"2X c #9455C4",
"3X c #AA52C8",
"4X c #916DCA",
"5X c #B473CB",
"6X c #5EAEA5",
"7X c #6A9BE3",
"8X c #B38C8C",
"9X c #B59B85",
"0X c #8EA49E",
"qX c #BBA28B",
"wX c #BBA998",
"eX c #9388B4",
"rX c #B38FAE",
"tX c #B5B0B0",
"yX c #D08D8F",
"uX c #D89897",
"iX c #E6978F",
"pX c #D1A98F",
"aX c #DDB685",
"sX c #EAA785",
"dX c #EEAF8F",
"fX c #E6B787",
"gX c #E3BB85",
"hX c #E4BC8B",
"jX c #E5BC95",
"kX c #D192AE",
"lX c #CA8AB6",
"zX c #E498A3",
"xX c #CEADB2",
"cX c #E7B2AC",
"vX c #8FC5BB",
"bX c #BFC7BD",
"nX c #E5C28C",
"mX c #E8C388",
"MX c #F2C38A",
"NX c #E5C393",
"BX c #E8C798",
"VX c #E9C99B",
"CX c #DFC6AE",
"ZX c #EBCAA3",
"AX c #E8C6B4",
"SX c #918BCE",
"DX c #B891CE",
"FX c #B6B0D0",
"GX c #A5A1E1",
"HX c #C992CD",
"JX c #CAAECD",
"KX c #D6A5C4",
"LX c #E4BBCF",
"PX c #CFA3E5",
"IX c #A1CCCD",
"UX c #D2C7CB",
/* pixels */
"l.l.l.l.l.l.l.l.l.l.l.l.l.l.l.l.l.l.l.l.$.k.l.l.l.l.l.l.z.K.Q.E.yXpXyX8X8X8X8X8X8X*X8Xm.8XM.M.yXM.M.q.c.L.Z.Z.K.l.l.l.l.l.l.k.d.",
"l.l.l.l.l.l.l.l.l.l.l.l.l.l.l.l.l.l.l.g.d.l.l.l.l.l.H.P.pX8X8X6.<.5.5.,.5.5.D D D S S 5.S 3.S 5.3.&X&XD D D 3.I.l.l.l.l.l.l.d.k.",
"l.l.l.l.l.l.l.l.l.l.l.l.l.l.l.l.l.l.l.d.f.l.l.l.l.1.b.wX8X:.Y P Y W ! P 2 = . .   = 3 9 8 8 > > , e D D 3.D D I.l.l.l.l.l.k.#.k.",
"l.l.l.l.l.l.l.l.l.l.l.l.l.l.l.l.l.l.d.#.k.l.l.l.l.y.8X6.W U U U U U | r.| y , * # < P ] } | { ' k 2 : w A S 5.6.l.l.l.l.k.$.d.k.",
"l.l.l.l.l.l.l.l.l.l.l.l.l.l.l.l.l.d.$.k.l.l.l.l.l.j.6.} ! U U U U Q ~  .a.s.e.2 % 5 I  .y.s.N.S.E.2.8 ; - w 3.M.l.l.l.k.$.d.l.l.",
"l.l.l.l.l.l.l.l.l.l.l.l.l.l.l.l.d.$.k.l.l.l.l.l.z.z.] } W U Q ~ ^ Q ^ a.s.V.T.z * 5 U r.s.s.V.S.Q.hXM.8 - : > B.l.l.k.$.d.k.l.l.",
"l.l.l.l.l.l.l.l.l.l.l.l.l.k.g.$.$.k.l.l.l.l.l.l.l.g.) } ` ` :.-.L ` 5.&X*XZ.T.{ ; P ! u.s.V.V.G.W.NXBXn.: > - y.k.d.$.d.l.l.l.l.",
"l.l.l.l.l.l.l.l.l.l.l.l.k.$.#.#.l.l.l.l.l.l.z.j.r.A C 3.&.$X%X-.0.*X;X;X;Xq.>XI.P.8.^ p.s.F.F.F.W.aXVXNX_ : - @.#.#.d.l.l.l.l.l.",
"l.l.l.l.l.l.l.l.l.k.k.d.#.d.g.l.l.l.l.l.h...3.-.6.*XrX>X6.-.-.*.K 0.<XlXlXrXDXrXrXuXyXU.V.P.I.R.E.hXVXVXE.2 ; +.d.k.l.l.l.l.l.l.",
"l.l.l.l.l.l.l.g.f.$.#.#.k.k.l.l.l.l.H.M..XoXoX-X:XDX<XDXkXyX4.K H O.O.%X<X:XDXrXkXHXDXDXiX/.sXkXpXaXVXVXBXc.: g.l.l.l.l.l.l.l.l.",
"l.l.l.l.k.$.#.#.$.f.l.k.l.l.l.{.}.^.+XC +X$X=X@X@X@XSXSX2X:X:X4.-.0.8.7.:XDXrXkXkXuXpXcXzXdXMXjXyXsXBXBXNXaXh l.l.l.l.l.l.l.l.l.",
"l.l.k.f.#.#.#.g.k.l.`.'.'.].}.`.1.=.J K O.-.$X2X3X@X;X8XtXSXSX3.*X8.Z.q.yXD.Z.yXkXyXq.,X,X,XzXzXjXD.).CXnXnXt.l.l.l.l.l.l.l.l.l.",
"l.k.$.#.#.d.g.l.l.l.{.{.}.].F.<.3.6.q.1.8.O.O.8.-X4X4X4Xq.yX%X$X6.1.U.I.uX*X=X2X=X$X>X>XyXlX<XyXUXjXfXuXjXnXA.l.l.l.l.l.l.l.l.l.",
"l.f.#.#.d.k.l.l.l.z.{.{.{.v.A C J =.*X6.B.Z.P.L %.%X4XDX4Xq.<X4XC *.6.&X=X@X#X&.J O.8.9.D.U.w.uXJX).cXw.iXdXD.l.l.l.l.l.l.l.l.l.",
"k.#.#.k.l.l.l.l.l.l.{.].x.m V Z V N &.8XrXP.G.(.O.+.>X5XSX:Xw.4.$X=X X+XC H G ` N.Z.P./.(.(.)./.(.(.zXO.K.kX/.l.l.l.l.l.l.l.l.l.",
"k.#.d.l.l.l.l.l.l.l.{.v.Y =.V V Z XX*.` <XyX~.K.(.O.%.:X5XeXyX7.7..XN H G J ` ,.-.%X#X4.0.q.>XiXsXdXdXD.H.DXVXH.l.l.l.l.l.l.l.l.",
"#.#.l.l.l.l.l.l.l.l.^.1.) G ) .X X+XOX3.8.>Xq.hXK.fX+.h.5X:XeX8.7.&.G J e N V .XoXoX6.9.o.7.>XHXzXyXiXdX(.KXxXuXH.l.l.l.l.l.l.l.",
"#.g.l.l.l.l.l.l.l.D.:.{ ..) G -. XOX+XXX4.yX%Xq.MXK.sX+.D.5X;X:X4.F & M m n V XX$X` o.L %XDXpXR.).MXcXiXdXdXxXDXzXl.l.l.l.l.l.l.",
"#.k.l.l.l.l.l.l.K.,.Y =.' } 1.K ` XX$X@XoX7.lX-XU.)./.sX#.>X-XeXN w M 0 n M |.&.` L *.4XrXF.).VXdX,X,X<X<XzXMX,XU./.l.l.l.l.l.l.",
"f.l.l.l.l.l.l.z.n._ ) 6 =.E ` ..O.=.oX+X@X$X,X3X#X(.[.[.9.D.-X3.+ M m v v b J G H 3.SXL.T.jXsX,X<XDXHXHXkXzXKXcXiXLXJ.l.l.l.l.g.",
"l.l.l.l.l.l.l.R.<.z z d J ,.Y ..1.@.#XoXoX#X*.0.*X*XjX/.(.#.*Xm @ m v V m & G H =X;Xx.^.jXw.%X5XDXFXJXJXJXuXKXkXiXcX(.l.l.l.l.d.",
"l.l.l.l.l.l.K.m.;._ z x 9 1.8.) 1.7.%X*.-.b.0XFXbXFXq.MX[.9.Y O + v m m e F &.oX$Xy.aXsX7.lXJXbXbXxXkXlXKXLXLXLXkXdXq.z.l.l.k.$.",
"l.l.l.l.l.l.qXn.;._ z k k 9 M.B.8.1.8.wXvXvXGXFXwXpXq.dX[.Q.% O c m m 6 & N OX3.C.pX8X%XtXvXtX*X-X5XGXGXGXPXDXHXLXLXJXpXl.l.g.k.",
"l.l.l.l.l.G.9Xb.;._ z x k 9 x I.a.L.` yXxXrXY.F.^.CXLX>XMX1.% O m m F F m |.,.C.yX4.*XvXvX4.-X5XGXGXFXHXHXHXPXPXPXPXPXkXH.l.#.k.",
"l.l.l.l.l.qXm.b.{ z z z k k 9 k V.V.I.K U.(.cXFXJXlX,X,XsX9   + 0 G q B N ) M.8.&.eXvXm.*.3X7X7XlX<XGXDXlXuXuXzXHXKXPXPXsX#.#.k.",
"l.l.l.l./.wXn.b.{ [ z z l k x 9 d u./.O.0.yXkX0.7.o.o.0.-.>   + F q B e ) ,.*. XeXvX&X#X1X7XIXJXxXKXPXzX(.U.9.w.9.U.zXKXzX#.k.l.",
"l.l.l.l.aX9Xn.<.>.[ [ x z / ( ( / 5 V.(.L O.w.O.o.#.d.d.0 %   & N N J ) J q N #XeXD #X1X7XvX8.%.9.%.9.D.U.zXcXKXiX(.dXsXiXz.l.l.",
"l.l.l.K.xXm.b.<.;.[ [ z z l ( ] ..[ Y sX7.o.h.K.j.g.G.=.% #   0 e ) e m m C  X&X6X*.1X1X7X5X:X:X<X5XlX<XiXiXU.dXcXzXkXkXuXH.l.l.",
"l.l.l.^.wXm.n.>.;.[ z z z z / ( { 1.1.:.U.+.D.I.iX:X@Xv . . X J J 0 c b b |.|.SX+X#X1X2X:X:XrXlXKXxXJXlXKXKXcXcXiXcXcXJXxXG.k.l.",
"l.l.l.wXwXm.<.<.<.z ' z l z h ( ] t.C.c.1.O.-XSXFXFXZ v X X $ e m b b b b C .X$X$X*X*X8XrXlXDXDXHXHXHXPXPXkXzXcXJXKXcXAXcXcXl.l.",
"l.l.K.xXqXm.e.;.;.[ z z l g g R ] X.x.C.S.` qXFXyXyX0 @ X . + B B M M A M A S 3.-.%X2X2X2X2X:X:X*X<X:XlXHX5XHXHXKXFXkXUXxXI.l.l.",
"l.l.W.xXm.n.b.{ [ z z x l k g h ( | x.x.P.R.1.tXvXA @ @ X X + M M M M M M +XA .X@XoX$X1.8.h.i.i.i.i.i.i.h.D.(.zXHXKXJXzXAXcXl.l.",
"l.l.pXwXm.n.e.{ [ _ l k g g g g T ] x.x.L.Q.R.eX@Xc + X   . @ M M V B n n V XXXX3.` @...@.8.8.I.P.I.aXaXjXVXZXZXAXAXZXVXVXNXl.l.",
"l.l.tXwXM.b.<.{ _ / l g d d g g R ] X.x.L.R.~.M.w $ % % % # w w q & c v M  XC ) | X.N.B.C.S.L.E.Q.aXaXhXNXZXZXZXZXZXZXZXVXVXl.l.",
"l.Z.xXqXm.c.>.[ _ z l d d d d Y T ! X.x.C.R.R._ 6 6 > % #   q & j M w , 8 k E } | X.1.B.C.I.L.E.Q.Q.aXaXjXNXBXZXZXZXZXZXVXVXJ.l.",
"k.P.wX9Xn.<.{ [ ( z k d d d d T T ' | X.L.L.c.4 = > o X % % 8 A S a a 3 8 Y T ! }  .y.N.B.C.L.L.Q.R.pXaXaXjXjXBXVXZXZXVXVXVX/.l.",
"k.yXwXM.n.<.{ [ ( h g d s f d f T ' | e.x.c.f 4 ; * X $ $ % j 9 f t 9 7 4 d Y W ] | y.x.x.B.C.L.L.Q.Q.Q.aXhXjXNXBXBXBXBXVXVX[.l.",
"$.pXqXm.n.>.{ ' / h f d s s f f T E } X.] d r 2 ; = $ $ & % > 9 f i r 5 4 u P W ! |  .X.y.x.C.S.L.L.Q.Q.aXaXhXhXnXBXBXBXVXVXNXl.",
"$.wXqXm.n.{ ' ' h h d f u f i h R E ] E r y 4 4 : = $ $ % % > u f p 5 5 4 5 P E ! ! }  .y.x.B.C.L.P.R.E.Q.aXgXhXNXNXBXBXBXBXnXl.",
"%.tXM.n.<.>.] ' / h s f f f h R R T f r r r 4 4 2 = $ % % % % d T P u 5 4 5 Y I W ! }  ... .x.V.A.L.P.R.Q.~.aXfXnXnXBXBXBXVXnXl.",
"h.wXm.n.>.{ ' E h h h f h h f f u t r r 4 t 4 2 ; . . . o o @ 8 P P i t r 5 p Y U W ! ^ | r.r.y.V.A.S.T.W.W.~.gXaXnXnXNXBXmXmXl.",
"z.wXm.<.>.{ ( R h f f f f f y r t r r r 1 < ; = . . . o v._._.v.T P p i r r 5 P P I W ! ^ r.r.t.N.C.S.T.R.W.W.~.^.gXnXnXBXBXnXf.",
"H.wXn.<.{ ' R T f f d y y y y y 4 4 4 4 1 ; = * . . . , `.}.}.}.F.P p p r r 1 r i Y W W ! ^ r.r.N.B.A.P.R.R.W.~.~.aXmXnXmXBXnXf.",
"H.qXn.>.{ ( R g f s s y y a y 4 1 1 < < ; = * # . . . , }.}.}.}.}.v.h p i r r r 5 Y Y W ! ^ | r.a.N.V.S.P.R.R./.^.mXmXnXBXnXnXg.",
"z.qXn.>.' / h f s y y y 4 y y 4 4 < < ; = = * # . . . , ].{.{.{.}.}.v.I I i r r 5 5 u P U ! | r.y.s.V.A.S.T.R.!.!.~.gXnXmXnXmXk.",
"H.qX<.;.' h f s y a a y 4 3 < 4 < : : - = = * * * . * , ].{.}.{.}.}.}.v.h p i i 5 5 5 i P U ! ^ r.a.N.A.S.G.T.R.!.~.aXaXmXmXnXk.",
"l.9X<.{ ( z d a a : 3 3 : : : 2 : : : - = = * * * . * e.}.}.{.}.}.}.}.`.i h h i u 5 5 r i P U ^ r.y.a.V.V.S.G.R.R.!.).[.mXnXgXl.",
"l.qX<.' ( z g y a 3 3 : 2 2 : : : : : ; = * * * * * = _.{.{.{.{.}.}.}.`.3 h h h P r r r 5 i I ! | r.y.N.V.F.G.G.R.!.^.aX^.gXmXl.",
"l.qX<.' R h g s a 3 : : : : : : : : : : - - = * * * x }.{.}.{.}.{.{.{.'.z d f T P p i r r r i ! ^ r.r.s.N.V.G.G.R.!.^.).mXgXnXl.",
"l.qX<.' z g g s a 8 a : y : : : : : : : : - = = = = v.{.{.{.{.{.{.{.'.`.e.t p p T f i t r r i I Q | r.y.N.V.A.G.R.R.^.^.mXmXnXl.",
"l.pX<.z g g d a a a : 3 y : 3 : : 2 2 2 : : - = = , `.{.}.{.{.{.{.'.l.l.s.r t T h f p t r r r I ! ^ r.r.y.V.V.F.F.R.^.).gXgXnXl.",
"l.E.n.[ l d s a a 3 a : : 3 : a 2 2 2 2 : ; - - , v.{.{.{.{.'.l.k.l.J.'.`.s t f f p i r r r r i I ^ ^ r.y.N.V.A.T.R.^.).gXnXnXl.",
"l.R.n.[ z d a 7 7 7 y u f p 1 4 2 2 2 2 2 ; ; - h `.'.'.`.$.d.k.k.`.{.{.].z r t i u i t r 1 r r i Q Q r.r.r.N.F.T.R.W.).gXnXnXl.",
"l.R.n.{ z d 7 7 9 s f E ! e.X.R 5 < 4 2 2 2 2 2 p.l.k.d.#.g.l.l.l.l.{.{.{.c.y y t t r t r t 1 r i p I r.r.t.x.A.T.W.^.~.hXnXNXl.",
"l.!.n.;./ d a 7 t g R ] | X.B.C.{ 4 < 3 3 3 < R $.#.#.#.g.l.l.l.l.l.l.l.l.C.t r r t t 1 1 1 1 1 i p Q Q r.r.s.F.T.W.^.gXhXnXNXl.",
"l.D.M.;./ f 7 4 f E ! ! |  .N.S.P.[ 9 7 4 4 4 @.$.$.d.k.l.l.l.l.l.l.l.l.z.K.g t t 5 5 1 1 1 1 1 i i I e.r.r.s.F.Y.R.W.aXhXhXjXl.",
"k.D.n.;./ d 4 9 f E ] ~ | y.B.S.R.L.d 5 8 7 } $.$.f.l.l.l.l.l.l.l.l.l.l.l.H.[ i r y 1 1 < 1 1 1 i i I !  .y.x.A.Y.R.^.gXfXhXNXl.",
"g.D.n.{ / g a 9 E } }  .r.B.C.G.R.Q.{ 9 a s +.#.f.l.l.l.l.l.l.l.l.l.l.l.l.l.c.d u 5 5 1 < < 1 1 i p I ! ^ y.y.B.S.R.W.~.hXjXjXl.",
"g.h.n.{ / d s s E ]  .y.y.B.S.T.W.~.1.s s E $.d.l.l.l.l.l.l.l.l.l.l.l.l.l.l.G.T u 5 5 < 1 < 1 5 p I W ! | r.y.V.S.R.^.aXaXNXjXl.",
"#.%.n.[ z g 9 d ] | x.x.V.A.T.W.!.^.c.s s @.#.k.l.l.l.l.l.l.l.l.l.l.l.l.l.l.l.>.f 5 5 1 1 1 t f E ! ] | r.r.x.B.S.R.W.gXhXaXjXl.",
"#.k.2.[ l s 9 T ] X.y.x.C.C.Y.Q.~.~.2.s g %.f.l.l.l.l.l.l.l.l.l.l.l.l.l.l.l.l.V.f u 5 5 4 < d T W ] e.r.y.y.v.B.S.R.Q.~.hXhXhXl.",
"$.z.2.' l s 4 T } r.x.B.v.L.Y.Q.Q.Q.( d ] f.k.l.l.l.l.l.l.l.l.l.l.l.l.l.l.l.l.z.( P u 1 4 4 r T ! | y.x.x.x.B.C.S.R.(.fXgXhXfXl.",
"g.l.c._ d a y T | y.x.B.C.L.Y.W.~.L.g g a.d.l.l.l.l.l.l.l.l.l.l.l.l.l.l.l.l.l.l.X.T u 5 1 1 4 f W | x.B.C.C.A.A.Y.W.~.fXfXfX).f.",
"l.l.<.( d 4 f ! X.y.x.C.C.Y.R.^.~.;.g g g.k.l.l.l.l.l.l.l.l.l.l.l.l.l.l.l.l.l.l.H.( u 5 4 4 4 f E | x.C.S.L.Y.L.T.W.~.gXfXfX).f."
};
