/* XPM */
static char *col4[] = {
/* columns rows colors chars-per-pixel */
"64 64 254 2 ",
"   c #3C1228",
".  c #390D32",
"X  c #500E11",
"o  c #711313",
"O  c #5A2A04",
"+  c #5B2C09",
"@  c #643305",
"#  c #6A3505",
"$  c #6C3905",
"%  c #6A3709",
"&  c #723B05",
"*  c #743D0B",
"=  c #7A3B0B",
"-  c #6E3014",
";  c #4F0E2D",
":  c #6F1230",
">  c #671B38",
",  c #56272F",
"<  c #722D30",
"1  c #7A440D",
"2  c #78460C",
"3  c #7A4612",
"4  c #7D4A14",
"5  c #774518",
"6  c #7C4A1B",
"7  c #7E5013",
"8  c #7A4627",
"9  c #7D4D22",
"0  c #7D5126",
"q  c #784A36",
"w  c #3A2C57",
"e  c #361362",
"r  c #353468",
"t  c #4F0D4D",
"y  c #6D1251",
"u  c #502950",
"i  c #6E2F51",
"p  c #4E136B",
"a  c #640E64",
"s  c #50356F",
"d  c #6A306B",
"f  c #595249",
"g  c #784F4B",
"h  c #494B6D",
"j  c #6D4C77",
"k  c #7E6964",
"l  c #891411",
"z  c #943116",
"x  c #991B26",
"c  c #8E312D",
"v  c #A33934",
"b  c #D71F1F",
"n  c #844911",
"m  c #824C14",
"M  c #884D16",
"N  c #814D1A",
"B  c #855215",
"V  c #8B5616",
"C  c #84521C",
"Z  c #8A531B",
"A  c #8C5A1B",
"S  c #915D1B",
"D  c #BE5A18",
"F  c #97631E",
"G  c #824E22",
"H  c #874428",
"J  c #845424",
"K  c #8A5523",
"L  c #8C5A25",
"P  c #855728",
"I  c #865A2C",
"U  c #8C5E2B",
"Y  c #925C25",
"T  c #955B28",
"R  c #934F33",
"E  c #AE5134",
"W  c #946123",
"Q  c #9A6827",
"!  c #9B652B",
"~  c #94682E",
"^  c #8E6436",
"/  c #966A37",
"(  c #A26D2A",
")  c #B66B2E",
"_  c #A6732C",
"`  c #A36A34",
"'  c #AA7632",
"]  c #A97738",
"[  c #B37E38",
"{  c #DC5A22",
"}  c #F77522",
"|  c #F77925",
" . c #EE7730",
".. c #882D49",
"X. c #992E62",
"o. c #94544D",
"O. c #A94E4F",
"+. c #996D45",
"@. c #9C7649",
"#. c #8F6854",
"$. c #9D7A55",
"%. c #A97845",
"&. c #B37A45",
"*. c #AF6B52",
"=. c #A17C56",
"-. c #8B4D6F",
";. c #AC4D6E",
":. c #8F6D6E",
">. c #B1706E",
",. c #C9594B",
"<. c #D16F50",
"1. c #DA5D62",
"2. c #CC7470",
"3. c #E97571",
"4. c #AD813D",
"5. c #B5843D",
"6. c #F38C18",
"7. c #D18F35",
"8. c #F88527",
"9. c #FB962C",
"0. c #EE9534",
"q. c #F1A734",
"w. c #FCA331",
"e. c #FEAE34",
"r. c #F5A53A",
"t. c #FCAD3B",
"y. c #B48543",
"u. c #B68648",
"i. c #BC8D4C",
"p. c #AC8651",
"a. c #B98A55",
"s. c #BD9258",
"d. c #9A8165",
"f. c #A88767",
"g. c #BC9463",
"h. c #AB8B73",
"j. c #B58872",
"k. c #AD9174",
"l. c #B3967B",
"z. c #D2924F",
"x. c #C48857",
"c. c #C29454",
"v. c #C5975A",
"b. c #C49A5D",
"n. c #E69354",
"m. c #D2A851",
"M. c #F6AC48",
"N. c #FEBB42",
"B. c #EFAA54",
"V. c #D18B6D",
"C. c #C59B63",
"Z. c #C79A68",
"A. c #C79B73",
"S. c #D39A77",
"D. c #E6966B",
"F. c #CAA166",
"G. c #CCA36C",
"H. c #D8A66A",
"J. c #CDA374",
"K. c #CDA67C",
"L. c #D3AA74",
"P. c #D5A979",
"I. c #D4AC7B",
"U. c #D7B27E",
"Y. c #DAB17D",
"T. c #E7A867",
"R. c #EFAF70",
"E. c #E8B679",
"W. c #FBDA59",
"Q. c #FCE35F",
"!. c #DCC062",
"~. c #EED470",
"^. c #FEE861",
"/. c #351398",
"(. c #242D85",
"). c #542F8E",
"_. c #612898",
"`. c #532EAF",
"'. c #2E42A0",
"]. c #5A498E",
"[. c #6F528E",
"{. c #635BA5",
"}. c #6439C5",
"|. c #7364CE",
" X c #952B9F",
".X c #C52E84",
"XX c #8B4F8D",
"oX c #A84D8C",
"OX c #9E6A9B",
"+X c #9254B1",
"@X c #B175B2",
"#X c #D25F90",
"$X c #CF758C",
"%X c #CB74AB",
"&X c #8958D0",
"*X c #9770D1",
"=X c #B176CE",
"-X c #AC61D5",
";X c #978990",
":X c #B99B86",
">X c #B19090",
",X c #BBA287",
"<X c #BCA495",
"1X c #9C92AA",
"2X c #A49AA9",
"3X c #B294AD",
"4X c #A59CB3",
"5X c #AAA3AB",
"6X c #B4A5AC",
"7X c #BDB0A1",
"8X c #ACA5B7",
"9X c #B6A8B5",
"0X c #D4928E",
"qX c #E29692",
"wX c #C5A787",
"eX c #D5AC82",
"rX c #D9AD85",
"tX c #D6B687",
"yX c #DBB384",
"uX c #DBB48A",
"iX c #DCBA8C",
"pX c #C5A797",
"aX c #DBB995",
"sX c #EAA787",
"dX c #E3B889",
"fX c #F0B58E",
"gX c #E4BC96",
"hX c #CC8FAB",
"jX c #D1AEB0",
"kX c #E9AEA8",
"lX c #E6BDA5",
"zX c #B0C0B8",
"xX c #DDC293",
"cX c #E4C296",
"vX c #E3C39B",
"bX c #DDC5A8",
"nX c #E4C5A4",
"mX c #E7CAA8",
"MX c #F4C9A9",
"NX c #EACDB3",
"BX c #EAD1B4",
"VX c #898BD1",
"CX c #B58CCF",
"ZX c #B3ADCC",
"AX c #B29FE4",
"SX c #CC94CD",
"DX c #CC99DB",
"FX c #CBB4CD",
"GX c #94CCD7",
"HX c #B7C9D0",
"JX c #CCC6D3",
"KX c #D3CCD2",
"LX c #D3CCD7",
"PX c #EAD8D4",
/* pixels */
"e.e.e.e.e.e.e.t.M.B.R.R.R.E.fXcXcXfXMXlXkXlXNXNXNXPXPXMXe.e.e.e.e.e.e.e.e.q.7.v.j.V.V.D.M.w.t.t.e.e.e.e.e.e.e.e.e.e.e.e.e.e.w.8.",
"T.pXpXpX3X9XjXJXLXLXKXJXKXKXKXPXLXLXLXKXKXKXLXLXPXPXPXPXe.e.e.e.e.e.B.D.V.>.rXqX%X0X .%XjXfXR.M.e.e.e.e.e.e.e.e.e.e.e.e.e.e.8.w.",
"R.5X5X4X4X4XZXHXJXJXJXJXLXLXKXLXLXLXLXLXKXFX<X:XwXpXNXLXR.e.e.e.R.kX:.;.E 2.2.oX*X2.{ 1.AXH.mX%XFXsXB.e.e.e.e.e.e.e.e.e.e.w.} w.",
"B.8X8X5X4X4X8XZXZXJXJXJXLXLXLXKXLXJXjX;X#.R ^ %.a.C.K.uXnXsXR.a.OX).-.v *.>.].[.&X1.{ ,.AXz.mXhXKX>XAXFXM.e.e.e.e.e.e.e.w.| 8.w.",
"t.6X6X6X8X4X8X8X8X8X9XFXLXLXFX7X;XR < 8 8 8 R ` u.c.v.G.>Xi OXi {._.c o.j.t '.j |.:.{ b AXA.gXqXJX5XDXAXFXB.e.e.e.e.e.w.} 8.e.e.",
"e.:X6X6X4X4X2X1X1X8X9X6XpXwXwXeXeX@.% 5 8 q #.*.O.OXhX&.<.2.o.[.[.x M a.i a (.h `.;.{ b *XS.aX%XZXHX=XAXjXSXsXM.e.e.w.} 8.e.e.e.",
"e.g.6X6X5X2X1X1X4X2X;X#.+.C.K.P.I.I.^ -.+X*X@X@XCXCXhX@XoXX.XX]...x ) X.s . (.s /.-.D b VXC.dX1.=XJX8X-XDXFXPXDXB.| } 8.e.e.e.e.",
"e.z.3X6X5X2X2X1X1Xk q J ^ u.s.g.A.>X+X}.&X*X*X=X=X=XCX=X@X[ 2.$XO.) ..d h t r r /.y z x *Xz.sX;.$XCXHX3XjXDXDXhXD. .8.e.e.e.e.e.",
"t.r.2X6X5X5X5X2Xk 0 0 0 0 W +.:.[.].XXoXO.,.,.<.1.1.#XhXSXhXV.,.,.v y XXh ; (.r /.> l X.OXF.V.#X@X=XCXhXjXSXhXn.sXgXM.e.e.e.e.e.",
"e.w.:X6X5X5X2Xg 0 0 0 0 0 j ).).d ..O.<.<.n.n.T.B.B.D.n.<.qXSXSXhX%Xp j r t r r e : l _.XXS.;.-X*X=X>X9XhXAX0XdXnXgXdXt.e.e.e.e.",
"e.e.Z.6X5X5X#.q 0 0 0 < s `.).i c *.<.V.S.0X0X0XqXsXsXE.R.R.D.0XDXDXOXd r t r u p o o p +.2. X&X=X@X6XZXhX=XaXnXnXnXnXiXe.e.e.e.",
"e.e.M.5X5X:X+.I I 0 H s `.).i O.o.o.v v O.1.2.$X$X%X#X%XqXfXfXR.D.hXZXj r . r t t l : p E X._.&XXX;XCXVX@XCXlXbXNXNXmXbXH.e.e.e.",
"e.w.} >X6Xd./ ^ I #.i ].{.p c y y p )._._.XXoXoX1.<.$X=X#X$XhXfXfXR.qX@Xt t r t t l a i R y }.[.k 3X-XVX@XjXbXmXmXBXBXmXaXM.e.e.",
"e.8.} V.2X$.@./ R o.].j > u s h ).s [.[.{.|.|.|.|.|.-X.Xj.GXJXhXqXfXR.qXt . w t : l a < c p ).u [.3X+X|.0XaXlXmXBXBXBXmXbXE.e.e.",
"9.} } r.>X$.%.R o.].].> d s s p )./._.`.}.&X+X+X+X&X.X>.GXJX9XB.kXSXkXsX#.. w t o l a c ; /.t h OXoXX.@XwXaXlXmXBXBXBXBXBXxXt.e.",
"w.} 8.w.Z.#.$.< [.].u [.d d i i ..c v E ,.,.2.oX X XO.zXHX9Xm.bXJX$X3.kXV.. t t z l i c t t w d [.x i >XwXaXlXbXBXBXBXBXBXbXR.e.",
"| } e.e.t.#.R j ].u g v v z z z v v E ,.,.<.<.x.2.1.pXFXZXz.aXFX#X{ { D.fXi . t l x < c t u w d y < ;Xg.K.eXaXbXNXBXBXBXBXmXxXe.",
"| 9.e.e.e.u.c ..s R R M E F T E S E ` &.x.V.S.Z.V.,.<.3.D.T.kXqX{ { 8.M.hXV.. ; l : H : t w u u o f k.p.A.eXaXlXmXNXBXBXBXmXxXe.",
"| w.e.e.e.n.x O.z z *.) T Y Z R T / *.y.) [ 7.7.H.Y.rX<.{ 3.3.3.3.| r.hXDXFX> ; o > z y u w , : , $.T %.C.A.uXaXnXmXBXmXBXmXbXB.",
"8.e.e.e.e.x.v l E *.) +.O.! R R E O.O.*.x.V.A.C.m.0.z.T.qX<.b { 8.r.qXCXGXjX:.  o y z y u t : o f ] n / s.A.wXaXgXnXbXmXmXmXbXT.",
"e.e.e.e.t.o.O.` a.>.E c - - - - - - - H R I +.+.@.*.&.) 7.H.sX<.| 0XCXJXHX0XhXX X > l > w y o > #.m = T p.Z.K.uXxXbXvXmXmXmXvXH.",
"e.e.e.e.B.o.R 2.O.< 0 0 8 9 8 5 9 P ~ ` ` %.&.a.s.Z.Z.S.A.Z.S.K.3.1.ZXZXrXHXCX< ; < o u t i o f T # & K %.s.J.eXiXxXvXnXmXmXnXL.",
"e.e.e.e.z.o.>.o.I ^ I 0 9 5 6 5 0 P T / ` ] &.&.a.x.Z.A.S.P.rXaXuXV.2.j.GXAXSX-.X < ; w u l < g = # # n ! a.A.eXtXaXxXvXnXnXnXJ.",
"e.e.e.e.%.:.$.o.+.^ I 0 9 9 9 6 G J Y ! / ] %.&.a.x.C.Z.J.eXrXuXgXvXlXpXCXDXhX>.X - ; e u l f H O # # = L y.g.K.tXiXxXxXvXvXvXL.",
"e.e.e.e.*.:.=.=.@.^ I P 0 6 6 9 G G T T ! ` ] &.&.a.s.Z.A.P.eXuXaXvXnXMXjXhXn.D.o X X e : < q < @ @ @ 2 C ] s.G.I.yXiXcXcXvXcXT.",
"e.e.t.r.#.>.f.=.@.^ I P 9 9 8 5 G K T T ! ` ` ] &.u.a.x.Z.S.eXrXuXgXnXmXMXgX<.kXc X ; t o i < < @ $ % % 2 ~ i.F.G.U.tXiXaXcXvXT.",
"e.e.e.7.h.f.f.$.+.^ I P 9 9 9 6 G K L T ! / ` ` %.y.a.a.g.A.K.eXuXaXgXmXmXMXdXFX:.X X ; o < c o @ % $ % 2 Q 5.c.F.L.U.iXiXxXxXM.",
"e.e.t.x.k.f.f.p.@.+.I P 9 9 6 6 G K L T ! ! ` ] ] &.&.a.s.Z.S.eXrXaXgXvXvXvXMXhX0XX   ; o o > , @ @ $ % 2 S 4.i.F.H.L.yXyXxXaXt.",
"e.e.w.j.l.h.f.=.+.^ 0 0 0 0 9 9 G K K T T ` ! ] ] %.y.u.a.Z.A.P.eXuXiXcXvXMXvXpXhXo X X X ; w   @ # # $ 2 B _ i.v.F.L.U.U.iXU.e.",
"e.e.7.:X:Xk.f.@.+.^ ^ ^ 0 0 9 G G K K T T ! ` ` ] ] %.p.a.g.Z.A.I.yXiXcXvXvXvXgXhX- X , X , , O @ # @ $ 2 7 Q 4.i.b.F.I.U.Y.H.e.",
"e.e.v.pXl.k.f.@.+.^ 0 0 J 9 9 0 G K K T ! ! ( ' ] ] &.&.a.g.Z.A.K.I.uXdXcXcXvXnX@X- o w X : , O @ @ $ $ 2 2 L _ y.s.Z.L.U.U.m.e.",
"e.e.A.:Xl.h.f.=.+.^ 0 0 0 0 9 C G K K T T Q ` ` ] ] [ u.p.s.Z.A.K.eXyXdXcXcXcXgX$Xz < . X . , O O @ $ $ 2 2 A ( 4.s.G.P.Y.eXq.e.",
"t.q.l.,X:Xk.f.$.+.^ I J 9 9 9 9 G K K Y Y ! ` ` ` ] &.y.a.a.g.Z.J.Y.yXiXdXxXxXfX;.l - o   ; + O + @ @ $ 2 7 Q 4.i.F.L.U.Y.F.q.e.",
"e.q.,Xl.k.h.p.$./ ^ I 0 6 9 6 9 N N M T T ( ( ' ' ] [ &.p.a.a.Z.J.P.yXuXiXcXxXaX>.o , = < X + O O @ @ $ 7 A Q 4.i.F.G.U.U.m.e.e.",
"e.n.,X:Xk.h.p.$.+.^ I 9 6 9 9 6 N G Z A ! ( ( ' ' [ [ y.a.a.s.C.Z.J.Y.yXtXiXiXtX-.c ; , X O O O + @ % 7 7 4.4.p.b.G.U.U.U.7.e.e.",
"w.Z.,X:Xk.h.=.=./ ~ I 0 5 5 5 6 N M m Z Y ! _ ' ] [ &.u.i.a.c.C.G.K.eXyXyXyXyX0X;.-.o ; X + + @ @ @ % 7 7 ~ 4.g.G.L.U.U.L.e.e.e.",
"w.0X,Xl.k.f.$.@./ ^ 0 0 6 5 5 6 N N M H Y T ( ' [ [ y.i.i.c.b.b.F.J.I.tXyXyXrXO.OX-.: X O O O @ @ @ % 7 4.4.s.F.L.rXyXY.B.e.e.e.",
"8.wXpXl.f.f.=.+./ ^ P 6 6 5 5 6 N N M Z S F _ ' 5.5.y.i.s.b.b.C.F.L.L.U.U.yX*.-.j < X O O O @ @ @ @ 2 7 ~ 4.b.G.Y.rXyXE.t.e.e.e.",
" .<X<Xl.f.$.=.+.^ U J C 6 3 5 5 3 6 N Z S ( ( ' [ y.i.s.s.b.F.F.G.L.L.U.tXh.c x o X O O @ O @ O @ @ % 7 7 4.m.L.Y.yXyXT.e.e.e.e.",
"<.pX<Xk.f.=.+./ ~ U J J 6 6 5 2 3 4 m Z S F _ [ 5.y.c.v.b.b.F.F.L.L.I.U.E.m.< - O O O O @ # @ @ @ @ % 7 4.4.C.L.Y.dXyXN.e.e.e.e.",
"<.,XpXk.d.@.] / U I J J 6 6 5 5 3 3 m B S Q ' 5.5.z.c.F.F.F.G.L.I.Y.Y.U.Q.^.0 2 @ @ @ @ @ @ @ @ @ @ 2 2 F u.F.P.sXyXdXt.e.e.e.w.",
"&.h.<Xh.d.@./ ^ I L C C m 6 3 3 = 5 m M S ( _ [ 5.5.c.b.b.F.G.L.U.U.I.~.^.^.p.7 2 % $ % # # @ @ @ @ $ 2 ( i.G.Y.yXyXyXe.e.e.e.8.",
"y.h.<Xj.d.@./ ~ L J 9 C 6 6 6 3 5 3 m m S ( ' 5.5.c.s.b.F.F.G.I.Y.Y.Y.~.^.^.m.2 2 2 2 @ # # # @ @ @ @ 2 ( i.G.U.dXdXY.e.e.e.e.8.",
"%.:.<Xf.=.+.^ U L C C C 6 4 6 3 5 6 3 m V F _ [ 5.i.c.b.b.F.G.L.Y.U.Y.^.^.^.Q.7 2 @ 2 2 & $ # @ @ % 2 7 _ s.L.Y.dXyXE.e.e.e.w.9.",
"@.k <Xf.=./ ^ U J C 7 9 6 6 6 3 4 4 n n V F _ 5.5.5.i.b.g.F.L.L.U.U.~.^.^.^.^.4.2 2 $ & & $ # # % % $ 7 ' c.L.Y.yXdXE.e.e.e.} w.",
"%.k wXf.@./ U L J J 6 6 3 4 6 6 4 7 m n S F _ _ 5.5.i.b.C.G.L.U.xXU.^.^.^.^.^.m.2 2 2 & & & $ # $ % $ B ' c.L.U.yXdXR.e.e.9.} w.",
"#.g <Xf.p./ U I C N N 6 6 6 6 4 4 m V V F F F ) 4.4.i.s.F.J.U.tXxX~.^.^.^.^.Q.7.5 5 2 2 & & & & & % 2 A 5.z.G.Y.rXdXB.e.9.} 9.e.",
"#.g <Xd.@./ U J J G N N 6 4 4 4 6 m V S F F F 4.4.y.i.b.G.I.tXiXU.^.^.^.^.^.N.0.* 5 3 2 & & & & & % * A 5.c.F.L.rXuXM.9.} 9.e.e.",
":.:.:Xf.@./ U J C C 6 N 6 4 6 4 N B B S Q ( _ [ [ u.c.C.L.U.tXtX~.^.^.^.Q.t.e.W.G m m n n & & & & * * ! 5.m.F.L.Y.U.9.| 9.e.e.e.",
"=.&.wXf.@.~ U L C C N N 6 4 4 6 7 B A F F ( ( _ [ y.s.F.I.U.iXtX^.^.Q.N.e.e.W.W.G B m n n 1 = & * - = W 5.z.b.F.I.I.} 9.e.e.e.t.",
"$.0.:Xf.@.~ U L C C N 6 4 4 4 m 7 A F F F F F ( ( 4.i.F.L.eXtX~.^.W.e.e.N.W.^.^.L M m M n 1 n * * & = W [ 5.c.C.L.H.9.e.e.e.e.e.",
"[ e.:Xf.=.~ U J C 6 6 m 4 4 4 4 B A F F S V V V F 4.s.F.L.U.tXt.w.e.N.W.^.^.^.^.4.Z V M n n 1 1 = & 2 W 5.i.i.b.J.M.t.e.e.e.e.e.",
"M.r.:Xf.%./ U A C B 6 4 4 4 2 7 B V F V B 7 7 m F ] i.F.G.wXn.e.e.W.W.Q.^.^.^.^.!.I Z Z M m m = = 2 1 ! 5.u.u.c.H.e.e.e.e.e.e.e.",
"e.t.,Xf.=./ U L C C m B 7 m 4 B B V B 7 n n 2 m S ] s.F.I.L.e.e.e.t.^.^.^.^.^.^.W.%.Z Z Z M m 3 1 2 3 ( y.5.4.Z.B.e.e.e.e.e.e.e.",
"e.t.:Xf.=./ W C C 6 B 6 4 4 4 7 B 7 7 n 2 n 7 7 W 4.s.G.,XB.e.e.e.e.w.e.e.e.e.e.e.n.U A M M m 2 1 1 m ` u.5.u.G.M.e.e.e.e.e.e.e.",
"e.0.:Xd./ ! U L B N 4 4 4 4 4 4 2 2 2 2 2 7 7 B Q y.F.I.U.e.e.e.e.e.e.e.e.e.e.e.e.e.5.S Z M m n 3 3 K [ i.i.v.J.t.e.e.e.e.e.e.e.",
"t.9.l.d./ ~ U A C 4 3 4 3 2 3 2 2 2 2 2 7 7 7 S 4.s.K.K.M.e.e.e.e.e.e.e.e.e.e.e.e.e.q.~ B B m 3 2 3 Q u.c.c.Z.A.e.e.e.e.e.e.e.e.",
"w. .l.@./ ! L J C 6 4 2 2 3 2 2 2 2 2 2 2 2 7 Q y.F.,XT.e.e.e.e.e.e.e.e.e.e.e.e.e.e.e. .V m n n 1 n ( y.c.b.P.uXt.e.e.e.e.e.e.e.",
"9.| l.+.^ Y L C C 6 6 4 2 2 3 4 7 7 7 2 2 7 W 4.C.,XT.e.e.e.e.e.e.e.e.e.e.e.e.e.e.e.e.8.D V m 2 1 n Q u.z.Z.dXgXR.e.e.e.e.e.e.e.",
"} } F.@.~ W L C C m 4 4 5 5 2 7 F Q Q S A W ] k.Y.T.e.e.e.e.e.e.e.e.e.e.e.e.e.e.e.e.w.} 8.! m 3 3 3 Q z.v.Z.dXlXnXt.e.e.e.e.e.e.",
"} w.M.$.~ ~ L L C N m 4 6 3 4 V F _ _ F ~ 4.g.K.B.e.e.e.e.e.e.e.e.e.e.e.e.e.e.e.e.e.w.} e.0.m n = 3 ] v.` a.P.gXmXE.e.e.e.e.e.e.",
"| t.t.p.~ ~ W L C C 7 6 3 3 7 S _ 4.4.Q 4.s.L.t.e.e.e.e.e.e.e.e.e.e.e.e.e.e.e.e.e.e.w.9.e.e.) 3 3 N a.x.# I A.dXnXnXM.e.e.e.e.e.",
"9.e.t.f.` ~ ~ L K C 6 6 4 6 B Q 4.4._ ] p.n.e.e.e.e.e.e.e.e.e.e.e.e.e.e.e.e.e.e.e.e.| q.e.e.q.N 3 9 &.R @ # %.rXgXlXdXe.e.e.e.8.",
"e.e.e.a./ ~ ! L A B B 9 7 7 W ] 4.p.g.B.q.q.e.e.e.e.e.e.e.e.e.e.e.e.e.e.e.e.e.e.e.e.6.e.e.e.e.' 3 * * @ - @ K A.dXgXgXN.e.e.e.8."
};
