/* XPM */
static char *col5[] = {
/* columns rows colors chars-per-pixel */
"64 64 254 2 ",
"   c #761316",
".  c #77191A",
"X  c #59280B",
"o  c #572811",
"O  c #753B0B",
"+  c #6C2F12",
"@  c #673616",
"#  c #773B13",
"$  c #551D2D",
"%  c #541235",
"&  c #6B132F",
"*  c #6F2D30",
"=  c #78430D",
"-  c #7B4716",
";  c #7B4B24",
":  c #774C36",
">  c #352256",
",  c #33336D",
"<  c #540F54",
"1  c #6B1748",
"2  c #4A2C54",
"3  c #6A2D4B",
"4  c #481268",
"5  c #512F6F",
"6  c #6E2970",
"7  c #66555A",
"8  c #764D6E",
"9  c #861710",
"0  c #883017",
"q  c #9F2628",
"w  c #8F332B",
"e  c #D62A20",
"r  c #834C13",
"t  c #844A19",
"y  c #875515",
"u  c #85531B",
"i  c #8A551A",
"p  c #8A5A1C",
"a  c #925B1C",
"s  c #BD521C",
"d  c #96631B",
"f  c #855123",
"g  c #8A5424",
"h  c #8C5B23",
"j  c #86542A",
"k  c #8A552A",
"l  c #855A2B",
"z  c #8B5B2C",
"x  c #945B26",
"c  c #904D32",
"v  c #845734",
"b  c #8C5D32",
"n  c #A84F3B",
"m  c #946324",
"M  c #95652B",
"N  c #99672A",
"B  c #9A6A2D",
"V  c #8F6433",
"C  c #9B6C32",
"Z  c #966738",
"A  c #9B7337",
"S  c #A36929",
"D  c #A6752C",
"F  c #B3772F",
"G  c #A46A38",
"H  c #A87738",
"J  c #D9511F",
"K  c #E9500F",
"L  c #D34D2E",
"P  c #D46F33",
"I  c #F77522",
"U  c #F77A23",
"Y  c #F6782B",
"T  c #E67533",
"R  c #903251",
"E  c #B1384E",
"W  c #8B156D",
"Q  c #923775",
"!  c #B0336C",
"~  c #8F5151",
"^  c #AC5751",
"/  c #976C43",
"(  c #91644F",
")  c #9D7447",
"_  c #9D7753",
"`  c #B16F4B",
"'  c #A77848",
"]  c #A37C56",
"[  c #B87856",
"{  c #954771",
"}  c #B05371",
"|  c #946E6E",
" . c #B66E74",
".. c #D05654",
"X. c #D06F53",
"o. c #E97246",
"O. c #EA655F",
"+. c #C95674",
"@. c #D07270",
"#. c #B38936",
"$. c #B78638",
"%. c #E7961D",
"&. c #CD8E3B",
"*. c #F88426",
"=. c #F98828",
"-. c #FB952C",
";. c #E98D32",
":. c #FDA330",
">. c #FEAE34",
",. c #FAAB3A",
"<. c #FAAF38",
"1. c #B68649",
"2. c #B48E48",
"3. c #A7845A",
"4. c #BA8B55",
"5. c #BC9157",
"6. c #BFA44C",
"7. c #A88767",
"8. c #B38C6C",
"9. c #AD9275",
"0. c #B6957A",
"q. c #D48E4C",
"w. c #C89649",
"e. c #C48A57",
"r. c #C79858",
"t. c #D39B57",
"y. c #E99152",
"u. c #C9A657",
"i. c #D7A55C",
"p. c #D5B851",
"a. c #EBA547",
"s. c #F7AC46",
"d. c #FDB045",
"f. c #FEBD42",
"g. c #E7A758",
"h. c #F4B055",
"j. c #C79966",
"k. c #D5906E",
"l. c #CA9B74",
"z. c #E79370",
"x. c #CCA469",
"c. c #D5A668",
"v. c #D3B861",
"b. c #CDA475",
"n. c #D7A977",
"m. c #D5AC74",
"M. c #D4AB7B",
"N. c #DAB37A",
"B. c #EBB06E",
"V. c #F4B46A",
"C. c #E5A978",
"Z. c #E5B579",
"A. c #DBC35C",
"S. c #FEC94D",
"D. c #E8CD58",
"F. c #F6D759",
"G. c #FEDC59",
"H. c #FDE35F",
"J. c #EFCF6F",
"K. c #FEE761",
"L. c #FEE861",
"P. c #4E1393",
"I. c #54298C",
"U. c #4C36B1",
"Y. c #6422A1",
"T. c #6C36B0",
"R. c #515192",
"E. c #62659D",
"W. c #4D4BAD",
"Q. c #7354B4",
"!. c #6F64CE",
"~. c #922F85",
"^. c #8636B1",
"/. c #C9399D",
"(. c #924992",
"). c #AC4E91",
"_. c #946F8E",
"`. c #B27493",
"'. c #9050AF",
"]. c #AA51B8",
"[. c #956EB1",
"{. c #B26AAF",
"}. c #CE589A",
"|. c #CE748E",
" X c #C774AC",
".X c #8F53CA",
"XX c #A659DA",
"oX c #966CD2",
"OX c #AF76CA",
"+X c #C673C6",
"@X c #7798A6",
"#X c #7C91CC",
"$X c #9D8A94",
"%X c #B18F8A",
"&X c #B69A87",
"*X c #A28D95",
"=X c #A79299",
"-X c #A4A59D",
";X c #B9A494",
":X c #9297B0",
">X c #B090AA",
",X c #B6A8B1",
"<X c #D1908F",
"1X c #E5928C",
"2X c #D8AB85",
"3X c #DCB483",
"4X c #DCB786",
"5X c #DEBA8A",
"6X c #CAA692",
"7X c #DAB696",
"8X c #DEBC93",
"9X c #E9A588",
"0X c #E6B886",
"qX c #E3BC8C",
"wX c #F1BB86",
"eX c #EAAA97",
"rX c #E2BE93",
"tX c #E5BA99",
"yX c #D18DAD",
"uX c #EA98A0",
"iX c #CFADAC",
"pX c #D4B9B9",
"aX c #E6AFAA",
"sX c #AAC5B7",
"dX c #EFC38E",
"fX c #E3C194",
"gX c #E4C39B",
"hX c #E9C39B",
"jX c #DDC6B0",
"kX c #E5C6A1",
"lX c #E9C9A6",
"zX c #E8D0BB",
"xX c #9487C8",
"cX c #B897C5",
"vX c #B28DD0",
"bX c #B6B0CE",
"nX c #A787E7",
"mX c #96A4E8",
"MX c #C584C9",
"NX c #C893D1",
"BX c #D0AFCB",
"VX c #D9A4D3",
"CX c #B6CCD2",
"ZX c #A1C8E4",
"AX c #DBC9CA",
"SX c #CFCBD0",
"DX c #D8CCD3",
"FX c #E3CDC9",
"GX c #E7D9DA",
"HX c #DED6E1",
"JX c #E9DDE4",
"KX c #EDE4E5",
"LX c #EDE3EA",
"PX c #F0E4E6",
/* pixels */
">.>.>.>.>.>.>.>.>.>.>.>.>.>.>.>.<.6X<X0.0.<X6XiXiXiX;XpXAXFXFXFXAXAXAXAXFXAXDXGXJXJXJXJXLXLXLXdX>.>.>.>.>.>.>.>.>.>.>.>.>.>.:.*.",
">.>.>.>.>.>.>.>.>.>.>.>.>.>.>.>.>.0.$X$X$X$X,XbX,X=X,XBXBXSXSXSXDXDXDXDXDXDXDXGXHXKXKXLXLXLXPXV.>.>.>.>.>.>.>.>.>.>.>.>.>.>.*.:.",
">.>.>.>.>.>.>.>.>.>.>.>.>.>.>.>.>.B.%X=X*X,X,X>X=X-X,X,XSXDXDXDXDXSXDXDXDXDXHXHXHXJXKXKXLXPXPXd.>.>.>.>.>.>.>.>.>.>.>.>.>.:.I :.",
">.>.>.>.>.>.>.>.>.>.>.>.>.>.>.>.>.g.*X>X=X=X=X$X$X=X=X;X6XjXiXiXpXpXpXpXpXpXAXFXJXKXJXKXLXLXPXd.>.>.>.>.>.>.>.>.>.>.>.>.:.U *.:.",
">.>.>.>.>.>.>.>.>.>.>.>.>.>.>.>.>.y.=X=X$X*X$X$X$X~ a F w.i.C.b./ + 0 g C 1.j.b.7XFXKXKXKXKXPXf.>.>.>.>.>.>.>.>.>.>.>.:.U *.>.>.",
">.>.>.>.>.>.>.>.>.>.>.>.>.>.>.>.=.U ;X*X*X$X*X| ; - d #.w.i.v.Z.rX/ O t S $.w.x.m.fXlXGXKXKXPXd.>.>.>.>.>.>.>.>.>.>.:.U *.>.>.>.",
">.>.>.>.>.>.>.>.>.>.>.>.>.:.-.U U :.&X-X$X%X| t - r d #.&.u.u.N.qX] O r S &.w.r.c.N.fXgXzXPXPXh.>.>.>.>.>.>.>.>.:.*.U *.>.>.>.>.",
">.>.>.>.>.>.>.>.>.>.>.>.:.U I U :.>.2X$X%X| j t r i S F #.&.u.c.4X] O = D &.w.u.i.m.fXgXgXzXPXV.>.>.>.>.>.>.>.-.I I *.:.>.>.>.>.",
">.>.>.>.>.>.>.>.>.:.:.*.I *.-.>.>.>.B.$X9.V j t r a d D F &.r.i.2X7.O O D w.w.w.i.v.Z.fXhXgXGXV.>.>.>.>.:.:.I I =.:.>.>.>.>.>.>.",
">.>.>.>.>.>.>.-.=.U I U :.:.>.>.>.>.:.<X9.^ ^ ^ ^ ^ ^ ^ ~ ` [.*XvX@.} [ e.r.i.i.w.i.m.fXhXtXlXV.>.>.=.=.I I *.:.>.>.>.>.>.>.>.>.",
">.>.>.>.:.U I I U =.>.:.>.>.f.G.D.v.c.e.Q Q (. .|.<X|.`.`.| R  .}.|.>X>XiXyXaX9Xn.n.B.C.aX6XjXeX,.*.I *.*.*.>.>.>.>.>.>.>.>.>.>.",
">.>.:.=.I I I -.:.>.S.G.G.G.J.5.Q 6 I.Y.Y.Q.T.Q.[.{.+XvX,XyX|.E q +.|. XOXvXcXiXeXeXk. XyX XuXaXuXz.:.>.>.>.>.>.>.>.>.>.>.>.>.>.",
">.:.U I I *.-.>.>.>.K.K.L.D._.R.R.R.W.W.T.^.'.'.oXoX.X!.vXxX[.xX{.R @.X.<X<X;X`.OX'.).@.X.z.z.9X9X1X2XJ.G.>.>.>.>.>.>.>.>.>.>.>.",
">.=.I I *.>.>.>.>.>.K.K.A.| 8 { { { { R E E ^ ..).{.OXnX[.yXBX[.>X`.` z.<X%X[.nX'.! L y.c.n.z.1X1X1XeXaXdX>.>.>.>.>.>.>.>.>.>.>.",
":.I I :.>.>.>.>.>.>.G.p.R Q , 5 4 1 w E } k.k.k.o.L @.{.MXvX XuX(.(.! Q `.xXxX{ e P X.k.<X{.@.o.+.BXC.aXyX9X>.>.>.>.>.>.>.>.>.>.",
":.I *.>.>.>.>.>.>.>.v.` t c ~ 5 I., I.< & ^ k.m.g.z.X.T |.OXcX`.|.(.).'.oX).E J X.j.@.(.].].T L yXn.hX|.NXNX9X>.>.>.>.>.>.>.>.>.",
"I I >.>.>.>.>.>.<.k.^ / G q q w (.T.T.E.W.6 R <X7Xn.B.C.J z.MXNX|.....).~.K P t.k.(.Q._.oXe.K `.,XN.eX XbXDXVXeX>.>.>.>.>.>.>.>.",
"I -.>.>.>.>.>.,.8.| | ^ ` D Z n w E ^.^.E.!.^...k.yXeXg.9XP z.+XcX|.L ..@.&.y.+.~.U.E.'.'.P e vXb.gX@.NXSX XnXNX9X>.>.>.>.>.>.>.",
"I :.>.>.>.>.>.4._ ( ( w ^ G x n ` n q } Q.'.!.'...|. XeXB.Z.o.1XMXbX@.|.....).E.~.U.E.T.X.K +.cXg.kX XSX|.nXbXNX1Xy.>.>.>.>.>.>.",
"=.>.>.>.>.>.g.] / V l f # q X./ x X.X.s ^ .X'.#X.XO.1X XeXB.wXT 1XMXcX|.{.^.:X{ Y.!.Y.(.s e {.6X0X<XBX,X+XmXMXyXz.yXV.>.>.>.>.-.",
">.>.>.>.>.<.8.] / V v : : # 0 X.e.S F X.....'.].#X].|.+X XwXV.wXT yXvXOX} [.@XW U.R.Y.^ e ! vXu.tX XCX|.nXbXVX1X9XuXiXh.>.>.>.=.",
">.>.>.>.>.t.3._ / V v ; ; ; # # ^ l.F X.e.q.X..X].XX/./.}. XtXV.z.y.MXvX[.:X7 Y.W.U.I.s e [.l.3X<XBXsX].mXiXk.uXMXpXaXaX<.>.:.U ",
">.>.>.>.i.8.7._ / V l l ; ; ; # 0 G 9Xw.t.k.k.).! } -XCXSXSX|.dXwXo.yXNX#XE.4 W.6 P.w q ).[.i.1X).BX-XOX#X<XMXVXAXVXVXNX2X>.-.:.",
">.>.>.a.&X9.3._ Z b l l ; j j j f # c b.q.n.y.@.iXCXZXbXiX6X1XuXJ.z.y.yX@X1 P.R.P.1 9 R [.r.9X+.].SX*XXXmXnXVXBXVXMX<XaX7Xs.I :.",
">.>.,.0.&X9._ _ Z b l l j j j l b Z c c b.w.wXX.1XyX6Xg.Z.jXDX XwXwXT yX_.4 , 4 < 9 W Q.] 1X+.} {.bX>XOXNXVXVXMX1Xy.V.hXdXn.U :.",
">.>.C.&X9.9.7.) Z v b k j j j j b Z ` Z z 1.&.Z.J z.tXBXVXyX|.O.9XwXo.yX{ , 4 4 & 9 6 ~ k.} ].].XXcXvXyXBXNXyXy.z.tXlXlXgX8Xs.>.",
">.>.&X&X0.9.] ) / b b l j j j j b x B ' 1.` F g.z...1XuXL K K T 1XJ.y.uX8 2 < & 9 < 3  .R ^..XoX XyXiXyXvXz.a.qXlXzXlXdXgXfXN.>.",
">.i.6X&X0.9.] ) ( b b k j f c j k x B G [ 4.4.S V.O.K O.Y U %.s.|.dXy.|.5 4 & 9 1 3 ^ 3 Y..X'.{.>X,XyXOX<XB.hXzXlXlXlXlXkXfX8Xs.",
">.c.;X&X9.7.] ) b b b b j j f f g x x G ` e.5.l.X.9XK :.c.C.<XvX+XwXy.X.< < 9 1 3 n & P.T.8 _.>XxX>XOXyXdXgXlXlXlXlXlXlXkXgXfXB.",
">.l.&X&X9.7.] / Z b b l j j f c f g z S H 4.j.2Xb.k.o.|.+XVXmXZXiXwXz.R 4 .   1 c & 4 4 7 8 xXoXxXOXyXtXgXgXlXlXlXlXlXkXgXgXfXZ.",
">.;X&X9.8.3._ / V b b b k j j f f g g x H 1.r.b.2X2XX.|.ZXCXiX<X XwXz.w <   1 w & 4 2 , 8 _.! Q. .iX7X8XgXgXkXkXlXlXkXkXkXgXfXM.",
",.=X&X9.7.3._ Z V b b b k l j f c f g x G 1.r.b.2X2X8XX.<X-XpXZXcXwXX.& & 1 w * < 2 2 5 6 q W :Xl.2X5X8XgXgXkXgXlXgXkXkXgXgX8X2X",
",.;X&X8.] ] ) / Z V z z l h j l f f f x S ' 5.l.2X3XrX8X,XmXvXVX XwX^ %   & * & 2 2 3 1 & 7 | 0.b.2X5X8XfXfXfXgXgXgXgXgXgXgXfX4X",
">.;X9.7.7.' ) / V V z z h f g f f j t h B ' 5.j.M.3X8X8XiX+XyXC.1Xk.. % % * % 2 > 3 . o 7 3.1.e.x.N.3X5XqXfXfXgXgXfXgXgXgXgX8X5X",
">.;X9.7.] ] ) G Z z z z h j f f f t f g M H 4.l.b.3X5X8X7Xk.T z.1X`   % 3 * > > 3 . - 7 A y D 5.j.M.3X7XqXfXfXfXfXfXfXgXfXgXfXN.",
":.l.9.] ] ) ) Z Z x z h p g g g f f t u x H 1.j.b.2X5XrXqXn.aXpXuXj   % # % , 3 . : : ; = = H 4.j.M.N.3X5XfXfXqXfXfX8XgXrXtX8Xc.",
":.y.9.] ' / A A M x z h p g u u u u t u a D 1.j.b.2X4X8X5X8X`.SX%X0   % + > % . : : = @ = = #.2.j.b.N.3X4X5XqXqXqXqXqX5XqX5X4Xs.",
"*.Y 8.] ) A C C B M m h h p u g u u ; t p B H e.b.2X4X5XqX7X`.CX( # & $ . % + * 7 : = = = = ; #.5.x.n.N.3X4X4X4X5X5X5X5X4X4Xg.>.",
"I *.i.] / A C C B N M m h p p u u u u y u m H 5.j.b.3X4XqXqX`.%Xw 0 & $ $ * w w @ @ = = = = = #.5.x.m.N.N.N.3X0XN.5X4X4XN.N.d.>.",
"I :.,.3.A C C C C B M M h h u u u u u y y a D 1.r.b.N.4X3X3X`.~ 0 c . $ * . $ < o @ = = = = = #.2.j.x.x.n.n.N.N.4XN.4XN.M.g.>.>.",
"=.>.>.r.A B B C C C B M m p p p u u u y y a D #.5.j.M.N.N.b.~ w 0   * * % + * 3 @ = = = y = d d H w.r.u.x.x.m.m.N.N.N.m.c.>.>.:.",
":.>.>.g._ B M B B C B B m m p p u y y p p a S ' 5.r.x.b.b.v + * & * * c * * * : = = = - - - = #.D 2.2.5.u.x.x.b.m.N.m.c.,.>.<.=.",
">.>.>.g.7.Z V B C C A B m m m p p p p m N B H H 4.5.5.3.3.A.2.: _ u.v v 6.6.C - - = - - = = = d d A #.2.r.u.x.v.m.m.x.a.>.>.>.*.",
">.>.>.g.9.' M m C B B B N m m m h p h m D H 1.2.5.5.A 6.L.L.L.K.K.L.L.L.L.L.F.A d p p p d - d = p d B 2.5.r.x.m.m.m.p.>.>.>.:.-.",
">.>.>.i.3.' A V V A B B B m M B B M m M B H H H A ) A.L.K.K.K.K.K.K.K.K.K.K.L.F.6.V ; d ; d #.= y d m #.5.r.x.m.3X8Xh.>.>.>.I -.",
">.>.>.a.v - b C B A A B B m B B B B A A 1.$.C V 6.F.L.L.K.K.K.K.K.K.K.K.K.K.H.H.f.<.D.#.d ; ; - y y ; A 1.5.x.N.tXtXC.>.>.-.U :.",
">.>.<.w.: @ X V A A A B B B B B M C H #.A 2.6.J.K.K.K.K.K.K.K.K.K.K.K.K.K.K.K.S.<.G.L.L.F.6.#.; ; ; p d #.4.5.b.tXkX7Xs.-.I -.>.",
">.>.a.3.; @ o X ; B C B B B C C C H #.A.D.L.L.L.K.K.K.K.K.L.K.K.K.K.K.K.K.K.<.<.G.L.L.L.L.L.H.F.H.D.m m z - z e.2XlXkXg.I -.>.>.",
">.>.j.) ; @ o X X @ h C 6.p.p.D.<.f.L.L.L.L.K.K.K.K.K.K.K.K.L.K.L.L.H.H.G.S.>.G.L.L.L.L.L.L.L.L.L.L.A p r = r [ 2XtXlXz.-.>.>.>.",
">.<.9./ : @ o o X X @ H H.S.<.:.<.H.L.L.K.K.K.K.K.L.K.K.K.L.K.K.H.L.G.S.>.>.G.K.K.L.H.L.L.H.L.H.L.L.#.d y = O F l.7XkX0X<.>.>.>.",
">.g.3.v ; o o X @ O # H S.>.>.f.L.L.L.L.K.K.K.K.K.K.K.K.L.L.H.L.H.G.>.>.<.G.L.L.L.K.H.L.L.H.L.L.L.L.6.m y 0 O S e.2XtXtX<.>.>.>.",
">.x._ v @ @ + + + = - N >.S.H.L.L.L.H.L.K.K.K.K.K.K.K.K.L.L.G.,.:.>.f.G.L.L.L.H.K.K.L.L.L.L.L.H.L.L.u.m i 0 O x 4.n.0XrXd.>.>.>.",
">.8./ ; @ @ + @ # - u D S.L.L.L.L.L.L.L.L.L.L.G.G.G.G.G.S.U *.:.>.<.L.L.L.L.L.L.K.G.L.L.H.G.G.G.G.F.q.S a r O r ' k.N.rXh.>.>.>.",
"<.7.V ; O @ + # t x C e.S.L.L.L.H.H.H.S.S.<.S.S.:.>.:.*.I -.>.>.>.f.L.L.L.L.L.L.G.S.<.S.S.>.>.>.*.U ;.B i r O = S r.N.qXV.>.>.>.",
"h.3.z t j ' 4.l.2X9X0XZ.>.>.>.>.>.>.>.>.>.>.>.:.U U I I -.>.>.>.>.>.>.>.>.>.>.>.>.>.>.>.>.*.I U I *.>.H a r 0 O x e.n.qXV.>.>.>.",
"g._ z G e.c.N.0XqXrXfXZ.>.>.>.>.>.>.>.>.>.>.:.U I I *.:.>.>.>.>.>.>.>.>.>.>.>.>.>.>.>.>.*.I I I :.>.>.1.x y r O a 1.b.0XV.>.>.>.",
"g.) x H r.c.N.0XwXqXrXB.>.>.>.>.>.>.>.>.>.>.-.I *.=.>.>.>.>.>.>.>.>.>.>.>.>.>.>.>.>.>.:.U I =.:.>.>.,.,.S i r O r ` b.0XZ.>.>.>.",
"a.C x H r.c.Z.dXqXqXrXh.>.>.>.>.>.>.>.>.>.>.I I =.>.>.>.>.>.>.>.>.>.>.>.<.>.>.>.>.>.>.=.I I >.>.>.>.>.>.&.i r O r H x.0XwX:.>.>.",
";.Z a F w.n.Z.0XwXqXdX<.>.>.>.>.>.>.>.>.>.:.U *.>.>.>.>.>.>.>.>.>.>.>.>.>.>.>.>.>.>.>.*.U :.>.>.>.>.>.>.:.M r r = S j.2XqX>.>.>.",
"T b x F t.c.N.0XqXqXV.>.>.>.>.>.>.>.>.>.>.=.I :.>.>.>.>.>.>.>.>.>.>.>.>.>.>.>.>.>.<.-.I =.>.>.>.>.>.>.>.>.&.i r = a e.Z.rX,.>.>.",
"T z a $.t.B.N.0XqXqXd.>.>.>.>.>.>.>.>.>.>.=.=.>.>.>.>.>.>.>.>.>.>.>.>.>.>.>.>.>.>.>.:.I >.>.>.>.>.>.>.>.>.>.N i r - [ N.tXh.>.>.",
";.g x &.t.m.N.qXdXZ.>.>.>.>.>.>.>.>.>.>.>.=.:.>.>.>.>.>.>.>.>.>.>.>.>.>.>.>.>.>.>.>.:.-.>.>.>.>.>.>.>.>.>.>.w.h r = H b.7XV.>.>.",
";.z S &.i.m.N.dX0Xh.>.>.>.>.>.>.>.>.>.>.:.*.>.>.>.>.>.>.>.>.>.>.>.>.>.>.>.>.>.>.>.>.U :.>.>.>.>.>.>.>.>.>.>.h.9.v - Z b.zXV.>.*.",
",.h S $.c.N.Z.Z.0X>.>.>.>.>.>.>.>.>.>.>.:.:.>.>.>.>.>.>.>.>.>.>.>.>.>.>.>.>.>.>.>.>.=.>.>.>.>.>.>.>.>.>.>.>.,.,X;X| %XAXKXdX>.=."
};
