/* XPM */
static char *col6[] = {
/* columns rows colors chars-per-pixel */
"64 64 255 2 ",
"   c #761119",
".  c #5A2A0C",
"X  c #5D3011",
"o  c #6B340F",
"O  c #743B0A",
"+  c #693814",
"@  c #550826",
"#  c #711430",
"$  c #572B34",
"%  c #74302E",
"&  c #78450C",
"*  c #7B4816",
"=  c #7C4E17",
"-  c #784B26",
";  c #7E5328",
":  c #69623D",
">  c #2E2453",
",  c #3A2F75",
"<  c #54114C",
"1  c #6E114E",
"2  c #512C50",
"3  c #722C50",
"4  c #510E69",
"5  c #701665",
"6  c #523268",
"7  c #6C2D74",
"8  c #67525B",
"9  c #796774",
"0  c #8A1616",
"q  c #932817",
"w  c #AA221C",
"e  c #A92F19",
"r  c #891433",
"t  c #88362D",
"y  c #9B3A25",
"u  c #DB3122",
"i  c #8F4E0D",
"p  c #834B15",
"a  c #82541D",
"s  c #8A571A",
"d  c #955B1B",
"f  c #AA5E15",
"g  c #96631D",
"h  c #845522",
"j  c #8B5C24",
"k  c #855929",
"l  c #8A5D2C",
"z  c #93502C",
"x  c #885D33",
"c  c #AB5232",
"v  c #8D612A",
"b  c #966629",
"n  c #8D6134",
"m  c #8D633B",
"M  c #8B683F",
"N  c #926533",
"B  c #956A33",
"V  c #9B6C34",
"C  c #966A3A",
"Z  c #9E7338",
"A  c #AA702B",
"S  c #A36B38",
"D  c #A4733B",
"F  c #AA7838",
"G  c #B27939",
"H  c #EC500E",
"J  c #E56115",
"K  c #D35035",
"L  c #E8512F",
"P  c #CF6E2F",
"I  c #E86E2A",
"U  c #F77522",
"Y  c #F77A23",
"T  c #933047",
"R  c #A62457",
"E  c #AF366C",
"W  c #D22E75",
"Q  c #924F4C",
"!  c #B0544B",
"~  c #8E6942",
"^  c #946B46",
"/  c #987449",
"(  c #916552",
")  c #9B7956",
"_  c #A67945",
"`  c #AC7C44",
"'  c #B47C47",
"]  c #AC7151",
"[  c #8E4F70",
"{  c #AB5075",
"}  c #96766B",
"|  c #B06E6F",
" . c #D5554B",
".. c #E15357",
"X. c #CF7454",
"o. c #E56E56",
"O. c #CB516C",
"+. c #D97867",
"@. c #D36F71",
"#. c #E67866",
"$. c #B48231",
"%. c #B88439",
"&. c #E28F1E",
"*. c #CA8F38",
"=. c #F88426",
"-. c #F88729",
";. c #FB962C",
":. c #E89338",
">. c #F0A636",
",. c #FCA331",
"<. c #FEAE34",
"1. c #F9AC3A",
"2. c #9F815E",
"3. c #B68649",
"4. c #B48B4F",
"5. c #A68358",
"6. c #B98A55",
"7. c #9C866B",
"8. c #A58569",
"9. c #A88D75",
"0. c #B38E70",
"q. c #C59448",
"w. c #D59A4A",
"e. c #CE8F53",
"r. c #C6985A",
"t. c #E98B4C",
"y. c #D7AB4F",
"u. c #D7A559",
"i. c #EFAD4F",
"p. c #FDBD44",
"a. c #E8A859",
"s. c #C69963",
"d. c #CC9D6C",
"f. c #D68E71",
"g. c #E8896D",
"h. c #E69865",
"j. c #E59778",
"k. c #CCA269",
"l. c #D6A769",
"z. c #DBB06E",
"x. c #CCA573",
"c. c #D3AA74",
"v. c #D7A976",
"b. c #D3AB7B",
"n. c #DAAE7A",
"m. c #DBB378",
"M. c #DBB27C",
"N. c #E4AA68",
"B. c #F1B56C",
"V. c #E8A978",
"C. c #E8B579",
"Z. c #EEC758",
"A. c #FCDC5B",
"S. c #DDC370",
"D. c #F0CE72",
"F. c #FEE761",
"G. c #FDE763",
"H. c #363490",
"J. c #47338D",
"K. c #692AA4",
"L. c #3E5094",
"P. c #515697",
"I. c #675AA1",
"U. c #7F30C1",
"Y. c #6852CB",
"T. c #546ECF",
"R. c #8B3B94",
"E. c #AD31AE",
"W. c #8A5190",
"Q. c #B04F92",
"!. c #957192",
"~. c #B2708E",
"^. c #924DAF",
"/. c #AA54AD",
"(. c #9475A2",
"). c #B173B1",
"_. c #C45B89",
"`. c #CF7493",
"'. c #CB55AC",
"]. c #C974AC",
"[. c #923CCD",
"{. c #8F53CF",
"}. c #926ACF",
"|. c #AF6FCE",
" X c #9F4AE2",
".X c #AB79EC",
"XX c #C46CC4",
"oX c #6F85A8",
"OX c #6C88DC",
"+X c #9D8B93",
"@X c #9B8D97",
"#X c #B69B87",
"$X c #AD8E91",
"%X c #B79A97",
"&X c #BCA695",
"*X c #958DAD",
"=X c #A79AA5",
"-X c #B390B3",
";X c #90AFB4",
":X c #ADA2A9",
">X c #B6A7A9",
",X c #B9AAB5",
"<X c #B4B3B7",
"1X c #D8998A",
"2X c #D18990",
"3X c #DA9899",
"4X c #E59887",
"5X c #E58D90",
"6X c #D6AA85",
"7X c #DCB482",
"8X c #DCB788",
"9X c #D1AE91",
"0X c #E9AC8F",
"qX c #E1B683",
"wX c #E2BA85",
"eX c #E8B588",
"rX c #E3BC8C",
"tX c #E3BD92",
"yX c #E8BB98",
"uX c #CE90AF",
"iX c #C8AAA7",
"pX c #D7B7AA",
"aX c #D4AEB2",
"sX c #E7AEAA",
"dX c #DEC685",
"fX c #EFC78E",
"gX c #E4C194",
"hX c #ECC497",
"jX c #E5C49B",
"kX c #DAC3B2",
"lX c #E8C7A5",
"zX c #E9CBA5",
"xX c #F5CAAA",
"cX c #EAC9B6",
"vX c #9F99DF",
"bX c #B38FCF",
"nX c #B4ACCE",
"mX c #CC92CC",
"MX c #D0ACCC",
"NX c #D5A2D5",
"BX c #96CCCA",
"VX c #B1CED0",
"CX c #A9E1CE",
"ZX c #D7C9CA",
"AX c #CFC9D2",
"SX c #CBD2DA",
"DX c #DBD0D5",
"FX c #DED3DB",
"GX c #E8D6CA",
"HX c #E1D6DC",
"JX c #E5D8DA",
"KX c #E6DDE3",
"LX c #EDE4E6",
"PX c #EDE5E7",
"IX c #F0E6E7",
/* pixels */
"<.<.<.<.<.<.<.<.<.<.<.<.<.<.<.<.<.1.iX>X%X%X%X%X%X&XiXpXpXkXpXkXzXcXcXcXcXcXzXlXcXsXzXxXxXxXsXxXxXhXhXB.<.<.<.<.<.<.<.<.<.<.,.=.",
"<.<.<.<.<.<.<.<.<.<.<.<.<.<.<.<.<.1.<X>X:X:X=X@X*X@X:X:XnXkXZXAXAXDXDXFXHXKXFXFXFXHXKXKXKXKXLXLXIXIXIXxX<.<.<.<.<.<.<.<.<.<.=.,.",
"<.<.<.<.<.<.<.<.<.<.<.<.<.<.<.<.<.<.iX>X>X:X=X@X@X@X:X<XAXAXDXJXFXFXDXFXDXDXFXFXHXHXFXKXKXLXPXLXIXIXIXxX<.<.<.<.<.<.<.<.<.,.U ,.",
"<.<.<.<.<.<.<.<.<.<.<.<.<.<.<.<.<.<.1X,X>X:X=X@X@X*X:X<XMXZXAXDXDXFXFXFXFXFXFXFXFXHXHXFXKXIXPXPXLXIXIXB.<.<.<.<.<.<.<.<.,.U =.<.",
"<.<.<.<.<.<.<.<.<.<.<.<.<.<.<.<.<.=.h.,X>X=X=X=X@X@X=X:XaXAXAXZXDXFXFXHXFXFXFXFXFXFXJXLXLXLXPXPXLXLXGX<.<.<.<.<.<.<.<.,.U =.<.<.",
"<.<.<.<.<.<.<.<.<.<.<.<.<.<.<.<.=.Y i.iX>X:X=X@X+X=X=X,X,X,XZXZXJXHXJXHXKXFXFXFXFXFXFXLXLXPXPXPXIXLXB.<.<.<.<.<.<.<.,.Y =.<.<.<.",
"<.<.<.<.<.<.<.<.<.<.<.<.<.,.;.Y Y ,.<.<X>X>X@X=X@X!.} ~ D 4.k.x.6XpXZXDXJXJXKXFXFXFXFXHXLXLXPXIXIXGX<.<.<.<.<.<.,.=.U =.<.<.<.<.",
"<.<.<.<.<.<.<.<.<.<.<.<.,.Y U Y ,.<.<.iX>X:X:X+X( * = s A %.q.u.z.m.6X] 0.3XZXFXJXFXKXKXHXLXIXIXLXxX<.<.<.<.<.;.U U =.<.<.<.<.<.",
"<.<.<.<.<.<.<.<.<.,.,.=.U =.;.<.<.<.<.9X:X>X} l = = = s A $.q.w.u.z.C.qXS z f ' 1XpXZXLXPXPXLXIXPXjX<.<.;.,.U U =.,.<.<.<.<.<.<.",
"<.<.<.<.<.<.<.;.-.Y U U ,.<.<.<.<.<.<.8X>X9.N h = & & d A $.*.q.y.l.m.dXC.d A G 6.l.c.dXGXLXIXLXLXfX=.=.U U =.,.<.<.<.<.<.<.<.<.",
"<.<.<.<.,.=.U U Y -.<.,.<.<.<.A.G.G.F.dX>X) B a & * d A $.$.*.q.y.l.z.C.C.A f $.q.u.l.m.gXkXLXLXPX0XY =.=.=.<.<.<.<.<.<.<.<.<.<.",
"<.<.,.=.U U U ;.,.<.Z.A.A.A.F.F.G.G.G.dX#X5.n h * x ( ] 4.q.e.w.w.y.z.M.C.G d $.q.w.l.m.gXjXkXKXPXj.,.<.<.<.<.<.<.<.<.<.<.<.<.<.",
"<.,.Y U U =.;.<.<.<.F.F.F.F.F.F.F.F.F.S.+X!.[ [ R.^.^.E 3X@.5XK :.0.9X8X8X3.d A *.r.l.C.gXjXjXGXLXG.G.G.A.<.<.<.<.<.<.<.<.<.<.<.",
"<.=.Y U =.<.<.<.<.<.F.F.F.F.F.F.F.S.9.W.(.~.~./.`.`.5X`.`.`.@.#._.bX:XnXuXr.f G q.w.u.z.tXjXjXkXGXG.G.G.A.<.<.<.<.<.<.<.<.<.<.<.",
",.U U ,.<.<.<.<.<.<.F.F.F.F.F.y.9.I.P.L.J.P.L.T.T.{.{.'.`.].uX3X4X+.uXXX3X2X@.s.*.w.l.C.tXjXjXyXlXG.G.G.A.<.<.<.<.<.<.<.<.<.<.<.",
",.U =.,.<.<.<.<.<.<.F.F.F.S.e.} 8 I.[ [ R R.Y.T.T.T.Y. XvXbXuXbXMX3XO.o.9XiXuXuXqXN.z.M.tXtXtXtXjXF.G.G.F.Z.<.<.<.<.<.<.<.<.<.<.",
"U U <.<.<.<.<.<.<.<.F.A.4.8 3 6 T T [ W.Q.^.^.U.^.}.}.}.}.^.{.[. X}.mX2X+.uXMXMX,XuXeXeXyXlXtXtXdXG.G.G.F.Z.<.<.<.<.<.<.<.<.<.<.",
"U ;.<.<.<.<.<.<.<.1.A.0.! t J.6 , 5 % t y E @.c K  .O.~./.}.}.}.OX-X;XvXaX2X`.aXMXnXmX4X4XsXaX0X8XG.F.F.F.<.<.<.<.<.<.<.<.<.<.<.",
"Y ,.<.<.<.<.<.<.1.>.] ` c w [ 7 6 P.4 5 r r [ @.2Xf.X.K P o.).|.bX}.`.3XnXNX1X`.bXbX!._.].`.+.@.5X0XD.F.G.Z.<.<.<.<.<.<.<.<.<.<.",
"-.<.<.<.<.<.<.<.i.| ( ! c z w ! ^.I.I.T.Y.R.! c ! 2Xl.V.j. .L @.|.bXbX].3X].Q.0X].$X~.`.! X.V.qXC.0X8XG.G.p.<.<.<.<.<.<.<.<.<.;.",
"<.<.<.<.<.<.<.i.} !.6 z ^ c ^ t y [ {.U.I.T.U.Q.c O.uX9Xy.B.g.L X.|.).vX`.uX}.O.2X!.e.P h.l.j.5X5X5X5XsXD.p.<.<.<.<.<.<.<.<.<.=.",
"<.<.<.<.<.<.u.) : 9 +XT f.S G X.@.t y Q.Y.^.(.T.Q. .+.uXaXz.a.V.L t.).bXbX5X).|.*XO.c :.+.`.Q.|.f.L ].iX0XfX<.<.<.<.<.<.<.<.,.Y ",
"<.<.<.<.,.a.8.m ; - - 3 T f.3.S ' f.! w { {.^.(.T.{.X.o.uXsXqXy.eXL t.|.nXmXf._.E K g.! Q.*X|.).=.K nXC.sXuXj.<.<.<.<.<.<.<.;.,.",
"<.<.<.<.a.#X^ l ; ; ; - t y g.f.G ' f.o.e ! ^.{.!.T.[.@.#.].5XwXi.0XJ j.XXbX5X@.@.f.| E.T.!..Xe.H 2XiXfX5XmXuXa.<.<.<.<.<.<.U ,.",
"<.<.<.i.#X7.^ n ; ; ; ; p + q X.1XX.G e.#.u c /.{.Q.OX{.X.4X).5XhXS.V.U uXnX`...g.] R K.oX).).U L bXz.xX`.nXMXaX<.<.<.<.<.=.Y ,.",
"<.<.1.9X7.) ~ n n k l n S N % O c 4Xr.P e.g. .P /.}.!.OX/.o.3X'.4XD.fXt.g.mX-X@.O.Q R P.W.{.e.H @.nXa.yX].SXuXbXf.<.<.<.=.U ,.<.",
"<.<.V.#X2.) C m x x l N C S S k O y j.l.*.h.h.o.P /.}.@XT.'.#.NX].0XB.yXI uX;X].W.+X< P.{.(.I u -X1XrX3XAXuXvXNXmXh.1.Y Y ,.<.<.",
"<.i.&X9.2.) ~ m x l n N C D _ _ C * e j.l.*.l.j.t.X.{./.vX X/./.XX`.fXB.t.5X-X).oX9 H.7 U.X.J ..bXu.lXuXSX].vXNXf.X.t.U ,.<.<.<.",
"1.9X#X8.) ) C M n v x N V _ D _ ] _ z y 1Xl.*.m.f.h.].E.E.W  .@.2XuXsXD.4Xg.-X| =X4 H.K.W.f u -X&XC.sXMX<XXXvXNX3X5X5X,.<.<.<.<.",
"a.&X#X9.) / ~ M n x N N C V D D ` 3.5.^ - 6Xu.y.qX+.#.@.#X;XBXCXSXSX`.fXeXg.(.<X9 H.6 K.c u O.bXu.yX_.VX%X.XVXh.5X].sXB.<.<.<.<.",
"9X#X9.8.) / ~ m n x N m N V D _ ` 5.6.6.] Q 7Xw.N.6Xo.MXVXSXVXVXnXkX5XeXfX@.(.;X4 H.4 T f u ).f.eX+.].CX~.vXnXmXmXMXaXsX<.<.<.<.",
"iX#X9.8.2.^ : M m n N N N V D D ` ' 4.6.s.6.C v.:.S.#.#.sXuX1XN.i.S.sX0XB.@.!.9 , 4 4 w w /.$Xv.j.'.bXVX'..X.XNXcXNXmXNXi.<.<.<.",
"iX#X9.7.) ^ ~ m m x n n N B Z S ` 3.6.6.0.s.d./ a.y.0XH h.C.eXxXDXSXNX0XB._.O.< 7 4 0 0 R.~.l.1XO.@.mXBX'..XmXNXNXuXN.V.qX<.<.<.",
"&X9.9.7.) ^ ~ ~ m n n N N B V D _ ] ' 6.s.d.x.d.D &.C.o.g.sXNXNX].@...4Xh._.{ 2 5 # 0 1 W.e.@.Q.]. XbXVX).sXNXNX5X:.h.rXtXN.<.<.",
"#X9.7.) ( ^ ~ ~ m n n n m B V D D ` 3.6.6.d.x.x.x.G i.eXL o.5XL H H J j.h.Q.5 2 1 w # K.G @.E [.{..X/.uXsXmXbX1Xi.0XyXhXyXC.<.<.",
"#X9.7.) ) ( ^ ~ m m x n n N V Z D ` ] 6.s.d.x.x.b.v.X.yXL H t.t.U =.t.V.e./.2 1 0 r 1 z X.R U.}.).$XuXaXuXbX3Xi.yXxXhXlXjXrXi.<.",
"0.9.2.2.) ( ^ C m m n x l N V S _ ` ' 6.r.f.x.b.6X8X6Xk.g.U &.N.i.1X].C.+.W.< 0 0 5 y c 5 U.}.[ $XuXnX2XbX2XB.jXzXzXzXzXzXjXB.1.",
"#X9.2.) ) ^ ^ ^ m m x l l N B S S ` ' 6.s.d.x.b.n.7X0Xx.g.X.5X3XXXvXbXN.@.K.# q r t y 1 K.W.[ (.-XbX*XmX|.9XzXzXzXzXzXzXzXjXtX<.",
"9.8.) ) / ^ ^ m m x l l l l N V D D 3.6.s.d.x.b.6X8XtXtXX.@.vXnXVXBX1Xt.{ 4 q # t y 1 J.6 I.!.-X}.OX~.|.pXjXlXzXzXzXzXzXlXlXyXi.",
"8.5.) ) / ^ ^ m m x k k k k b V S _ ` 6.s.d.b.6X7X8X8XtX6XX.>X#X3X`.V.L [ # 0 % y 1 4 2 , } *XQ.{.@X>XsXgXgXjXjXzXzXlXlXlXlXlXN.",
"8.5._ ) / M C m n l k k k k j N S D 3.3.s.d.b.b.7XrXtXtXtX0.BXBXAXuXt.X.T # # y 1 4 $ 2 [ (.R R T.f.6X8X8XtXgXjXjXzXjXzXzXzXjXm.",
"8._ / ^ M C m n x l k k k h j b V D ' 4.s.d.x.6X8XrXrXrXeX#X.X.XmX3XP ] # r %   # 2 2 8 9 r T K.#Xx.M.7XtXgXgXgXjXjXzXjXzXzXjX7X",
"8./ / / C M N x l k k k h a a j b F ' 6.s.d.b.6XrXrXgXrXrXd.].`.5XN.K Q # 3 @ $ , < T 3   3 7.0.s.l.n.7XrXgXgXgXjXjXjXjXjXjXjX8X",
"0./ ^ C C C N l l l h h h ; a j b D ' 6.0.k.b.7X8XwXrXdXwXv.I t.j.f.G 3 5 - > > 2 3     : 7.%.%.s.l.n.7XrXrXrXtXgXgXgXjXjXjXjXtX",
"a.5./ C C C m v k k h h a a = s b V G 6.s.x.b.7X8XdX8X8XwXv.aXyXj.c ' < % $ > , #   $ : / b A 4.r.l.n.7XwXrXtXtXgXgXgXgXjXjXhXgX",
"<.q./ C B N N v v j = h a ; = s s V F 6.r.k.c.M.8X7X8XdXeX$XNXsXq.e 3 3 t > 6 r 0 $ : A i d A 3.s.v.M.7XqXrXrXrXrXgXgXgXjXjXgXgX",
"<.1.4.C B B N v j h h h ; a h s s b D 4.r.k.c.7X8XdX8X7XqX~.pXb.y w $ p # @   t : ; z O O f F q.s.c.n.7X7XwXrXrXwXgXgXgXjXgXgXrX",
"<.<.1.3.B B N v v v a a a = = s s b D 3.r.k.c.b.8X8Xm.M.6XuX3Xc q % %   @   % : % + O O & g F q.s.c.n.7XqXwXwXwXrXwXrXgXrXrXrXqX",
"<.<.<.<.3.C B N v j h s h = a s s b $.3.4.k.x.m.m.dX7Xb.~.~.+.c 0 $ - @   % t z z + O O = b $.4.k.v.n.C.7XwXwXdXrXwXrXwXrXqX8Xz.",
"<.<.<.<.<.%.B b v j j h h ; a a j b Z %.4.s.k.x.c.m.6Xx.| z i z 0 % $ % o # # o . O & O p b $.q.k.l.n.M.dXM.M.wXqXqXwXwXwXqXM.l.",
"<.<.<.<.<.1.3.N b N l j s ; v a g b Z $.4.r.k.k.x.b.x.2.t q 0 0 % z 2   % 2 > $ o & & & p g %.q.k.c.v.m.m.8X7XdXqXqXqXwX7X7Xn.i.",
"<.<.<.<.<.,.i.~ B b b v v v v v b B V 5.4.r.s.k.x.0.S.A.7.( ) ^ Q ^ *.~ % 3 + & & & & p s b %.q.r.l.l.z.c.m.b.m.M.7XM.7XM.M.a.<.",
"<.<.<.<.<.,.' - ; Z B B B B v v B Z $.%.6.6.s.s.5.x.A.A.Z.Y =.,.a.p.F.A.S.3.& & & & = & p g $.4.r.u.k.z.l.z.z.m.m.M.M.M.M.x.1.<.",
"<.<.<.<.;.P ~ + X ; B B $.C $.Z B B Z 5.4.4.5.^ x.p.,.=.U ;.<.<.,.<.G.G.F.F.y.: & = = i i g $.%.6.r.r.k.k.k.c.z.n.M.M.n.c.i.<.<.",
"<.<.;.U U ] - X X X - b B Z M B B Z $.4.3.B 5.u.&.U Y U ;.<.<.<.<.<.1.1.<.<.1.>.V s s s s s b F %.4.r.r.k.k.k.c.v.z.n.n.a.<.<.<.",
"<.;.Y Y P ~ + . . . . & ; v $.%.$./ / 8.) s.i.Y I Y =.,.<.<.<.<.<.<.<.<.<.<.<.<.1.%.g s d s g b F $.3.4.r.r.k.l.l.c.n.hXrX<.<.<.",
"1.=.U -._ - X . . . o o * p :.1.<.<.<.1.<.<.;.U Y ;.<.<.<.<.<.<.<.<.<.<.<.<.<.<.<.<.*.l j s s s g Z %.4.r.r.k.k.d.r.b.zXyX<.<.<.",
",.U U w.x % X X . . + O - j 1.<.<.<.<.<.<.<.U U -.<.<.<.<.<.<.<.<.<.<.<.<.<.<.<.<.<.<.=.P b s d g V $.4.r.k.s._ S 6.f.yXlXi.<.<.",
";.U :.] - + X X X X * h h G <.<.<.<.<.<.<.,.Y =.<.<.<.<.<.<.<.<.<.<.<.<.<.<.<.<.<.<.<.=.Y 1.>.*.F F *.q.3.' s O b ' f.8XxXi.<.<.",
"U U w.~ * o X o & = l ^ 6.u.<.<.<.<.<.<.<.-.Y ,.<.<.<.<.<.<.<.<.<.<.<.<.<.<.<.<.<.<.,.U =.<.<.<.<.<.<.w.b d O O p G s.6XyXB.<.<.",
"U ,.] l b ` 6.r.d.n.eXeXtXi.1.1.<.<.<.<.<.-.-.<.<.<.<.<.<.<.<.<.<.<.<.<.<.<.<.<.<.<.,.U <.<.<.<.<.<.<.>.b d p o t b e.x.yXC.<.<.",
"=.>.~ b %.r.l.v.V.qXrXeX8Xi.<.<.<.<.<.<.<.-.,.<.<.<.<.<.<.<.<.<.<.<.<.<.<.<.<.<.<.<.,.;.<.<.<.<.<.<.1.>.V j p O O d ' d.8XeX<.<.",
"-.w.x b 3.r.l.v.M.7XrXrXC.<.<.<.<.<.<.<.,.=.<.<.<.<.<.<.<.<.<.<.<.<.<.<.<.<.<.<.<.<.Y <.<.<.<.<.<.<.<.<.F d p O O i G d.7XeX<.=.",
"<.*.h A q.u.z.z.M.wXrXwXa.<.<.<.<.<.<.<.,.,.<.<.<.<.<.<.<.<.<.<.<.<.<.<.<.<.<.<.<.<.-.<.<.<.<.<.<.<.<.<.%.d i O O p G s.7XwX<.-."
};
