/* XPM */
static char *exit[] = {
/* columns rows colors chars-per-pixel */
"64 64 256 2 ",
"   c #2D0909",
".  c #360B0D",
"X  c #37130F",
"o  c #360D10",
"O  c #3B0D11",
"+  c #2D1012",
"@  c #3C1313",
"#  c #391716",
"$  c #47070A",
"%  c #57060B",
"&  c #49150D",
"*  c #57170B",
"=  c #480A11",
"-  c #570A11",
";  c #441513",
":  c #471A16",
">  c #571A14",
",  c #64070D",
"<  c #67180D",
"1  c #690C12",
"2  c #750811",
"3  c #671914",
"4  c #771714",
"5  c #57280B",
"6  c #4B211B",
"7  c #562618",
"8  c #6A250D",
"9  c #72290D",
"0  c #6B2312",
"q  c #662A19",
"w  c #772815",
"e  c #67341A",
"r  c #79361A",
"t  c #791C21",
"y  c #563128",
"u  c #642B22",
"i  c #673527",
"p  c #763A26",
"a  c #70431C",
"s  c #6C472E",
"d  c #79472A",
"f  c #7B4A35",
"g  c #76564C",
"h  c #880C0E",
"j  c #880D13",
"k  c #980A14",
"l  c #871517",
"z  c #961617",
"x  c #AA0B0E",
"c  c #A60614",
"v  c #B70916",
"b  c #A91818",
"n  c #B71717",
"m  c #92300E",
"M  c #882717",
"N  c #972918",
"B  c #873519",
"V  c #993716",
"C  c #A7390B",
"Z  c #A72916",
"A  c #B52718",
"S  c #A63718",
"D  c #B43413",
"F  c #A11A23",
"G  c #8F2F2B",
"H  c #883826",
"J  c #993825",
"K  c #A73A26",
"L  c #B83827",
"P  c #B12E31",
"I  c #CD1418",
"U  c #C62716",
"Y  c #D02E14",
"T  c #E32F19",
"R  c #D81720",
"E  c #C62A28",
"W  c #CA3629",
"Q  c #D03730",
"!  c #EA382B",
"~  c #99470E",
"^  c #88451A",
"/  c #864F19",
"(  c #964819",
")  c #995417",
"_  c #A9470D",
"`  c #BA4A0B",
"'  c #BB560D",
"]  c #A94919",
"[  c #B64718",
"{  c #A95516",
"}  c #BA571B",
"|  c #BB691B",
" . c #88472A",
".. c #984827",
"X. c #9A5327",
"o. c #864A35",
"O. c #994D30",
"+. c #905637",
"@. c #A94826",
"#. c #B44C24",
"$. c #B94A27",
"%. c #A95627",
"&. c #B75726",
"*. c #BC542B",
"=. c #BC5C2B",
"-. c #A64B35",
";. c #B94C36",
":. c #A65638",
">. c #B65536",
",. c #966136",
"<. c #AB632C",
"1. c #B96629",
"2. c #B86738",
"3. c #B77033",
"4. c #D04A0C",
"5. c #C95609",
"6. c #D6590D",
"7. c #C74917",
"8. c #D64917",
"9. c #C75A1C",
"0. c #D75918",
"q. c #E64A17",
"w. c #E75816",
"e. c #F05B14",
"r. c #CA620D",
"t. c #D7680C",
"y. c #CA6519",
"u. c #D76718",
"i. c #D77811",
"p. c #D9751D",
"a. c #EA700E",
"s. c #E76515",
"d. c #C84A24",
"f. c #D94A27",
"g. c #C55423",
"h. c #CC5323",
"j. c #CA5C24",
"k. c #C55729",
"l. c #C45C2B",
"z. c #CC5C2C",
"x. c #D45828",
"c. c #C74C36",
"v. c #D54936",
"b. c #C85636",
"n. c #D75938",
"m. c #ED4D2F",
"M. c #E75928",
"N. c #E75635",
"B. c #C26425",
"V. c #CB622B",
"C. c #C96928",
"Z. c #D66728",
"A. c #DC632B",
"S. c #C9752B",
"D. c #D7742B",
"F. c #C86737",
"G. c #D86535",
"H. c #C57535",
"J. c #DA7933",
"K. c #E66728",
"L. c #F5652C",
"P. c #E37728",
"I. c #F77522",
"U. c #F77A23",
"Y. c #E56736",
"T. c #F46A37",
"R. c #EA7737",
"E. c #F77637",
"W. c #B43F43",
"Q. c #D03F44",
"!. c #855847",
"~. c #9A5B48",
"^. c #B34C45",
"/. c #B85845",
"(. c #986A53",
"). c #A56744",
"_. c #B96945",
"`. c #B9754C",
"'. c #B46759",
"]. c #967764",
"[. c #B06E64",
"{. c #C84847",
"}. c #CE5248",
"|. c #DA5848",
" X c #DB5A57",
".X c #E74C48",
"XX c #E55845",
"oX c #DA6647",
"OX c #CF734E",
"+X c #D66857",
"@X c #E76945",
"#X c #F16B48",
"$X c #EA7748",
"%X c #F57849",
"&X c #E76855",
"*X c #E87758",
"=X c #F37A54",
"-X c #DA6E6A",
";X c #E76A65",
":X c #EA7868",
">X c #F27B67",
",X c #E67975",
"<X c #EF7B76",
"1X c #BD843B",
"2X c #E58210",
"3X c #D5892F",
"4X c #E78F2E",
"5X c #F88426",
"6X c #F98828",
"7X c #FA952C",
"8X c #E58A35",
"9X c #FDA431",
"0X c #FEAE34",
"qX c #9F897A",
"wX c #B38F72",
"eX c #D98449",
"rX c #D58C53",
"tX c #E88548",
"yX c #F4864B",
"uX c #EA8756",
"iX c #F58856",
"pX c #E99951",
"aX c #F79559",
"sX c #E9A850",
"dX c #CD906E",
"fX c #EC8569",
"gX c #F38867",
"hX c #E89A64",
"jX c #F69868",
"kX c #EA8978",
"lX c #F38878",
"zX c #EB9579",
"xX c #F59777",
"cX c #DAA26E",
"vX c #F8A66D",
"bX c #F7A777",
"nX c #E9B272",
"mX c #F6B47B",
"MX c #B29888",
"NX c #B9A596",
"BX c #EB8B85",
"VX c #F18D84",
"CX c #EB9486",
"ZX c #F49888",
"AX c #E89992",
"SX c #F49C91",
"DX c #D0A88A",
"FX c #E9AF8A",
"GX c #F6A588",
"HX c #F8B486",
"JX c #F5A493",
"KX c #F7AA97",
"LX c #F6B39B",
"PX c #F7B5A3",
"IX c #F2C68E",
"UX c #F1C7A9",
/* pixels */
"0X0X0X0X0X0XY.n.c.$.@.J J K @.-./.>.>.c.b.;.b.N.@Xn.c.c.K M 1 3 H @.c.|.+X*X+X'.+X}.>./.>.>.K @.K J J ..@.c.J.8X0X0X0X0X0X0X9X5X",
"0X0X0X0X0X0Xv.@.B B S [ h.h.k.b.G.Y.Y.@XY.Y.n.n.Y.n.c.h.;.V < 3 K c.b.b.oX@XOXoX@X$X$XY.@XG.k.z.x.z.$.K H B 3.8X0X0X0X0X0X0X5X9X",
"0X0X0X0X0X0X$.H w S #.h.M.K.K.n.Y.E.E.E.E.E.G.G.G.z.k.*.b.@.* w #.b.b.l.G.G.G.Y.R.E.E.E.E.Y.A.K.L.M.x.$.( w <.8X0X0X0X0X0X9XI.9X",
"0X0X0X0X0X0X;.J V d.h.x.A.A.A.A.T.E.E.8X8XT.Y.Y.Y.n.z.b.z.@.0 w #.z.b.F.G.G.Y.Y.T.T.E.E.T.Y.Y.A.x.x.h.d.7.( <.4X0X0X0X0X9XI.5X0X",
"0X0X0X0X0X0X;.J B } j.A.A.V.j.V.Y.K.Y.Y.P.Y.A.G.A.Z.z.l.z...* w @.b.b.F.F.z.z.z.A.Y.A.N.Y.M.x.h.9.x.h.h.$.V 1.3X0X0X0X9XI.5X0X0X",
"0X0X0X0X0X0X;.@...@.l.A.Z.j.=.l.V.V.V.V.z.z.V.z.G.V.F.l.x.@.0 w &.l.F.>.F.k.k.k.b.l.z.z.z.z.*.$.h.h.h.7.#...3.4X0X0X9XI.5X0X0X0X",
"0X0X0X0X0X0Xc.$.] &.&.1.V.=.&.=.&.=.F.l.=.&.$.*.z.z.=.l.A.$.0 w *.Z.l.l.z.z.l.*.$.*.k.h.*.$.$.$.d.h.#.&.d.] 3.8X9X5XI.5X0X0X0X0X",
"0X0X0X0X0X0Xb.%.%.&.&.1.C.F.%.%.&.=.V.V.=.&.%.=.V.V.=.>.D.&.0 B &.z.*.l.Z.l.*.$.#.$.z.z.g.@.@.@.$.g.#.$.*.@.C.D.I.I.5X0X0X0X0X0X",
"0X0X0X0X0X0Xb.$.{ <.%.1.S.B.%.%.1.C.C.C.V.=.&.=.C.Z.>.2.F.:.0 w #.l.&.l.Z.j.$.@.} g.h.h.g.#.] @.[ k.>.>.=...&.A.5X9X0X0X0X0X0X0X",
"0X0X0X0X0X0X}.-.X.<.<.<.D.3.%.<.C.S.D.S.C.B.=.1.C.C.OX_.OX:.3 0 ( =.#.&.Z.j.&.#.9.h.j.g.h.[ ] ] } &.'.'.>.J } D.0X0X0X0X0X0X0X0X",
"0X0X0X0X9X5Xb.>.X.<.<.3.3.C.1.1.F.S.J.H.S.C.1.B.C.C.2.)._.O.3 0 ..%.( &.y.j.&.#.g.9.j.9.9.} #.[ } #.^.:.:...1.J.0X0X0X0X0X0X0X0X",
"0X0X9X5XI.U.c.>.X.<.2.3.H.H.S.3.1.C.C.Z.V.V.V.C.C.C.2.2.2...4 w ( &.} } V.j.9.9.g.g.j.h.$.} #.} } &.%.:.@.( 1.3X0X0X0X0X0X0X0X0X",
"0X9XU.I.U.5Xb.>.X.3.1.3.S.S.S.C.B.g.j.z.x.j.Z.u.C.B.C.H.V.@.4 w ] l.9.9.B.y.Z.Z.h.h.x.8.g.g.9.9.y.B.&.=.1...1.J.0X0X0X0X0X0X0X0X",
"0X6XI.U.6X0X}.*.<.3.S.S.S.3XS.C.Z.A.x.M.K.K.P.K.p.Z.C.Z.D.&.M m } y.B.B.y.K.K.K.M.K.M.M.M.x.j.u.C.B.=.1.B.%.1.D.0X0X0X0X0X0X0X0X",
"9XI.I.9X0X0Xb.>.{ 3.S.S.S.p.P.K.$XyXuX=XyXtXtX8XK.u.D.D.D.9.N N } p.y.y.K.R.yXiXiXyX%X=XyX$XG.p.u.B.y.B.B.{ 1.8X0X0X0X0X0X0X0X0X",
"9XI.5X9X0X0Xn.=.{ y.p.p.u.P.R.yXgXbXGXGXGXbXxXjXyXR.P.A.K.9.Z N 9.u.0.K.$XiXjXbXbXZXZXbXbXaXyXK.Z.y.y.C.B.} C.J.0X0X0X0X0X0X0X0X",
"I.I.0X0X0X0Xn.*.{ y.u.u.K.R.iXjXGXLXLXPXLXLXLXKXvXiXR.K.P.9.A P z.K.Y.%XjXZXKXPXKXKXPXPXJXxXgXyXR.Z.u.y.C.} B.P.0X0X0X0X0X0X0X0X",
"I.7X0X0X0X0XG.>.] } 9.0.L.iXxXKXJXCXCXBXBXkXBXGXKXGXjX$XL.8.U W x.R.yXjXGXJXSXVXVXVXVXZXZXJXZXlX%XK.0.0.j.{ B.P.0X0X0X0X0X0X0X0X",
"U.9X0X0X0X0X|.b.S S [ x.@XjXJXKXVX*XY.n.n.|.|.:XSXKXGXgX@Xf.T E N.=XxXZXSXZX,X X X|.v.XX<XZXSXSXgX@Xf.[ [ V B.R.0X0X0X0X0X0X0X0X",
"6X0X0X0X0X0XG.;.N N A n.fXJXJXVX:XoXn.f.f.x.v.v.+XCXKXSX:X.X! ! &XfXSXZXBX X^.^.{.P P Q {.,XBXSXxX*Xc.Z M m &.P.0X0X0X0X0X0X0X7X",
"0X0X0X0X0X0X@X;.N Z Y Y.jXKXJXuXoXb.k.7.h.h.h.8.v.&XVXJXVX>X#X#X>XVXSXBX XP P W.P P F F E Q.-XAXZXfXv.x h l &.P.0X0X0X0X0X0X0X6X",
"0X0X0X0X0X0X@Xc.S Y 6.%XbXLXGX$Xu.y.y.u.y.Z.J.Y.8.f.;XZXSXVX>X<XlXZXBX-XE b z z F z F k F n  XBXSXgXn.v h M &.R.0X0X0X0X0X0X9XU.",
"0X0X0X0X0X0X$Xb.D 4.e.iXHXHXjX8X2X2X2X2X2XP.8XR.0.6.m.;XSXVX<X<XVXBX;XE c k j j l l 2 k k c ^.BXZXlXN.v k N =.P.0X0X0X0X0X0X7X9X",
"0X0X0X0X0X0X$Xn.7.w.a.aXHXbXaX8X2X2Xi.i.i.p.8X5Xa.e.e..X<XlXVXSXAX,XQ.v k k j l l l 2 l k c W.,XZXlX.XI b N k.R.0X0X0X0X0X0XI.9X",
"0X0X0X0X0X0X$Xz.7.s.a.aXHXGXuXD.4X3XS.1.&.y.P.a.a.a.s.m..X;X<XVX,XQ.E b z z z l z M M l F F Q -XVXlXXXI b Z l.$X0X0X0X0X0X5XU.9X",
"0X0X0X0X0X0X@XG.9.u.2XaXHXZX-Xb.8XsXH.%.J L [ 4.a.2XI.L.m.m..X.XQ.E Y D D Z C S K K K K P L {.<XZXzXXXY n Z l.8X0X0X0X0X5XI.9X0X",
"0X0X0X0X0X0X@XV.9.i.I.yXZXCX,X}.eXsXH.-.G P A U M.7XaXyX%XT.! T R Y T 8.4.4.4.8.h.x.k.c.n.n.@XZXJXlXXXT Y A F.R.0X0X0X5XU.9X0X0X",
"0X0X0X0X0X0X:X*XF.P.K.E.kXJXAXdXpXpXrX[.'.c.L d.@XyXyXaXaXiX#X#X! Q q.L.e.w.M.x.x.n.n.v.G.@X&XJXJXjX#XM.d.L b.tX0X7X5XI.9X0X0X0X",
"0X0X0X0X0X0XzXdXrX$XF.oXkXPXUXFXnXsXcXDXcXrXn.&XiX#X#XyXjXvXjXiXXX! m.L.T.L.T.oX}.b.}.c.n.@X=XKXKXlX=X@Xc.$.b.tXU.U.U.9X0X0X0X0X",
"0X0X0X0X0X0XCXzXdXrX}.OXCXUXUXUXIXnXnXIXnXdX$XuXjX=X=XjXHXmXjX#Xm.m.L.L.E.#X#X@X}.^.^.c.n.#XlXKXGX=X=X&X}.;.b.@XI.7X9X0X0X0X0X0X",
"0X0X0X0X0X0XkXzXrX`._.dXFXUXUXUXUXIXsXnXnXsXpXaXjXjXjXmXmXvXaXyX#X#X%XyX=X%X#XY.v.P P Q m.;XSXKXzXN.G.oXc.$.b.@X0X0X0X0X0X0X0X0X",
"0X0X0X0X0X7X+XOX`.:._.dXnXIXIXIXIXnXsXsXnXsX8XaXxXmXmXmXaXiXaXmXjXgXjXaXjXaX@Xf.W b A Q N.lXKXZX;Xv.8.8.D S b.tX0X0X0X0X0X0X0X0X",
"0X0X0X9XI.U.|.l.%. .-.`.rXnXnXFXHXnX3XsXsXpXaXhXvXvXjXiX6XaXvXHXHXmXmXmXmXjX#XT U n I Q &XZXKXlXXXY D D C Z =.eX0X0X0X0X0X0X0X0X",
"0X0X5XI.I.U.n.l._ m B X.3.eXfXzXGXcX$XS.3X$XuXjXjXjXjXiXiXaXvXbXmXmXvXvXvXaX#X8.U I I .XlXJXZX&XQ A D A Z N =.tX0X0X0X0X0X0X0X0X",
"0X6XI.I.U.9Xn.l.) m 4 M V #.oXfXzXzX:XoX8.f.@XtXyXuXuXiXjXiXiX%X%XiXE.yXiXT.q.q.Y R Q ;XSXSXgXn.D Z Z Z N N 2.eX0X0X0X0X0X0X0X0X",
"9XU.U.7X9X0Xn.k.) 9 4 2 2 z L |.:XVXBX+XQ Q d.A.P.P.Y.T.E.T.m.! m.m.m.L.T.q.q.T T ! ;XSXSXlX#Xf.D Z Z V N N 2.eX0X0X0X0X0X0X0X0X",
"9XI.U.9X0X0Xn.k.] 9 2 1 2 h c W &X<XVX<X XQ U Y h.7.7.f.e.e.T R R T e.e.e.q.q.q.m.=XVXJXZX=XM.8.D C V Z m M 2.eX0X0X0X0X0X0X0X0X",
"5XI.9X0X0X0Xc.B.{ B 1 , , 2 k P }.&X<XlX,X XE A W } $.c.P.e.R I I Y q.L.E.#XT.#X>XZXKXJXgXT.8.7.[ C C V m V >.8X0X0X0X0X0X0X0X0X",
"I.5X0X0X0X0Xc.k.{ 9 , , , 2 l P {. X;X>X<X<X|.W z.C.C.z.P.6.I v I I 8.=XgXiX>XVXPXPXLXGX=Xf.4.` D C m V C m %.OX0X0X0X0X0X0X0X0X",
"I.9X0X0X0X0Xc.*.) 0 % % - 1 t G W.}.@X;X<XkX:X&XG.S.C.j.D.j.b c x U q.iXjXxXZXLXUXPXKXxX@X8.[ C C C m V V B %.J.0X0X0X0X0X0X0X0X",
"5X0X0X0X0X0Xk.$.^ 8 % - % % 4 G P P Q  X:XlX<X<X*XR.y.9.Z.k.b k x Y q.$XjXxXJXLXPXJXxXgX@X7.` C C _ _ V m B %.OX0X0X0X0X0X0X0X9X",
"9X0X0X0X0X0Xc.%.( 8 % $ % % , 4 F P E Q  X>XlXlXzXpXD.0.Z.k.b k x I 0.L.iXxXJXJXxX=X#X$XY.6.` ` ` ` ' ` m M X.H.0X0X0X0X0X0X0X6X",
"0X0X0X0X0X0X;.-.( 8 $ $ $ % % , j b b v W &X>XVXGXhX$Xx.Z.h.A k v W N.%XxXJXSXlX#XL.M.K.A.5.` ` 5.5.r.' V r %.F.0X0X0X0X0X0X0X5X",
"0X0X0X0X0X0X;.@.^ < $ $ $ $ % , 1 l k k b Q &X>XCXCXkXOXG.j.A v I Q *XxXGXGXxX%XM.w.6.0.s.5._ ` 5.5.5.' m w O.F.0X0X0X0X0X0X9X7X",
"0X0X0X0X0X0X>.%.) 8 $ $ $ $ % % 1 4 l k b U W @XzXGXFXkXiXG.Q n E  XxXGXGXxX%Xe.w.6.6.6.s.r.` ' 5.4.5.C 4 9 -._.0X0X0X0X0X0XI.9X",
"0X0X0X0X0X0X/.%.) 9 $ $ $ $ $ % - 1 2 j z b n c.*XxXZXGXxX:XQ.{. X<XZXGXjX%Xs.q.4.6.5.6.t.u.' ' ` ` 7.C l w O.2.0X0X0X0X0X7XI.9X",
"0X0X0X0X0X0X;.>.~ 8 % % % % % < < 1 1 2 4 N N $.oXrXxXZXKXzX-X-X,XZXZXjXyXs.t.a.6.5.r.u.s.t.5.r.` _ ] L b M O.2.0X0X0X0X7XU.6X0X",
"0X0X0X0X0X0X/.>.~ 8 % < < < , 4 < 1 1 1 3 M G @.>.H.$XgXFXJXBXBXAXVXgXyXI.t.a.t.t.r.r.y.t.i.t.r.' ( B Z b N O._.0X0X0X7XU.7X0X0X",
"0X0X0X0X0X0X/.-.V 0 * 8 8 8 < 4 1 < , % < w G ..:.F.H.*XbXFXfXfXfX:X$XP.i.r.t.t.r.' ' } r.r.' ' } >.O.G G t O.).0X9X7XI.7X0X0X0X",
"0X0X0X0X0X0X/.>.] < * * 8 < * < * < - % * 0 r J :.2.`.OXhXhXoXoXoXoXF.} ' _ _ _ ~ ~ ~ ( ) ~ ~ ] *.G. X~.u u o._.6XU.U.7X0X0X0X0X",
"0X0X0X0X0X0X/.;.V < & 5 e 5 5 * * * & $ * < 9 H +.).).`.rXrXW L 1.C.] N m M 4 9 < 0 0 0 8 8 0 B $.N.oX;.u y o.:.U.5X7X0X0X0X0X0X",
"0X0X0X0X0X9X'.>.B 5 @ s +.d e * $ * & * < < 9 w d (.(.).OX_.N z { <.@.B l 1 , % - 1 > 3 u 7 > B $.x.v.K > 6 H :.9X9X0X0X0X0X0X0X",
"0X0X0X0X0X9X/.~.a 5 5 ,.1X1X) a * & X * > 0 w 0 q f !.o.:. .3 1 r ..O.O.^ B w 8 3 3 7 q u u > B $.f.d.M - :  .).0X0X0X0X0X0X0X0X",
"0X0X0X0X6XU.'.~.d 5 / | 4X4X2X/ 8 & $ . & 8 0 0 > 7 u u u > - - > u  .<.| ) ( ^ r q q r i e e B g.f.S 4 & : o.).0X0X0X0X0X0X0X0X",
"0X0X7XI.I.I.'.+.a 5 ~ i.4X3X3X| ^ & & & & 8 r e = $ $ - - = = = = >  .S.3X| { { ) ^ ^ ( ..^ ^ ] h.f.N * $ : o.,.0X0X0X0X0X0X0X0X",
"0X7XI.I.I.7X'.~.a 5 / 3.sXsX3X3X{ r w w B B X. .7 $ = = = : = = = y +.3X3X| | y.&.%...) %.X.) 1.Z.d.B $ . ;  .).0X0X0X0X0X0X0X0X",
"0X5XI.E.7X9X[.~.d s ,.wXDXcXrX3XOX,...@.] @.>.X.7 = @ : 7 : = . = i ,.3.H.%.%.1.:.-.X.^ O.X./ %.Z.z.V * . # d ).0X0X0X0X0X0X0X0X",
"9XI.I.9X0X9X[.~.f qXwXDXUXDXdXwXwX[.:.X...O.:. .6 ; & : 7 6 X . : u d X.X.^ O.O.H u q 7 e e e B =.G.$.M $ ;  .).0X0X0X0X0X0X0X0X",
"7XI.7X0X0X0X[.~.qXwXcXnXDXDXNXNXMX].:.+. . . .p : & & 5 e 5 X X ; 7 q r e i f !.g u O O O o ; > X.G.h.N 3 : f ,.0X0X0X0X0X0X0X0X",
"I.I.0X0X0X0X[.].(.wXwX1XdXDXDXNXMX].~. .d p r 7 X & ; 7 a e X   6 u u q > 7 o.(.~.p : O O O O ; r #.h.K 3 7 f ).0X0X0X0X0X0X0X0X",
"I.9X0X0X0X0X[.(.(.).)._.OXDXNXqXg g y 7 7 7 > ; X * & 7 a y X + y s e q 7 : y +.^.o.7 ; O O o + > r ..H u y o.).0X0X0X0X0X0X0X0X",
"5X0X0X0X0X0X[.~.f  . .:.`.dXwXg y # # # @ X @ o & e e 5 a a X + y p e q q ; : u G i 6 ; # # @ # # 6 y i u u f ).0X0X0X0X0X0X0X0X",
"6X0X0X0X0X0X[.!.i a p +.(.].g y # X   . . . X O 7 a a e / d + + y i q e q : @ O : : : # : 6 # : # 6 : 6 6 y o.(.0X0X0X0X0X0X0X6X",
"0X0X0X0X0X0X[.!.6 6 6 y s s s y +             X 7 ../ e / d # + s s y 7 > : o o o = @ # # 6 6 # # # # : 6 6 f ).0X0X0X0X0X0X0X6X"
};
