/* XPM */
static char *floor[] = {
/* columns rows colors chars-per-pixel */
"64 64 46 1 ",
"  c #F77522",
". c #F77622",
"X c #F77922",
"o c #F77923",
"O c #F77A23",
"+ c #F77B24",
"@ c #F88225",
"# c #F88326",
"$ c #F98727",
"% c #F98728",
"& c #F98828",
"* c #F98D2D",
"= c #FA922B",
"- c #FA932B",
"; c #FB972D",
": c #FB982D",
"> c #FCA130",
", c #FCA230",
"< c #FDA430",
"1 c #FDA531",
"2 c #FEAB33",
"3 c #FEAE33",
"4 c #FDAA36",
"5 c #FEAE34",
"6 c #FAA239",
"7 c #FAA73C",
"8 c #FEB237",
"9 c #FEB238",
"0 c #FEBA3F",
"q c #FDB741",
"w c #FEBB40",
"e c #FEBF43",
"r c #FEBF44",
"t c #FCC64E",
"y c #FECA4C",
"u c #FECF50",
"i c #FED050",
"p c #FDD456",
"a c #FED958",
"s c #FEDB58",
"d c #FEDE5A",
"f c #FEDE5B",
"g c #FEE45F",
"h c #FEE55F",
"j c #FEE761",
"k c #FEE861",
/* pixels */
"55555555555555555555+15555555555555555553%=5555555555555555555,$",
"5555555555555555555=%55555555555555555551o55555555555555555555#,",
"5555555555555555553#%5555555555555555555;.5555555555555555553<.:",
"555555555555555553#.1555555555555555555=.;5555555555555555551o#8",
"55555555555555553#o1555555555555553355:.=555555555555555553,.#33",
"5555555555555555#.1555555555555555535=.:5555555555555555551o$355",
"55555555555551: o155555555555555554,..=55555555555555555,# #5555",
"5555555555551O  ,55555555555555555#..:55555555555555555= .$45555",
"5555553881,# #=3555555555555552,;.o$55555555555555331:..$1555555",
"5555533-$O  ,3335555555555551$#..;1533555555555555%$..#,55555555",
"5555,#  O$4133tsjjjjeew55551..%%=33wyjjjjyee35555#.#&&5555555555",
"551$   :13tsssggjjjjjjgw551o#,55essgjjjjjjjju355#.,4553355555555",
"51   #=555jjgkkkjjjjjjs35=*qjjjjjjjjjjjjjjjj551$7skks23355555555",
"5%  #33353jjgkjjjjjjjja555sjjjjjjjjjjjjjjjjj555ujjjjs33355555555",
", O,555555jjjjjjjjjjjj55rkkkjjjjjjjjjjjjjjje53jjjjjjs85555555555",
", #4555555jjjjjjjjjjjj58sjjjjjjjjjjjjjjjjjje2ujjjjjjgt5555555555",
"  55555555jjjjjjjjjjje3sjjjjjjjjjjjjjjjjjja3ekjjjjjjje5555555555",
" :55555555jjjjjjjjjjjewgjjjjjjjjjjjjjjjjjja3sjjjjjjjjr5555555555",
"O135555555jjjjjjjjjjjeyjjjjjjjjjjjjjjjjjjja0kkjjjjjjjr5555555555",
"$355555555jjjjjjjjjjs9jjjjjjjjjjjjjjjjjjjjwsjkjjjjjjjr555555555=",
"5555555555ejjjjjjjjksajjjjjjjjjjjjjjjjjjjjejjjjjjjjjkr555555555&",
"5555555555ejjjjjjjjkwsjjjjjjjjjjjjjjjjjjjyejjjjjjjjjks555555551o",
"5555555555rjjjjjjjjsrjjjjjjjjjjjjjjjjjjjgwjjjjjjjjjjkj55555555:,",
"5555555555ejjjjjjjjeejjjjjjjjjjjjjjjjjjjs3jjjjjjjjjjkj55555555.,",
"5555555555ekjjjjjju5yjjjjjjjjjjjjjjjjjjs30kjjjjjjjjjjj3355555#o1",
"55555555559sjjjjjy5ujjjjjjjjjjjjjjjjjjs90gkjjjjjjjjjjj335533#.15",
"55555555538akjjju3yjjjjjjjjjjjjjjjjjks8wjjjjjjjjjjjjjj33555#+155",
"55555555533akkse3ujjjjjjjjjjjjjjjjjjt9wgjjjjjjjjjjjjjj335=#.1555",
"55555555553sge54yjjjjjjjjjhkkkjjjju320ghjjjjkkhhjjjjgt2<..o15555",
"55555533555663wsjjjjjjjjjjhgkkjjse33ahkhjjjjkkkhjjjjg9$X.;155555",
"55555581,#O$8skkjjjjjjjjjjjggsu383yjjjkkjjjjkkhhgga0:&+%35555555",
"55555=$O  1iskkkjjjjjjjjjjst03350ajjjkkkjjjkkkggtt3=#,1555555555",
"532,   #=5ejjjjjjjjjjjjjsw559ryjjjjjjjjjjjjjjsu353esa35555555555",
"53#   #555sjjjjjjjjjjjjy5555skjjjjjjjjjjjjjjg9353ujka35555555555",
"5% O+15555jjjjjjjjjjjjs355yjkkjjjjjjjjjjjjjj353wjjjjs35555555555",
"1+ :155555jjjjjjjjjjjjw5wsjjjkjjjjjjjjjjjjjy33agjjjjs35555555555",
", O1555555jjjjjjjjjjjj53yjjjjjjjjjjjjjjjjjjr5wjjjjjjjr5555555555",
"# 15555555jjjjjjjjjjjy3ujjjjjjjjjjjjjjjjjjs9wgjjjjjjje5555555555",
" #55555555jjjjjjjjjjjr9sjjjjjjjjjjjjjjjjjjs2yjjjjjjjje5555555555",
" ,55555555jjjjjjjjjjjrrjjjjjjjjjjjjjjjjjjjs3jjjjjjjjje5555555555",
"$555555555jjjjjjjjjjg0jjjjjjjjjjjjjjjjjjjjusjjjjjjjjje555555555,",
"1555555555yjjjjjjjjjsujjjjjjjjjjjjjjjjjjjj0gjjjjjjjjje555555555%",
"5555555555ejjjjjjjjjuajjjjjjjjjjjjjjjjjjgaejjjjjjjjjjy555555552#",
"5555555555ejjjjjjjjj0gjjjjjjjjjjjjjjjjjjhtsjjjjjjjjjjj55555555,;",
"5555555555ejjjjjjjjeejjjjjjjjjjjjjjjjjjja8kkkkjjjjjjjj55555555.>",
"5555555555ejjjjjjjs9ejjjjjjjjjjjjjjjjjjj03kkjkjjjjjjjj5555555=.>",
"5555555555wjjjjjjs5wjjjjjjjjjjjjjjjjjjgw8gghjjjjjjjjjj555555;.=5",
"55555555553sjjkkf9wgjjjjjjjjjjjjjjjjjjw5dhghjjjjjjjjjj55555=.;55",
"55555555554ajjga30jjjjjjjjjjjjjjjkjja09sjjjjjjjjjjjjjj5551;.=555",
"55555555555sjyw3egjjjjjjjjjjjjjjjkse33gjjjjjjjjjjjjjjy55$o.;5555",
"55555553555yt59ejjjjjjjjjjjjjjjjja53esjjjjjjjjjjjjjjjw,#.#=55555",
"555555535=%+1isjjjjjjjjjjjjjkks763wsjkjjjjjjjjjjjjjjw=..,4355555",
"553351,#  =5ykjjjjjjjjjjaassy#$15wjjjjjjjgghjssssp;#$$=555555555",
"5538$OO #,55ykjjjjjyeeer33,$ ;555wjjjkjjst0tr853$.#5555555555555",
"55:   +15555555555555531...o=5555555555533333#...#35555555555555",
"5=   :15555555555555551o..#:5555555555533333#...,255555555555555",
"4# %-55555555555555555;.+%55555555555555555,..&15555555555555555",
",  ,555555555555555555..%555555555555555555$..555555555555555555",
": -5555555555555555551.#5555555555555555552#o1555555555555555555",
"  5555555555555555555$.,555555555555555553,.&5555555555555555555",
" ,3355555555555555555%$5555555555555555555,.55555555555555555555",
"$25355555555555555555%15555555555555555555,;55555555555555555555",
"=5555555555555555553,#55555555555555555535o15555555555555555555%",
"555555555555555555581:55555555555555555538$55555555555555555555%"
};
