/* XPM */
static char *MV1[] = {
/* columns rows colors chars-per-pixel */
"64 64 245 2 ",
"   c #06050B",
".  c #0A0608",
"X  c #130A0A",
"o  c #0E0C12",
"O  c #150F16",
"+  c #171219",
"@  c #251619",
"#  c #301717",
"$  c #1A1822",
"%  c #291E26",
"&  c #352528",
"*  c #34272F",
"=  c #401D1D",
"-  c #49211D",
";  c #472627",
":  c #582828",
">  c #572E32",
",  c #45373E",
"<  c #573637",
"1  c #6B2D2A",
"2  c #6A3635",
"3  c #763B37",
"4  c #62423F",
"5  c #7B453B",
"6  c #723F43",
"7  c #524F51",
"8  c #694545",
"9  c #794847",
"0  c #7A5651",
"q  c #79625D",
"w  c #5E5E60",
"e  c #766D6F",
"r  c #8B3F3A",
"t  c #C63726",
"y  c #854D3E",
"u  c #96473D",
"i  c #B9503F",
"p  c #E14427",
"a  c #F04F35",
"s  c #F77522",
"d  c #F77A23",
"f  c #F77729",
"g  c #864745",
"h  c #964844",
"j  c #885448",
"k  c #905451",
"l  c #945754",
"z  c #A4564A",
"x  c #A7514F",
"c  c #B75E4C",
"v  c #AB5C55",
"b  c #97695C",
"n  c #A56357",
"m  c #BA6356",
"M  c #B16D54",
"N  c #B15E66",
"B  c #936C6A",
"V  c #B67666",
"C  c #B07669",
"Z  c #CA5E54",
"A  c #ED5A42",
"S  c #D46C4D",
"D  c #C96B5C",
"F  c #C67559",
"G  c #D67657",
"H  c #EA654A",
"J  c #EC6954",
"K  c #F16A54",
"L  c #E8795C",
"P  c #C56C6B",
"I  c #C6786A",
"U  c #D67B66",
"Y  c #D27371",
"T  c #E57B64",
"R  c #F27D7E",
"E  c #F88426",
"W  c #F98728",
"Q  c #F98828",
"!  c #FA932B",
"~  c #FB982D",
"^  c #FDA431",
"/  c #FEAE34",
"(  c #FCAB3B",
")  c #FEB237",
"_  c #FEB53A",
"`  c #A58371",
"'  c #BF8277",
"]  c #DD9D57",
"[  c #EB8C59",
"{  c #FAAD4E",
"}  c #FEBF43",
"|  c #FDB14B",
" . c #FCB356",
".. c #CB836A",
"X. c #D68569",
"o. c #C88777",
"O. c #DA8975",
"+. c #D19473",
"@. c #D7967B",
"#. c #E7886B",
"$. c #E9946A",
"%. c #F49A68",
"&. c #E48B72",
"*. c #E78878",
"=. c #EA9877",
"-. c #F1947A",
";. c #EBA669",
":. c #F5A86D",
">. c #FBB767",
",. c #ECA67A",
"<. c #F5A677",
"1. c #EAB37A",
"2. c #F7B378",
"3. c #FABC7C",
"4. c #FDC84D",
"5. c #FECF50",
"6. c #FEDB58",
"7. c #FEE45F",
"8. c #F7C97C",
"9. c #FEE761",
"0. c #FEE861",
"q. c #FEE66B",
"w. c #FCE777",
"e. c #CD7F82",
"r. c #8B8B8C",
"t. c #BB958A",
"y. c #A2A19C",
"u. c #AFADB1",
"i. c #D99789",
"p. c #CB9991",
"a. c #E89A86",
"s. c #EA9488",
"d. c #F38695",
"f. c #CBA68A",
"g. c #DBA383",
"h. c #D8A796",
"j. c #D8B396",
"k. c #EAA887",
"l. c #F3A686",
"z. c #EFB48D",
"x. c #F7B787",
"c. c #F5B38C",
"v. c #F5BB8D",
"b. c #EAA797",
"n. c #F4AB94",
"m. c #EBB899",
"M. c #F5B693",
"N. c #F4BC95",
"B. c #F9BA96",
"V. c #F6BB9A",
"C. c #CD9EA3",
"Z. c #DAAEA9",
"A. c #D1B5A8",
"S. c #DABBB7",
"D. c #EDB2AB",
"F. c #EBB7A8",
"G. c #F3BEA2",
"H. c #F4BAA9",
"J. c #FAC487",
"K. c #F9D682",
"L. c #F5C394",
"P. c #FAC494",
"I. c #F8CA96",
"U. c #F9C39C",
"Y. c #FACA9B",
"T. c #FAD39B",
"R. c #FBE789",
"E. c #FBE997",
"W. c #DBC6B6",
"Q. c #ECC5A9",
"!. c #F5C5A2",
"~. c #F7C7A7",
"^. c #F9C4A3",
"/. c #FBCCA3",
"(. c #F4C4AB",
"). c #F6CCAC",
"_. c #F9CCAB",
"`. c #FBD3A4",
"'. c #FAD4AC",
"]. c #F8D8AA",
"[. c #E7C7B8",
"{. c #F2C3B3",
"}. c #F9C6B2",
"|. c #F5CBB3",
" X c #FACCB4",
".X c #F4CDBB",
"XX c #F9CBBC",
"oX c #EBD3BC",
"OX c #F5D3B5",
"+X c #FAD4B4",
"@X c #F6D3BB",
"#X c #FAD4BB",
"$X c #F8DAB8",
"%X c #FBDABC",
"&X c #F7E6A7",
"*X c #F9E7B9",
"=X c #FCF0BA",
"-X c #C9BDC0",
";X c #DCCCCB",
":X c #DAD5D4",
">X c #EACBC5",
",X c #F3CBC4",
"<X c #E9D5C9",
"1X c #F4D3C2",
"2X c #FAD4C3",
"3X c #F6DBC4",
"4X c #FADCC4",
"5X c #F5D4CC",
"6X c #FAD7CC",
"7X c #F5DCCA",
"8X c #FADDCB",
"9X c #EDDCD3",
"0X c #E9DBDC",
"qX c #F3DAD5",
"wX c #F4DCD4",
"eX c #FADCD2",
"rX c #FAE1C5",
"tX c #F7E8C7",
"yX c #FAE2CD",
"uX c #EEE4D7",
"iX c #F4E2D5",
"pX c #FAE4D4",
"aX c #FBEAD6",
"sX c #F4E4DC",
"dX c #FAE6DA",
"fX c #F5EBDA",
"gX c #FBE9DD",
"hX c #FAF2D1",
"jX c #E6DAE2",
"kX c #E7E7EA",
"lX c #F4E6E0",
"zX c #F5EBE4",
"xX c #FBECE3",
"cX c #F4EEEB",
"vX c #FAEDE8",
"bX c #FCF2E6",
"nX c #F5F1EC",
"mX c #FBF3EC",
"MX c #E6EAF4",
"NX c #F1EFF0",
"BX c #F5F4F4",
"VX c #FBF5F3",
"CX c #FAF9F6",
"ZX c #F6F7FA",
"AX c #FBFBFB",
/* pixels */
"/ / / / / / / / / / / / / / / / / / / / s ^ / / / / / / / / / / / / / / / / / / / Q ! / / / / / / / / / / / / / / / / / / / ^ Q ",
"/ / / / / / / / / / / / / ) / / / / / ! E ) / / / / / / / / / / / / / / / / / / ^ d / / / / / / / / / / / / / / / / / / / / E ^ ",
"/ / / / / / / / / / / / / / / / / / / E E / / / / / / / / / / / / / / / / / / / ~ s / / / / / / / / / / / / / / / / / / / ^ s ~ ",
"/ / / / / / / / / / / / / / / / / / E s ^ ) / / / / / / / / / / / / / / / / / ! s ~ / / / / / / / / / / / / / / / / / / ^ d E ) ",
"/ / / / / / / / / / / / / / / / / E s ^ / / / / / / / / / / / / / / / / / / ~ s ! / / / / / / / / / / / / / / / / / / ^ s E / / ",
"/ / / / / / / / / / / / / / / / E s ^ ) / / / / / / / / / ) / / / / / / / ! s ~ / / / / / / / / / / / / / / / / / / ^ s Q / / / ",
"/ / / / / / / / / / / / / ^ ~ s s ^ / / ) / / / / / / / / / / / / / / ^ s s ! / / / / / / / / / / / / / / / / / ^ E s E / / / / ",
"/ / / / / / / / / / / / ^ d s s ^ / / / / / / / / / / / / / / / / / E s s ~ / / / / / / / / / / / / / / / / / ! s s E / / / / / ",
"/ / / / / / / ) ) ^ ^ E s d ! / / / / / / / ) / / / / / / / / ^ ! d d E / / / / / / / / / / / / / / / / ^ ! s s E ^ / / / / / / ",
"/ / / / / / / ! Q d s s ^ / / / / / / / / / J.zXnXvXvXmXmXVXvXnXnXmXCXVXVX4X>./ / / / / / / / / / / Q E s s E ^ / / / / / / / / ",
"/ / / / ^ E s s d W / ^ / / 4.6.0.0.0.0.4.$XBXCXBXCXZXAXAXAXCXAXAXAXAXAXAXAXZX=X0.4.4._ / / / / / E s E Q Q / / / / / / / / / / ",
"/ / ^ E s s s ! ^ ) 4.6.6.6.7.7.0.0.0.w.uXZXCXZXBXAXAXZXAXAXBXAXAXAXAXAXAXAXAXAXtX0.0.0.5./ / / E s ^ / / / / / / / / / / / / / ",
"/ ^ s s s E ! / / / 9.9.7.0.0.0.9.9.9.uXZXZXZXCXcXBXAXAXAXAXAXZXAXAXAXAXAXAXAXAXCXE.0.0.( ) / Q ^ 6.0.0.6./ / / / / / / / / / / ",
"/ E s s W / / / / / 9.9.7.7.9.0.9.0.&XZXCXCXAXZXNXZXZXAXAXAXBXBXAXAXAXAXAXAXAXAXAXAXhXR./ / ) 5.7.7.0.0.6./ / / / / / / / / / / ",
"~ s d ^ / / / / / / 9.9.9.9.9.9.0.w.BXBXZXCXAXCXBXBXAXAXAXAXBXBXAXAXAXAXAXZXAXAXAXAXAXAX_./ 7.7.9.0.0.0.6.) / / / / / / / / / / ",
"^ s E / / / / / / / 9.9.9.9.9.9.7.hXZXCXCXZXZXAXNXBXBXAXAXAXZXBXZXAXAXAXAXAXCXAXAXAXAXAXAXT.7.7.9.0.0.0.7.4./ / / / / / / / / / ",
"s s / / / / / / / / 9.9.9.9.9.9.R.NXZXCXZXCXCXAXVXNXBXAXAXAXAXNXAXAXAXAXAXBXZXAXAXAXAXAXCXhX9.9.9.0.0.9.0.4./ / / / / / / / / / ",
"s ~ / / / / / / / / 9.9.9.9.9.9.*XBXZXZXCXZXZXAXZXBXBXAXAXAXAXBXBXAXAXAXAXBXCXAXAXCXAXAXBXVXE.7.7.0.9.9.7._ / / / / / / / / / / ",
"d ^ / / / / / / / / 9.9.9.9.9.9.E.BXBXZXZXCXAXCXCXZXZXAXAXAXAXAXBXAXAXAXAXBXCXAXAXCXAXAXBXCXCX=X9.9.9.9.7.4./ / / / / / / / / / ",
"Q / / / / / / / / / 9.9.9.0.9.9.7.nXBXBXAXZXAXAXCXZXZXAXAXAXAXAXAXAXAXAXAXNXAXAXAXnXAXAXCXAXAXAXhX9.9.9.7.} / / / / / / / / / ! ",
"/ / / / / / / ) / / } 9.9.9.9.9.0.=XBXZXZXZXCXAXAXZXCXAXAXAXCXZXAXAXAXAXAXNXAXAXAXBXBXAXAXAXAXAXnX0.0.0.0.4./ / / / / / / / / Q ",
"/ / / / / / / / / / } 9.9.9.9.9.0.R.ZXZXCXAXAXAXAXCXAXAXAXAXAXAXAXAXAXAXAXVXAXAXAXAXBXAXAXAXAXAXZXR.0.0.7.6./ / / / / / / / ^ s ",
"/ / / / / / / / / / } 9.9.9.9.9.0.0.nXCXCXZXZXCXAXAXZXAXAXAXAXCXVXAXAXAXAXAXAXAXAXAXBXZXAXAXAXAXZXR.0.0.7.0.) / / / / / / / ~ ^ ",
"/ / / / / / / / / / } 9.9.9.9.9.0.0.bXZXCXZXAXCXS.nXAXAXmXH.D.J J a 5XCXwXAXAXAXAXAXAXBXZXAXAXAXfX7.0.0.7.7.) / / / / / / / s ^ ",
"/ / / / / / / / / / } 7.9.9.9.9.0.0.nXCXZXAXAX9XZ.lXdXs.a =.sXH.A b.nX{.p n.AXAXAXAXAXAXAXAXZXZXR.7.0.7.7.7./ / ) / / / / E s ^ ",
"/ / / / / / / / / / ) 6.9.9.9.9.0.4.sXCXAXAXZXxXvX*.H.s.T 1X>Xp H b.5XK L K AXAXAXAXAXAXAXCXBXcX0.0.0.0.7.7./ / / / / / E s ^ / ",
"/ / / / / / / / / / ) 6.9.9.9.9.5.) K.ZXAXZX5XJ b.A 5Xa H s.<XF.,X,X,Xa.b.H eXAXAXAXAXAXAXkXAX*X0.0.0.0.0.7./ / / / / E d ^ / / ",
"/ / / / / / / / / / ) 6.9.9.6.} ) 5.7.*XAXCXH.J D.K b.D.lXAXcX<X>X9XBXAXAX1XD.AXAXAXAXAXAXNXCXR.0.0.7.0.0.0./ / / ! E s ^ / / / ",
"/ / / / / / / / / / / 6.9.} / / 4.7.0.0.VXCXD.XXqX{.ZXAXAXAXBXuXzXwX[.F.>XzXVXAXAXAXAXAXAXAX=X7.0.0.0.0.7.4./ ^ s s d ^ / / / / ",
"/ / / / / / / / / / ( ( ^ / } 6.7.7.0.0.hXAXF.VXAXAXjXu.r.w 7 w r.r.;XiXsX5XbXAXAXAXAXAXAXAXR.7.0.0.0.0.7.) E s s ~ ^ / / / / / ",
"/ / / / / / ) ^ ^ E f F. .6.0.0.7.0.0.0.hXAXCXBX-Xw             o 5 L.`.`.t.u.cXCXAXAXAXAXAXE.7.7.7.6.} ~ Q d Q / / / / / / / / ",
"/ / / / / ! W d s s N.6XOX0.0.0.0.0.0.0.=XCXkXw   o         & 3 g ,.L.].].G.C B r.kXAXAXAXAX&X7.4.4./ ! Q ^ ^ / / / / / / / / / ",
"/ / { ~ s s s E ! ) J.5X|.9.9.9.0.0.0.0.&XMX7 o o o     O q o.X.=.v.P.'.'.'.!.o.0 $ y.ZXAXAX]./ / ) _ 7.6./ / / / / / / / / / / ",
"/ k.>Xb.s s E / / ) T.5X(.9.9.9.0.0.0.0.hXe o o o @ - b h.|./.c.x.v.I.`.`.].].$XQ.b + r.AXAX/./ / 5.7.7.6./ / B.qX .) / / / / / ",
"/ %.>X,Xa.^ / / / / ].1XU.0.9.9.0.0.0.w.W.o + + : u X.G.). X!.U.L.L.P.T.'.*X].*X&XN.j o u.AX'.} 0.0.7.0.6./ { ,XdX>.) / / / / / ",
"^ d D.>X>X ./ / / / 3XiX!.0.9.9.0.0.0.hXe + < k X.=.B. X+X+X/./.Y.Y.Y./.].rXY.%X].J.+.O o :X*X9.0.0.0.0.6./ ^ .XdXJ./ / / 2.#X .",
"^ s [ 5X,Xv./ / / 3.iXsX`.9.9.9.0.9.9.;X$ * p.b.l.c.M.V.).`.U.P.N.Y.L.,.p.j.OX@X].I.k.j ; r.hXE.0.0.9.9.9.} / {.pX/./ / / H.dX/.",
"E s ^ .X,X(./ / ) ).iXiXT.9.9.9.0.0.7.y.  0 b.n.@.o.l 9 k i.c.B.c.k.V > % + , 7 ` L.I.z.C * a.a.R.9.9.9.9.} / G.eX8X/ / >.6XxXv.",
"b.[ / |.iX9X| / / 8XyX@Xw.9.0.0.0.0.0.u.* B F.C * + @ * > v &.-.l.#.z 5 5 n M b 4 0 k.I.+.> L t q.9.9.9.9.} / U.eXbX3./ x.qXxX>.",
",XG./ ).iXiXL./ >.2X3X@X8.0.0.0.9.0.q.S.> e Z., 9 I X.v h x S l.c.$.c 3 k n V V X.X.+.I.1.X.x.t 9.7.9.7.9.} / >.4XxX/./ 2.eXvX .",
"H.{. .!.@X7X(.) J.2XeX4XK.0.0.0.9.9.0.S.r B S.I M j 8 < # : Z c.+Xx.M 2 q @ > 9 j F 1.J.v.S [ S 9.9.9.9.0.} ) ( G.gX%X/ 2.2XvX:.",
"c.H.V.!.b.!.oX| _.2XaX8XR.0.0.7.9.9.0.<Xt b 5Xo.l k b g 2 6 U B.+XP.,...D D O.$.$.;.:.J.x.X.S ;.9.9.9.9.9.} / / N.pX}. .x.H.dX<.",
">.H.H.Q.,.c.yXI.m.2X8X%XR.7.7.0.9.7.7.*X*.m qXM.#.&.U D r F <.U.'.Y.3.1...F F $.1.2.8.v.x.S $.8.9.9.9.9.9.4./ / %XgX).] 2.|.gX=.",
"/ G.1X|.b.O.4X3X@.%X|.OXE.q.&X9XtX*XE.w.|.D 5Xl.=.=.O.U -.<.2.P.].T.8.Y.I.I.P.T.`.J.2.J.<.S x.w.9.9.9.9.0.0./  .yXxX_.] [.2XgX(.",
"/ L.OX[.m.G (.yXi.8XyX@X].pXdXdXgXaX4X_.V.k.{.M.c._.B.<.x.:.x.v.'.`.J.I.J.P.P./.'.].J.3.$.L I.0.9.0.0.0.9.9./ 3.4XpXN.Q.xX@XxXoX",
"/ v.|.@XF.D k.3XyXxXgXpX7XxXdX,X}.}.H.H.}.}.^.&.=.^.V.@.S <.x./.$XrXT.K.2.S G =.B.J.2.:.g.,.'.tXtXrX*XE.9.7./ L.OX Xm.7XfX4XhXQ.",
"/  .G.).eXj.O.eXaXxXdX8XyXF.n.P -XsX0XsX>XD.P N u T z z -.B.B.2X%XyX%X$Xv.a.Z i L [ G ~.7XrX'.+X#X+X+X3X*XR.( 1X4X8X|.@XgXfXiX>.",
"/ / M.).dXsXF.dXgXgX#XU._.X.S.jXMXMXMXqXXXH.I 2 1 1 # 2 1 V X.n.x.l.&.o.' C n u u 1 r O.-.a.i.*.&.X.b. X X(.4X8X4XyX4X8XbXnX$X) ",
"/ /  .Q.7XaXeXgXaX8X)./.l.Z.MXMXMXMX1XXXXX XM.k 3 = . .     % k c h X . X X X ; - ; > k.). XdXVXnX>Xn.l.l.Q.yX%X4X4XpXxXmXgX8./ ",
"/ / / L.$XpXvXbXpX4X+X~.@.;XMXMXkX1XeXeXH.}.uXC.6 3 ; @ X o X @ & @ X O # 4 > ; ; 1 3 i.#X8XXX7XVXAXsXD.k.$X4X_.%X4XxXmXmX*X( / ",
"/ / / { +XpXxXmXyX%X4Xz.k.F.kXMXsX6X6X|.{.VXVX9X9 h x k ; 9 l Y Y N g b p.4 3 3 : 1 h C H.6X6X).xXAXVXVX4X^.%X%X+X+XxXmXbXT./ / ",
"/ / / / Y.4XgXlX%X4XrXm.U.2X>X5XdX8X(.b.VXAXlX1XI v m s.i.C.0XqX0X:X0X;Xi.D T u 3 u z o.5X(.2X%X2XAXVXCXmXN.!.%X%XpXmXmXbX]./ / ",
"/ / / / /.$XpXdXgXrX$XN.).aXeX8XaX+Xm.CXAXCXCXoXZ.Y Y -.n.s.Y C.Z.b.e.Y #.-.G h h h m 1.:XF.OX8X+XsXCXAXVXL.'.yX%XgXmXVXmXoX) ) ",
"/ / / ) (.fXlXvXgXrX[.N.4XzXVXsXaX).dXAXAXCXzX0XdXi.O.*.l.n.d.d.e.e.e.R -.#.z 1 h c +.1.;XzXV.2X#Xa.5X6X^.N.'.yXrXgXmXmXVX9X/ / ",
"/ / ~ s .X<X9XxXlXrXF.B.gXVXVXvX8X!.AXAXAXnXuXuXVX>Xi.O.*.l.l.*.Y Z J K $.#.2 3 z $.2.1.nXCX(.}.}.~.G._.^.U.+XyXyXgXVXVXAXfX ./ ",
"/ ! s f iX;X9XxXgXyXz.G.vXVXnXdX~.@XAXAXAXnXuXlXBX<Xi.b.O.s.s.*.P g N T #.G > > ..%.>.Q.AXAX7X(.#X.X6X X~./.+X4XyXbXVXVXCXbX3./ ",
"/ E d %.iX;XgXdXxXyXi.|.zXnXvX4X@XnXBXAXAXnXsXsXnX0Xo.I b i.l.a.Y P O.a.-.v % g [ ;.1.fXAXAXfX|.~.XX6X6X)./.+X7XrXxXVXmXVXbXP.) ",
"^ s s v.iXS.pXdXgXyXi.}.xXdXpX.XfXCXnXCXAXcXzX9XzXuXt.V 8 B I b.s.P N Y n & @ M [ $.<XAXAXAXmXaXM.}.6XeX2X X).$XyXxXmXmXmXmX`./ ",
"~ s ! ).iXW.8XpXpX8Xh. XdXeX2X,XCXCXzXzXBXnXnX9X9X9X>Xn 9 % 8 l l k 6 2 % + 5 S X.<XAXAXAXAXAXVXQ. X6XeXxX8X%X@XaXxXvXmXbXbX$X) ",
"s s / 7XyX[.8X4X2X4Xh.~.2X.XH.dXZXCXcX0XcXnXzX<X<X>X5XS.l g % & * & % @ @ 5 y j 0XAXAXAXAXAXAXCXoX3X#X6XpXdXyX%XgXgXxXbXbXbXrX/ ",
"s ^  .gXtX[.@X+X4XiXh.k.V.b.>XvXZXCXzX<X<XkXfX<XW.A.Q.<X>X' ` 8 < % % 4 n 4 q 0XAXAXAXAXAXAXAXCX7XfX1X@X4XpX7XpXxXlXdXxXmXmXgX) ",
"E / J.pXyX@X)..X4XyXh.I h.qXzXcXCXZXzXoX[.uX<XQ.j.f.f.W.uXnX<Xg.g.....+.u ` zXnXCXAXAXAXAXAXAXVXfXsXiX.X(.).+X4XmXlXyXyX$XT.8./ ",
"! / '.pXaX%X@X4X X).m.F.vXzXsXsXnXnXuXQ.[.oXQ.Q.j.f.f.j.oXuXzXuX@.k.k.,.` <XfXbXbXmXvXxXmXbXxXbXaX7XyX7Xc.2.3.J.>./ / / / / / E ",
"/ / ) ) / / / / / / / / / / / / / / / ) / ~ / / / / / ) / / ) / ) ) / / / / ) ) / ) Q / / ) / / / / / / / / / / / / / / / / / W "
};
