/* XPM */
static char *MV2[] = {
/* columns rows colors chars-per-pixel */
"64 64 243 2 ",
"   c #06050B",
".  c #0A0608",
"X  c #130A0A",
"o  c #0E0C12",
"O  c #150F16",
"+  c #171219",
"@  c #251619",
"#  c #301717",
"$  c #1A1822",
"%  c #291E26",
"&  c #352528",
"*  c #34272F",
"=  c #401D1D",
"-  c #49211D",
";  c #472627",
":  c #582828",
">  c #523035",
",  c #573637",
"<  c #6B2D2A",
"1  c #6A3635",
"2  c #763B37",
"3  c #62423F",
"4  c #7B453B",
"5  c #723F43",
"6  c #524F51",
"7  c #694545",
"8  c #794847",
"9  c #7A5651",
"0  c #79625D",
"q  c #5E5E60",
"w  c #766D6F",
"e  c #8B3F3A",
"r  c #C63726",
"t  c #854D3E",
"y  c #96473D",
"u  c #F04F35",
"i  c #F77522",
"p  c #F77A23",
"a  c #864745",
"s  c #964844",
"d  c #885448",
"f  c #905451",
"g  c #945754",
"h  c #A4564A",
"j  c #A7514F",
"k  c #B75E4C",
"l  c #AB5C55",
"z  c #97695C",
"x  c #A56357",
"c  c #BA6356",
"v  c #B16D54",
"b  c #B15E66",
"n  c #936C6A",
"m  c #B67666",
"M  c #B07669",
"N  c #CA5E54",
"B  c #ED5A42",
"V  c #D46C4D",
"C  c #C96B5C",
"Z  c #C67559",
"A  c #D67657",
"S  c #EA654A",
"D  c #EC6954",
"F  c #F16A54",
"G  c #E8795C",
"H  c #C56C6B",
"J  c #C6786A",
"K  c #D67B66",
"L  c #D27371",
"P  c #E57B64",
"I  c #F27D7E",
"U  c #F88426",
"Y  c #F98728",
"T  c #F98828",
"R  c #FA932B",
"E  c #FB982D",
"W  c #FDA431",
"Q  c #FEAE34",
"!  c #FAA43A",
"~  c #FDAF3B",
"^  c #FEB237",
"/  c #FEB238",
"(  c #A58371",
")  c #BF8277",
"_  c #DD9D57",
"`  c #EF8D57",
"'  c #FAAD4F",
"]  c #FEBE43",
"[  c #FDB14B",
"{  c #FCB456",
"}  c #CB836A",
"|  c #D68569",
" . c #C88777",
".. c #DA8975",
"X. c #D19473",
"o. c #D7967B",
"O. c #E7886B",
"+. c #E9946A",
"@. c #F59469",
"#. c #E48B72",
"$. c #E78878",
"%. c #EA9777",
"&. c #F1947A",
"*. c #EFA66B",
"=. c #FAB768",
"-. c #ECA67A",
";. c #F5A778",
":. c #EAB37A",
">. c #F8B679",
",. c #FDC74E",
"<. c #FECF50",
"1. c #FED050",
"2. c #FEDB58",
"3. c #FEE45F",
"4. c #F9C27B",
"5. c #F8D375",
"6. c #FEE761",
"7. c #FEE861",
"8. c #FEE66B",
"9. c #FCE678",
"0. c #CD7F82",
"q. c #8B8B8C",
"w. c #B6978D",
"e. c #9D9EA0",
"r. c #AFADB1",
"t. c #D99789",
"y. c #CB9991",
"u. c #E79986",
"i. c #EA9488",
"p. c #F38695",
"a. c #CBA68A",
"s. c #DBA383",
"d. c #D8A796",
"f. c #D8B396",
"g. c #EBA887",
"h. c #F3A686",
"j. c #EEB38D",
"k. c #F8B887",
"l. c #F5B38C",
"z. c #F5BB8D",
"x. c #EAA797",
"c. c #F4AB94",
"v. c #EBB799",
"b. c #F5B693",
"n. c #F7BA95",
"m. c #F6BB9A",
"M. c #CD9EA3",
"N. c #D5B2A9",
"B. c #DABBB7",
"V. c #E9B7A6",
"C. c #EEBBAC",
"Z. c #F3BEA2",
"A. c #F6B8A6",
"S. c #F3BDAB",
"D. c #EDB7B0",
"F. c #FAC487",
"G. c #F9D981",
"H. c #F5C394",
"J. c #F9C394",
"K. c #F9C39C",
"L. c #F7C898",
"P. c #FACA9B",
"I. c #FAD29C",
"U. c #FAE78A",
"Y. c #FBE897",
"T. c #DFC1A9",
"R. c #D9C5BD",
"E. c #ECC6A9",
"W. c #F4C4A2",
"Q. c #F9C4A3",
"!. c #F7C8A6",
"~. c #FBCBA3",
"^. c #F4C4AB",
"/. c #F6CCAC",
"(. c #F9CCAC",
"). c #FBD3A4",
"_. c #FAD4AC",
"`. c #F8D6AD",
"'. c #E8C6B7",
"]. c #F3C3B3",
"[. c #F5CBB3",
"{. c #F9C8B7",
"}. c #FACCB4",
"|. c #F4CDBB",
" X c #EAD2BC",
".X c #F6D3B6",
"XX c #FAD4B4",
"oX c #F9DAB5",
"OX c #F6D3BB",
"+X c #FAD4BB",
"@X c #F6DBBB",
"#X c #FBDABC",
"$X c #F8E8A8",
"%X c #FAE8B8",
"&X c #FCF0BA",
"*X c #C9BDC0",
"=X c #DBD2D1",
"-X c #EBCBC5",
";X c #F3CCC4",
":X c #F8CCC2",
">X c #E9D5C9",
",X c #F4D3C2",
"<X c #F9D4C3",
"1X c #F6DBC4",
"2X c #FADCC4",
"3X c #F5D4CC",
"4X c #FAD7CC",
"5X c #F5DCCA",
"6X c #FADDCB",
"7X c #EEDCD3",
"8X c #E9DBDC",
"9X c #F3DAD5",
"0X c #F4DCD4",
"qX c #FADCD2",
"wX c #FAE1C5",
"eX c #F7E7C8",
"rX c #FAE2CD",
"tX c #EEE2D7",
"yX c #F4E2D5",
"uX c #FAE4D4",
"iX c #FBEAD6",
"pX c #F4E4DB",
"aX c #FAE6DA",
"sX c #F5EBDA",
"dX c #FBE9DD",
"fX c #FAF2D1",
"gX c #E6DAE2",
"hX c #E7E7EA",
"jX c #F4E6E0",
"kX c #F5EBE4",
"lX c #FBECE3",
"zX c #F4EEEB",
"xX c #FAEDE8",
"cX c #FCF3E6",
"vX c #F5F1EC",
"bX c #FBF3EC",
"nX c #E6EAF4",
"mX c #F1EFF0",
"MX c #F5F4F4",
"NX c #FBF5F3",
"BX c #FAF9F6",
"VX c #F6F7FA",
"CX c #FBFBFB",
/* pixels */
"Q Q Q Q Q Q Q Q Q Q Q Q Q Q Q Q Q Q Q Q p W Q Q Q Q Q Q Q Q Q Q Q Q Q Q Q Q Q Q Q U R Q Q Q Q Q Q Q Q Q Q Q Q Q Q Q Q Q Q Q W U ",
"Q Q Q Q Q Q Q Q Q Q Q Q Q ^ Q Q Q Q Q R U Q Q Q Q Q Q Q Q Q Q Q Q Q Q Q Q Q Q Q W p Q Q Q Q Q Q Q Q Q Q Q Q Q Q Q Q Q Q Q Q U W ",
"Q Q Q Q Q Q Q Q Q Q Q Q Q Q Q Q Q Q Q U T Q Q Q Q Q Q Q Q Q Q Q Q Q Q Q Q Q Q Q E i Q Q Q Q Q Q Q Q Q Q Q Q Q Q Q Q Q Q Q W p E ",
"Q Q Q Q Q Q Q Q Q Q Q Q Q Q Q Q Q Q U i W ^ Q Q Q Q Q Q Q Q Q Q Q Q Q Q Q Q Q R i R Q Q Q Q Q Q Q Q Q Q Q Q Q Q Q Q Q Q W p U ^ ",
"Q Q Q Q Q Q Q Q Q Q Q Q Q Q Q Q Q U p W Q Q Q Q Q Q Q Q Q Q Q Q Q Q Q Q Q Q E i R Q Q Q Q Q Q Q Q Q Q Q Q Q Q Q Q Q Q W i U Q Q ",
"Q Q Q Q Q Q Q Q Q Q Q Q Q Q Q Q U i W Q Q Q Q Q Q Q Q Q Q Q Q Q Q Q Q Q Q R i E Q Q Q Q Q Q Q Q Q Q Q Q Q Q Q Q Q Q W p U Q Q Q ",
"Q Q Q Q Q Q Q Q Q Q Q Q Q W E i i W Q Q Q Q Q Q Q Q Q Q Q Q Q Q Q Q Q W i i R Q Q Q Q Q Q Q Q Q Q Q Q Q Q Q Q Q W U i U Q Q Q Q ",
"Q Q Q Q Q Q Q Q Q Q Q Q W p i i W Q Q Q Q Q Q Q Q Q Q Q Q Q Q Q Q Q U i i E Q Q Q Q Q Q Q Q Q Q Q Q Q Q Q Q Q R i i U Q Q Q Q Q ",
"Q Q Q Q Q Q Q ^ / W W U i Y R Q Q Q Q Q Q Q Q Q Q Q Q Q Q Q Q W R i p Y Q Q Q Q Q ^ Q Q Q Q Q Q Q Q Q Q W R i i U W Q Q Q Q Q Q ",
"Q Q Q Q Q Q Q R T p i i E Q Q Q Q Q Q Q Q Q Q Q Q =.2XNXNXNXNXNXvXvXNXbXbXcXvXcXkXk.Q Q Q Q Q Q Q Q U U i i U W Q Q Q Q Q Q Q Q ",
"Q Q Q Q W U i i p Y Q W Q Q ,.2.6.6.6.6.] ] ] ~ `.BXCXCXCXCXCXCXBXBXCXCXCXVXVXMXBXVXoX] Q Q Q Q Q U i U U T Q Q Q Q Q Q Q Q Q Q ",
"Q Q W U i i i R W ^ ,.2.2.2.3.3.6.6.6.6.7.6.3.@XCXCXCXCXCXCXCXCXCXNXCXCXCXVXBXmXVXVXVXsX5.Q Q Q U i W Q Q Q Q Q Q Q Q Q Q Q Q Q ",
"Q W i i i U R Q Q Q 6.6.3.3.3.7.6.6.6.6.7.6.Y.CXCXCXCXCXCXCXCXCXVXMXCXCXCXCXVXMXBXVXVXVXtX^ W T W 2.7.7.2.Q Q Q Q Q Q Q Q Q Q Q ",
"Q U i i Y Q Q Q Q Q 6.6.3.3.7.7.7.7.6.6.U.sXCXCXCXCXCXCXCXCXCXCXMXVXCXCXCXCXMXmXBXCXBXVXMXL.Q <.3.7.7.7.2.Q Q Q Q Q Q Q Q Q Q Q ",
"W i p W Q Q Q Q Q Q 6.6.6.6.7.7.7.7.3.&XBXCXCXCXCXBXVXCXCXCXCXCXMXBXCXCXCXBXMXmXVXVXBXVXVXMX9.6.7.7.7.7.2.^ Q Q Q Q Q Q Q Q Q Q ",
"W i Y W Q Q Q Q Q Q 6.6.6.7.7.7.7.7.Y.CXCXCXCXCXCXBXVXCXCXCXCXBXMXMXCXCXCXVXMXMXCXCXBXBXBXMXfX3.7.7.7.3.3.,.Q Q Q Q Q Q Q Q Q Q ",
"i i Q Q Q Q Q Q Q Q 3.7.7.7.7.7.7.7.fXBXBXCXCXCXCXBXVXCXCXCXCXMXMXCXCXCXBXMXMXMXCXVXBXVXVXVXMXU.7.6.6.6.7.,.Q Q Q Q Q Q Q Q Q Q ",
"i R Q Q Q Q Q Q Q Q 3.3.7.3.7.7.7.Y.BXMXCXCXBXCXCXMXMXCXCXCXCXMXMXCXCXCXCXMXMXVXCXCXVXBXVXMXMX%X7.6.6.6.3.] Q Q Q Q Q Q Q Q Q Q ",
"p W Q Q Q Q Q Q Q Q 3.7.7.7.3.7.&XBXCXMXCXCXMXCXCXVXMXCXCXCXCXMXBXCXCXCXCXVXVXBXBXVXVXVXVXMXVXU.6.6.6.6.3.] Q Q Q Q Q Q Q Q Q Q ",
"Y Q Q Q Q Q Q Q ^ ^ 7.7.7.7.7.fXCXCXCXBXCXCXvXCXCXNXMXCXCXCXCXCXVXCXCXCXCXVXVXCXCXCXBXBXVXMXvX7.6.6.6.6.3.,.Q Q Q Q Q Q Q Q Q R ",
"Q Q Q Q Q Q Q Q Q Q ] 3.7.3.3.MXCXCXCXBXCXBXmXCXCXCXMXCXCXCXCXCXVXCXCXCXCXCXVXBXCXCXCXBXMXMX&X7.6.6.6.6.7.] Q Q Q Q Q Q Q Q Q U ",
"Q Q Q Q Q Q Q Q Q Q ] 3.7.7.U.VXCXCXCXCXCXMXCXCXCXCXMXCXCXCXCXCXBXCXCXCXCXVXBXCXBXVXCXVXVXVXU.7.6.6.6.6.7.2.Q Q Q Q Q Q Q Q W p ",
"Q Q Q Q Q Q Q Q Q Q ,.3.7.3.U.VXCXCXCXCXCXMXCXCXCXCXCXCXCXCXNXbXCXCXCXCXCXBXVXBXCXVXBXVXBXbX6.6.6.7.7.6.7.6.Q Q Q Q Q Q Q Q R W ",
"Q Q Q Q Q Q Q Q Q Q ] 7.7.7.7.sXBXCXCXCXMXCXCXCXCXCXNX9XNX3XB D D C.D.cXCXCXvX'.BXVXBXBXVXbX6.6.6.3.7.6.7.7.Q Q Q Q Q Q Q Q i W ",
"Q Q Q Q Q Q Q Q Q Q / 7.7.7.7.U.VXVXBXCXCXCXCXCXCXCXx.u ].vXx.B S.9X&.B i.jXkXN.7XCXBXCXVXcX6.6.7.7.7.3.3.3.Q Q Q Q Q Q Q U i W ",
"Q Q ^ Q Q Q Q Q Q Q ^ 3.7.7.7.7.zXMXVXCXCXCXCXCXCXCXF G F 3Xx.S u -X;XP i.C.$.xXlXBXCXVXVXkX6.6.7.3.7.7.3.3.Q Q Q Q Q Q U i W Q ",
"Q Q Q Q Q Q Q ^ Q Q ^ 2.3.3.3.3.@XCXhXCXCXCXCXCXCXqXS c.u.;X-X|.V.;Xu.S u :XB c.D 9XCXCXMXU.7.7.3.7.7.7.7.3.Q Q Q Q Q U p W Q Q ",
"Q Q Q Q Q Q Q Q Q Q Q 2.3.3.2.,.>.NXmXCXCXCXCXCXCXV.;XBXCXNX7X>X-XxXBXjXD.x.F D.D A.BXCX&X3.7.7.7.7.3.7.7.7.Q Q Q R U i W Q Q Q ",
"Q Q Q Q Q Q Q Q Q Q Q 2.3.] / ~ ,.&XCXCXCXCXCXCXCXNXkX-XD.'.0XkXjXVXCXCXNXBXD.jX;Xx.CXbX7.3.3.3.3.7.3.7.3.,.Q W i i p W ^ Q Q Q ",
"Q Q Q Q Q Q Q Q Q Q Q W ! Q / 2.7.U.CXCXCXCXCXCXCXcX7XtX7X=Xe.w 6 6 q q.r.gXCXCXbX'.CXcX7.3.3.3.7.7.7.7.3.Q U p p E W Q Q Q Q Q ",
"Q Q Q Q Q Q ^ W W U p U ^ 2.7.7.7.Y.CXCXCXCXCXNXhXB.w.I.I.H.8 O             q r.BXVXBXfX7.7.3.3.3.3.3.{ C.` p U Q Q Q Q Q Q Q Q ",
"Q Q Q Q Q R U p i i W <.2.3.7.7.7.$XCXCXCXCXhXq.n M V.`.).H.-.t 4 &       o o o q tXBX&X7.7.3.3.,.,.^ ^.4Xz.W Q Q Q Q Q Q Q Q Q ",
"Q Q ! W i i i Y R Q ] 6.6.6.6.6.3.$XCXCXBXe.$ 9  .W._._.).P.z.%... .0 O . . o o + 6 nX$X7.6.<.Q Q Q ] ^.3Xk.Q Q Q Q Q Q Q ' W ^ ",
"Q Q U i i i @.qXn.Q 2.6.6.6.6.6.7.&XCXCXq.+ z T.@X_._.).).P.k.k.l.!.[.d.z = # o o o w tX3./ ^ ^ Q <.3./.3XH.Q Q Q Q ^ W W.-X:.Q ",
"Q Y i p i W =.aX|.[ 7.7.6.6.6.6.7.&XBXe.o d H.`.%X`.2X).I.P.J.n.n.!.XX/.Z.| y : $ o o *X{ Q Q / 7.7.3.L.,X!.Q Q Q Q Q b.'.-X=.Q ",
"' {.@.E W Q F.uX{.~ 7.3.6.6.7.7.3.&X8Xo + X.H.).#XI.%XoXP.P.P.K.P.!.XX.X(.b.%.| g , $ w .X^ 2.3.7.7.3.E.6X1X~ Q Q Q { -X;XC.Q Q ",
"Z.qXS.! Q Q P.iXC.Q 6.6.6.6.6.8.Y.fXq.> d g.K.`..XE.N.a.g.F.P.L.J.L.~./.m.b.c.g.x.t.; $ R.] 6.6.7.7.3.).sXyX>.^ Q Q z.;X3X=.W Q ",
"h.lX4X=.^ ^ rX6XZ.Q 6.6.6.6.6.9.u.t.* z j.K.H.( 6 > + % > c g.b.n.l.u.f 8 z  .o.x.A.9 o e.6.6.6.7.7.3.I.yXyX[.Q Q Q E.;X|.~ Q Q ",
"@.lXqXk.Q >.cXqXH.Q 6.6.6.6.3.8.r ` < o.P.j.9 3 z m x 4 a h O.h.;.#.l > ; @ O % ( D.n * e.8.6.6.6.7.6.G.OXuX5X~ Q [ 0XyX[.Q { V.",
"G xXqX>.Q ~.xX<X>.Q 6.6.6.7.3.8.r k.| :.P._ | | m m z f < k &.l.h.C j a c L m 9 * V.0 > B.8.7.7.6.6.6.5.OX1X1X{ Q J.yXpX/.Q Q.|.",
"@.xX:X>.Q 2XaXZ.~ Q 6.7.7.7.3.6.V +.V k.k.:.Z d 4 ; % 0 1 v k.).l.N : # , 7 f v  .B.n e D.7.7.7.6.6.6.G.2X6X2Xz.Q /.1XOX!.{ |.C.",
">.iXS.>.' [.uXn.Q Q ,.3.7.7.6.6._ V | z.F.*.*.+.+.O.C C } -.P.oXb.K 5 < a z g g  .3Xz r 3X7.7.7.6.6.6.U.6XuX2X/.[ |.Z.b.E.n.D.h.",
":.dX}.:._ /.lX@X^ ^ ,.3.6.6.6.7.5.O.A >.F.4.=.:.| Z Z } g.4.I.).K.;.Z e c K O.O.c.4XN t.%X7.6.6.6.6.7.U.OX6X+Xm.P.rXj.-.E.S.].` ",
"^.dX+X X_ !.lXrX[ ^ ^ 3.6.6.6.6.9.k.V ;.k.>.L.).I.P.P.P.I.4.I._.J.>.;.%.| | %.%.h.3XC ].9.U.%XwXtX$X7.Y.[.XX#Xo.1X1X..x.].{.Z.E ",
" XdX+XlXE.m.qX6X>.^ ] 3.6.6.7.3.6.J.` +.>.F.`.`.~.L.F.J.I.F.).).k.k.;.k.;.m.(.l.b.].g.m.}.2XpXdXuXiXuX$X+X6X6Xt.qX].A v.|..Xv.E ",
"/.uX6XdX1Xb.+X.XH.Q ,.3.Y.%XwXeXeXXX-.t.*.>.F.J.&.V V >.4.I.2X#X~.k.;.V o.m.Q.&.#.K.{.'.m.A.C.|.|.aXlX>XuXlXlXrX2Xg.C v..X/.h.W ",
"=.tXlXaX+X}.2X2X|.[ 4.%X1XXX+X+XXX`.1X2X/.A ` G k N %.z.oX%X4X#X#Xn.n.&.h h O.s b H C.-XpXgXgXB.H c.S.rX6XdXxXaX6X..N.uXXXv.` ^ ",
"Q %XcXxX6X2XrX6X6X1XQ.}.OXx.| O.#.t.u.&...y : y s x M  . .#.h.l.l.| m < < # < < 1 J A.|.9XMXnXnXgXB.K /.m.#XdXiXaXV.dXyX!.j.Q Q ",
"Q 4.sXvXxXiX2X2X#XwX/.g.h.c.-XzXNXaX[.}.g.: ; & - X X X X X s j f % .   . X = 5 g c.+X{.:X:XnXnXnXnXN.g.~./.rXiXdXuXuX1X^.{ Q Q ",
"Q ^ %XbXxXlX2X+X(.2XOXg.S.jXCXzX5X+X6X+Xu.2 < - ; > 2 # O O @ & @ X .   @ ; 2 5 M.9X].^.qX4X<XhXnXnX=Xo.!.XX2XuXcXlXpXoXH.^ Q Q ",
"Q Q I.cXbXlXXXXX2XXXK.2XNXNXCXlX^.6X6XC.M f < : 2 2 7 y.g a b 0.0.j a ; f j f 5 7XbXNXC.{.4XqXaXhXhXD.u.l.2X#XuXxXjXuXXX[ Q Q Q ",
"Q Q `.cXNXcXuX#X#X~.m.bXBXNXCX,X+X+X^.-X .j y 2 y K C y.-XgXgXgX8XgXM.t.i.k l  .,XsXBXNXV.Q.6XqX0X;X<Xm.v.wXwXOXlXdX2XP.Q Q Q Q ",
"Q Q @XbXvXbXiX#XrX(.m.NXCXBXyX+XqX}.C.=X:.v h y y A &.P L t.p.B.M.H 0.c.i.L L d.>XNXBXCXBXv.oXiX6XqXuX(.b.1XwXaXaXuX@X~.Q Q Q Q ",
"Q Q 7XBXBXbXdXwXrX`.J.Q.6X3Xu.<X<Xn.lX=X:.+.k y 1 h @.&.K I 0.0.p.p.A.h.$...t.sX7XkXBXBXCXpX(.iXpXNXlX2Xz.[.wXlXlXdXaX`.Q Q Q Q ",
"Q { kXBXBXNXdXrXrX`.Q.Q.(.Z.Q.^.[.^.BXvX:.:.+.h 2 1 P @.P N L D $.h.h.$...u.;XvXtXtXvXCXCXBXW.5XlXNXbXlXb.V.wXjXlX7X=XXXQ Q Q Q ",
"Q ;.cXBXbXNXdXiXwXXX~.Q.}.4X|.#X!.1XBXBXT.:.+.| > > A O.V l a H $.&.&.I u.d.=XMXjXpXbXCXCXBX,X!.aXNXBXxXW.j.rXdXlX9X=XyXQ Q Q Q ",
"Q l.cXNXbXNXlXwX2XXX!.(.<X4X:XQ.[.sXCXCXkX:.+.` t % x &.h...m K &.h.t.n L J jXmXtXdXvXCXCXBXvXOX<XlXbXxX(.o.rXdXjXlXR.sX>.Q Q Q ",
"W Z.bXbXbXcXxXrX@X{.}.<XqX4X].n.iXNXCXCXCX>X*.` c + & x L c H t.x.0.g 7 m w.8XkXtXkXvXVXMXvXBXsX|.qXlXlX[.y.rXdXaXuXB.rXH.^ Q Q ",
"E {.cXbXbXcXlXaX+X#X6XlXuX4X}.E.NXBXCXCXCXCX>X| V 4 O % , 8 g x f 7 % d x  X7X9X7XvXvXMXkXzXVXBX,X:XqXuX{.d.6XuXuXrXR.yX!.Q Q Q ",
"i 2XcXcXxXlXdXdX@XrXuXuXqX|.2X XBXCXCXCXCXCXCX8Xd y 4 @ + % & * % % 8 g B.>X>X>X>XkXvXkX7XxXBXBXjX^.{.<X^.d.2X<X<X2X-X1XwXQ Q Q ",
"i iXbXbXdXiXjXxXuX1XuX<X:X+XdX1XBXCXCXCXCXCXCXBXtXq 4 x 7 % % , 7 m w. X>XE.N.T.>XsXvX7X>XkXBXCXNX-Xx.A.j.d.eX6XOXOX'.rXiX{ ^ Q ",
"T k.I.oXrXrXjXbXwX.X/.^.|.yXsXsXBXCXCXCXCXCXCXBXMXsX( y | X.) o.s.>XdXtXR.a.a.f.'. XtXR. XkXBXVXxXjX9Xd.J d.6X5XOX/..XrXiXF.Q Q ",
"R Q ^ Q Q Q ^ =.F.>.>.j.1XrX5XsXlXlXxXcXcXbXcXcXsXsXtX( o.j.g.o.yXkXyX>Xf.a.a.f.f. X-X'.E.tXvXbXpXpXkXxXN.b.~.{.2XOX2XeXiX_.Q Y ",
"Q Q Q Q Q Q Q Q Q / Q Q Q Q Q Q Q Q Q ^ W E ^ ^ ^ Q Q Q Q ^ ^ Q Q Q Q Q Q ^ ^ ^ Q ^ Y Q Q Q Q Q Q Q Q Q Q Q Q Q Q Q Q Q Q Q Q Y "
};
