/* XPM */
static char *rad1[] = {
/* columns rows colors chars-per-pixel */
"64 64 250 2 ",
"   c #38140E",
".  c #231310",
"X  c #351811",
"o  c #32231A",
"O  c #36312C",
"+  c #3B3B3A",
"@  c #48170D",
"#  c #55180E",
"$  c #5A1A10",
"%  c #621C0F",
"&  c #681C11",
"*  c #731E13",
"=  c #522F17",
"-  c #723017",
";  c #4B3D37",
":  c #662F21",
">  c #784E1B",
",  c #56473B",
"<  c #6E5038",
"1  c #454444",
"2  c #494745",
"3  c #4D4C4C",
"4  c #514C48",
"5  c #56514C",
"6  c #545353",
"7  c #5A5856",
"8  c #5B5B5A",
"9  c #665547",
"0  c #725A51",
"q  c #67625C",
"w  c #786659",
"e  c #605F60",
"r  c #636262",
"t  c #6A6A6A",
"y  c #78706A",
"u  c #7B7774",
"i  c #882415",
"p  c #972817",
"a  c #9A331C",
"s  c #A72B18",
"d  c #B32E19",
"f  c #AD371C",
"g  c #BB321A",
"h  c #B43C1D",
"j  c #B8381B",
"k  c #923A28",
"l  c #B23B22",
"z  c #C7381B",
"x  c #D43B1C",
"c  c #DA3E1D",
"v  c #8A481B",
"b  c #86581A",
"n  c #A6421E",
"m  c #AC441E",
"M  c #B3451D",
"N  c #BB451E",
"B  c #B5481E",
"V  c #BC4A1D",
"C  c #915126",
"Z  c #A94723",
"A  c #AB4622",
"S  c #B34621",
"D  c #BA4521",
"F  c #B44821",
"G  c #BC4A21",
"H  c #B24B2A",
"J  c #A95133",
"K  c #996823",
"L  c #A46C25",
"P  c #B3762B",
"I  c #C5441D",
"U  c #C34C1E",
"Y  c #CB4C1E",
"T  c #D9451E",
"R  c #CB511F",
"E  c #D5521E",
"W  c #E2431E",
"Q  c #E6491F",
"!  c #E3541F",
"~  c #FC671F",
"^  c #C54622",
"/  c #C34C21",
"(  c #CB4D21",
")  c #D44C22",
"_  c #DA4921",
"`  c #C65022",
"'  c #CC5222",
"]  c #D35422",
"[  c #DB5523",
"{  c #D75925",
"}  c #DC5A23",
"|  c #CD563A",
" . c #E34721",
".. c #E45323",
"X. c #E95726",
"o. c #E45B24",
"O. c #EB5D25",
"+. c #ED5D29",
"@. c #F35B25",
"#. c #F65B25",
"$. c #F35B29",
"%. c #CE7031",
"&. c #E76024",
"*. c #ED6126",
"=. c #EC632A",
"-. c #F36326",
";. c #FD6524",
":. c #FE6B24",
">. c #F46429",
",. c #F96629",
"<. c #F5692B",
"1. c #FA692A",
"2. c #F77522",
"3. c #FE7425",
"4. c #F77A23",
"5. c #FE7B25",
"6. c #FD7529",
"7. c #F7782E",
"8. c #FE7C2B",
"9. c #EE7334",
"0. c #925849",
"q. c #8B6C55",
"w. c #AF724B",
"e. c #8E7567",
"r. c #847D76",
"t. c #B86C61",
"y. c #C86C4C",
"u. c #F0774D",
"i. c #CC7F76",
"p. c #BF832B",
"a. c #D18C31",
"s. c #FC8426",
"d. c #FE8B25",
"f. c #FD842C",
"g. c #FC8A2C",
"h. c #FE9325",
"j. c #FF9D26",
"k. c #FB972B",
"l. c #FC8632",
"z. c #FE8C32",
"x. c #E99336",
"c. c #FE9435",
"v. c #FD9A36",
"b. c #F49439",
"n. c #FD9C3A",
"m. c #FFA429",
"M. c #FEA728",
"N. c #FEB429",
"B. c #FEBB2B",
"V. c #ECA233",
"C. c #F4A733",
"Z. c #FCA432",
"A. c #FEAE34",
"S. c #FEA33D",
"D. c #FDAB3C",
"F. c #FDB538",
"G. c #FEC42C",
"H. c #FCC835",
"J. c #FED33C",
"K. c #B98952",
"L. c #9A836B",
"P. c #978879",
"I. c #AA8874",
"U. c #A9947B",
"Y. c #D3924E",
"T. c #F09350",
"R. c #FDA541",
"E. c #FEAB41",
"W. c #F8AA4C",
"Q. c #FDB648",
"!. c #EBA251",
"~. c #F8AB55",
"^. c #FBB455",
"/. c #D58E6F",
"(. c #EB946C",
"). c #E39B76",
"_. c #D8AA65",
"`. c #F6B464",
"'. c #ECAD72",
"]. c #FDC949",
"[. c #FCD847",
"{. c #FCCA59",
"}. c #FDDA55",
"|. c #FCE14F",
" X c #F8D06F",
".X c #FEE661",
"XX c #FEE27B",
"oX c #8A8685",
"OX c #999289",
"+X c #999593",
"@X c #AA9A87",
"#X c #B69388",
"$X c #A59D96",
"%X c #BAA38B",
"&X c #A8A29D",
"*X c #BAA997",
"=X c #A9A6A4",
"-X c #B8ABA7",
";X c #BBB2A6",
":X c #BAB6B4",
">X c #BEBAB9",
",X c #CD9889",
"<X c #F29B86",
"1X c #D6AA8C",
"2X c #D5B38D",
"3X c #C3AC94",
"4X c #D8AA97",
"5X c #C7B29A",
"6X c #E2A489",
"7X c #EDB88F",
"8X c #E4A996",
"9X c #CAA9A4",
"0X c #C7B7A5",
"qX c #CCBCAB",
"wX c #D5BAA7",
"eX c #C7BAB4",
"rX c #C3BDBB",
"tX c #D3B9B5",
"yX c #EDBAA9",
"uX c #F5CE8D",
"iX c #D6C4AA",
"pX c #D4C3AE",
"aX c #C9C2BA",
"sX c #D4C5B2",
"dX c #DBCAB5",
"fX c #D6C7B9",
"gX c #D8CBBA",
"hX c #DACDBB",
"jX c #ECC8B1",
"kX c #E3D2BD",
"lX c #C6C3C3",
"zX c #CAC5C3",
"xX c #CCC8C5",
"cX c #CDCBCA",
"vX c #D5CCC6",
"bX c #DED2C3",
"nX c #D9D3CC",
"mX c #D0CFD0",
"MX c #DAD7D4",
"NX c #EBD0C3",
"BX c #E5D9C7",
"VX c #E3DAD5",
"CX c #EFE2CE",
"ZX c #EAE3D7",
"AX c #F3EADC",
"SX c #E9E6E4",
"DX c #F5EEE4",
"FX c #F7F2E6",
"GX c #FAF5EB",
"HX c #F9F9F8",
/* pixels */
"A.A.A.A.A.A.A.A.A.A.A.A.A.A.A.A.A.A.A.!.%X'.A.A.A.A.A.A.A.A.A.A.A.A.A.A.A.A.A.A.A.g.k.A.A.A.A.A.A.A.A.A.A.A.A.A.A.A.A.A.A.A.Z.s.",
"A.A.A.A.A.A.A.A.A.A.A.F.A.A.A.A.A.F.A.g.T.P.1XW.A.A.A.A.A.A.A.A.A.A.A.A.A.A.A.A.m.4.A.A.A.A.A.A.A.A.A.A.A.A.A.A.A.A.A.A.A.A.s.Z.",
"A.A.A.A.A.A.A.A.A.D.A.F.A.A.F.Q.Q.^.^.R.T.W.Y.'.W.Q.Q.Q.^.Q.F.E.D.D.A.A.A.A.A.A.h.3.A.A.A.A.A.A.A.A.A.A.A.A.A.A.A.A.A.A.A.C.2.k.",
"A.A.A.A.A.A.A.A.^.uX'.T.f.6.3.:.~ ;.~ ~ ~ ~ :.6.3.8.4.5.f.g.l.z.c.v.S.R.E.W.^.~.T.S.A.A.A.A.A.A.A.A.A.A.A.A.A.A.A.A.A.A.Z.4.s.A.",
"A.A.A.A.A.D.7XvXaX*X#X0.o.+.+.+.+.+.@.-.*.*.>.-.7.6.s.f.f.l.z.z.g.c.c.k.v.c.c.n.n.S.W.W.W.^.^.Z.A.A.A.A.A.A.A.A.A.A.A.Z.2.s.C.A.",
"A.A.A.A.A.NX:XqX~.Y.P L K K K K v v b b b b b b b > - : - v C Z L %.%.%.x.x.b.n.S.b.S.n.S.n.R.~.W.Q.E.D.A.A.A.A.A.A.Z.4.s.A.A.A.",
"A.A.A.A.7XlXlX^.A.A.A.A.A.Z.k.2.4.m.A.A.A.A.A.A.A.A.C.w.e.*XY.a.K.P q.0 ; . @ - C P %.a.x.R.R.R.S.R.R.~.^.^.F.A.Z.s.2.s.A.A.A.A.",
"A.A.A.A.wXZXaXF.A.A.A.A.Z.4.2.2.A.A.A.A.A.A.A.A.A.A.A.A./.e.qXuXA.D.s.4.7.T._._.K.L.w ; . @ > K P x.x.R.S.S.R.S.T.2.s.A.A.A.A.A.",
"A.A.A.A.rXSXwXA.A.Z.Z.s.2.s.g.A.A.A.A.A.A.A.A.A.A.A.A.A.A.'.e.-XjX7.7.s.A.A.A.A.A.A.A.Q.~.Y.Y.L < o . : C P a.x.`.'.D.A.A.A.A.A.",
"A.A.A.^.lXMXuXg.s.4.2.4.m.A.A.A.A.A.A.A.A.A.A.A.A.A.A.A.m.f.(.I.@XjX`.A.A.A.A.A.A.A.A.F.A.A.A.A.A.E.9.w.0.0 q.w.-XMXdXD.A.A.A.A.",
"A.A.D.`.cXmX<X3.4.s.A.D.A.C.].}..X.X.X.X].F.].A.A.A.A.C.3.2.s.T.,XL.-X'.]..X.X.X.X].Q.H.A.F.A.A.A.s.2.s.f.f.A.A.1XSXZX7XA.A.A.A.",
"A.A.Z.).MXcXT.Z.Z.F.Q.XXXX}.}.|.|.|.|.|.[.|.[.J.H.H.H.F.F.].{.{.}._._.2XuX.X.X.X.X.X.X.X].A.A.A.s.2.m.A.A.A.A.A.`.vXHXwXA.A.A.A.",
"A.Z.2.,XZX>X~.jXDXGXGXuXH.G.H.[.J.J.H.H.H.H.G.B.B.B.N.B.B.N.B.B.B.B.B.B.G.G.G.G.J.].[.}.A.A.A.s.C.}..X.X}.A.A.A.A.2XHXfXA.A.A.A.",
"A.s.2.,XZX:XAXGXGXGX XG.B.B.B.G.N.M.N.m.m.m.m.m.m.j.j.j.j.j.j.j.j.m.j.m.m.m.M.m.N.M.N.N.N.B.B.B.].[.}.|.}.A.A.A.A.2XHXnX^.A.A.A.",
"k.2.2.3XbXaXDXDXDXuXB.[.N.m.k.j.d.d.d.d.s.s.d.s.s.s.s.s.s.s.s.d.s.s.d.s.d.d.d.d.d.h.h.h.h.j.j.m.M.M.M.N.N.B.B.G.B.`.CXZX`.A.A.A.",
"m.3.s.@XgXaXAXAXsXC.].F.h.s.s.5.5.5.3.5.5.3.3.3.5.5.3.4.3.5.6.6.3.5.3.5.3.5.3.5.5.5.5.s.s.s.s.s.s.d.h.h.h.j.m.M.M.N.B.`.W.A.A.A.",
"4.2.^.&XcXaXBXZX!.m.M.d.s.5.3.3.:.:.:.:.3.3.:.3.6.8.8.8.f.f.f.z.z.g.g.c.g.c.c.g.g.g.f.s.f.s.5.5.5.5.5.s.s.s.s.d.h.h.j.j.D.D.A.A.",
"2.k.`.&XqX;XgXiXh.h.s.5.3.3.:.:.:.:.:.:.:.3.3.5.8.l.z.z.c.c.v.v.n.n.S.S.D.S.S.S.E.E.E.D.S.S.S.S.S.v.c.g.g.f.5.5.8.5.s.s.h.D.A.A.",
"4.Z.).&X&X@XsX2Xs.5.3.3.:.:.;.;.;.;.;.:.:.3.8.8.f.f.l.z.c.c.v.v.n.S.S.S.R.R.E.E.E.E.E.E.E.E.E.E.E.E.E.D.E.D.S.S.n.c.g.f.5.z.E.A.",
"g.A./.OXOX@XsX/.5.3.3.:.:.~ ;.;.;.;.;.:.:.3.6.8.8.f.z.z.z.c.c.n.n.S.S.S.S.E.R.E.R.E.E.E.E.E.E.E.Q.E.Q.E.E.E.E.E.E.D.D.D.v.s.Z.k.",
"A.7XcXmX&XP.sXY.5.3.:.:.;.;.;.#.;.;.;.:.6.6.6.6.l.f.l.c.c.c.c.n.n.n.S.S.E.R.E.E.E.E.E.E.E.W.'.jXdXfXaXsX2X~.E.E.E.E.E.E.D.n.k.g.",
"W.cXcXMXGX&XsX9.3.3.:.:.~ ;.;.;.;.;.;.:.:.6.6.8.8.f.l.z.z.c.n.n.n.S.S.R.S.R.D.E.E.E.E.D.'.NXZXlX+Xr.r.oX-XcXwXW.E.E.E.E.R.R.C.4.",
"7XxXlXmXBXOX;X7.3.3.:.:.;.;.#.~ #.;.;.:.:.6.6.8.8.f.l.z.c.c.c.n.n.n.S.S.S.E.E.D.E.R.R.8XnXaXy 5 9 9 9 4 ; 7 =XvX'.D.E.E.E.E.R.v.",
"uXzXlXlX*X0 @X7.3.:.:.:.;.;.;.;.;.;.;.;.:.3.3.8.8.f.l.l.c.c.c.c.n.n.S.S.S.R.E.R.E.n.yXnX*Xw e.L.@XU.I.L.q.9 , u vX'.E.E.E.E.n.Z.",
"wXlXcX-X0 9 I.3.3.3.:.~ ;.;.;.;.;.;.;.:.:.6.6.8.8.f.l.z.z.c.c.n.n.n.S.n.S.R.E.R.S.7XxX&XL.U.%X%X3X5X5X*X@XL.w < y bXW.E.E.E.D.Z.",
"7XlXlXy ; 7 I.3.3.~ :.~ ;.;.;.;.;.;.;.:.:.6.6.8.8.f.l.l.z.c.c.c.n.n.n.S.R.E.R.D.(.fX:XU.,X3X0XfXbXbXbXsX5X*XU.e.9 OXkXW.E.E.E.Z.",
"D.eXoXO o e./.3.3.:.;.~ ;.;.,.,.;.:.:.:.:.6.6.8.8.f.l.z.c.c.c.c.n.n.S.S.R.R.R.b.wXxXU.,X%XP.+X=X:X-X>XnXAXpX3X@Xe.9 aX'.E.E.E.Z.",
"D.1X$X9 q %X/.3.:.:.:.~ ,.u.u.u.u.<.;.:.:.6.6.8.8.f.f.z.c.c.c.n.n.n.n.S.S.S.n.(.sX;X*X@X5 P.:XlX>X>XxX>XaXSXsX3X@Xe.L.kXW.R.E.S.",
"^.1X0X%X*XsX/.:.:.:.~ :.@.-XrXzXMXVXu.1.1.6.6.8.8.8.<.7Xl.(.NXT.c.n.v.c.n.n.l.4XlX3X%Xq t -X:XlXzX>XlXlX>XzXFXqX5X@Xq.aX`.S.D.Z.",
"~.4XdXqXsXfXT.~ 3.:.;.;.#.! #X4Xt.SX(.1.1.6.6.6.8.8./.AX6.i.DXT.c.c.c.T.z.z.u.0XrX3XP.6 +X=X-X:XlXlX>XlXxXrXMXBXwX3XL.OXjXv.E.Z.",
"W.wXhXfXhXhXu.3.:.:.~ ;.;.;.eXtXtX,X#.<.yXyX<X1.u.yXNXNX6./.8X8.(.jXjXjX8X8.(.rX9X%X3 u &X-X:XlXrXrXlXlXzX>X>XDXsX5X%XP.hXc.R.S.",
"W.pXkXhXbXhXu.3.:.~ :.;.;.| MX=XfX#.,.4XtXmX<X#.tXtXMX<X:.tXyX1.vX9XAX{ >.;.,XlX3XOX+ t oX&X:XrXlXrXrXrX>X>XcXFXVXiX5XU.fXl.n.S.",
"W.fXbXbXNXfX9.3.:.;.;.:.$./.eX| vXwXu.*XzXvXwXu.9XfXvXtX9.eXfXu.,XzX8X;.:.#.,XaX5Xy , u +X&X=X>XSXMXlXlXlXSXxXcXZXfXiX%XaXT.g.v.",
"!.hXhXqXbXfX:.6.;.:.;.:.,.....-. ._ #.$.......#.X.X.X.$.$.$.$.-.,.#.,.;.,...3XvX*X5 6 oXoX=X+XMXMXSXSXmXcX=X=X&XBXhXdX*XaX/.=.x.",
"!.bXOX*XhXsX:.*.E } { ] ] ' ] ` ^ / G G D D B B h h S m A l A F A Z Z Z A w.*XbX5X+ r 8 r 8 8 =X:XHXHXSX6 e r r fXhXkXiX>X/.} 9.",
"(.bXP.fXkXwX:.~ o.o.} } } } E o.o.o.O.*.+.-.-.<.,.-.,.<.1.<.<.<.>.>.>.+.X.| 9XvX*XO 8 8 6 6 8 +X:XHXHXHX6 3 e 8 hXkXBXpX:X,X` %.",
").sX*XfXhXwX:.o.R V V V B B B m A Z Z Z Z Z Z m m m m m Z F F F N V V G I y.-XbX*X+ , t + + 6 oX=XmXmXlX1 1 r r hXNXkXdXeX)...9.",
").iX*XOXdXwX:.;.-.*.*.2.-.1.-.;.1.1.1.<.<.<.>.*.>.O.&.o.} } { ' ' ' ( ^ B J *XbX5X3 3 6 1 u =X8 t =XlXt 6 1 8 r.hXkXCXdXeXy.o.=.",
").sX*Xu sX4X:.{ G A n n n n m n n n l A m B V V V R ` ] { E E o.o.O.+.+.+.) #XMX5Xy 6 r =X+X3 + 1 3 1 1 1 1 6 +XhXCXCXkXrXH H { ",
",XsX*X0XhX4X:.<.:.1.:.1.1.<.-.>.*.&.&.&.} { { ] ' / / G B M B B m m Z Z Z H I.mXpXP.+ +Xr 6 8 + 1 3 1 1 3 r 1 lXbXCXVXdXeX( { { ",
"6XwX0XgXhX8X:.E M m m m m m F B V U R R R { E o.o.O.*.=.<.-.,.-.<.=.=.&.} ) q.mXtX3X1 1 8 r 6 + + 6 1 r 3 r u bXBXZXCXpX9X+.+.<.",
"2X0X5XdXbX4X:.:.1.1.-.-.&.&.o.[ { ] R R G G B B m m Z Z m B B M G / U ' ( ) J eXBX5Xe.1 3 3 3 3 e 8 3 6 3 3 eXBXZXFXZXrXt.G ^ { ",
"8XiX;X@XbX6X~ E V M V V / / ' { E } &.&.*.<.-.:.<.<.<.=.*.&.{ { ' ` U V D Z C r.nXdX3X6 3 t 3 8 8 3 6 6 3 $XBXCXFXDXBX>X/ ` ` { ",
"6X0X;Xq fX6X:.o.&.&.} { { R ` / V B B n A A m m F M G / R E { } &.O.-.>.>.$. .0.xXBXiX@X3 1 3 3 3 8 8 2 $XBXBXAXFXAXfX1Xo.*.=.>.",
"1X0XqX5XfX6X,.+.E E ] [ E o.O.*.>.-.1.1.<.>.*.&.} [ E ' R V B m M F F F m B l J oXVXNXiX5X@Xu , 1 3 r.aXBXBXAXFXFXVXlXJ G / / o.",
"6XqXsXhXhX6X;...{ R ` / V M m m Z m M M M G U R ] } o.&.*.-.<.1.<.*.&.} { E G f < rXVXCXiXwXhXbXnXBXBXbXVXDXFXFXAXrX,X) ' ^ / } ",
").hXfXbXhX6X;.-.&.o.=.*.-.1.1.1.-.>.*.o.[ { ' ` V B M M F F F B V / ' [ } o.+.X.D w mXVXCXkXsXiXdXkXBXZXFXGXFXDXvX9X) +.+.>.=.=.",
"1XhXhXkXfX6X;.E U B m m m M m m B V U ' { o.o.*.=.<.1.<.*.&.} [ ' R V B M F F S f k u mXZXFXAXAXAXDXFXGXGXGXDXMXeXJ F G ^ I E 9.",
"'.fXhXdXgX6X#.;.,.,.:.,.1.<.-.O.o.{ ] R V N m M F F M M / R E } o.-.-.1.>.=.+.{ ( l : y zXMXDXGXGXGXGXGXGXZXMX9X| ) [ ' U / ( } ",
"1XdXhXfXfX6X;.) D M m M m M V U ] { o.+.-.<.1.,.>.&.} [ ' G V V F F V B V Y E [ ..X.[ f 9 =XxXMXMXBXMXMXMXzX#Xl ( [ o.*.-.=.o.u.",
").fXdXdXsX6X;.:.,.1.-.-.*.o.} { ` V M M M S M M G R [ o.+.@.,.1.>.O.o.{ R U N N D D h h f k 0 oX-X>X:X&Xe.k h D D D G G U E [ u.",
").dXdXsXdX4X;.T j M N N U ' [ } O.-.-.,.>.*.o.} ] R V M S D F M U Y E o.&.>.,.>.+.[ ] ^ l f a i i a f D ) ..$.$.+.o.] Y V G ^ u.",
").sXsXsXdX4X;.-.-.+.O.} { Y U M M S S M N / ] [ o.+.>.,.>.-.&.{ R U V V F G N / ' [ ..+.>.$...[ ( I N M D D V ( ] ..+.>.=.+.[ 9.",
"_.iXsXsXsX4X#.X.Y Y ' E [ O.>.,.;.,.>.o.} ] / V M F M B V ( [ E O.>.,.>.+.o.] / U D F G N ^ ( [ o.+.$.+.! [ Y U G G D I Y ]  .x.",
"!.sXsXsXiX4X,.! [ { ] U V N m S m M U ] [ o.@.-.,.-.*.o.{ Y V V D F M U Y [ o.+.>.-.O.[ ) U G D D D I ( _ ..+.#...[ ( I D j z T.",
"!.tXsXsXpX4X#.@.! ! ! O.-.-.,.-.O.o.] ( V M M M M ^ Y E ! +.-.,.-.O.[ Y U N N D I I Y ....$.$.o.[ ( z D N l j j z T _  . .) | ^.",
"!.pXpXsXsX4X#.! ( I N M M M M N Y E E O.-.,.,.O.o.] Y D N N M h ^ Y _ +.$.$..._ ) I h j h h g z x _ _  .W T c _ c x x z z f ).A.",
"T.;X0XpXpXwX#.#.@.$.,.#.,.#.O.[ R U V M M h N I T ! X.#.#.X...E Y j j j f j j x x W  .W W W c c x x z z z d d s p p i * - _.E.A.",
"b.I.@X@X*X5XX...^ h D h h N I ) ! O.@.#.$...) I M h f h f j z T _ W  .T W c T T x z x z z d d s p p i i * % @ @   : K a.A.A.A.A.",
"2.w.w e.P.P.| Q ..X.X.X.! T Y I h f j f g j T T  .W W W W c c x x x z z g g d s s p i - * % $ @ @   o = b K p.a.C.A.A.A.A.A.A.A.",
"2.b.q , 5 0 0.z j d d f j x T T Q W W W c T x T x z z z g j d s s p p i * * $ #     X @ > K P a.a.V.C.F.A.A.A.A.A.A.A.A.A.A.A.A.",
"s.Z.!.9 O O , i s g z x c T c x x z z z z d d s s p i i & - % #       o > b K a.a.V.V.k.A.A.A.A.D.A.A.A.A.A.A.A.A.A.A.A.A.A.A.A.",
"k.A.A.~.K., . o $ i a d d g d s s p p * * * % # @     X : b L P a.x.V.A.A.A.A.A.A.A.4.Z.A.A.A.A.A.A.A.A.A.A.A.A.A.A.A.A.A.A.A.s.",
"A.A.A.A.A.F.!.P > X $ & * * % $ #       = v K P a.x.V.C.A.A.N.A.A.A.A.A.A.A.A.A.A.A.s.A.A.A.A.A.A.A.A.A.A.A.A.A.A.A.A.A.A.A.A.g."
};
