/* XPM */
static char *rad2[] = {
/* columns rows colors chars-per-pixel */
"64 64 225 2 ",
"   c #242F35",
".  c #253236",
"X  c #293237",
"o  c #25333A",
"O  c #29353B",
"+  c #25393A",
"@  c #2C393D",
"#  c #31393D",
"$  c #2F3740",
"%  c #2D3941",
"&  c #303242",
"*  c #333D42",
"=  c #364143",
"-  c #3A4445",
";  c #3B4649",
":  c #3B554D",
">  c #40454A",
",  c #434A4D",
"<  c #4B504F",
"1  c #464E51",
"2  c #4A4E51",
"3  c #4A5153",
"4  c #495557",
"5  c #545A5B",
"6  c #645549",
"7  c #49685D",
"8  c #516A5B",
"9  c #595F62",
"0  c #5D6567",
"q  c #4A7261",
"w  c #5B7568",
"e  c #646769",
"r  c #646A6C",
"t  c #696E71",
"y  c #667672",
"u  c #6D7174",
"i  c #737675",
"p  c #727679",
"a  c #74797B",
"s  c #797D7D",
"d  c #F77522",
"f  c #F77A23",
"g  c #F6782D",
"h  c #917359",
"j  c #4B906C",
"k  c #678777",
"l  c #689A7D",
"z  c #56A478",
"x  c #61A27C",
"c  c #DB952D",
"v  c #F88426",
"b  c #F98728",
"n  c #F98828",
"m  c #FA932B",
"M  c #FB982D",
"N  c #F29338",
"B  c #FDA431",
"V  c #FEAE34",
"C  c #F6A938",
"Z  c #FDAE3A",
"A  c #FEB13C",
"S  c #A6A474",
"D  c #DF8B4A",
"F  c #EF9C47",
"G  c #DCB055",
"H  c #F4AF46",
"J  c #ECB149",
"K  c #FDB446",
"L  c #E9B556",
"P  c #FCB456",
"I  c #CDAE62",
"U  c #C5B068",
"Y  c #DABB69",
"T  c #C6BE74",
"R  c #D2BD72",
"E  c #E5AE6F",
"W  c #FCB967",
"Q  c #BEC37C",
"!  c #FEDE5A",
"~  c #D2C76F",
"^  c #C8C97B",
"/  c #F8CC78",
"(  c #FEE762",
")  c #FEE861",
"_  c #FCE974",
"`  c #7A7E81",
"'  c #7C8785",
"]  c #5EAC80",
"[  c #69A783",
"{  c #71AD89",
"}  c #69B98A",
"|  c #6BC28E",
" . c #6DCB93",
".. c #6CD397",
"X. c #6FD69B",
"o. c #6DDA9C",
"O. c #71D59C",
"+. c #72DC9E",
"@. c #7CDB9E",
"#. c #71E29E",
"$. c #7BE19D",
"%. c #75DDA1",
"&. c #7BDAA3",
"*. c #6EE4A2",
"=. c #74E6A4",
"-. c #7BE5A4",
";. c #72E8A3",
":. c #858789",
">. c #88958F",
",. c #8B9693",
"<. c #95989A",
"1. c #8BAB90",
"2. c #94A59D",
"3. c #96AD9E",
"4. c #9E9AA1",
"5. c #9AB1A3",
"6. c #A3A6A7",
"7. c #A9ABAC",
"8. c #A7B4AE",
"9. c #B0B2AF",
"0. c #ACAEB1",
"q. c #B0AFB3",
"w. c #AFB1B3",
"e. c #A9BDB1",
"r. c #B2B3B3",
"t. c #B4B6B9",
"y. c #B6B9BB",
"u. c #BABBBC",
"i. c #D6A985",
"p. c #CCBB87",
"a. c #96D08D",
"s. c #88DA99",
"d. c #97D696",
"f. c #AACA89",
"g. c #B8C987",
"h. c #B3CF8D",
"j. c #A5D38D",
"k. c #A5D793",
"l. c #82DAA4",
"z. c #89D9A7",
"x. c #87DAA8",
"c. c #99D1A0",
"v. c #93DBAD",
"b. c #97DCB0",
"n. c #9BDCB3",
"m. c #ADC5B6",
"M. c #A4DCB6",
"N. c #A5DCB9",
"B. c #ACDCBD",
"V. c #B7D5BB",
"C. c #83E1A1",
"Z. c #A9E0BB",
"A. c #B0E0BD",
"S. c #C3C682",
"D. c #ECC08E",
"F. c #FEC283",
"G. c #FEC48C",
"H. c #FEC996",
"J. c #FEEB87",
"K. c #F7EC97",
"L. c #F3CEA7",
"P. c #FAD2A9",
"I. c #FED6B5",
"U. c #EFEBB5",
"Y. c #BEBFC2",
"T. c #BEC2C4",
"R. c #B8D8C4",
"E. c #AEE0C0",
"W. c #B4E1C4",
"Q. c #BCE2C8",
"!. c #C2C4C5",
"~. c #C7C9C7",
"^. c #C4C6C9",
"/. c #C6CACA",
"(. c #CBCCCC",
"). c #C7D5CC",
"_. c #CDCDD1",
"`. c #D0CFD2",
"'. c #CFD1D2",
"]. c #C5DFD0",
"[. c #CEDED4",
"{. c #D3D4D5",
"}. c #D3DBD5",
"|. c #D7D6D8",
" X c #D6DAD9",
".X c #DBDBDC",
"XX c #FFDEC4",
"oX c #FCDDD6",
"OX c #C2E2CE",
"+X c #C8E3CE",
"@X c #C6E3D1",
"#X c #CAE3D4",
"$X c #CBE9D5",
"%X c #D5E6DA",
"&X c #D5F3DE",
"*X c #DEF8DE",
"=X c #FFE0C7",
"-X c #FFE2CB",
";X c #E7F2CE",
":X c #FFE5D5",
">X c #FFEBDC",
",X c #DEDEE0",
"<X c #E2DFE2",
"1X c #DEE1E1",
"2X c #DAF6E2",
"3X c #DAF8E5",
"4X c #DBFAE4",
"5X c #E4E5E5",
"6X c #E6E8E7",
"7X c #E7E8E7",
"8X c #E7E9E8",
"9X c #EBECEC",
"0X c #FFEEE2",
"qX c #EEF0EF",
"wX c #E5F9E8",
"eX c #E5FAEC",
"rX c #FFF1E6",
"tX c #FFF3EC",
"yX c #EDF8F1",
"uX c #F2F3F3",
"iX c #FEF5F2",
"pX c #F3FBF6",
"aX c #FEFAF4",
"sX c #F6FBF8",
"dX c #FFFFFF",
/* pixels */
"V V V V V V V V V V V V V V V V V V V V d B V V V V V V V V V V V V V V V V V V V n m V V V V V V V V V V V V V V V V V V V B v ",
"V V V V V V V V V V V V V V V V V V V m n V V V V V V V V V V V V V V V V V V V B f V V V V V V V V V V V V V V V V V V V V v B ",
"V V V V V V V V V V V V V V V V V V V v n V V V V V V V V V V V V V V V V V V V M d V V V V V V V V V V V V V V V V V V V B d B ",
"V V V V V V V V V V V V V V V V V V v d B V V V V V V V V V V V V V V V V V V m d M V V V V V V V V V V V V V V V V V V B f v B ",
"V V V V V W =X-X:X:X>X>X0X0XtXtXtXaXiXiXtXtXtXtXrXrXrX0X0X>X>X>X>X:XXXI.G.W M d m V V V V V V V V V V V V V V V V V V B d v V V ",
"V V V V H.aXdXdXdXdXdXdXdXdXdXdXdXdXdXdXdXdXdXdXdXdXdXdXdXdXdXdXdXdXdXdXdXdXaX0X=XI.G.P Z V V V V V V V V V V V V V B f v V V V ",
"V V V P dXdXdXdXdXdXdXdXdXdXdXdXdXdXdXdXdXdXdXdXdXdXdXdXdXdXdXdXdXdXdXdXdXdXdXdXdXdXdXdXtX>XXXP.W A V V V V V V B v d v V V V V ",
"V V V F.dXdXdXdXdXdXdXdXdXdXdXdXdXdXdXdXdXdXdXdXdXdXdXdXdXdXdXdXdXdXdXdXdXdXdXdXdXdXdXdXdXdXdXdXdXaX>XXXH.W V m d d v V V V V V ",
"V V Z P.dX~.0.sXdXdXdXdXdXdXdXdXdXdXdXdXdXdXdXdXdXdXdXdXdXdXdXdXdXdXdXdXdXdXdXdXdXdXdXdXdXdXdXdXdXdXdXdXdXdXtXoXI.G.K Z V Z V V ",
"V V V XXdX6XO 5 y.uXdXdXdXdXdXdXdXdXdXdXdXdXdXdXdXdXdXdXdXsXpXyXeX3X4X4X4XyXsXdXdXdXdXdXdXdXdXdXdXdXdXdXdXdXdXdXdXdXaXoXH.K V V ",
"V V V 0XdXdX` <.u 5 5XdXdXdXdXdXdXdXdXdXdXdXdXdXdXdXdXsXyXm.' 5.R.&X4X4X4X4X3XwXdXdXdXdXdXdXdXdXdXdXdXdXdXdXdXdXdXdXdXdXdXaX:XG.",
"V V Z aXdXdX(.Y.sXt.u dXdXdXdXdXdXdXdXdXdXdXdXdXdXdXwX4X3Xm.2.8.:.4 R.4X4X3X3X4XwXdXdXdXdXdXdXdXdXdXdXdXdXdXdXdXdXdXdXdXdXdXdXdX",
"V B g aXdXdXsXs sXdX:.uXdXdXdXdXdXdXdXdXdXdXdXdXsXwX3X3X3XR.t y >.3.5.4X4X*X4X4X3XeXdXdXdXdXdXdXdXdXdXdXdXdXdXdXdXdXdXdXdXdXdXdX",
"V v d oXdXdXdX6..XdX!.uXdXdXdXdXdXdXdXdXdXdXdXsX3X3X3X3X3XQ.e.3X#Xm.>.4X4X4X4X4X3X3XyXdXdXdXdXdXdXdXdXdXdXdXdXdXdXdXdXdXdXdXdXdX",
"B d d I.dXdXdX<X,.dXuXdXdXdXdXdXdXdXuXdXdXdXsX4X3X3X3X3X3X$X3.3X4X4Xk 4X4X4X4X*X3X4X4XsXdXr.aXdXdXdXdXdXdXdXdXdXdXdXdXdXdXdXdXdX",
"B d v G.dXsXu.<.> 9XdXdXdXdXdXsXdXdX.X1XdXsX4X4X4X3X3X3X3X%X1.4X4X4X>.*X4X4X4X4X4X4X4XeXdXe y.dXdXdXdXdXdXdXdXdXdXdXdXdXdXdXdXdX",
"d d V K dXT.O X O !.dXdXdXdXdX5X{.dXdXr.sXwX3X3X4X4X4X].a ' ' 4X3X2X2.@X4X4X4X4X4X4X3X3XwX7.' 5XdXdXdXdXdXdXdXdXdXdXdXdXdXdXdXdX",
"d m V V 0X7.X . # 5XdXdXdXdXdXdXr.dXdX.X).3X4X4X4X4X3Xr o % y &Xw = 1 R.&X4X4X4X4X3X3X3X$XT.|.y.dXdXdXdXdXdXdXdXdXdXdXdXsXdXdXdX",
"d B V V XX8Xr 4 ^.dXdXdXdXdXdXdX5X{.dX1X,.3X4X4X3X3X3X1.+ : R.m.+ o o B.4X4X&X4X4X3X3X].R.R.@X).dXdXdXsXpXyX4X3X4X4X4X4X3XwXyXsX",
"n Z V V G.dXdXsXdXdXdXdXdXdXdXdX6X<.5XO o $X3XwX3X3X3X4X@X2X3X%Xy ; 2.4X4X4X4X4X4X3X2.. - ].@X3X3X3X3X3X3X3X3X4X4X3X4X3X3X4X4X4X",
"V V V V V H.aXdXdXdXdXdXdXdXdXpX- X R.1.5.3X3X3X4X*X4X4X4X*X4X4X3X2X4X4X4X4X4X4X4X4X2.. w 2X4X4X4X4X4X4X4X4X4X4X4X4X2X4X4X4X4XL.",
"V V V V V V G.aXdXdXdXdXdXdXdXaX6.,.&X4X3X3X4X*X4X4X4X4X4X4X4X4X4X4X4X3X*X4X4X4X4X4X&XOX&X4X4X4X4X4X*X4X4X4X4X4X4X4X4X&X4X4X%XN ",
"V V V V V V V K / P.>XaXdXdXdXdXpX4X4X4X4X4X4X4X4X4X4X4X4X4X4X4X4X4X4X4X4X4X4X4X4X4X4X4X4X4X4X4X4X4X4X4X4X*X4X4X4X*X*XU.L./ F M ",
"V V V V V V V V B B ! ) J.U.>XsXwX4X4X4X4X4X4X4X4X4X4X4X4X4X4X4X4X4X4X4X4X4X4X4X4X4X4X4X4X4X4X4X4X4X4X4X&X*XU.L./ P V V V V d B ",
"V V V V V V V V V V K ) ( ( K.wX4X4X4X4X4X4XwX4X2X4X4XwX4X4X4X4X4X4X4X4X4X3XwX4X4X4X4X4X4X4X4X4X4X4XU.K._ ( V V C V V V V v d B ",
"V V V V V V V V V V V ! ( K.3X4X4X*XwX4X3X2X4X4X4X4X4X4X4X*X4X4X4X4X4X4X4X4X4X2X4X3X4X4X4X4X4X4X4X4X4X;X_ ( V V V V V V v d B V ",
"V V V V V V V V V V V ( U.3X3X3X4X+XB.n.v.v.v.v.v.n.n.Z.Z.Z.A.A.Q.Q.Q.OX@X$X&X2X3X4X4X*X4X4X4X4X&X4X4X4X*XU.Z V V V V v d B V V ",
"V V V V V V V V V Z L.2X%X@XE.v.O...;.-.z.b.v.v.v.z.z.l.l.&.s.@.#.#.=.=.;.#.+.+.+.s.z.n.N.A.W.Q.Q.$X&X4X4X*X;XW V m v d B V V V ",
"V V V V V V H P E V.n.x.=.;.=.=...=.V.9X5X.X.X.X.X.X,X.X.X.X.X.X.X}.}.}.}.%X}.+X+XA.B.M.v.l.+.-.;.;.%.&.z.n.M.B.i.g f B V V V V ",
"V V V Z D.g.c.&.=.;.=.=.=.=.=.o.%.B.9X(.{.{.{.{.{.{.{.{.{.{.{.{.{.{.`.(.(.(.~.(.(.`.{. X|..X.X{. X}.[.@XR.B.v.s.#.a.L V V V V V ",
"V V V L.x.=.=.=.=.=.=.=.=.=.=.o.;.%X{..X.X.X|.|.{..X{.`.{.(.(.~.~.(.(.(.{.{.{.{.{.{.{. X{.{.{.{.{.(.(.(.`.{.{..X%XR.-.L V V V V ",
"V V Z V.=.=.=.-.=.=.=.=.=.=.=.o.;.%X<XqX8X9XuX6X9X9X8X8X9XqX9X9X9X8X5X5X5X.X{..X X X.X|.|.{.{.{.{.{.(.(.(.~.~.(.T. XN.^ V V V V ",
"Z B P l.=.;.;.*.;.#.O. .%.=.=.o.#..X5XqX9X9X9X5X9X9X6X6XqX9X9X9XqX9X6X9XqX8X9XqX9X5X9X9X9X9X9X9X9X9X9X9X8X9X9X{.{.(.].s.Z V V V ",
"V Z E &.;.*.{ l w 5 > = [ =.=.O.=.%X5XuX9XqX9X6X9X9X6X9XqX9X5X9X9X9X9XqX9X6X9X9X9X5X9X9X5X9X9X9X5X9XqX9X8X9XqX.X{.{._.*.E V V V ",
"V v i.&.=. .& $ @ = % o [ %.=.%.=.%X5XqXqX9X9X8X9X9X6X9XqX9X8X9X9X8X9X9X9X8X9X9X8X5X9X9X5X9X9X9X5X{.(.{.1X9X9X X{.{.{.%.R V V V ",
"B f i.;.;.| & 1 $ , % o [ =.=.o.;.%X.X9XqX9X6X9XqX9X9X9XqX8X9X9X9X8X9X9X9X6X9X9X9X9X9X9X5X9X9X8X.Xr.u.7.~.9X9X X{.{.{.s.~ V V V ",
"B d i.;.=.} + 1 o 3 o o } =.=.o.;.%X.X9XqX9X8X9X9X9X8X9XqX9X8X9X9X6XqXqX9X8X9X9X9X8X9X9X5X9X9X8X8Xr.6.6..X9XqX}.{.{.}.z.Q V V V ",
"v d p.;.=.] o 4 o 4 O o } =.=.X.;.#X.X9XqX9X6X9X9X9X9X9X9X8X9X9X9X6X9X9X6X8XqX9X8X9X9X9X8X9X9X6X9XqX8X8X9X9X8X{.{.{._.b.g.V V V ",
"d f S.*.=.z o 1 o 4 o o } =.=.X.;.#X1X9XqX9X8X9X9X8X9X9X9X5X9X9X6X6XqX9X6X9X9X9X8X9X9X8X8XqX9X8X9XqX8X8X9XqX8X{.{.{.(.B.f.V V V ",
"d B g.;.=.j o 4 o 4 o + | =.=.X.;.#X5X9X9X8X8XqX9X8X9X9X9X9X9X9X8X9XqX9X6XqXqX8X9XqX9X8X9X9X9X8X9X8X6X5X9X8X6X{.{.{.~.R.j.V V V ",
"b V g.=.=.j . 1 o 2 % o  .*.=.X.;.+X5X9X9X8X9X9X9X6X9XqX9X9XqXqX9X9XqX9X8X9XqX8X9XqX9X8X9X9X9X5X5X.X`..X8X9X6X{.{.{.~.R.d.V V V ",
"B V h.#.#.j . 3 % 3 o & ..*.=.%.-.OX5XqXqX8X9X9X9X5X9X9X5X9X9X9X8XqXqX8X9X9X9X8X9XqX8X6X9X9X8X<.9.u.r.9.r.(.5X{._.{.~.).s.V V n ",
"V V f.=.*.q o 3 o 3 % % O.=.=.X.=.OX5XqX9X9X9X9X9X9X9X9X5X9XqX9X9X9X9X6X9X9X9X8X9XqX8X8X9XqX8X7.y.~.!.Y.^.(.8X{.{.{.(.).$.V V v ",
"V V j.=.;.7 o < o 1 o * O.=.=.X.;.Q.5X9X8X9X9XqX9X9XqX9X6X9X9X9X9XqX9X6X9X9X9X8X9X9X8X8XqX9X8X5X,X{._..X%X5X9X_.}.{.{.~.#.V B M ",
"V V j.=.;.: + 1 o 3 o * +.=.;.O.-.Q.5X9X5X8XqX9X9X9X9X9X8X9X9X8X9X9X8X8XqXqX9X9XqX9X6XqXqX8X8XqX9X8X9X9X9X8X9X_.{.{.{.(.#.J d B ",
"V V a.=.;.= + < o 3 o ; +.=.;.X.;.R.|.|.{.|.|.{.{.{.}.{.{.{..X|.{.}.{.{.{.{.{.{.{.|.{.{.{.{.{.{.{.`.{.{.{.{.{.!./.{.{._.*.N d B ",
"V V d.;.;.% + 1 O 3 o > +.=.=.O.=.B.{.{.{.{.|.{.{.{.{.{.{.{.{.{.{.{.{.{.{.{.{.{.{.{.{.{.{.{.{.{.{.{.|.{.'.{.{.{.^.{.{.`.%.D m V ",
"V V d.#.*.@ + < o 3 o ; =.=.=.O.;.R.q.a a p p i p i i p 7.u.y.t.y.y.y.u.u.u.t.t.u.u.y.y.y.u.` e 0 0 0 e 0 0 0 ,.(.{.{.|.%.G V V ",
"V V d.;.#.+ O 3 O 2 o 1 *.=.;.O.;.N.7.X o % o o o % o   $ # # # # # # # X o o O o X o . o . o o X o + X & o o ` {.{.{.|.&.R V V ",
"V V d.=.#.+ + 2 + 2 . 4 *.;.;.O.;.M.0.O o o % r 6.<.r o :.q.r.q.q.q.q.q.q.9.9.r.w.w.w.r.r.r.,.. X t t.t.,.o o t  X{.{.{.x.T V V ",
"V V d.=.+.+ @ 1 @ , o 4 ;.=.=.O.;.n.t.X o o 1 _.T.sXyX` = ; ; * * * * * * # # # @ @ X X X   . o * T.T.sXsX,.X 9 {.{.{.{.b.^ V V ",
"V A d.=.o.O @ 2 O 2 o 7 ;.=.=.O.;.v.Y.X X o ' '.'.sXdXT.0 0.r.t.t.Y.Y.!.!.~.~.^.(.^.(././.(.t.. 4  XY.dXdXy.X 2 '.{.{.'.n.S.V V ",
"V V d.=.+.+ @ 1 o 2 & 7 ;.=.=.o.*.x.!.O o o ` '.T.pXdXt.; a u t e 9 5 3 , - * # X O o o       . * Y.`.`.,X,.o $ `.{.{.(.N.g.V V ",
"V V k.-.=.; O ; O 2 o 7 ;.=.=.X.=.l.(.O   % % Y.|./.T.:.' r t t i ` ` :.:.:.:.,.,.<.4.4.6.7.0.{.# a ^._.Y.5 O   (.{.{.(.B.f.V V ",
"V V k.=.=.| { l k w 8 [ =.=.=.X.;.&.`.o o o o 4 6.t.,., uX,X,X,X,X<X<X,X<X,X%X,X1X1X1X.X|.{.'.5X- o , i 1 o o o !.{.{._.E.j.V V ",
"V m f.=.;.=.=.-.;.;.=.=.=.=.;.%.=.%.<Xo o o o X % o & o 0.:.' Y.T.Y.T.^.^.^.(.(.~.~.~.(./.t * & o o o     o O * u.`.{..Xb.a.V V ",
"B f g.=.;.=.=.=.=.;.=.=.=.=.;.%.#.#.6Xs X .   X o $ O O O X O r u t r t u p ` ` :.:.,.<.4.6.7.0.w.t.Y.Y.T.T.T.^.!.!.,X{.=.s.B V ",
"B d Q =.=.=.=.=.=.=.=.=.=.=.=.%.;.=.M.9X,.<.6.6.0.0.t.u.Y.^./._.'.{.'.'._._.^.^._._.`.`.|.,X,X,X,X}.{.|.{.[.#X#X].].n.=.=.z.K V ",
"m d H -.;.;.=.=.=.=.=.=.=.=.=.X.-.;.=.B.9X5X.X|.{.|..X.X.X.X.X.X,X,X}.}.[.,X[.[.@XQ.W.E.N.b.x.&.&.&.=.=.;.*.=.=.;.=.=.=.%.h.Z V ",
"d d A L ^ k.C.=.=.=.=.=.=.=.=.%.%.=.=.=.&.z.n.M.n.n.b.v.x.x.&.@.o.%.*.%.=.=.=.=.=.;.=.=.&.=.%.=.=.=.=.=.=.=.;.#.;.;.=.=.c.H V V ",
"d B V V V V A L ~ h.s.-.=.=.=.=...#.;.=.;.;.;.;.-.=.=.=.;.;.;.;.=.;.=.;.=.=.=.;.;.;.;.-.=.;.=.;.=.-.s.s.a.S ..x ^ ~ Y L P V V V ",
"v C V V V V V V V V V J Y S.d.&.#. .#.-.=.;.;.;.=.;.=.=.;.;.;.-.C.C.s.d.d.k.h.g.S.~ ~ I Y L J H H C C V V c k S V V Z V C Z V V ",
"m V V V V V V V V V V V V V V V G I I U { { S Q T R R Y L L J C Z V V V V V V V V V f B V V V V V V V V V B 6 h V V V V V V V b ",
"V V V V V V V V V V V V V V V V V V V K h i N V V V V V V V A V V V V V V V V V V V n V V V V V V V V V V V B V V V V V V V V b "
};
