/* XPM */
static char *rad3[] = {
/* columns rows colors chars-per-pixel */
"64 64 135 2 ",
"   c #11120E",
".  c #151614",
"X  c #161815",
"o  c #191B16",
"O  c #1C1D1B",
"+  c #201F1D",
"@  c #1D221C",
"#  c #21221E",
"$  c #23291F",
"%  c #211F21",
"&  c #232323",
"*  c #282726",
"=  c #252922",
"-  c #2A2A26",
";  c #292728",
":  c #2B2B2A",
">  c #2F302B",
",  c #31312E",
"<  c #343434",
"1  c #373833",
"2  c #3A3A36",
"3  c #3B3B3B",
"4  c #444444",
"5  c #474847",
"6  c #4B4B4B",
"7  c #4F524B",
"8  c #51544E",
"9  c #545453",
"0  c #565953",
"q  c #595956",
"w  c #5C5C5B",
"e  c #605F5B",
"r  c #61615E",
"t  c #646463",
"y  c #676863",
"u  c #6A6966",
"i  c #6D6D6B",
"p  c #6F706C",
"a  c #71716D",
"s  c #747572",
"d  c #777874",
"f  c #7A7A75",
"g  c #7C7C7B",
"h  c #F77522",
"j  c #F77A23",
"k  c #F88426",
"l  c #F98728",
"z  c #F98929",
"x  c #FA932B",
"c  c #FB982D",
"v  c #FDA431",
"b  c #FEAE34",
"n  c #FAA73C",
"m  c #FEB238",
"M  c #9A905D",
"N  c #A99B56",
"B  c #8B8467",
"V  c #938A63",
"C  c #8B8675",
"Z  c #82827E",
"A  c #FDB741",
"S  c #FEBE42",
"D  c #FEB54A",
"F  c #FEB453",
"G  c #FECA4C",
"H  c #FED050",
"J  c #FEDC59",
"K  c #FEE45F",
"L  c #FEE761",
"P  c #FEE861",
"I  c #FEE976",
"U  c #848483",
"Y  c #888785",
"T  c #8A8A86",
"R  c #8C8C8B",
"E  c #8F908C",
"W  c #91928D",
"Q  c #949493",
"!  c #989793",
"~  c #979893",
"^  c #9A9A96",
"/  c #9C9C9B",
"(  c #A09F9B",
")  c #9FA09C",
"_  c #A1A19D",
"`  c #AEA998",
"'  c #A4A4A2",
"]  c #A7A8A3",
"[  c #AAAAA6",
"{  c #ACACAA",
"}  c #AFB0AA",
"|  c #B2B2AE",
" . c #B5B5B4",
".. c #B7B8B3",
"X. c #BABAB5",
"o. c #BDBDBB",
"O. c #F2BB84",
"+. c #C0BFBB",
"@. c #EDB7A2",
"#. c #ECBAAD",
"$. c #BFC0BB",
"%. c #EFC094",
"&. c #F3C090",
"*. c #DCD1A2",
"=. c #C1C2BE",
"-. c #EDD1BA",
";. c #F3D3BB",
":. c #C5C5C2",
">. c #C8C7C3",
",. c #C7C8C3",
"<. c #CACAC6",
"1. c #CDCDCA",
"2. c #D2CBC6",
"3. c #D5CFCA",
"4. c #CFD0CB",
"5. c #D1D1CD",
"6. c #DAD3CE",
"7. c #D3D3D0",
"8. c #DCD5D1",
"9. c #D7D8D3",
"0. c #DADAD5",
"q. c #DDDDDA",
"w. c #E2D7CF",
"e. c #EBD7C8",
"r. c #E9D9CE",
"t. c #DFE0DB",
"y. c #E1E2DE",
"u. c #E1DFE0",
"i. c #E4E4E1",
"p. c #EBECE7",
"a. c #EDEDEC",
"s. c #F2F3EE",
"d. c #F4F4F3",
"f. c #F8F8F7",
"g. c #FFFFFF",
/* pixels */
"b b b b b b b b b b b b b b b b b b b b j v b b b b b b b b b b b b b b b b b b b z x b b b b b b b b b b b b b b b b b b b v l ",
"b b b b b b b b b b b b b b b b b b b x z b b b b b b b b b b b b b b b b b b b v j b b b b b b b b b b b b b b b b b b b b k v ",
"b b b b b b b b b b b b b b b b b b b k z b b b b b b b m b b b b b b b b b b b c h b b b b b b b b b b b b b b b b b b b v h v ",
"b b b b b b b b b b b b b b b b b b k h v b b b b b b b b b b b b b b b b b b x j c b b b b b b b b b b b b b b b b b b v j l v ",
"b b b b b b b b b b b b b b b b b k j v b b b b b b b b b b b b b b b b b b c h x b b b b b b b b b b b b b b b b b b v j k b b ",
"b b b b b b b b b b b b b b b b k h v b b b b b b b b b b b b b b b b b b c h c b b b b b b b b b b b b b b b b b b v j k b b b ",
"b b b b b b b b b b b b b v c j j v b b b b b b b b b b b b b b b b b v h h x b b b b b b b b b b b b b b b b b v k h l b b b b ",
"b b b b b b b b b b b b v j h h v b b b b b b b b b b b b b b b b b k h h c b b b b b b b b b b b b b b b b b x h h l v b b b b ",
"b b b b b b b b b v v k h j x b b b b b b b b b b b b b b b v v x h h z b b b b b b b b b b b b b b b b v v h h l v b b b b b b ",
"b b b b b b b x z j h h v b b b b n b b b b b b b b b b v l k h h c v b b b b b b b b b b b b b b b l l h h k v b b b b b b b b ",
"b b b b v k h h j z b v v b G J L L L L S S A b b b b v h h l l x b b m G L L L L G G m b b b b b k h j k l b b b b b b b b b b ",
"b b v l h h h x v b G J J J K K L L L L L L L A b b v h k v b n m J K P L L L L L P P P H b b b k h v b b b b b b b b b b b b b ",
"b v h h h k x b b b L L P P L L L L L L L L J b b x x A L L L L P P L L L L L L L L P L b b v z n J P L J b b b b b b b b b b b ",
"b z h h k b b b b b L L P P L L L L L L L L J b b b J P L L L L P P L L L L L P L L K K b b b H L L L L J b b b b b b b b b b b ",
"v h h v b b b b b b L L L L L L L L L L L L m b S L P P L L L K P P P K L P P K L L L G b b P P P P L L J m b b b b b b b b b b ",
"v h k b b b b b b b L L L *.g f s p u t r w q 9 9 9 6 6 5 5 4 4 4 4 4 4 4 3 4 4 4 4 4 3 3 4 4 3 4 3 4 4 3 4 4 4 4 4 5 4 5 5 5 5 ",
"h h b b b b b b b b P P P ` 5 6 9 9 9 6 6 6 6 6 6 6 6 5 5 5 5 5 5 5 4 4 5 4 4 4 5 6 5 5 4 4 4 4 4 4 4 4 5 5 5 5 5 6 6 6 6 6 6 9 ",
"h x b b b b b b b b P P I g 5 9 9 6 6 6 6 6 6 6 6 6 6 5 5 5 5 4 5 4 4 4 4 3 4 4 4 3 4 4 4 4 4 4 4 4 4 4 4 5 5 5 5 5 6 5 6 6 6 9 ",
"j v b b b b b b b b K K L s 4 8 9 9 q q w w t t t u i s s s g g g g U U U Y R Q Q R R R R Q E E E E R E R R R R R R R R R Y R R ",
"z b b b b b b b b b P K L g Q a.f.f.g.f.g.f.g.g.g.g.g.g.g.g.g.g.g.g.g.g.g.g.g.g.g.g.g.g.g.g.g.g.g.g.g.g.g.g.g.g.g.g.g.g.g.g.g.g.",
"b b b b b b b b b b S K L C 5.g.g.g.g.g.g.g.g.g.g.g.g.g.g.g.g.g.g.g.g.g.g.g.g.g.g.g.g.g.g.g.g.g.g.g.g.g.g.g.g.g.g.g.g.g.g.g.g.g.",
"b b b b b b b b b b G K L B 5.g.g.g.g.g.g.g.g.g.g.g.g.g.g.g.g.g.g.g.g.g.g.g.g.g.g.g.g.g.g.g.g.g.g.g.g.g.g.g.g.g.g.g.g.g.g.g.g.g.",
"b b b b b b b b b b S L L V 1.g.g.g.g.g.g.g.g.g.g.g.g.g.g.g.g.g.g.g.g.g.g.g.g.g.g.g.g.g.g.g.g.g.g.g.g.g.g.g.g.g.g.g.g.g.g.g.g.g.",
"b b b b b b b b b v G L L V >.g.g.g.g.g.g.g.g.g.g.g.g.g.g.g.g.g.g.g.g.g.g.g.g.g.g.g.g.g.g.g.g.g.g.g.g.g.g.g.g.g.g.g.g.g.g.g.g.g.",
"b b b b b b b b b b G K L M <.g.g.g.g.g.g.g.g.g.g.g.g.g.g.g.g.g.g.g.g.g.g.g.g.g.g.g.g.g.g.g.g.g.g.g.g.g.f.f.u.1.<.5.f.g.g.g.g.g.",
"b b b b b b b b b b D J L N =.g.f.f.f.g.f.d.a.g.g.a.s.f.f.a.a.f.g.d.a.f.g.g.g.g.f.f.g.u.0.g.g.g.g.g.g.g.g.a.t i t t q.g.g.g.g.g.",
"b b b b b b b b b F ;.5.1.<. .Y 9 < 3 g 9 < < s q 3 < i i 4 4 9 R s a d =.u. . . . . . . . . . . . . . . .o.o.o.:.:.o.o.o.o.o.o.",
"b b b b b b b b b O. ...o.:.{ W Q Q Q Q Q Q Q Q Q Q Q Q Q Q Q Q / / / Q ' / / / / / / / / ' ' ' / _ ' ' ' [ { { { { { { { {  . .",
"b b b b b b b b b &. ./ / / / ' / Q / Q Q Q Q Q Q R R R U Y Y U U U g g g g g g g g g g g g g g g g U g g g U g U g U U U U U U ",
"b b b b b b b b b %.o.3 3 3 3 3 3 3 3 3 3 3 3 3 3 3 3 3 3 3 3 3 3 3 3 3 3 3 3 3 < 3 < 3 3 < 3 3 3 3 3 4 3 3 3 3 3 3 3 3 3 3 9 3 ",
"b b b b b b b v v @.:.3 % % % & ; % % O O O O O O O O O O . . . O . . O . O O O O . . . . . . . . . . . . . . . . . . . . & 6 3 ",
"b b b b b x z j h #.o.s Q / Q Q / / / Q / Q Q / / Q Q / / / / / / Q / / Q / / R / / Q Q / / Q / / Q Q / / / / ' / / ' {  .' 9 i ",
"b b b v h h h k z -.o.R { | ' Q { { ' / / ' / / / ' ' _ ) _ _ _ / Q / / Q / ) R ( / W W ! ( R ^ E / Y ( ' ' ' _ ) W / |  . .q t ",
"b b k h h h k b n e. .R ' / / Q / / Q Q / Q Q Q / ~ Q ~ ~ p a a s s s s s s a s a f a f a s p U R Y R U a a E ) ) ' ] { ..X.9 < ",
"b z h h h v b b b e. .g ' ' ' ' / ' / ' / ' ) ) / / ) ^ ^ ^ ) ^ / / / / / / / ^ ^ ^ ( ^ ^ ^ ^ ^ / Q ^ ! / ^ _ _ ' ] { }  .{ 9 ; ",
"v h h c v b b b b r. .3 5 5 q i 4 4 9 9 9 9 9 7 9 4 6 6 4 4 5 3 w 9 3 u 6 4 y 3 < 9 e , w 9 6 e 3 , e q , , , , , 9 q < < < 9 , ",
"v h j v b b b b b w.[ 5 5 5 5 5 4 5 5 4 4 4 5 5 4 4 4 4 4 4 4 4 4 5 6 5 6 6 6 6 6 6 6 7 6 8 8 8 9 9 q q q q w q w w e e w r u g ",
"k h v b b b b b b >./ / Q E R R R U U U Y U Z Z U g g g C f d d d d d d d f Z T E E W W W W W E W R T W T T T T E W Q ) / / ) / ",
"h k b b b b b b n 3.7.Y t t t r w w w 9 0 8 0 8 8 7 7 7 8 8 7 7 8 8 0 0 0 e X.,.R E W ! ! ! W ! ~ W W T f p u u s Z ^ _ { } } | ",
"h v b b b b b b b 6.g.Q 4 4 3 < = = = ; $ = = = = $ = # $ $ $ $ $ > 1 1 1 5 y.s.E ^ ( ( ( ( ( ( W d y y f T ~ ^ ~ E Z f T { X.$.",
"z b b b b b b b b 6.g./ 3 3 3 < @ % % @ @ @ @ $ = @ # O # @ # # $ $ , > , 2 y.s.E ^ _ _ ( ( E a r U g r 7 3 ; ; > 7 i T / g Y } ",
"v b b b b b b b b 9.g./ 3 < < : X X X X . X @ $ = & $ o   X X     # > > , , y.p.E ~ ( _ ( T e i a 9 @ O O % @ % + & % o < s ! f ",
"b b b b b b b b b 8.g./ 3 < 3 , = % @ @ @ @ @ @ @ @ @ @ # @ o + + # - $ - , q.p.! ^ ^ ^ Y y C e # + O % & & % ; * & * ; & O 9 ( ",
"b b b b b b b b b 8.g./ 3 < < : % O O X . X X X @ @ o @ X o @ o o $ > > - , 0.p.~ ^ ^ C u g 9 + + # & O O O @ & & % & & ; : % 1 ",
"b b b b b b b b b 8.g.' < < < : & + @ o o @ @ O @ @ @ @ @ # @ O + $ - - - > q.i.W ^ E u T 0 + + # O O + % % % % % % % * % ; ; & ",
"b b b b b b b b b 8.g.' 3 < , : # o # @ @ o o @ @ @ @ @ @ @ @ @ + $ > * ; > q.y.~ ! f Z u + + * O + O % X % O % % % O % * % : ; ",
"b b b b b b b b b 8.g.{ < < > : & O @ # @ @ @ @ @ @ @ @ @ @ @ # + * - : ; > q.0.~ T r Z # + # + % % O % @ O % % @ O & O % % & : ",
"b b b b b b b b b 8.g.' < < < ; % o o @ @ X @ @ @ @ @ @ @ o o o + $ : : : > q.9.W a s 0 + $ + + % % % O % O O O O % % % % * & & ",
"b b b b b b b b b 5.a.[ 3 < , : # o O o   X X @ @ @ @ $ $       @ = - : : , t.1.Q r d & % & % % O * % O & 3 9 t 9 & O % % O & & ",
"b b b b b b b b b 2.u.' w s s w o o o o .   . @ @ @ @ @ o       o 3 y t t 4 0.o.Y t i O & % & % % O O ; i U i w s R 6 O % % % % ",
"b b b b b b b b b 6.f.] / { | ] > X X X . . . o X @ @ @ o     X o g ) / ~ w 0...g s w @ & O X X % % % w g . X O O : s < O O O % ",
"b b b b b b b b b 6.g.[ / [ { [ y o X o o o o X X o @ X X o o X @ ~ ) / ~ r 0. .a g 6 @ & @ % % O @ , g . O % % % O 5 t % % % & ",
"b b b b b v v k h 3.g.[ / } | } W @ @ $ @ O O O @ @ @ @ @ o @ @ 7 [ _ _ / y 0.{ p Z 4 @ & % % % % % 5 p . X O % O O O g % % % & ",
"b b b b z h h h k 6.g.} /  .|  .| ) ^ _ _ _ ] ] ] ] ] ' _ ) ) ) _ | } | [ i 0.{ a T 4 & & % % & % @ 6 s O % & ; & % & U % % & & ",
"b b c h h h j v b 6.f.| ) X...o.$.$.=.=.<.<.<.<.<.<.<.<.1.,.,.=.=.X.....| i q.| g U 9 % & & % & % % < R ; & & & & % t g & & & & ",
"b c h j h c v b b 6.g.} _ =.=.=.<.2.4.5.5.5.0.0.9.9.0.9.0.9.5.9.5.<.2.<.$.a q.o.E g y % & & & & % & % g g ; % % % 6 Q < & & & & ",
"v k h k x b b b b 6.g.[ [ <.4.4.9.0.q.t.y.y.i.i.i.i.i.i.y.y.i.i.y.0.0.0.5.g q.,.' g g O & & & & & & & & g Q i i R ' 9 % & & ; & ",
"v h h v b b b b b 8.g.| T ..$.=.o.o.X.o.X.o.o.o.o.o.o.o.o.o.o.+.$.=...o.X.f q.1. .U / < & ; & & & & & & & 4 9 s w & & & & & ; : ",
"c h x b b b b b b 0.g...e p p u i i i i a p p p s a a i i u u y r r r r w 9 y.9. ./ / g & : ; ; & ; & & & & & & & ; & & & ; : ; ",
"h h b b b b b b b 6.f.=.=.<.4.2.<.<.<.1.<.1.1.<.<.<.>.<.:.,.>.=.o.o.o.X...' q.0.o.o.Q :.3 ; ; & & & : & & & ; & & & & ; & & & < ",
"h v b b b b b b n 5.f.<.=.4.4.4.<.1.<.<.:.<.:.:.:.:.>.>.>.>.>.=.>.>.>.>.:.[ q.q.o.:.{ o. .% & ; ; & & & : & & ; : : : & ; : : : ",
"k b b b b b b b b 9.d.<.,.4.5.1.<.<.:.:.:.:.<.:.:.:.>.>.>.>.>.>.>.>.>.>.,.[ u.u.o.:.:.Q u.' & ; ; & & ; & & : : & & & & : : : & ",
"x b b b b b b b b 8.d.<.<.7.7.5.1.1.:.<.<.<.<.>.>.:.>.>.>.>.>.<.>.>.<.1.<.{ q.i.o.1.1.:.R u.' & ; : ; ; ; ; & ; : & : : : : & R ",
"b b b b b b b b b 5.f.5. .=.=.=.=.o. .X.o. .o.=.=.=.=.=.+.+.+.+.X.X.X...../ q.i.:.:.1.1.o.Q u.:.6 & ; : : : : : : : : : ; 3  .i."
};
