/* XPM */
static char *rad4[] = {
/* columns rows colors chars-per-pixel */
"64 64 212 2 ",
"   c #050100",
".  c #0C0101",
"X  c #0E090A",
"o  c #140101",
"O  c #1B0102",
"+  c #170B04",
"@  c #1C0708",
"#  c #140F0F",
"$  c #1C0E0E",
"%  c #1E1405",
"&  c #14100F",
"*  c #1A100F",
"=  c #150F10",
"-  c #1D0F10",
";  c #151111",
":  c #1C1111",
">  c #230101",
",  c #2B0101",
"<  c #200F07",
"1  c #230508",
"2  c #2E070A",
"3  c #230D0D",
"4  c #2C0A0B",
"5  c #340001",
"6  c #3C0001",
"7  c #350A0C",
"8  c #360A0D",
"9  c #2A1405",
"0  c #21110E",
"q  c #331E06",
"w  c #381F07",
"e  c #341C0B",
"r  c #220F10",
"t  c #320E12",
"y  c #221111",
"u  c #2E1414",
"i  c #361012",
"p  c #3B1314",
"a  c #331918",
"s  c #3A1A1A",
"d  c #2E230B",
"f  c #34230C",
"g  c #38280A",
"h  c #3C211F",
"j  c #430000",
"k  c #4B0000",
"l  c #530001",
"z  c #5C0101",
"x  c #43161C",
"c  c #481A1E",
"v  c #640000",
"b  c #6B0101",
"n  c #740101",
"m  c #7B0202",
"M  c #552E0F",
"N  c #49300F",
"B  c #472912",
"V  c #443613",
"C  c #533412",
"Z  c #583B18",
"A  c #663B15",
"S  c #462425",
"D  c #552D2E",
"F  c #643126",
"G  c #4D4217",
"H  c #544619",
"J  c #594E1C",
"K  c #5F511E",
"L  c #674617",
"P  c #6C4614",
"I  c #744A17",
"U  c #744E19",
"Y  c #795218",
"T  c #635321",
"R  c #715E2A",
"E  c #6D6025",
"W  c #7A6C2A",
"Q  c #7F702B",
"!  c #614242",
"~  c #830102",
"^  c #8C0202",
"/  c #940202",
"(  c #9B0302",
")  c #A40202",
"_  c #AB0303",
"`  c #AF0905",
"'  c #B40302",
"]  c #BB0303",
"[  c #BE0803",
"{  c #893D20",
"}  c #C30402",
"|  c #CB0303",
" . c #CC0804",
".. c #C2060A",
"X. c #D30403",
"o. c #DB0303",
"O. c #D30B05",
"+. c #DC0C04",
"@. c #DC0A08",
"#. c #DB1104",
"$. c #E40303",
"%. c #EC0302",
"&. c #E40A04",
"*. c #EC0C05",
"=. c #E60908",
"-. c #F30302",
";. c #FA0403",
":. c #F40B03",
">. c #FB0C03",
",. c #E61306",
"<. c #ED1304",
"1. c #EA100A",
"2. c #F41405",
"3. c #FB1403",
"4. c #F71806",
"5. c #FC1B05",
"6. c #F21308",
"7. c #FA1408",
"8. c #F61A08",
"9. c #FC1C09",
"0. c #FE2103",
"q. c #FC2108",
"w. c #86561C",
"e. c #8A5D1B",
"r. c #975D1E",
"t. c #A64E1B",
"y. c #A3531B",
"u. c #94621E",
"i. c #9A641E",
"p. c #A46F1E",
"a. c #885723",
"s. c #945F2F",
"d. c #AD5A24",
"f. c #B45524",
"g. c #956520",
"h. c #9C6920",
"j. c #9D6630",
"k. c #867630",
"l. c #8B7B31",
"z. c #A36925",
"x. c #AB6C22",
"c. c #BB6422",
"v. c #AA7220",
"b. c #AB7129",
"n. c #B37525",
"m. c #B67C25",
"M. c #BA7E26",
"N. c #C95D1E",
"B. c #C4721F",
"V. c #E0691E",
"C. c #DD6A26",
"Z. c #C37D28",
"A. c #DC7422",
"S. c #E46D25",
"D. c #E87723",
"F. c #F77522",
"G. c #F77A23",
"H. c #988737",
"J. c #BB832A",
"K. c #A48F3C",
"L. c #A9983E",
"P. c #B79B3C",
"I. c #C38527",
"U. c #C38429",
"Y. c #CC8A2A",
"T. c #D68C2C",
"R. c #D6922B",
"E. c #DB952C",
"W. c #D38C30",
"Q. c #CD9934",
"!. c #DB9533",
"~. c #DC9533",
"^. c #E98A29",
"/. c #F88426",
"(. c #F98728",
"). c #F08D2D",
"_. c #F98828",
"`. c #E5952C",
"'. c #E29A2E",
"]. c #EC9C2E",
"[. c #F2972D",
"{. c #FA932B",
"}. c #FB982D",
"|. c #E69D30",
" X c #EDA232",
".X c #EFAF3D",
"XX c #F3A633",
"oX c #FCA330",
"OX c #F6A833",
"+X c #FEAE34",
"@X c #FEB238",
"#X c #B29F41",
"$X c #B7A544",
"%X c #C3B048",
"&X c #C8B44B",
"*X c #CEBA4D",
"=X c #F7BB45",
"-X c #FEBD42",
";X c #D5C150",
":X c #DBC653",
">X c #FECA4C",
",X c #E3CE56",
"<X c #E7D257",
"1X c #EAD459",
"2X c #EED85A",
"3X c #FDD456",
"4X c #F3DD5C",
"5X c #FEDB59",
"6X c #F7E15E",
"7X c #FCE35F",
"8X c #FEE761",
"9X c #FEE861",
/* pixels */
"+X+X+X+X+X+X+X+X+X+X+X+X+X+X+X+X+X+X+X+XG.oX+X+X+X+X+X+X+X+X+X+X+X+X+X+X+X+X+X+X+X_.{.+X+X+X+X+X+X+X+X+X+X+X+X+X+X+X+X+X+X+XoX/.",
"+X+X+X+X+X+X+X+X+X+X+X+X+X+X+X+X+X+X+X{._.+X+X+X+X+X+X+X+X+X+X+X+X+X+X+X+X+X+X+XoXG.+X+X+X+X+X+X+X+X+X+X+X+X+X+X+X+X+X+X+X+X/.oX",
"+X+X+X+X+X+X+X+X+X+X+X+X+X+X+X+X+X+X+X/._.+X+X+X+X+X+X+X+X+X+X+X+X+X+X+X+X+X+X+X}.F.+X+X+X+X+X+X+X+X+X+X+X+X+X+X+X+X+X+X+XoXF.oX",
"+X+X+X+X+X+X+X+X+X+X+X+X+X+X+X+X+X+X/.F.oX+X+X+X+X+X+X+X+X+X+X+X+X+X+X+X+X+X+X{.F.}.+X+X+X+X+X+X+X+X+X+X+X+X+X+X+X+X+X+XoXF./.+X",
"+X+X+X+X+X+X+X+X+X+X+X+X+X+X+X+X+X/.G.oX+X+X+X+X+X+X+X+X+X+X+X+X+X+X+X+X+X+X}.G.}.+X+X+X+X+X+X+X+X+X+X+X+X+X+X+X+X+X+XoXD.A.m.Y ",
"+X+X+X+X+X+X+X+X+X+X+X+X+X+X+X+X/.G.oX+X+X+X+X+X+X+X+X+X+X+X+X+X+X+X+X+X+X{.F.}.+X+X+X+X+X+X+X+X+X+X+X+X+X+X+X+X+XXXT.y.A 0 X g ",
"+X+X+X+X+X+X+X+X+X+X+X+X+XoX}.G.G.oX+X+X+X+X+X+X+X+X+X+X+X+X+X+X+X+X+XoXF.F.{.+X+X+X+X+X+X+X+X+X+X+X+X+X+X+X XR.i.M ; ; & & X B ",
"+X+X+X+X+X+X+X+X+X+X+X+XoXG.F.F.oX+X+X+X+X+X+X+X+X+X+X+X+X+X+X+X+X+X/.F.F.}.+X+X+X+X+X+X+X+X+X+X+X+X+X|.I.e.N & : = ; & & & & C ",
"+X+X+X+X+X+X+X+X+XoXoX/.F./.{.+X+X+X+X+X+X+X+X+X+X+X+X+X+X+XoXoX{.F.G._.+X+X+X+X+X+X+X+X+X+X+XOXE.m.Y g . X X : : ; ; ; ; ; ; Z ",
"+X+X+X+X+X+X+X{._.G.F.F.oXoX+X+X+X+X+X+X+X+X+X+X+X+X+X+XoX_./.F.F.}.oX+X+X+X+X+X+X+X+X+XOXR.v.P f X .     . X : : : : ; ; ; & L ",
"+X+X+X+XoX/.F.F.G._.+XoX+X+X>X5X8X8X8X8X>X-X@X+X+X+X+XoXG.F./._.}.+X+X@X>X9X9X9X6X>XQ.h.C 9 .             . o : : : : : & # & L ",
"+X+XoX/.F.F.F.}.oX@X>X5X5X5X7X7X8X8X8X8X7X7X9X-X+X+XoXG./.oX+X+X-X5X5X9X9X7X1X%XH.V < X .                 . X : : : : : * # ; U ",
"+XoXF.F.F./.{.+X+X+X8X8X7X9X9X9X8X8X8X9X9X9X5XoX+X{._.-X9X8X8X8X8X8X6X,X$XW d @   .                       . # : : : : : * # = Y ",
"+X_.F.G./.+X+X+X+X+X8X8X7X7X9X9X8X8X8X8X8X9X5X+X+X+X5X9X9X9X8X4X:XL.E 3 @ o o .       . . . .           . . o : : : : : : * ; w.",
"oXF.F.oX+X+X+X+X+X+X8X8X8X8X9X9X8X8X8X8X8X8X+X+X>X9X9X9X2X*XH.K O O o o . . . . . . . . . .   .           . + y y : * : * & = w.",
"oXG./.oX+X+X+X+X+X+X8X8X8X8X9X9X8X8X8X9X8X8X+X+X3X<X%Xl.G 1 > O o o . . . o . . . . . . . .               o X y y y : : * : : e.",
"F.F.+X+X+X+X+X+X+X+X9X8X8X8X8X8X8X8X8X8X8X=X`.P.W V O O o o . . . . . o o . . o . o . . . . . .   .     . o X y y : : : : : ; u.",
"F.{.+X+X+X+X+X+X+X+X8X8X8X8X8X8X8X8X6X;XL.L w O O o o . . o o o o o o o o o o o o O o O O > O o . .     . X o 0 y y y : : * ; g.",
"G.oX+X+X+X+X+X+X+X+X8X8X8X8X8X4X*XH.H q O O o o o . o . o o O o O O o o o O o @ > , 5 k z v z 6 > o . . . o + y y 0 y : $ - : h.",
"_.+X+X+X+X+X+X+X+X+X8X8X1X%Xl.V 9 > O O O o . o o o o O O o O O O O O O > , 5 5 l b ~ ^ / ( ( ~ k O o . . o o : y : y : - $ - r.",
"+X+X+X+X+X+X+X+XOX'.J.Q f > > O O O o o o o o O o O O O O O O O O O O , k b n v ~ _ ' ' ' ' ] ' m 5 o o . o O y y y y : : $ : r.",
"+X+X+X+X+XXXE.v.I > > O O o O O o o o O O o o O O O O O > > , 5 , > > j ^ ' ) n / ] } ] ' } | | _ l O . . o o r 0 0 - y $ $ - t.",
"+X+X].Y.u.L 1 > > O o o o o O o O o o O O O O O O O O O > k b m z , , k ( ] ' m ( } ..) m / | o.} v > o o o o 3 y 0 y r $ $ = x.",
"U.e.C @ O O O o o o o o O o O O O O O o O O O O O O > > 5 m _ _ m 5 , k ) | ] ~ ) o.X.~ k v | $.o.n , O o O @ r r 3 r : $ $ : x.",
"e @ O o o . o o o o o o O O O O O O > > , > > > > > > > j ^ ] ] ( j , k _ o.| ^ ' $.o.~ j z | -.=.m 5 O o O O r r 4 r y $ $ # n.",
"B o . . . o o o o O O O > O > > > > 5 v m b 5 , > > , , k ) | o.' z 6 l ' $.o.( ] -.$./ k b X.;.$.~ , O O O O 3 r y r - : $ $ m.",
"Z o o o o O O O O O O > > , 6 l 6 5 l ( ' ^ 6 , > , , 5 z ' o.$. .n 6 z ] %.o.) ] -.%.) v / $.>.$.n , O o o O r r y r r $ $ $ M.",
"A @ o O o O O O O > > > , j m ( m j z ) ] / k , , , 5 5 b } %.%.=.^ j z } -.%.' } >.>.| ] &.3.7.] l 1 O o O o 3 4 y 3 - $ $ $ J.",
"P O o o O O O > j l k 6 , k / ] ( z z ' | _ k , , , 5 6 m X.;.;.%._ l z } ;.:.' } 3.9.5.5.5.9.1./ 6 > O o O o 3 r 3 3 - - $ = U.",
"Y @ o o o o , l ~ / ( n j k ( } ..m v ] o.' l 5 , 5 5 j / =.;.;.;.} b z } >.2.] } 5.0.q.q.q.5. .z 5 > O o O O r 3 3 - r $ - $ U.",
"w.@ o o o O k ~ ) ' ' _ b l ) o.o._ n } $...v 5 5 5 5 k ) :.>.>.3.+.n v } 5.2.]  .5.q.5.5.9.9. .b 5 > O o o O 3 3 3 3 r $ $ 0 Y.",
"a.> o O O , b ) _ ) ] | ( b ' %.%.X./ | %.X.b j 6 5 6 l ' >.>.:.9.1./ v } 5.2.} } 9.9.X.} 8.q.&.~ 5 > O O o O 0 4 3 r $ - $ 3 Y.",
"a.1 o O @ 6 ^ ' ^ v ) o.} m ] %.-.$.] o.:.o.n j 6 5 6 z } 5.2.%.5.2._ b [ 8.5.} } 5.7.] ^ +.9.2._ k > O O o O 3 4 3 3 $ $ $ 0 T.",
"i.> o O 1 k ) ] n j ^ o.X.~ ] :.;.>.$.$.>.&.m k j 6 j b  .5.:.%.5.5.] n [ 5.5.] ] 5.5.' b ] 3.5. .z , O O O o r 4 3 $ 3 $ $ * R.",
"z.> o O , l ' ..n 6 ^ $.o.^ ] 3.3.5.3.-.5.*.~ k j j 6 n #.0.9.9.0.0.O.m ] 5.4.} ] 5.3.' z / &.3.&.m 5 O O X o 1 r 3 3 $ 3 * 0 R.",
"z.> O O , l [ X.m k ~ %.$./ ] 7.3.5.5.5.9.<.^ k j 6 k m #.0.0.0.0.0.#.~ ' 4.5.} ' 5.3.] l v X.:.-.) 6 O O o o 3 4 3 $ 3 0 * 0 R.",
"v.1 O > , l [ $.^ j ~ &.*.( ' 7.>.-.0.0.0.<./ k j j k ~ ,.q.5.2.5.q.<./ ` 3.5.} ' 7.3.' l k _ %.&.` j O o o o 3 3 3 3 3 3 * 0 E.",
"d.1 O O > l ] $.( k m &.<.) ' 5.2.o.4.0.0.<./ k j 6 k / <.5. .) X.5.6._ ' 2.2.} _ :.*._ k 5 b ( ^ b 5 O o o o 1 3 3 - - $ $ 0 E.",
"f.4 O > , k ] %.) k n +.2._ _ 2.<.] ,.0.0.<./ k j 6 k ( <.2.) z _ 2.6.] _ *.*.' / ..` m 6 , 5 5 5 > > O o o o 1 3 3 r r 3 * 0 '.",
"f.4 O O > k ' %._ k n #.2.) _ 7.<.) | 5.0.<./ k j j k ) 2.<.( k ^ &.*.[ ^ ' ) n l z k 6 , , > > O o o o o o o 3 4 3 r r r * 0 '.",
"c.3 O O > j ' %.' l n @.6.) ( 6.*.( _ 6.9.2.( k j 6 k ` 1.@.~ k z / / b l k k 6 5 5 , , > > > O o o o . o o o 1 0 4 r r r - y `.",
"Z.4 O O > 6 ) *...m ( *.1./ / *.*./ ~ @.3.*./ k 5 5 j ~ ` ~ l 5 6 6 6 5 5 5 , , , , , > > > O O o o . o . . o $ y y y r r - y D.",
"U.1 O > > 5 ^ &.%.o.=.>. .n ^ =.%./ v ] =. .~ j 5 , 5 6 j j 5 5 , , , , , , , > > > > > O O o o o o o . o . o @ u 0 y r 0 * u ^.",
"Y.4 > O > , v } ;.;.;.=.( k n  .X.m j b n b k 5 5 , , , 2 , , , , > , , > > > > > > > O O O o o . o . o o o o + 0 y r r 3 * 0 ^.",
"W.s > O > > 5 m ..@.X.) z 6 j b v k 5 5 5 5 , , , , , > > , , > , > > > > > > > > > O O O O O + o O o o . o o + r y y y : $ 3 ].",
"W.S 1 O > > , 5 z n b k 5 , , 5 , 5 5 , 5 , , , , > O , > > > > > > > > > > > > > O O O O O O o o o o o o o o $ r 3 $ - $ $ 0 [.",
"!.S 1 O O > > > , , , , , > , > , > , , , > > > > > > > > > > > > > > > > > O > O O O O O O o o . o o . o . o o O o o + 1 M w.oX",
"~.S @ O O O O > > > > > , > , > > > > > > > > O O > O > > > > > > > > O > O O > O O o O o o o . o o . o o . o + f Y p.B.V.[.+X+X",
"~.a O o @ O O O O O > > > > O > > > > > 1 > > > > > > O > > O O O @ O O O o O o o o o . o . . o o . % g J H.m.R.XXoX}.F.{.+X+X+X",
"'.a @ o O O O O O O O > O > O > O > > > > > > > > > > > O O O > O O O O o o o o o o o o o o d G W L.*X<X7X>X+X+X/.G.F.{.+X+X+X+X",
"|.e @ O O o O O O O O O > O > > > > O O O O > O O o o O o o o O o o o o o o o O > 1 Z R H.%X:X6X9X9X7X9X8X-XoX/.F./.{.+X+X+X+X+X",
" Xh 3 o @ o o O O O O O O O O O O O O O O o o . o o . o o o O O > 2 4 , > e T k.#X;X<X8X9X9X7X7X9X9X9X9X@X{.F.F.oX+X+X+X+X+X+X+X",
" XD u O o O O O O O O O O > > > 1 > 1 o . . . o o O 1 O > O , i c F k.K.&X,X4X8X8X9X9X9X7X5X5X5X5X3X{./._._.{.+X+X+X+X+X+X+X+X+X",
".X! s X @ X O @ @ 1 2 1 , 8 , 2 , , > O o 1 t x x x 8 8 8 A s.M.~..X7X8X9X9X8X8X5X-X>X-X>X+X+X+X(.G./.+X+X+X+X+X+X+X+X+X+X+X+X+X",
"XX! S h s h s h p i t p p p p s p 8 2 2 2 p c D F { t.N.^.OX+X+X+X+X+X+X+X+X+X+X+X+XoX+X+X/.F.F.F./.+X+X+X+X+X+X+X+X+X+X+X+X+X+X",
"+X).S.S.C.A.W.W.Y.U.M.n.b.b.j.s.a.P A B A z.Z.C.S.F.G.oX+X+X+X+X+X+X+X+X+X+X+X+X+X+X+X+X/.G.F.F.oXOX+X+X+X+X+X+X+X+X+X+X+X+X+X+X",
"+X/.F./.{.+X+X+X+X+X+X+X+X+X+X+X+X+X+X+X+X+X}.F.G._.+X+X+X+X+X+X+X+X+X+X+X+X+X+X+X+X+XoXF.F._.oX+X+X+X+X+X+X+X+X+X+X+X+X+X+X+X+X",
"oXF.F.oX+X+X+X+X+X+X+X+X+X+X+X+X+X+X+X+X+X+XF.F._.+X+X+X+X+X+X+X+X+X+X+X+X+X+X+X+X+X+X/.F.F.+X+X+X+X+X+X+X+X+X+X+X+X+X+X+X+X+X+X",
"{.F.{.+X+X+X@X+X+X+X+X+X+X+X+X+X+X+X+X+X+XoXF./.+X+X+X+X+X+X+X+X+X+X+X+X+X+X+X+X+X+X+X/.G.oX+X+X+X+X+X+X+X+X+X+X+X+X+X+X+X+X+X+X",
"F.F.+X+X+X+X+X+X+X+X+X+X+X+X+X+X+X+X+X+X+X(.F.oX+X+X+X+X+X+X+X+X+X+X+X+X+X+X+X+X+X+XoXF._.+X+X+X+X+X+X+X+X+X+X+X+X+X+X+X+X+X+X+X",
"F.oX+X+X+X+X+X+X+X+X+X+X+X+X+X+X+X+X+X+X+X_._.+X+X+X+X+X+X+X+X+X+X+X+X+X+X+X+X+X+X+XoXF.+X+X+X+X+X+X+X+X+X+X+X+X+X+X+X+X+X+X+X+X",
"/.+X+X+X+X+X+X+X+X+X+X+X+X+X+X+X+X+X+X+X+X_.oX+X+X+X+X+X+X+X+X+X+X+X+X+X+X+X+X+X+X+XoX{.+X+X+X+X+X+X+X+X+X+X+X+X+X+X+X+X+X+X+X+X",
"_.+X+X+X+X+X+X+X+X+X+X+X+X+X+X+X+X+X+X+XoX/.+X+X+X+X+X+X+X+X+X+X+X+X+X+X+X+X+X+X+X+X/.oX+X+X+X+X+X+X+X+X+X+X+X+X+X+X+X+X+X+X+X(.",
"+X+X+X+X+X+X+X+X+X+X+X+X+X+X+X+X+X+X+X+XoXoX+X+X+X+X+X+X+X+X+X+X+X+X+X+X+X+X+X+X+X+X_.+X+X+X+X+X+X+X+X+X+X+X+X+X+X+X+X+X+X+X+X(."
};
