/* XPM */
static char *sandro2[] = {
/* columns rows colors chars-per-pixel */
"64 64 243 2 ",
"   c #070503",
".  c #0B0604",
"X  c #0E0806",
"o  c #0F0C08",
"O  c #130706",
"+  c #120906",
"@  c #130B09",
"#  c #1A0D0B",
"$  c #1B110E",
"%  c #1D1312",
"&  c #230D0C",
"*  c #24110F",
"=  c #241312",
"-  c #281916",
";  c #301410",
":  c #341916",
">  c #2A221C",
",  c #34261E",
"<  c #3B241B",
"1  c #2D1929",
"2  c #382A27",
"3  c #3B322B",
"4  c #461B17",
"5  c #492E1A",
"6  c #57261C",
"7  c #6A251B",
"8  c #492B24",
"9  c #5B2D23",
"0  c #463727",
"q  c #43332C",
"w  c #4C342D",
"e  c #56392C",
"r  c #4A2C39",
"t  c #562D39",
"y  c #483832",
"u  c #563537",
"i  c #533C32",
"p  c #5C3C32",
"a  c #5B3D3B",
"s  c #6D2A24",
"d  c #683729",
"f  c #793829",
"g  c #653A37",
"h  c #6A3D3A",
"j  c #763B37",
"k  c #524230",
"l  c #5F4135",
"z  c #54443A",
"x  c #5B453B",
"c  c #5D493D",
"v  c #6D482E",
"b  c #674738",
"n  c #6B413D",
"m  c #75473B",
"M  c #675438",
"N  c #7A5538",
"B  c #7B6B34",
"V  c #5E3745",
"C  c #663A44",
"Z  c #753A47",
"A  c #594742",
"S  c #5C5257",
"D  c #634D43",
"F  c #6B4845",
"G  c #764847",
"H  c #7B4C4A",
"J  c #665246",
"K  c #6A5144",
"L  c #6D554A",
"P  c #745D44",
"I  c #76594A",
"U  c #6D5252",
"Y  c #795854",
"T  c #7E6347",
"R  c #7E6754",
"E  c #7B7776",
"W  c #8B352C",
"Q  c #863829",
"!  c #933426",
"~  c #8F462D",
"^  c #864738",
"/  c #9A4737",
"(  c #85553A",
")  c #98583B",
"_  c #AD513C",
"`  c #886C3A",
"'  c #94673B",
"]  c #887935",
"[  c #AA7B35",
"{  c #A3783C",
"}  c #C15B3F",
"|  c #DA7228",
" . c #F77522",
".. c #F77A23",
"X. c #864A45",
"o. c #944E45",
"O. c #865A4A",
"+. c #975945",
"@. c #914B59",
"#. c #875955",
"$. c #995957",
"%. c #AF4F42",
"&. c #A85645",
"*. c #B75C49",
"=. c #83634D",
"-. c #88694C",
";. c #996543",
":. c #8E754C",
">. c #91714B",
",. c #896756",
"<. c #936D56",
"1. c #8B725B",
"2. c #987759",
"3. c #A96646",
"4. c #B76848",
"5. c #A9754B",
"6. c #BA744A",
"7. c #AA6455",
"8. c #BB6854",
"9. c #A47B5D",
"0. c #BA7858",
"q. c #9B6760",
"w. c #9A7962",
"e. c #A67763",
"r. c #A57D62",
"t. c #B97262",
"y. c #C35841",
"u. c #C86749",
"i. c #C7764C",
"p. c #CA6954",
"a. c #D46D54",
"s. c #C87755",
"d. c #D77A58",
"f. c #EF6F5B",
"g. c #E47B5B",
"h. c #CB7764",
"j. c #D67A64",
"k. c #E27C64",
"l. c #F37164",
"z. c #90833F",
"x. c #B78339",
"c. c #CA8E35",
"v. c #D8953B",
"b. c #F88426",
"n. c #F98728",
"m. c #F98828",
"M. c #FA932B",
"N. c #FB982D",
"B. c #E9A335",
"V. c #FDA431",
"C. c #FEAE34",
"Z. c #F7A538",
"A. c #FEB238",
"S. c #FEB53A",
"D. c #9B854D",
"F. c #A89644",
"G. c #AD9048",
"H. c #B99B49",
"J. c #A8855B",
"K. c #B38959",
"L. c #B8A748",
"P. c #BBA356",
"I. c #9D8361",
"U. c #A48463",
"Y. c #AB8765",
"T. c #B58A65",
"R. c #BA9665",
"E. c #BD926B",
"W. c #BE9B72",
"Q. c #CD8E50",
"!. c #CB835A",
"~. c #D88557",
"^. c #ED8D55",
"/. c #E6885A",
"(. c #EC9459",
"). c #C5A84D",
"_. c #D4AF55",
"`. c #D4BA56",
"'. c #F0A84D",
"]. c #FEBE42",
"[. c #C48C68",
"{. c #D88866",
"}. c #C49A68",
"|. c #C89C72",
" X c #E98764",
".X c #E4836A",
"XX c #EA866C",
"oX c #EC8B6D",
"OX c #F68967",
"+X c #F38B6D",
"@X c #E99664",
"#X c #F89568",
"$X c #FB9A6C",
"%X c #E98A71",
"&X c #F48170",
"*X c #F58E71",
"=X c #FA8E72",
"-X c #EB9777",
";X c #F59474",
":X c #FA9374",
">X c #FD9D72",
",X c #FD9779",
"<X c #FC9C7B",
"1X c #C8A56C",
"2X c #C5A372",
"3X c #D2AA73",
"4X c #D8B174",
"5X c #F8A56C",
"6X c #F5BC6D",
"7X c #EDA974",
"8X c #FDA274",
"9X c #F8AB74",
"0X c #FDA47C",
"qX c #FDAC7C",
"wX c #FBB777",
"eX c #FCB37A",
"rX c #DAC656",
"tX c #F4C84E",
"yX c #FECA4C",
"uX c #E5CA55",
"iX c #ECCF55",
"pX c #FED051",
"aX c #F4DE5D",
"sX c #FEDC59",
"dX c #F6E05E",
"fX c #FCE45F",
"gX c #F7CB70",
"hX c #FEE761",
"jX c #FEE861",
"kX c #FCA582",
"lX c #FCAB86",
"zX c #FDB482",
"xX c #F7BA87",
"cX c #FCBC84",
"vX c #FCC384",
"bX c #F8C78A",
"nX c #FDC48B",
"mX c #FDCC8D",
"MX c #FED18F",
"NX c #FBC692",
"BX c #FDD292",
"VX c #FDDA9A",
"CX c #FBDCA3",
/* pixels */
"C.C.C.C.C.C.C.C.C.C.C.C.C.C.C.C.C.C.C.C...V.C.C.C.C.C.C.C.C.C.C.C.C.C.C.C.C.C.C.C.m.M.C.C.C.C.C.C.C.C.C.C.C.C.C.C.C.C.C.C.C.V.b.",
"C.C.C.C.C.C.C.C.C.C.C.C.C.C.C.C.C.C.C.M.m.C.C.C.C.C.C.C.C.C.C.C.C.C.C.C.C.C.C.C.V...C.C.C.C.C.C.C.C.C.C.C.C.C.C.C.C.C.C.C.C.b.V.",
"C.C.C.C.C.C.C.C.C.C.C.C.C.C.C.C.C.C.C.b.m.C.C.C.C.C.C.C.C.C.C.C.C.C.C.C.C.C.C.C.N. .C.C.C.C.C.C.C.C.C.C.C.C.C.C.C.C.C.C.C.V...V.",
"C.C.C.C.C.C.C.C.C.C.C.C.C.C.C.C.C.C.b...V.C.C.C.C.C.C.C.C.C.C.C.C.C.C.C.C.C.C.M. .N.C.C.C.C.C.C.C.C.C.C.C.C.C.C.C.C.C.C.V...b.C.",
"C.C.C.C.C.C.C.C.C.C.C.C.C.C.C.C.C.b...V.C.C.C.C.C.C.C.C.C.C.C.C.C.C.C.C.C.C.M. .M.C.C.C.C.C.C.C.C.C.C.C.C.C.C.C.C.C.C.V...b.C.C.",
"C.C.C.C.C.C.C.C.C.C.C.C.C.C.C.C.b...V.C.C.C.C.C.C.C.C.C.C.B.[ M ` ` x.B.C.M. .N.C.C.C.C.C.C.C.C.C.C.C.C.C.C.C.C.C.C.V...b.C.C.C.",
"C.C.C.C.C.C.C.C.C.C.C.C.C.V.N.....V.C.C.C.C.C.C.C.C.C.Z.x.J J L L Y L A ' | M.C.C.C.C.C.C.C.C.C.C.C.C.C.C.C.C.C.V.b. .b.C.C.C.C.",
"C.C.C.C.C.C.C.C.C.C.C.C.V... . .V.C.C.C.C.C.C.C.C.v.5.L J J J K L L F D D A ] v.C.C.C.C.C.C.C.C.C.C.C.C.C.C.C.M. . .b.V.C.C.C.C.",
"C.C.C.C.C.C.C.C.C.V.V.b. .b.M.C.C.C.C.C.C.C.C.c.D J L J K F K L L L K b c c A A G.Z.C.C.C.C.C.C.C.C.C.C.V.V. . .b.V.C.C.C.C.C.C.",
"C.C.C.C.C.C.C.M.m... . .V.V.C.C.C.C.C.C.C.C.B.K J D K D K I L M b x z A D c A x x { C.C.C.C.C.C.C.C.m.b. . .b.V.C.C.C.C.C.C.C.C.",
"C.C.C.C.V.b. . ...m.C.V.V.C.yXsXhXhXhXhXyXS.{ D D K K K A 2 $ + X X @ % > y x x A z H.S.C.C.C.C.C.b. .b.b.b.C.C.C.C.C.C.C.C.C.C.",
"C.C.V.b. . . .N.V.A.yXsXsXsXfXfXhXhXhXhXfXrXM J D K z - X . . . . . . . X @ % q E S z uXpXC.C.C.b. .V.C.C.C.C.C.C.C.C.C.C.C.C.C.",
"C.V. ... .b.M.C.C.C.hXhXfXjXjXjXjXjXhXhXhXF.M D c ,         . . X . X       . @ % 3 z F.Z.A.C.b.Z.fXfXfXsXC.C.C.C.C.C.C.C.C.C.C.",
"C.m. . .b.C.C.C.C.C.hXhXjXjXjXjXjXjXhXhXhXD.A w $ . . X + + O O @ O + @ O .       $ 2 M C.C.C.pXfXfXfXjXsXC.C.C.C.C.C.C.C.C.C.C.",
"V. . .V.C.C.C.C.C.C.hXhXhXhXhXhXjXjXjXjXhX:.0 + . . . + @ # # $ # # # # @ @ O .   X o > v.C.fXjXjXjXjXjXfXC.C.C.C.C.C.C.C.C.C.C.",
"V...b.V.C.C.C.C.C.C.hXhXhXhXhXhXjXjXjXjXfX0 O . . .   . . @ * = & & = # +     .       @ 0 tXfXjXfXjXfXjXjX].C.C.C.C.C.C.C.C.C.C.",
" . .C.C.C.C.C.C.C.C.jXjXhXhXhXhXhXhXhXhX`.@ . .     . + # O # ; : : : = o               o ).hXjXjXjXfXjXjXyXV.C.C.C.C.C.C.C.C.C.",
" .N.C.C.C.C.C.C.C.C.jXjXhXhXhXhXhXhXhXhX] + O @ @     @ @ = = : q : - - % % - @ o o o   X B hXjXjXjXjXjXfX].C.C.C.C.C.C.C.C.C.C.",
"..V.C.C.C.C.C.C.C.C.jXjXhXhXhXhXhXhXhXhXfX5 5 $ # # O . @ @ - < 4 : 2 x % @ @ @ . @ $ o o z.jXjXjXjXfXjXfX].C.C.C.C.C.C.C.C.C.C.",
"b.C.C.C.C.C.C.C.C.C.jXjXhXhXhXhXhXhXhXhXsX: e = * # O O o @ @ < 6 4 3 @ o o X . @ $ 3 3 0 iXjXjXjXjXjXjXfXyXC.C.C.C.C.C.C.C.C.M.",
"C.C.C.C.C.C.C.C.C.C.yXfXhXhXhXhXhXhXhXhXsXl ) ; # O O O + + # 6 f 7 : @ + X . O + # , 3 F.jXjXjXjXjXhXhXjX].C.C.C.C.C.C.C.C.C.m.",
"C.C.C.C.C.C.C.C.C.C.S.fXhXhXhXhXhXhXhXhX'.( (.f ; # O # O # : &.+Xa.9 = + O + @ # * w i N rXjXjXjXjXhXhXjXsXC.C.C.C.C.C.C.C.V...",
"C.C.C.C.C.C.C.C.C.C.].hXhXhXhXhXhXhXhXsX/.d.$X~.W 4 & ; & ; ~ :XqXl./ 8 & & # & = 8 a a u L.hXhXjXjXjXjXjXhXC.C.C.C.C.C.C.C.N.V.",
"C.C.C.C.C.C.C.C.C.V.yXhXhXhXhXhXhXhXhX].#X/.#X9X{.7 4 4 d Q d.xXCX:Xp.) / 4 : : 8 I p a n ).hXhXjXjXjXjXhXhXC.C.C.C.C.C.C.C. .V.",
"C.C.C.C.C.C.C.C.C.C.yXfXhXhXhXhXhXhXpX'.8Xd.OX5XcXd.y.*.y.g. Xg.+Xp.W / @X~./ ^ G g g p g _.hXhXjXjXjXjXfXfXC.C.C.C.C.C.V.b...V.",
"C.C.C.C.C.C.C.C.C.C.A.sXhXhXhXhXhXyXC.gX8XbX^.#XwXBXbXnXeX7X! f / 9 ; 6 &.5X8Xk.&.b p a n H.hXhXjXjXjXjXfXfXC.C.C.C.C.C.b. .V.C.",
"C.C.C.C.C.C.C.C.C.C.C.sXhXhXfXfXpXC.yXgXvXmXi.OX5XvXnXeXgXnX/.4.^ < : 8 v ~.8XOX8.b e a H 2.jXhXjXjXjXjXjXjXC.C.C.C.C.b.b.V.C.C.",
"C.C.C.C.C.C.C.C.C.C.C.sXjXjXsXyXC.pXfXgXVXMX~.^.#XeXwXwX7X~.*.3.) 3.+.N v +.~./.+.p w g H P.hXhXhXhXjXjXjXjXC.C.C.M.b. .V.C.C.C.",
"C.C.C.C.C.C.C.C.C.C.C.sXfXS.C.V.yXfXjXgX7XgXQ.d.^.5XwX~.{ *./.g.d.g.f.u.&.b N 4.m e w F.G.aXhXhXhXhXhXhXfXyXV.V. .....V.C.C.C.C.",
"C.C.C.C.C.C.C.C.C.C.C.V.Z.C.].sXfXfXjXjXaXfX).~./.5X(.) ) } _ u.s.s.&.^ s f v m b w w aXfXhXhXhXhXhXhXhXfXC.m... .N.V.C.C.C.C.C.",
"C.C.C.C.C.C.C.V.V.b. .m.S.sXjXhXjXjXjXjXfXjX`.s.~.^.^.) ~ %.oXzXxXxX*Xh./ i.+.p i w ` jXfXjXhXhXfXfXsXS.V.b...m.C.C.C.C.C.C.C.C.",
"C.C.C.C.C.N.m... . .V.pXsXjXjXjXjXjXjXjXfXjXuX6.~.~.(.[ (.OXl.*Xl.f.f.f.l.g.' p w w L.jXjXjXhXjX].yXC.M.b.V.V.C.C.C.C.C.C.C.C.C.",
"C.C.C.V. . . .b.M.C.].jXhXhXhXhXhXhXhXhXhXhXaX[ i.~.^.Q.9XeX>X-XkX-X&Xk.d.i.m i i 0 rXhXhXsXpXC.C.C.yXsXsXC.C.C.C.C.C.C.C.C.C.C.",
"C.C.b. . . .b.C.C.C.sXhXhXhXhXhXhXhXhXhXhXfXfXQ.i./.^.6.5XvX@Xu.) +.) 4.i.+.p 0 i 0 aXhXsXA.C.A.C.yXfXfXsXC.C.C.C.C.C.C.C.C.C.C.",
"C.n. . ...V.C.C.C.C.hXhXhXhXhXhXhXhXhXhXhXhXsX^.i.Q.(.6.Q.5XcX#Xi.&.i.d.s.N w 3 0 F.fXfXC.C.C.S.hXjXfXjXsXV.C.C.C.C.C.C.C.C.C.C.",
"V.....N.V.C.C.C.C.C.hXhXhXhXhXhXhXhXhXhXhXhXS.(.(./.~.6.6.(.7X9X7X@X@Xs.5.m 0 2 3 uXjXyXC.C.sXfXhXjXjXjXsXC.C.C.C.C.C.C.C.C.C.C.",
"V. ...V.C.C.C.C.C.C.jXjXhXhXhXhXhXhXhXhXhXhXC.'.8X/.6.) ' i.@X@X!.5.~.0.( e , 2 B fXjX].A.S.hXhXhXhXhXhXhX].C.C.C.C.C.C.C.C.C.C.",
"b. .V.C.C.C.C.C.C.C.hXhXhXhXhXhXhXhXhXhXhXyXC.6XwXwXi.( ( ' 5.s.5.( 0.+.b , , w L.fXfXS.].fXhXhXhXhXhXhXfXyXC.C.C.C.C.C.C.C.C.C.",
" .b.C.C.C.C.C.C.C.C.hXhXhXhXhXhXhXhXhXhXhX].A.iXcXmXgX!.f l ( ;.) ( N v 8 : u b `.fXsXC.yXhXhXhXhXhXhXhXfXyXV.C.C.C.C.C.C.C.C.C.",
" .V.C.C.C.C.C.C.C.C.hXhXhXhXhXhXhXhXhXhXhX].].@XvXmXmXcX~.Q 6 7 d 9 9 6 8 e b M iXfXsXC.hXhXhXhXhXhXhXhXfX].C.C.C.C.C.C.C.C.C.C.",
"n.C.C.C.C.C.C.C.C.C.jXhXhXhXjXjXhXhXhXrXJ.5.Q.7XvXMXMXmXeX@X/ 7 7 7 7 s d g h ` dXhXpXsXhXhXhXhXjXjXjXfXfX].C.C.C.C.C.C.C.C.C.V.",
"V.C.C.C.C.C.C.C.C.C.yXjXhXhXjXjXhXiXD.2.0.( 5XwXmXMXBXmXcXqX#X_ W s Q j h g h M jXhXS.fXhXhXhXhXjXjXjXjXfXyXC.C.C.C.C.C.C.C.C.m.",
"C.C.C.C.C.C.C.C.C.C.yXjXhXhXhXdXP.r.q.E.R.*.wXwXmXMXBXnXzXqX8X#Xa./ ! W j G n ` hXsXyXfXhXhXhXhXjXjXjXjXfXyXC.C.C.C.C.C.C.C.C.b.",
"C.C.C.C.C.C.C.C.C.V.].jXhXdX`.<.r.}.e.|.9./ 9XmXmXBXnXnXeX0X>X>X>X+Xy.W j n b ] jX].sXhXhXhXhXhXjXjXjXfXjXfXC.C.C.C.C.C.C.C.V.N.",
"C.C.C.C.C.C.C.C.C.C.].}.=.a U.T.3XT.$.r.}.) s.mXMXmXmXnXcX0X>X>X<X>XOXa.X.j F k uXV.jXjXjXjXhXhXjXjXjXjXjXfXS.C.C.C.C.C.C.C. .V.",
"C.C.C.C.C.C.C.C.C.C.].R.b R.J.G e.1X2XR.9.o./ vXNXNXnXcXzXzX>X>X$X=XOXa.^ Z g - v B.fXfXjXjXhXhXjXjXjXjXjXjXC.C.C.C.C.C.C.M. .V.",
"C.C.C.C.C.C.C.C.C.C.].w.i w.}.Y 9.3XE.4XT.Z ^ [.BXBXmXnXzXqX8X>X$XOXg.8.X.G h : , B hXfXjXjXjXhXhXhXhXhXfXfXC.C.C.C.C.C.N. .M.V.",
"C.C.C.C.C.C.C.C.C.C.V.G a I }.C #.#.@.U.3Xr.^ &.bXVXBXnXcX0X8X>X=Xg.a.*.^ j C < = 0 D.dXjXjXjXhXhXhXhXhXfXfXC.C.C.C.C.M. .N.C.C.",
"C.C.C.C.C.C.C.C.C.C.C.r.b -.2.1.<.=.Y.1X}.T.^ o.[.CXVXNXcX0X>XOX Xd.8.&.o.j F 8 # 2 k H.hXhXhXhXhXhXhXhXhXhXC.C.C.V.N. .M.C.C.C.",
"C.C.C.C.C.C.C.C.C.C.C.2.D u =.2.=.=.J.e.@.#.+.o.&.NXBXnXcX0X<XOXa.8.%.%.&.X.G p ; : 8 r rXhXhXhXhXhXhXhXhXyXC.C.n. . .N.C.C.C.C.",
"C.C.C.C.C.C.C.C.C.C.C.V x I C #.9.C 2.R.#.r.-.o.s.-XzXzXcXcXzX<Xp.*.*.j.k.7.@.h 8 & d ,.J.dXjXjXhXhXhXhXdX].V.b. ...M.C.C.C.C.C.",
"C.C.C.C.C.C.C.C.C.M.n.r y -.=.2.2.O.2.W.2X|.>.G j.*X*X*X:X>X0X0X*X8.XX,XlX-Xh.X.d 4 ( 4XW.P.iXhXhXhXhXhX].M. . .V.C.C.C.C.C.C.C.",
"C.C.C.C.C.V.V.b. . .M.A x T w t T 2.:.r.U.r.V F $.%X%X X*X:X:X>X,Xj..XlXxXNXlXh.8.8.&.7.E.e.u D.uXpXM.b.b.n.M.C.C.C.C.C.C.C.C.C.",
"C.C.C.C.m... ...b.V.C.P P >.K P @ 0 I V H 9.,.F H h.%X*X0X0X<X=X,Xk.h.-XlXlXkXj.h.k.k.T.|.r.Y S A ^ | C.C.C.C.C.C.C.C.C.C.C.C.C.",
"C.C.N. ... ...V.C.C.C.T I G 2.T - , m l a 1.2.,.H t.kXkXkXlXkX,X,Xk.j.k.%X,X,X*Xj.h.a.7.|.=.% c I.1.1.x.C.C.C.C.C.C.C.C.C.C.C.C.",
"C.M. . . .N.V.C.C.C.A.D I u I.3 2 , h H K.M N ,.H $.kXkXlXkXkX,X*X%Xj.j.%X;X,X*Xj.p.*.8.R.2XP > L U.U.w.v.C.C.C.C.C.C.C.C.C.C.C.",
"C.b. .n.M.C.C.C.C.C.C.y =.G 2Xk 3 3 C Z >.>.;.-.F X.%XkXkXkX,X:X&XXXj.j.%X:X:X*Xk.h.p.s.E.E.2.-.q.,.w.w.w.'.C.C.C.C.C.C.C.C.C.C.",
"V. . .V.C.C.C.C.C.C.C.2 =.b 2Xy 2 z 1.1X}.>.:.Y C H h.kXkXkX,X=X=Xk.k.j.%X=X=X*X+X{.h.p.@.q.1.w.Y.|.E.Y.1.U.B.C.C.C.C.C.C.C.C.C.",
"M. .M.C.C.C.C.C.C.C.C.1 k b -.3 3 L 1X}.K.I 2.,.V G 7.kXkX,X,X:X=X&X.XXXXX%X=X=X*X%Xj.d.[.Y.2 ,.w.#.Y.,.U.U.2.Z.C.C.C.C.C.C.C.C.",
" . .C.C.C.C.C.C.C.C.C.T T I.2.q y T K.,.Z I b 2.R G $.kXkXkX<X,X=X=XXXXXXX*X*X:X:X*X%X.X{.b 2.u S S Y.Y.I.T.Y Q.C.C.C.C.C.C.C.C.",
" .V.C.C.C.C.C.C.C.C.C.T T Y.:.2 2 I R.<.Z h m G 2.F X.-XkXkXkX<X:X*X+XoXXX%X:X,X,X*XoX Xd.=.T.T ,.U 1.w.I.R 1.3XC.C.C.C.C.C.C.C.",
"b.C.C.C.C.C.C.C.C.C.C.=.w E.x 3 1 D R.K.C O.M G.<.a H 0.kXkXkX0X,X,X*XoXXX{.*X,X<X,XoX.Xj.$.e.2.1.,.,.W.Y.R I 2XQ.C.C.C.C.C.C.C.",
"m.C.C.C.C.C.C.C.C.C.C.t V Z 2 3 1 t T.K.J.K.;.K.5.<.O.3.0X9X8X8X$X$X#X#X@X/.@X#X8X$X+X X(.~.K.}.;.K.K.!.[.5.5.}._.C.C.C.C.C.C.m.",
"C.C.C.C.C.C.C.C.C.C.C.C.V.C.A.A.C.C.C.C.V.V.C.C.C.C.C.C.C.C.C.C.C.C.C.C.C.C.C.C.C.C.m.C.C.C.C.C.A.C.A.A.C.C.C.C.C.C.C.C.C.C.C.m."
};
