/* XPM */
static char *sandro1[] = {
/* columns rows colors chars-per-pixel */
"64 64 238 2 ",
"   c #070503",
".  c #0B0604",
"X  c #0E0806",
"o  c #0F0C08",
"O  c #130706",
"+  c #120906",
"@  c #130B09",
"#  c #1A0D0B",
"$  c #1B110E",
"%  c #1D1312",
"&  c #230D0C",
"*  c #24110F",
"=  c #2E0F10",
"-  c #241312",
";  c #281916",
":  c #341916",
">  c #2E2117",
",  c #34261E",
"<  c #3B241B",
"1  c #2D1929",
"2  c #382A27",
"3  c #3B322B",
"4  c #461B17",
"5  c #472C1B",
"6  c #57261C",
"7  c #6A251B",
"8  c #472925",
"9  c #4A2C23",
"0  c #5B2D22",
"q  c #5E2E2B",
"w  c #463727",
"e  c #43332C",
"r  c #4C342D",
"t  c #56392C",
"y  c #4A2C39",
"u  c #562D39",
"i  c #483832",
"p  c #563537",
"a  c #533C32",
"s  c #5C3C32",
"d  c #5B3D3B",
"f  c #6D2A24",
"g  c #683729",
"h  c #793829",
"j  c #653A37",
"k  c #6A3D3A",
"l  c #763B37",
"z  c #51432C",
"x  c #5F4135",
"c  c #54443A",
"v  c #5B453B",
"b  c #5D493D",
"n  c #754C2B",
"m  c #674738",
"M  c #6B413D",
"N  c #75473B",
"B  c #675437",
"V  c #7A5538",
"C  c #7C6C35",
"Z  c #5E3745",
"A  c #663A44",
"S  c #753A47",
"D  c #594742",
"F  c #5C5257",
"G  c #634D43",
"H  c #6B4845",
"J  c #764847",
"K  c #7B4C4A",
"L  c #665246",
"P  c #6A5144",
"I  c #6D544A",
"U  c #745D44",
"Y  c #76594A",
"T  c #6D5252",
"R  c #795854",
"E  c #7E6347",
"W  c #7E6754",
"Q  c #7B7776",
"!  c #8B352C",
"~  c #863829",
"^  c #933426",
"/  c #8C5D1B",
"(  c #8F462D",
")  c #864738",
"_  c #9A4737",
"`  c #85553A",
"'  c #98583B",
"]  c #AD513C",
"[  c #8C7039",
"{  c #AC7938",
"}  c #C15B3F",
"|  c #F77522",
" . c #F77A23",
".. c #864A45",
"X. c #944E45",
"o. c #865A4A",
"O. c #975945",
"+. c #914B59",
"@. c #875955",
"#. c #995957",
"$. c #AF4F42",
"%. c #A85645",
"&. c #B75C49",
"*. c #83634D",
"=. c #88694C",
"-. c #996543",
";. c #8D774A",
":. c #91714B",
">. c #896756",
",. c #936D56",
"<. c #8B725B",
"1. c #987759",
"2. c #A96746",
"3. c #B76848",
"4. c #A8764B",
"5. c #BA744A",
"6. c #AA6455",
"7. c #BB6854",
"8. c #A47B5D",
"9. c #BA7858",
"0. c #9B6760",
"q. c #9A7962",
"w. c #A67763",
"e. c #A57D62",
"r. c #B97262",
"t. c #C86749",
"y. c #C7764C",
"u. c #CA6954",
"i. c #D46D54",
"p. c #C87755",
"a. c #D57957",
"s. c #DC7C5B",
"d. c #EF6F5B",
"f. c #E47B5B",
"g. c #CB7764",
"h. c #D67A64",
"j. c #E27C64",
"k. c #F37164",
"l. c #B28A3A",
"z. c #D29137",
"x. c #F88426",
"c. c #F98828",
"v. c #FA932B",
"b. c #FB982D",
"n. c #E7A337",
"m. c #FDA431",
"M. c #FEAE34",
"N. c #FAA43A",
"B. c #FEB339",
"V. c #FEB53A",
"C. c #9B874E",
"Z. c #A78742",
"A. c #A99645",
"S. c #B79B4A",
"D. c #A8845B",
"F. c #B38959",
"G. c #B9A54F",
"H. c #9D8361",
"J. c #A48463",
"K. c #AB8765",
"L. c #B58A65",
"P. c #BA9665",
"I. c #BD926B",
"U. c #BE9B72",
"Y. c #CB835A",
"T. c #D88557",
"R. c #CF9152",
"E. c #E6885A",
"W. c #F88B5E",
"Q. c #EB925A",
"!. c #C5A84D",
"~. c #D3B051",
"^. c #E8A44A",
"/. c #FEBE42",
"(. c #C48C68",
"). c #D88866",
"_. c #C49A68",
"`. c #C89C72",
"'. c #E98764",
"]. c #E4836A",
"[. c #EA866C",
"{. c #EC8B6D",
"}. c #F68967",
"|. c #F38C6D",
" X c #E99664",
".X c #F89568",
"XX c #FB9A6C",
"oX c #E98A71",
"OX c #F48170",
"+X c #F58E71",
"@X c #FA8E72",
"#X c #EB9777",
"$X c #F59474",
"%X c #FA9374",
"&X c #FD9D72",
"*X c #FD9779",
"=X c #FC9C7B",
"-X c #C8A56C",
";X c #C5A372",
":X c #D2AA73",
">X c #D8B174",
",X c #F8A56C",
"<X c #F1BC67",
"1X c #EDA974",
"2X c #FDA274",
"3X c #F8AB74",
"4X c #FDA47C",
"5X c #FDAC7C",
"6X c #FBB777",
"7X c #FCB37A",
"8X c #DBC655",
"9X c #FECA4D",
"0X c #E4CE58",
"qX c #FECF50",
"wX c #E9D359",
"eX c #FED050",
"rX c #F4DE5D",
"tX c #FEDC59",
"yX c #F6E05E",
"uX c #FCE45F",
"iX c #F4CB67",
"pX c #F7D171",
"aX c #FEE761",
"sX c #FEE861",
"dX c #FCA582",
"fX c #FCAB86",
"gX c #FDB482",
"hX c #F7BA87",
"jX c #FCBC84",
"kX c #FCC384",
"lX c #F8C78A",
"zX c #FDC48B",
"xX c #FDCC8D",
"cX c #FED18F",
"vX c #FBC692",
"bX c #FDD292",
"nX c #FDDA9A",
"mX c #FBDCA3",
/* pixels */
"M.M.M.M.M.M.M.M.M.M.M.M.M.M.M.M.M.M.M.M. .m.M.M.M.M.M.M.M.M.M.M.M.M.M.M.M.M.M.M.M.c.v.M.M.M.M.M.M.M.M.M.M.M.M.M.M.M.M.M.M.M.m.c.",
"M.M.M.M.M.M.M.M.M.M.M.M.M.M.M.M.M.M.M.v.c.M.M.M.M.M.M.M.M.M.M.M.M.M.M.M.M.M.M.M.m. .M.M.M.M.M.M.M.M.M.M.M.M.M.M.M.M.M.M.M.M.x.m.",
"M.M.M.M.M.M.M.M.M.M.M.M.M.M.M.M.M.M.M.x.c.M.M.M.M.M.M.M.M.M.M.M.M.M.M.M.M.M.M.M.b.| M.M.M.M.M.M.M.M.M.M.M.M.M.M.M.M.M.M.M.m.| m.",
"M.M.M.M.M.M.M.M.M.M.M.M.M.M.M.M.M.M.x.| m.M.M.M.M.M.M.M.M.M.M.M.M.M.M.M.M.M.M.b. .b.M.M.M.M.M.M.M.M.M.M.M.M.M.M.M.M.M.M.m.| x.M.",
"M.M.M.M.M.M.M.M.M.M.M.M.M.M.M.M.M.x. .m.M.M.M.M.M.M.M.M.M.M.m.m.M.m.M.M.M.M.b.| v.M.M.M.M.M.M.M.M.M.M.M.M.M.M.M.M.M.M.m.| x.M.M.",
"M.M.M.M.M.M.M.M.M.M.M.M.M.M.M.M.x.| m.M.M.M.M.M.M.M.M.M.n.l.[ [ B { n.M.M.b.| b.M.M.M.M.M.M.M.M.M.M.M.M.M.M.M.M.M.M.m. .x.M.M.M.",
"M.M.M.M.M.M.M.M.M.M.M.M.M.m.b. . .m.M.M.M.M.M.M.M.M.n.[ D T R I L L G 5.| | v.M.M.M.M.M.M.M.M.M.M.M.M.M.M.M.M.M.m.x.| x.M.M.M.M.",
"M.M.M.M.M.M.M.M.M.M.M.M.m. .| | N.M.M.M.M.M.M.M.n.[ D D G G Y I L B L L I 4.z.N.M.M.M.M.M.M.M.M.M.M.M.M.M.M.M.v.| | x.M.M.M.M.M.",
"M.M.M.M.M.M.M.M.M.m.m.x.| x.v.M.M.B.N.M.M.M.N.l.G D D b m G Y I I P P P I L G L z.M.M.M.M.M.M.M.M.M.M.M.m.m.| | x.m.M.M.M.M.M.M.",
"M.M.M.M.M.M.M.v.c. .| | m.m.M.M.M.B.M.M.M.M.{ v b D b G D v v b G I I P G P L G L n.M.M.M.M.M.M.M.M.x.x.| | x.m.M.M.M.M.M.M.M.M.",
"M.M.M.M.m.x.| |  .c.M.m.M.M./.tXaXaXaXaX9XS.v c v c i ; $ @ X X X # 2 b I G P G G Z././.M.M.M.M.M.x.| x.x.x.M.M.M.M.M.M.M.M.M.M.",
"M.M.m.x.| | | b.m.B.9XtXtXtXsXsXaXaXaXaX8Xi F Q e % @ X . . . . . . X X ; c P B G B 8XuXeXM.M.M.x.| m.M.M.M.M.M.M.M.M.M.M.M.M.M.",
"M.m. .|  .x.v.M.M.M.aXaXaXaXaXaXsXsXsXaXA.i 3 ; o X     . . . + X . . . . X , v G m l.sXV.B.m.c.m.uXuXuXtXM.M.M.M.M.M.M.M.M.M.M.",
"M.c.| | x.m.M.M.M.M.aXaXaXaXaXaXsXsXsXaXB 2 $ . X   X X + + + @ + + + + . . . $ i D C.uXM.M.B.eXuXuXsXuXyXM.M.M.M.M.M.M.M.M.M.M.",
"m.| | m.M.M.M.M.M.M.aXaXaXaXaXaXsXsXsX8X> o .   . X O @ # # # @ # # # + X . . . @ w ;./.M.M.uXsXsXsXsXsXuXM.M.M.M.M.M.M.M.M.M.M.",
"b.| x.M.M.M.M.M.M.M.aXaXaXaXaXaXsXsXyXz o     . . . . X # - * & * * + X . . . . X + w /.M.eXuXuXsXsXsXsXsX/.M.M.M.M.M.M.M.M.M.M.",
" .| M.M.M.M.M.M.M.M.sXsXsXsXaXaXaXaX!.o               o % 1 : : : # @ @ o . . . X X + z./.aXaXaXsXsXsXsXsX9Xm.M.M.M.M.M.M.M.M.M.",
"| b.M.M.M.M.M.M.M.M.sXsXaXaXaXaXaXaXC .   o o o $ % % ; ; ; < r = - ; @ + . . + O + X / tXaXaXaXsXsXsXsXuX/.M.M.M.M.M.M.M.M.M.M.",
" .m.M.M.M.M.M.M.M.M.sXsXaXaXaXaXaXaX[ o X $ o o o @ @ # c < : 4 < ; @ + + + @ $ $ 5 w V.aXaXaXaXaXaXsXaXuX/.M.M.M.M.M.M.M.M.M.M.",
"c.M.M.M.M.M.M.M.M.M.sXsXaXaXaXaXaXaXyXw 3 3 $ @ X X X @ # 3 4 6 < @ @ + X + # & * t : tXaXaXaXaXaXaXsXaXuX9XM.M.M.M.M.M.M.M.M.v.",
"M.M.M.M.M.M.M.M.M.M./.uXaXaXaXaXsXsXsXA.2 < # + X . . @ # : q h 0 # + + O O O # = -.g sXaXaXaXaXaXaXaXaXsX/.M.M.M.M.M.M.M.M.M.c.",
"M.M.M.M.M.M.M.M.M.M./.uXaXaXaXaXsXsX8XV a w - # # @ O O * 0 t.|.%.: # O O # & = h Q.) iXaXaXaXaXaXaXaXaXsXtXM.M.M.M.M.M.M.M.m. .",
"M.M.M.M.M.M.M.M.M.M./.aXaXaXaXaXsXsXG.t d s e * & # # # 9 _ k.7XXX~ = & = = : ! Y..Xa.E.aXaXaXaXaXaXaXaXsXaXM.M.M.M.M.M.M.M.b.m.",
"M.M.M.M.M.M.M.M.M.m.9XaXaXaXaXaXsXsX!.k d j Y 9 = 4 4 _ _ u.*XmXzXf.~ g 4 4 f ).3X.XQ.$XaXaXaXaXaXaXaXaXaXaXM.M.M.M.M.M.M.M.| m.",
"M.M.M.M.M.M.M.M.M.M.9XuXaXaXaXaXsXsX~.j d s j N ) _ T. X_ ) u.}.E.'.f.} ] &.a.gX,XW.f.2XrXaXaXaXsXsXsXsXuXuXM.M.M.M.M.M.m.x. .m.",
"M.M.M.M.M.M.M.M.M.M.B.tXaXaXaXaXsX9X{ k d s k %.j.&X,X%.6 : q _ h ^ 3X6XxXxXbX6X.XE.lX,XpXaXaXaXsXsXsXsXuXuXM.M.M.M.M.M.x.| m.M.",
"M.M.M.M.M.M.M.M.M.M.M.tXaXaXuXuXeXM.4.K d a m 7.'.2XE.l 8 : 4 ) &.E.kXkX5XzXkX2X.Xa.xXhXpXsXsXsXsXsXsXsXsXsXM.M.M.M.M.x.x.m.M.M.",
"M.M.M.M.M.M.M.M.M.M.M.tXaXsXtX9XM.eXP.K j r s O.'.T.' n n O.2.' ] 2.Y.1X6XpX6X.XE.Y.bXnXpXsXsXsXaXsXsXsXsXsXM.M.M.v.x.| m.M.M.M.",
"M.M.M.M.M.M.M.M.M.M.M.tXuXV.M.M.9XaXrXA.A.r t N 4.V j ' i.d.j.a.f.f.3.2.T.6X,XQ.T.R.<X1XiXaXaXaXaXaXaXaXuX/.M.m.| |  .m.M.M.M.M.",
"M.M.M.M.M.M.M.M.M.M.M.m.N.M.V.tXaXaXaXaXtXr r m N n h h ) %.p.p.t.] } ' ' Q.,XE.a.~.uXrXsXaXaXaXaXaXaXaXuXB.c. .| b.m.M.M.M.M.M.",
"M.M.M.M.M.M.M.m.m.x.| c.B.uXuXaXaXaXaXaXaXC r a s ' 5._ a.oXhXhXgX{.$.( ( ^.Q.T.p.~.aXaXsXsXaXaXaXaXtXV.m.x. .c.M.M.M.M.M.M.M.M.",
"M.M.M.M.M.b.c. .| | m.eXtXsXsXaXaXaXaXaXaXS.r t s -.f.k.d.d.k.j.|.k.}.W.{ Q.T.T.5.0XaXaXaXsXaXsX/./.M.b.x.m.m.M.M.M.M.M.M.M.M.M.",
"M.M.m.m.| | | x.b.M./.sXaXaXaXaXaXaXaXaXuX8Xw t t n 9.a.j.OX$X1X=XXX3X3XR.Q.E.y.3.rXsXaXaXtXeXM.M.M.9XtXtXM.M.M.M.M.M.M.M.M.M.M.",
"M.M.x.| | | x.M.M.M.tXaXaXaXaXaXaXaXaXaXuXyXr w e x O.y.&.' O.' y. X6X,X5.Q.E.y.R.sXaXaXuXM.M.M.M.eXuXuXtXm.M.M.M.M.M.M.M.M.M.M.",
"M.c.| |  .m.M.M.M.M.aXaXaXaXaXaXaXaXaXaXsXsXZ.3 e r ` y.s.y.%.y..X7X3XR.{ Q.T.y.^.sXuXuXM.M.M.V.sXsXuXuXtXM.M.M.M.M.M.M.M.M.M.M.",
"m. .| b.m.M.M.M.M.M.aXaXaXaXaXaXaXaXaXaXsXsXn.w 2 e N 4.Y.'. X1X3X3X X5.{ T.T.Q.<XuXuX9XM.M.tXuXaXsXsXsXtXM.M.M.M.M.M.M.M.M.M.M.",
"m.|  .m.M.M.M.M.M.M.aXaXaXaXaXaXaXaXaXaXuXuXM.C 2 2 t V 9.).4.Y. X).Y.' ' 5.Q.2XiXsXsX9XM./.aXaXaXaXaXaXaX/.M.M.M.M.M.M.M.M.M.M.",
"x. .m.M.M.M.M.M.M.M.aXaXaXaXaXaXaXaXaXaXuX9XM.l.t > 2 m ' 5.` 5.Y.5.[ ` ( i.6X6XiXsXyXM./.aXaXaXaXaXaXaXuX9XM.M.M.M.M.M.M.M.M.M.",
" .x.M.M.M.M.M.M.M.M.aXaXaXaXaXaXaXaXaXaXuX9XV.~.s t : 8 m ` ` ` -.V g g Y.kXlXkXiXuXtXM.9XaXaXaXaXaXaXaXuX9Xm.M.M.M.M.M.M.M.M.M.",
"| m.M.M.M.M.M.M.M.M.aXaXaXaXaXaXaXaXaXaXuXV.9XwXV m t 8 6 0 0 f 0 6 h ].pXlXxXkX XuXtXm.aXaXaXaXaXaXaXaXuX/.M.M.M.M.M.M.M.M.M.M.",
"x.M.M.M.M.M.M.M.M.M.sXsXsXsXaXaXaXaXaXaXuXV.sXaXC M k j q 7 7 7 7 _ W.6XzXcXcXkX3XR.4.D.8XaXaXaXaXaXsXsXuXV.M.M.M.M.M.M.M.M.M.m.",
"m.M.M.M.M.M.M.M.M.M.9XuXsXsXaXaXaXaXaXaXtX9XsXsXB m k k h ~ ~ ! ] .X7XjXvXbXcXxX6X,X` D.1.C.wXaXaXsXsXsXsX9XM.M.M.M.M.M.M.M.M.c.",
"M.M.M.M.M.M.M.M.M.M.9XsXsXsXsXaXaXaXaXaXqXtXsXaX[ m S l ! ! _ i..X2X5XgXzXcXcXcXkX6X] _.(.w.e.G.rXsXsXsXsX9XM.M.M.M.M.M.M.M.M.x.",
"M.M.M.M.M.M.M.M.M.M.V.sXsXsXaXaXaXaXaXaXV.aXaXaX[ M M l ! &.k.2X&X&X4XgXzXxXxXxXxX3X! F.(.w.`.8.1.~.yXsXsXsXM.M.M.M.M.M.M.M.m.b.",
"M.M.M.M.M.M.M.M.M.M.9XsXsXuXsXuXuXuXuX9X/.aXaXwXz k J ) i.}.&X2X&XXX4XgXzXzXcXcXxXY.' (.K.+.L.:XP.e.j *.P.uXM.M.M.M.M.M.M.M.| m.",
"M.M.M.M.M.M.M.M.M.M.V.uXsXsXsXsXuXuXtXV./.sXrXB ; k l ..i.}.@X&X&X2XgXgXjXxXxXxXjX_ o.w._.;X-X8.H J.P.G P.aXM.M.M.M.M.M.M.v.| m.",
"M.M.M.M.M.M.M.M.M.M.V.uXsXsXuXsXsXuXm.V.uXyXC , ; M l ..&.f..X.X&X2X5XjXjXvXbXbX(.~ J L.>XI.:X8.R _.<.a w.aXM.M.M.M.M.M.b.| v.M.",
"M.M.M.M.M.M.M.M.M.M.M.uXsXsXuXuXuXM.9XuXyXC.3 % < A N ..&.i.k.@X&X=X5XgXzXbXnXvX%.) e.:XK.+.@.R H (.Y v J uXM.M.M.M.M.v.| v.M.M.",
"M.M.M.M.M.M.M.M.M.M.M.tXaXaXuXtXm./.aXaXS.c < & r H N X.%.7.h.f.}.&X4XgXvXnXmX(.X.) L.P._.K.>.,.,.1.=.B J.aXM.M.M.m.b.| v.M.M.M.",
"M.M.M.M.M.M.M.M.M.M.M.tXaX9X/.m./.aXaX8Xe 2 > = q J ..$.$.$.u.u.}.2XfXjXzXbXvX%.X.o.@.+.K.D.W E 1.*.u G ,.9XM.M.x. .| b.M.M.M.M.",
"M.M.M.M.M.M.M.M.M.M.M.9X9XM.M.9XaXaXuX1.#.j * 8 A ..6.j.h.&.&.u.&XgXjXgXgXfX#Xp.X.=.e.@._.8.A 8.o.Z Y c Z /.m.x.| x.b.M.M.M.M.M.",
"M.M.M.M.M.M.M.M.M.v.c. .m.9XtXuXaXwXG.`.>X` 4 g ..).#XdXdXj.7.@X5X4X&X%X|.$X+Xg.K :.`.`._.,.*.1.1.W =.y y v.| | m.m.M.M.M.M.M.M.",
"M.M.M.M.M.m.m.x.| | v.M.9XsXsX0XC.c q.I.6.%.7.u.g.fXvXhXfXoXh.dX=X%X%X@X'.].oX#.H u e.K.1.,.D.I p r *.b G x.v.M.M.M.M.M.M.M.M.M.",
"M.M.M.M.c. .|  .x.m.M.M.9X8X;.D T R w.`.L.j.h.g.g.=XfXfX#Xg.j.*X%X=X4X=X$XoX).K H >.8.K Z E w @ U P :.U U M.M.M.M.M.M.M.M.M.M.M.",
"M.M.b.| | |  .m.M.M.M.M.l.<.<.H.c % o.`.6.i.u.h.oX*X*XoXh.h.j.@X*XdXfXfXdX=Xr.K >.,.<.d x N 2 % E 1.P Y U M.M.M.M.M.M.M.M.M.M.M.",
"M.b. .| | b.m.M.M.M.m.R.q.J.H.Y ; U ;X`.&.7.g.j.$X*X*X[.h.h.oX@X*X4XdXdXfXdX#.K ,.V B F.Y A , 2 e H.u Y L M.M.M.M.M.M.M.M.M.M.M.",
"M.x.| x.v.M.M.M.M.M.^.q.0.q.<.0.*.1.U.(.p.7.g.j.+X%X@XoXh.h.[.|.@X*XdXdXdXoX..H >.-.;.:.S S 3 3 a ;XP *.i M.M.M.M.M.M.M.M.M.M.M.",
"m.| | m.M.M.M.M.M.n.J.<.K.P.;XK.D.<.0.+.u.).).[.+X@X+X].].j.[.OX@X*X=XdXdXg...Z R :.:.P._.:.c 2 i -Xm *.2 M.M.M.M.M.M.M.M.M.M.M.",
"v.| v.M.M.M.M.M.M.,.J.J.0.K.@.q.>.2 K.(.g.].{.+X@X+X|.[.].[.}.@X@X*X=XdXdXr.K Z =.1.U F._.;XI 3 3 >.m a 1 B.M.M.M.M.M.M.M.M.M.M.",
"| | M.M.M.M.M.M.R.@.P.H.J.e.D F i 1.m ).j.oX+X$X%X@X[.[.[.[.|.%X*XdXdXdXdXX.H W H.x K S >.F.E z 3 1.H.E o.M.M.M.M.M.M.M.M.M.M.M.",
"| m.M.M.M.M.M.N.:X<.>.1.q.<.T <.R L.=.a.].{.+X*X*X%XoX{.|.|.$X*X=XdXdX5XoXK H 1.J B k S ,.P.W 2 3 ;.D.E E M.M.M.M.M.M.M.M.M.M.M.",
"x.M.M.M.M.M.M.^.;XR W K.U.0.W <.1.w.#.h.].{.%X=X*XoX].{.{.+X%X%X4XdXdXfXr.J d 1.F.n @.S F.P.H 1 3 v L.t =.M.M.M.M.M.M.M.M.M.M.M.",
"v.M.M.M.M.M.V.R._.Z.4.F.P.F.L.-._.9.T.Q.Q.|.XX2X.X XE. X.X.XXXXX2X2X4X4X2.o.,.4.F.[ F.K.D.F.u 1 3 2 J Z p M.M.M.M.M.M.M.M.M.M.c.",
"M.M.M.M.M.M.M.M.M.M.M.M.M.M.M.M.M.M.B.M.m.m.M.M.M.M.M.M.M.M.M.M.M.M.M.M.M.M.M.m.M.M.c.M.M.M.M.B.B.M.m.N.M.M.M.M.M.M.M.M.M.M.M.c."
};
