/* XPM */
static char *softc4[] = {
/* columns rows colors chars-per-pixel */
"64 64 256 2 ",
"   c #281819",
".  c #3A2B2C",
"X  c #4E3517",
"o  c #772F12",
"O  c #50322F",
"+  c #493738",
"@  c #6B322B",
"#  c #4F571D",
"$  c #6B5319",
"%  c #484329",
"&  c #704A2B",
"*  c #674839",
"=  c #64652D",
"-  c #70742A",
";  c #5A4644",
":  c #6A524C",
">  c #77594C",
",  c #7C624F",
"<  c #7B6E67",
"1  c #A53B1F",
"2  c #B23915",
"3  c #E90806",
"4  c #CE2E12",
"5  c #DB2919",
"6  c #EB2B12",
"7  c #B64916",
"8  c #8C651D",
"9  c #8E5233",
"0  c #A9572A",
"q  c #B3542E",
"w  c #8D7532",
"e  c #B86736",
"r  c #B06830",
"t  c #BA7739",
"y  c #D04B16",
"u  c #F25018",
"i  c #C76718",
"p  c #ED7017",
"a  c #C65B25",
"s  c #D85925",
"d  c #D25131",
"f  c #F1532D",
"g  c #E55935",
"h  c #CA6627",
"j  c #D26D29",
"k  c #D8752D",
"l  c #C66B37",
"z  c #D86836",
"x  c #CA743B",
"c  c #D67839",
"v  c #EA682A",
"b  c #EE6A2B",
"n  c #F77522",
"m  c #F77A23",
"M  c #F6772B",
"N  c #E86A38",
"B  c #F46636",
"V  c #E7783A",
"C  c #F57738",
"Z  c #8D5B4B",
"A  c #AA5B44",
"S  c #96684A",
"D  c #896955",
"F  c #926F54",
"G  c #A86A4A",
"H  c #B96C45",
"J  c #BA774A",
"K  c #AD7252",
"L  c #A97858",
"P  c #88756F",
"I  c #967969",
"U  c #AE7E63",
"Y  c #D35F48",
"T  c #ED5A45",
"R  c #C96E46",
"E  c #D96943",
"W  c #C97A47",
"Q  c #D27C44",
"!  c #D77948",
"~  c #C77A57",
"^  c #D97C57",
"/  c #E76946",
"(  c #F56846",
")  c #E8774A",
"_  c #F57649",
"`  c #FA6250",
"'  c #E77858",
"]  c #F47A58",
"[  c #D17D63",
"{  c #EC7863",
"}  c #748221",
"|  c #80861C",
" . c #8E8F2D",
".. c #AD8B33",
"X. c #94A72D",
"o. c #B3AB37",
"O. c #FB9118",
"+. c #D8853C",
"@. c #D59737",
"#. c #F88426",
"$. c #F98728",
"%. c #F8882A",
"&. c #FA942C",
"*. c #FB982D",
"=. c #E6893B",
"-. c #F68739",
";. c #F09335",
":. c #EBA13B",
">. c #FDA330",
",. c #FEAE34",
"<. c #F5A83A",
"1. c #FDAE3B",
"2. c #FEB238",
"3. c #C0CD38",
"4. c #8F904A",
"5. c #B08C52",
"6. c #9BAA51",
"7. c #B0B04C",
"8. c #9B8A6F",
"9. c #AF8D6D",
"0. c #B98A68",
"q. c #BD9576",
"w. c #B6AB6C",
"e. c #CA834A",
"r. c #D88548",
"t. c #DD8B4B",
"y. c #C98758",
"u. c #D68957",
"i. c #DC8C53",
"p. c #D39556",
"a. c #DA9456",
"s. c #DD945B",
"d. c #E58645",
"f. c #E28C4B",
"g. c #F68948",
"h. c #E89547",
"j. c #E4934C",
"k. c #F3964D",
"l. c #E68855",
"z. c #F48759",
"x. c #E29353",
"c. c #E49B5B",
"v. c #E89859",
"b. c #F6955A",
"n. c #C7A74F",
"m. c #F9AB46",
"M. c #F5AA48",
"N. c #EAA35A",
"B. c #F4A858",
"V. c #FBB358",
"C. c #C68966",
"Z. c #D48B68",
"A. c #CA9568",
"S. c #D99768",
"D. c #CD8C71",
"F. c #C89676",
"G. c #D89A76",
"H. c #E88B66",
"J. c #F48A65",
"K. c #E39D63",
"L. c #E89869",
"P. c #F69768",
"I. c #ED8D75",
"U. c #E59874",
"Y. c #F59975",
"T. c #DCA36A",
"R. c #CDAE73",
"E. c #DAA579",
"W. c #ECA463",
"Q. c #E8A665",
"!. c #E3A36B",
"~. c #EAA46C",
"^. c #ECAA6C",
"/. c #F3A96A",
"(. c #E7BA6E",
"). c #F6B46A",
"_. c #E5A676",
"`. c #ECAB73",
"'. c #E4AC7C",
"]. c #EAAB7B",
"[. c #F4A678",
"{. c #ECB479",
"}. c #F4B777",
"|. c #B5C44D",
" X c #C9CB5B",
".X c #D7C66C",
"XX c #EFC677",
"oX c #D8E679",
"OX c #9D9086",
"+X c #AE968A",
"@X c #B8A698",
"#X c #BFABA2",
"$X c #C99C84",
"%X c #DE9C84",
"&X c #EC9E86",
"*X c #C9A589",
"=X c #D9A988",
"-X c #C9AB97",
";X c #D7AD93",
":X c #CEB794",
">X c #D9B497",
",X c #E3AC84",
"<X c #E8AA89",
"1X c #F5A887",
"2X c #ECB482",
"3X c #E9B987",
"4X c #E4B48C",
"5X c #EBB48B",
"6X c #F4B986",
"7X c #E7AB91",
"8X c #F6AB95",
"9X c #E3BA94",
"0X c #E9B996",
"qX c #F4B897",
"wX c #CBB1A3",
"eX c #D9BBA8",
"rX c #E5BCA6",
"tX c #F5BCA4",
"yX c #EBBAB0",
"uX c #D2C799",
"iX c #F7C388",
"pX c #EAC495",
"aX c #ECC49C",
"sX c #F4C494",
"dX c #F3C49B",
"fX c #F5CB98",
"gX c #F1D291",
"hX c #E4E49A",
"jX c #D7C5AC",
"kX c #DBC7B9",
"lX c #EBC7A7",
"zX c #E4C3AC",
"xX c #F5C5A6",
"cX c #F2CAA5",
"vX c #F3CCAC",
"bX c #EBD4AC",
"nX c #F4D3A8",
"mX c #E2C5B2",
"MX c #EBCBB3",
"NX c #E7CCB9",
"BX c #F4CCB5",
"VX c #E8D4B8",
"CX c #ECD2BC",
"ZX c #F3D3B4",
"AX c #F5D8B9",
"SX c #ECE5B5",
"DX c #DDCDC4",
"FX c #EBD1C5",
"GX c #E9D7C7",
"HX c #F3D9C4",
"JX c #E9DBD4",
"KX c #F7E3CA",
"LX c #EBE2D8",
"PX c #F5E7D8",
"IX c #F3EDE6",
"UX c #F6F1E7",
/* pixels */
",.,.,.,.,.,.,.,.,.,.,.,.,.,.,.,.,.,.,.,.n >.,.,.,.,.,.,.,.,.,.,.,.,.,.,.,.,.,.,.,.#.&.,.,.,.,.,.,.,.,.,.,.,.,.,.,.,.,.,.,.,.>.$.",
",.,.,.,.,.,.,.,.,.,.,.,.,.,.,.,.,.,.,.&.$.,.,.2.,.,.,.,.2.2.,.,.,.,.,.2.,.,.,.,.,.n ,.,.,.,.,.,.,.,.,.,.,.,.,.,.,.,.,.,.,.,.#.>.",
",.,.,.,.,.,.,.,.,.,.,.,.,.,.,.,.,.,.,.#.$.,.,.m.V.}.iXgXfXfXfXiXiX).).m.,.,.,.,.*.n ,.,.,.,.,.,.,.,.,.,.,.,.,.,.,.,.,.,.,.>.n &.",
",.,.,.,.,.,.,.,.,.,.,.,.,.,.,.,.,.,.#.n ).iX}.}.Q.N.b.h.j.i.f.j.v.d.=.+.j./.B.m.-.*.,.,.,.,.,.,.,.,.,.,.,.,.,.,.,.,.,.,.>.n #.2.",
",.,.,.,.,.,.,.,.,.,.,.,.,.,.,.,.2.[.BXKXcX).v.j.j.f.x.!._.4X}.{.sXpX,XS.!.t.x.K.Q.B.1.,.,.,.,.,.,.,.,.,.,.,.,.,.,.,.,.>.n #.,.,.",
",.,.,.,.,.,.,.,.,.,.,.,.,.,.,.2.dXPXvX}.h.h.c.{.3XpX6X`.cXnXnXsXN.0X!.S.S.S.G.E.S.S.t.=.m.,.,.,.,.,.,.,.,.,.,.,.,.,.>.n $.,.,.,.",
",.,.,.,.,.,.,.,.,.,.,.,.,.>.B.BXnX}.v.t.N.'.3XdXaXbXMXjX-XzXlXlXrXMX,XNXCXI.V d.E.'.T.x.t.j.M.,.,.,.,.,.,.,.,.,.>.#.n #.,.,.,.,.",
",.,.,.,.,.,.,.,.,.,.,.,.>.1XHX6XW.c.!.4X9X0X{.lXZXAXfXkXkXwXmXZXdXlXHXLXmX8Xf u ~.S.c.!.s.x.f.h.1.,.,.,.,.,.,.&.n n #.,.,.,.,.,.",
",.,.,.,.,.,.,.2.,.>.>.-.tXHX}.x.L.G.S  .X.5.bXPXPXKXZXrX>X9XMX3X=X5X,X=XNX&Xj u <X, kX3Xc.c.s.+.N.V.,.,.>.*.n n $.>.,.,.,.,.,.,.",
",.,.,.,.,.,.,.&.$.m n xXMX{.d.<XI.y 8 - X.6.AXKXAXsXMX9.lXfX'.G.C.D.MXlXHX(.7.w D : >X}./.r.i.!.W.W.B.%.n n #.>.,.,.,.,.,.,.,.,.",
",.,.,.,.>.#.n n m %.iXAX{.i.2X' u 3 $ } 6.uXpX}.nXZX+XJ sXaX=X,Xa z rXPXKXU ..| 4.wXJXHXfX/.f.Q.S.K.! k.;.%.,.,.,.,.,.,.,.,.,.,.",
",.,.>.#.n n n &.>.m.sXN.x.7X~ ' u 4 S w.|.uX=XW G.F.U L T.3X2XAXC c G.8Xz.C g B d.$X4X`.m.gXAXfX!.K.i.x !.m.,.,.,.,.,.,.,.,.,.,.",
",.>.n n n #.&.,.2.}.t.a.4X5Xe D.1X[.{ ' z.P.J.N 1 1 K K C.h j 6X).{.C P.) y _ P.b.g.U ! [.6XnXUXPX4Xc.i.x v.2.,.,.,.,.,.,.,.,.,.",
",.#.n n #.,.,.,.).~.x.4X>X`.E.e 1XJ.[.H.S._.8X[.=.k x G $XZ Z J ~ g.' ' d 4 Y.{ T [.-._ f 8XHXUXUXPXU.i.s.! B.,.,.,.,.,.,.,.,.,.",
"*.n m >.,.,.2.m.}.x.3XZX>XA._.2XJ.P.8X7 d d B tX1X^ H & OX; + : y ] y d 1XI.J.N d ) [.C u /.cXcXAXUXJXr.j.p.t.m.,.,.,.,.,.,.,.,.",
">.n #.,.,.,.2.).x.dXZXiX9XGXCXP.P._ 8X{ qX&XB ) ) H  .R.& > : ; ~ ) ' ^ 8X8X1XqXH.' Y.g.b ^.=.+.fXAXLX=Xk x.j h.2.,.,.,.,.,.,.,.",
"n n ,.,.,.,.).s.{.cXsXvX0.+XD.Y.P.g I.I.tX8Xz.' 2 @ } 7.|.8.* E.=X=XZ.&X1X7XtXHX7Xz.8Xz.h.lXKXGXP @X+X< =Xx +.+.M.,.,.,.,.,.,.,.",
"n *.,.,.,.2.^.x.pX^.cXPXcX5...Y.a z.tXtXxXvX=X9 8 $ -  XgXR.> LXIX$XD.^ a U.U.4X&X( _ 1Xb.aXKXZX@ O A 0 7.| h.j.r.<.,.,.,.,.,.,.",
"m >.,.,.2.).r.^.cX{.HXmXR.R.@.~.0 7X1XqX>XL S 9 0 D = w..Xw.rXJXIXDXF.J R r.a u.P.dXqXCXKXnXcXsX^ p ;.d.7. ...a.c j.,.,.,.,.,.,.",
"#.2.,.,.V.`.d.sXvX!.G.F.4.X...P.q R &XF.@ @ I F.9 K F q.uXF.;XLXUXeXNXmX!.c l 7XGXPXLXLXVXaXKXSX[./.-.) o.6.$ r.c r.m.,.,.,.,.&.",
",.,.,.,.sXt.c.sX>XMXPX-X9 # X J.L.8XZ.9 . : FXmX~ J G.=X4X'.pXOX-XJXPXHX0Xc q 7XhXhXSXSX:XlXAXAX0X/.tXe.7.w.I n.s.j N.,.,.,.,.$.",
",.,.,.V.sXh.`.6XL GXLX$X+ . * K U.u.Q ! K F.JXCXS.F.wXNXaX=X;X: F.=XZXZXpX[.xX*Xn. X XX.=XcXcXE.,Xu.T.S.3.6.I T.S.x i.2.,.,.>.n ",
",.,.,.}.v.r.{.nXbXGXkX& .   O U 9Xu.~ x /.lXxX,X) r.5.eXMXZ.9 K t W.sXcXW.lXP.2 6.|.|.#XdXdXt.0X;XeX<XXXhXR.0.F !.S.r.B.,.,.*.>.",
",.,.,.iXj.v.}.sXIXPXAXL + . ; :XCXJX;X;.k.[.^.R e H L Z C.0.dX0X{.AXKX4X9XmXl.H 4.4.kXUXHXdXdXS.G.0X5X Xp.r r.0XZ.'.c N.m.,.m >.",
",.,.1.iXW.}.}.xXPXAX).nX*XK A.=XdXMX;XD.v p v r.p.h D < - 9.p.l.0XPXIXdX5XC.FXmXeXDXCXsXAXKXcX=.h ! _ C p 7 k vX2X_.x v.V.#.m >.",
",.,.V.`.{.nX2XcXPXAXnX6X=.a +.,XZ.7Xp.C.u.R ) h.;.e o 9. .X.o.e rXMXzXlXU.F.8.q.;X6X/.{.sXsX].k W l.P.z.b.M j.lX4Xx j f.k.m >.,.",
",.,.XX/.}.nXqXxX` f P.6X_.f.dX].1XW S.T.=XU.6X5XY.D.q 5.o.X. Xn.J y.K I -X-XeXK ;X,Xv g.Y.' H._.x <X&Xg ^ z.! P 9Xl r.+.k.>.,.,.",
",.,.iXk.iXnXKXBX6 y r._.`.bX/.H.) ~ e.=X'.ZXHXGXHXeXy.5.X.|. X9X+XS.OX+ < OXF.F.G.{.^ v.P.Y.nXvX{.1XI./ 2 z.g.Z '.D.a.c M.,.,.,.",
",.,.).h.}.CXPXtXy 8 (.oXXXgX[.] _ Y.v.K.5XFXLXJXKXMXu.q.9.o..XR.9XsX: . P F.F.mXP.-.P.P.[.d.H.v.%XN Y.[.4 G g.b.H.S.u.z B.,.,.,.",
",.,.W.h.}.HXLX=X4.X.7..XSXlX'.z ) j.^.pXW.MXPXJXLXcX;X*X9XR.>XMXbX9X:XF.;XBXaX0Xf 6 f BXW.p i h l Y.1X' H.I.g.[.cXF.p.c Q.,.,.,.",
",.,.).h.{.'.:XeX-  .7.n.A.zX9X) s l.L.L.rXNXeXU.zXzX<X4 6 Y.JXDX>X;XzXVXCXKXNXkXU 9 u.P.sX`.h.A.0.Y.[.) Y J.g.qXsX7Xr.k Q.,.,.,.",
",.,.}.j.2X,XrX=XF 8 d u Z.;Xs.l.i [.6XqX}.0X*X8.8.8.' 3 6 MX;XJX;XA.0.uXzXNXJXkX*X$XpXb.W.>XmXF p.L.[.b 7 ) g.0X,XE.u.Q !.,.,.,.",
",.,.6Xt.}.sXFXG.d B _ C /.ZXcXk.h ! ) C p ) W w 7.X d 3 ] MXJ F.r 4.- = 8.L FXG.;XKXUXKX0X4X-XT.w l g 6 z.P.P.AXGXzXs.c `.,.,.,.",
",.,.6Xr.N.iX0XL.` P.B z.P.^.sX[.;.z W f 6 B q  .w.& G.U.a y.W L 0.R. . .L 0.>X`.7XvXPXPXsXF.9.0.> 2 Y.U.Y.d.8X9XPXCXL.c Q.2.,.,.",
",.#.].Q /.{.) P.z.J.u _ P.V c.6XiX;.q Z @ =X9 w J U E.A.C.q.E.zXgXn.7.e.6XnX3XfXb.W.HXKXHX,XL W *XS.P.Y.z.z wXNXIXzXc.c ).,.,.,.",
">.m `.i.).iXU.Y._ z.( ] HXFX>XPXZXf.a F 9 I   * S S.p -.r.G.(..X'.pXu.Q.{.2Xa.#.i l AXKXKXKXzXPXeXJ.B Y.U.H 9XeX-X9Xi.x.).,.,.,.",
">.n ].v.W.gXs.[ ` J.] ( xXDX>XVXLX;Xq.yX-XD   & F j.k h.R u.3X*XK.fXW.}.u.0 E ~.k L.PXHXxXUXIXPXMX<Xu.rX!.0X=X=XzX4Xx.K.).1.,.,.",
"#.n }.u.v.fXy.0 B / y f _ sXpXmXeX*X;XJXJXwXP * >X`.Q.sXG.y.0 A.S.aXr.h v.u.<Xk.x./.vXU.8XI.{ HX=XS.s =Xf.i.P.5XcX_.u.Q.V.1.,.,.",
"n #.}.L.d.iXF.> s _ p p C T.5.H A.D.I , wX-XeX9.cX`.S.NXCXMXu.k W.AX<XP.S.x #XeX2X6X0Xg 3 3 f tXe.D.l Z.nX6X/.*.sXE.s.c.<.,.,.,.",
"n *.V.5X=.}.4X-XH u C M C <X`.^ c 0 @ : : ; @XwXeXPXLXNXmXJXCX`.k }.}.g.e * ; + =XdXzX' 3 3 f J.].~ E.AXPXZXxXXXsX`.t.s.1.,.,.,.",
"$.,.,.6Xx c.fX5.} i v C g.1X5XQ h 0 O @ + X > OXkXUXLX0XcXmXzXkX5XS.u.y.,X; : ; wXLXKXdX<XE S.'.S.h ZXJXNXnX2XB.~.s.d.W.,.,.,.>.",
">.,.,.).e.t.iX5. .w F.! P.xXZ.k.x J F * D % # = < DXDXjX+X: +XkXeX0.= X.uXOX; , -XaX3XpX0.G ;XL.S._.!.yXCXAX0X! ^.a.x.W.,.,.,.$.",
",.,.,.2.s.x (.9X8.C.Z.N m tXFXc e F.F.S & - 6.X.q.DXPXkX<   I =X-XD  ..XVXwX-XjXNX'.q 7 0 Z rXU.z.aXS.Z +X@X8.t v.t.c.}.,.,.,.#.",
",.,.,.,.N.r.x.3Xa.c x ] O.qXFX$X*X%XE.0.0.0.R.w.E.JXJX&XwX< @XjX0.o w 6.hX4XzX-Xy.D.H 0 e ~ &XJ.J.A q.! e +XwXy.c.f.}.).,.,.>.&.",
",.,.,.,.m.e.+.!.Q.x.].].v MXDXDXkXwXCX3XK.T.{.E.sX3X8Xu l.FXLXVX>Xq 0.R.(.NXCXQ.4XeXD.q z.1X' [ H.G.%Xv g.W.0XfXW.v.iX1.,.,.n *.",
",.,.,.,.2.M.e.x./.+.v.0XrXFXJXJX;XG.S.E.S.c x./.fXnX7X_ vXJXIXcXzXG.R S.=XjXMXp <XjX%X%XqXY.1X[ l.I.LXY -.1X'.}.d.).V.,.,.&.n >.",
",.,.,.,.,.1.t.x ^.0Xv.0XMX>XwXrXK.s.h k z z 2 y N.R.=XzXqXcXBX=XlXzX0X! r.JXeXi.Q Z.1XtXY.1X1X5 z.I.DX-XL._.iXi.i.).,.,.*.n &.,.",
",.,.,.,.,.,.M.e r.6XQ.L.0X@XF >X0Xl ) ) _ 1Xv +.%XlXnXSXLXCXBX~.0XMX0Xx rXmXvXqXu B d qXT ' / g H.qX*X9.C.9XQ.d.}.2.,.&.n &.,.,.",
",.,.,.,.,.,.1.A.h c.iXa.l.Z.eXGXdXf.L.) ( g.P.P.S.G.MXgXVXlXKXmXPXCXmXE.mX8XdX1XP.J.g H.) I.z.) g.[.5XW !.K.r.`.V.,.&.n &.,.,.,.",
",.,.,.,.,.,.,.M.J e.!.iXQ u.lX5XU.q K.G _ E 1 4 ] G.,XAXqXZ.l.{.L.zXDXjX{ g v B z.' d 7 z H.Y.z.z.^ j i.`.! L.}.$.m n &.,.,.,.,.",
",.,.,.,.,.,.,.,.M.e e ^.pXW ,X].rX0X7X@ _ E o 1 ' ^ V P.].z l.[.! u.>XNXU.6 ) l.J._ z.' ' ] B Y.4Xk p.!.r.s.6X%.n #.&.,.,.,.,.,.",
",.,.,.,.,.,.,.,.1.a.e l _.dXy.7XqX<XU.I / _ 7 ! H.d f y I.}.f.].L.H G 9.#XyXBXMXqXP.N s v @.S.jXG.s.~.t.t.6X-.n >.,.,.,.,.,.,.,.",
",.,.,.,.,.>.>.#.n M A.J x S.pXl.{ J.s H ) _ ) J.^ y Y 2 y Y.z.i.~ A . . OXGXDXrX_.L.t S w o...C.!.~.r.! [.g.&.,.,.,.,.,.,.,.,.,.",
",.,.,.,.$.m m m #.>.1.p.e q u.f.B ( f x F.V f ( s 2 s v ( ( U.vX'.J . . -XeXDX=X9X*Xx & = 7.7.K.c.c i.`.V.,.,.,.,.,.,.,.,.,.,.,.",
",.,.*.n n n m >.,.,.,.,.h.t 0 t.r.N z G.Z.S.! u b B _ B f 4 g ` K.F.F @XNXFXeX'.!.G.=XA.G n.~.i.i.i._.V.,.,.,.,.,.,.,.,.,.,.,.,.",
",.&.n n n *.>.,.,.,.,.,.,.<.x e r.x.{.2XT.A.D.0.G R Z.1 0 3 3 3 ' zXG.zXJX;XG %X=XC.W S.Q.x.! i.~.`.V.,.,.,.,.,.,.,.,.,.,.,.,.,.",
"1.#.n #.&.,.,.,.,.,.,.,.,.,.,.@.t l u.`.6X{.T.5.aXzXE.S e l 5 / ~ F.'.h !.Z.s =.A.S.!.K.Q l e./.).1.,.,.,.,.,.,.,.,.,.,.,.,.,.,.",
"*.n n >.,.,.,.,.,.,.,.,.,.,.,.,.<.@.r H u.s.T.Q.{.bXE.E.W S.a !.9.F.{.r.i._.c.v.`.c.Q R r.i.B.m.>.,.,.,.,.,.,.,.,.,.,.,.,.,.,.,.",
"*.n &.,.,.,.,.,.,.,.,.,.,.,.,.,.,.,.:.5.r 0 e W i.!.`.{.2X!.^.`.!._.{.,X2X2X'.S.y.l x i.L.B.,.,.,.,.,.,.,.,.,.,.,.,.,.,.,.,.,.,.",
"n n ,.,.,.,.,.,.,.,.,.,.,.,.,.,.,.,.>.2.N.W r 0 0 e W u.p.s.s.S.s.a.u.u.W l q e Q t.S.L.-.,.,.,.,.,.,.,.,.,.,.,.,.,.,.,.,.,.,.,.",
"n *.2.,.,.,.,.,.,.,.,.,.,.,.,.,.,.,.,.,.,.#.%.:.+.t e e x r.Q l l e l Q W l c y.S.E.N.n ,.,.,.,.,.,.,.,.,.,.,.,.,.,.,.,.,.,.,.,.",
"$.,.,.,.,.,.,.,.,.,.,.,.,.,.,.,.,.,.,.,.,.#.<.,.,.,.<.j.p.S.u.u.y.y.G.$X$XG.!.M.,.,.>.*.,.,.,.,.,.,.,.,.,.,.,.,.,.,.,.,.,.,.,.,.",
"&.,.,.,.,.,.,.,.,.,.,.,.,.,.,.,.,.,.,.,.>.#.,.,.,.,.2.,.,.,.,.,.2.,.,.,.,.,.2.,.,.,.m >.,.,.,.,.,.,.,.,.,.,.,.,.,.,.,.,.,.,.,.$.",
",.,.,.,.,.,.,.,.,.,.,.,.,.,.,.,.,.,.,.2.>.*.,.,.,.,.,.,.,.,.,.,.,.,.,.,.,.,.,.,.,.2.$.,.,.,.,.,.,.,.,.,.,.,.,.,.,.,.,.,.,.,.,.$."
};
