/* XPM */
static char *softc5[] = {
/* columns rows colors chars-per-pixel */
"64 64 254 2 ",
"   c #7C6224",
".  c #841D17",
"X  c #8A2419",
"o  c #99271B",
"O  c #B2340D",
"+  c #A4291A",
"@  c #AC331D",
"#  c #B5351D",
"$  c #953124",
"%  c #A53224",
"&  c #A83B27",
"*  c #A5332B",
"=  c #B53925",
"-  c #BB3B25",
";  c #CB3910",
":  c #C33E25",
">  c #B24E1A",
",  c #A7721E",
"<  c #944E2B",
"1  c #BB452B",
"2  c #A9572A",
"3  c #B75825",
"4  c #AB4934",
"5  c #BA4233",
"6  c #B74837",
"7  c #B65837",
"8  c #8F7731",
"9  c #B96426",
"0  c #B06F30",
"q  c #B96836",
"w  c #B87736",
"e  c #C65B0E",
"r  c #C84B18",
"t  c #D7481D",
"y  c #C95B18",
"u  c #D85A1D",
"i  c #E54E1B",
"p  c #D6671C",
"a  c #D27118",
"s  c #E26E1C",
"d  c #C54729",
"f  c #D34927",
"g  c #C65729",
"h  c #D3562B",
"j  c #C64932",
"k  c #C95538",
"l  c #D35836",
"z  c #EC532D",
"x  c #E35937",
"c  c #C96726",
"v  c #D96A27",
"b  c #CE752C",
"n  c #D7772A",
"m  c #C76836",
"M  c #D96937",
"N  c #C87937",
"B  c #D77935",
"V  c #EA732F",
"C  c #E47928",
"Z  c #F77522",
"A  c #F77A23",
"S  c #E56937",
"D  c #E57939",
"F  c #B44E48",
"G  c #BB5847",
"H  c #B36745",
"J  c #BB7A4A",
"K  c #AB7159",
"L  c #B77B55",
"P  c #B67164",
"I  c #C75845",
"U  c #CC5A45",
"Y  c #C96549",
"T  c #D56B43",
"R  c #DA6A46",
"E  c #C97745",
"W  c #D87848",
"Q  c #CC6757",
"!  c #CF7154",
"~  c #D97856",
"^  c #E57946",
"/  c #ED7249",
"(  c #E57856",
")  c #CB7568",
"_  c #749431",
"`  c #938835",
"'  c #AB8C2F",
"]  c #B4883B",
"[  c #B69538",
"{  c #AEAD3C",
"}  c #EE8F1F",
"|  c #DB842B",
" . c #C78538",
".. c #DC8334",
"X. c #D9873B",
"o. c #D89033",
"O. c #E68729",
"+. c #F88426",
"@. c #F98728",
"#. c #F18C2B",
"$. c #F98828",
"%. c #EB952B",
"&. c #FA932C",
"*. c #F29828",
"=. c #FB982D",
"-. c #E68636",
";. c #E38D3B",
":. c #F48935",
">. c #E89538",
",. c #F59837",
"<. c #F8AA2F",
"1. c #EBA43A",
"2. c #F5A736",
"3. c #FCA431",
"4. c #FEAE34",
"5. c #F3A33B",
"6. c #FBAD3B",
"7. c #FEB237",
"8. c #FAB63D",
"9. c #BD964E",
"0. c #BE8955",
"q. c #B5AE4E",
"w. c #B8876A",
"e. c #C38248",
"r. c #D88945",
"t. c #DD834C",
"y. c #CD9949",
"u. c #DA9646",
"i. c #C9865B",
"p. c #D88753",
"a. c #D89A56",
"s. c #E48441",
"d. c #E98849",
"f. c #F28B4B",
"g. c #E69647",
"h. c #EB9C43",
"j. c #EB9D4C",
"k. c #F39746",
"l. c #E98B54",
"z. c #EC9554",
"x. c #E99B54",
"c. c #EE9D5C",
"v. c #F29A59",
"b. c #DAA657",
"n. c #D2AF51",
"m. c #ECA245",
"M. c #ECA34D",
"N. c #EDAA4A",
"B. c #F4A545",
"V. c #F8AA46",
"C. c #F4A44C",
"Z. c #F4AB4C",
"A. c #E7BB4C",
"S. c #FDBC42",
"D. c #F7B549",
"F. c #FAB44C",
"G. c #EBA757",
"H. c #F4A557",
"J. c #F4AB54",
"K. c #F9AB53",
"L. c #F3AC5B",
"P. c #ECB75A",
"I. c #F5B652",
"U. c #FAB454",
"Y. c #FABA54",
"T. c #F4B45C",
"R. c #F9B45B",
"E. c #F5BB5C",
"W. c #F9BC5B",
"Q. c #C98963",
"!. c #D98C62",
"~. c #D69667",
"^. c #D3827B",
"/. c #C99475",
"(. c #D59D78",
"). c #EA9965",
"_. c #E3966B",
"`. c #F19664",
"'. c #DBA368",
"]. c #DBB666",
"[. c #D9A57C",
"{. c #DFB872",
"}. c #EBA564",
"|. c #EBAB63",
" X c #E8A769",
".X c #F6A962",
"XX c #F4AC64",
"oX c #F4AC6A",
"OX c #EBB263",
"+X c #E6B569",
"@X c #ECB36B",
"#X c #F4B364",
"$X c #FAB462",
"%X c #F4BB63",
"&X c #F9BC63",
"*X c #F3B46B",
"=X c #F5BB6C",
"-X c #F9BC6C",
";X c #E4AB79",
":X c #F2A572",
">X c #E8B776",
",X c #F5BA77",
"<X c #FCC64E",
"1X c #FECA4C",
"2X c #E7C75C",
"3X c #F9C659",
"4X c #FBC35C",
"5X c #EED65C",
"6X c #F8D557",
"7X c #F6DB5D",
"8X c #FDDB59",
"9X c #FDE45F",
"0X c #E9C765",
"qX c #FBC463",
"wX c #F5C966",
"eX c #FBCB65",
"rX c #F5C46C",
"tX c #FAC56D",
"yX c #FACB6C",
"uX c #FBD76A",
"iX c #E9C677",
"pX c #F9C473",
"aX c #FACB73",
"sX c #F5C578",
"dX c #FACD7B",
"fX c #E6D176",
"gX c #FBD373",
"hX c #FBD37C",
"jX c #F8DA7A",
"kX c #FEE761",
"lX c #FEE861",
"zX c #FCE66B",
"xX c #FCE773",
"cX c #CA9982",
"vX c #D8AA88",
"bX c #D9B190",
"nX c #E3AF89",
"mX c #E7B48B",
"MX c #F2BD8A",
"NX c #E9BA94",
"BX c #D9C292",
"VX c #EAC886",
"CX c #F6CA86",
"ZX c #E9D388",
"AX c #FAD687",
"SX c #EECA96",
"DX c #F9D994",
"FX c #FBE686",
"GX c #FBE395",
"HX c #EAC3A6",
"JX c #E9D2B6",
"KX c #F6E7B1",
"LX c #ECDCC9",
"PX c #EBDED0",
/* pixels */
"4.4.4.4.4.4.4.4.4.7.4.4.4.4.4.4.4.4.4.4.A 3.4.4.4.4.4.4.4.4.4.4.4.4.4.4.4.4.4.4.4.@.&.4.4.4.4.4.4.4.4.4.4.4.4.4.4.4.4.4.4.4.3.@.",
"4.4.4.4.4.4.4.4.4.4.4.4.4.4.4.4.4.4.4.&.+.4.4.4.4.4.4.4.4.4.4.4.4.4.4.4.4.4.4.4.3.A 4.4.4.4.4.4.4.4.4.4.4.4.4.4.4.4.4.4.4.4.+.3.",
"4.4.4.4.4.4.4.4.4.4.4.4.4.4.4.4.4.4.4.+.$.4.4.4.4.4.4.4.4.4.4.4.4.4.4.4.4.4.4.4.=.Z 4.4.4.4.4.4.4.4.4.4.4.4.4.4.4.4.4.4.4.3.Z &.",
"4.4.4.4.4.4.4.4.4.4.4.4.4.4.4.4.4.4.+.Z 3.7.4.4.4.4.4.4.4.4.4.4.4.4.4.4.4.4.4.&.Z =.4.4.4.4.4.4.4.4.4.4.4.4.4.4.4.4.4.4.3.A @.7.",
"4.4.4.4.4.4.4.4.4.4.4.4.4.4.4.4.4.+.A 3.4.4.4.4.4.4.4.4.4.4.4.4.4.4.4.4.4.4.&.Z &.4.4.4.4.4.4.4.4.4.4.4.4.4.4.4.4.4.4.3.Z +.4.4.",
"4.4.4.4.4.4.4.4.4.4.4.4.4.4.4.4.+.Z 3.4.4.4.4.4.4.4.4.4.4.4.4.4.4.4.4.4.4.&.Z =.4.4.4.4.4.4.4.4.4.4.4.4.4.4.4.4.4.4.3.A +.4.4.4.",
"4.4.4.4.4.4.4.4.4.4.4.4.4.3.=.Z A 3.4.4.4.4.4.4.4.4.4.4.4.4.4.4.4.4.3.3.Z Z &.4.4.4.4.4.4.4.4.4.4.4.4.4.4.4.4.4.3.+.Z +.4.4.4.4.",
"4.4.4.4.4.4.4.4.4.4.4.4.3.A Z Z 3.4.4.4.4.4.4.4.4.4.4.Z.|.MXMX*XL.K.k.:.:.=.4.4.4.4.4.4.4.4.4.4.4.4.4.4.4.4.4.&.Z Z +.4.4.4.4.4.",
"4.4.4.4.4.4.4.7.7.3.3.+.Z +.&.4.4.4.4.4.4.4.7.6.B.C.x.l.r.r.}.|.*X=XT.T..XC.C.U.U.D.6.4.4.4.4.4.4.4.4.4.3.&.Z Z +.3.4.4.4.4.4.4.",
"4.4.4.4.4.4.4.&.$.A Z Z =.7.4.4.4.4.4.4.Z.M.g.X.B b N  .r.'.>XSXSXiX8.%.%.O.>.N.J.*XMX#X4.4.4.4.4.4.+.+.Z Z +.3.4.4.4.4.4.4.4.4.",
"4.4.4.4.3.+.Z Z A $.4.3.4.4.<X8XlXlXzX0Xa.M c y 3 b g.O.%.>.c.B %.1.1.-.S h p >.g.o.j.*X=X6.4.4.4.+.Z +.$.$.4.4.4.4.4.4.4.4.4.4.",
"4.4.3.+.Z Z Z &.3.7.<X8X8X8X9X9XlXuXrXj.-.c b > h v u S ( `.d.^ D f.f.d.^ : O u | O.;.;.H.-XU.4.+.Z 3.4.4.4.4.4.4.4.4.4.4.4.4.4.",
"4.3.Z Z Z +.&.4.4.4.lXlX9X9X9X9XyX%XM.,.*.O.R / k l ^ ( _.M l.l.!.~.(.cXp.l.~ R M ).O.=.V.g.T.XX5.8XlXlX8X4.4.4.4.4.4.4.4.4.4.4.",
"4.+.Z Z +.4.4.4.4.4.lXlX9X9XuXrXj.u.>.8.k./ .XoXH.x.^ ).W T }.~.w.bXNXE g.H.}.v.c.oXR ^ 2.| >.g.G.8XlXlX8X4.4.4.4.4.4.4.4.4.4.4.",
"=.Z A 3.4.4.4.4.4.4.lXlXlXVX|...>.*.k.S `.z.l.D }.sXDXz.W oX,XJ.f.[.HX(.|.U.XX.XH.v.`.^ t C O.O.b o.7XlX8X7.4.4.4.4.4.4.4.4.4.4.",
"3.Z +.4.4.4.4.4.4.4.lXlXwXx.b b O.u ^ v.H.,X,Xc.-.:.sX).1 % 7 OX$XQ.w.E y.pXW.W.tXS z c.c.s.t #...K LX7XkX<X4.4.4.4.4.4.4.4.4.4.",
"Z Z 4.4.4.4.4.4.4.4.kX9Xu.c O y f M M oX=XG./.Q.pX5.sXH % j - 6 jXjX0XwX+X~.! x.*XDX,X:.j.z.d.g p.PXFX7X8X<X<.4.4.4.4.4.4.4.4.4.",
"Z =.4.4.4.4.4.7.4.4.kXu.| c g 6 + m G.%XW.b K mX~.G.sX7 & d U I wXuXjXN.& j d : }.pXhXY.W.d.M 0.PXFXlXlX5XS.4.4.4.4.4.4.4.4.4.4.",
"A 3.4.4.4.4.4.4.4.4.6Xc c >.C . X @ d G.aXa.(.HXbXvXDXi.5 = I ) wXFXyXt.Q j j = i.C.dXY.yXg.w.LXxXlXlXlXkXD.4.4.4.4.4.4.4.4.4.4.",
"$.4.4.4.4.4.4.4.4.6.g.b n s.m . + d k t.yXy.) vXL L VXOXq 7 I ;.4X3XhX.XQ j 6 * m C.B.C.J.vXLXzXlXlXlXlXkXS.h.4.4.4.4.4.4.4.4.&.",
"4.4.4.4.4.4.4.4.4.K.B o.D l d.6 6 - U W hXyXa.i.u.A.AXqXrX5.N.hXY.eXeXE.m G G 7 f.AXd.m.bXKXlXlXlXzXkXkXlX<X1.4.4.4.4.4.4.4.4.$.",
"4.7.4.4.4.4.4.4.S.K.O.n ! ^ y.q I Q ! j.yXeXyXrXP.eXuXgXP.7.6XjXR.z ,.yXiX` 9.=XyX&Xx.BXKXkXlXlXkXlXkXlX9X8X4.4.4.4.4.4.4.4.3.Z ",
"4.4.4.4.4.4.4.4.W.h.p S :XoX` [ W g B C.eXeX4XD.{ n.P.P.1.aXeXgXrXJ.V.hXFX].].gXK.u.LXFXkXkXkXlXkXlXkXkX9XlX7.4.4.4.4.4.4.4.=.3.",
"4.4.4.4.4.4.4.V.L.>.p R :X`.|. XXXD g.Y.eXdXW.aXy._ 8 < & E rX`.f.4X4XhX0.J '.@XOXHXFXkXkXlXkXlXkXkXkXkX9X9X7.4.V.4.4.4.4.4.Z 3.",
"4.4.4.4.4.4.4.T.;.e l T  X,XCXdX-Xj.,. XG @ q wXtX] X + j l k =XK.qXeXh.;XmXvX+XHXY.kXkXkXkX9XlXkXkXkXkX9X9X4.4.*X4.4.4.4.+.Z 3.",
"4.4.4.4.4.4.4.|.n a R W W *X=XdXCXqXJ.& @ j @ H 4Xh.6 1 l l 4 R.Y.yXgX3XZ.j.>XNXS.9XlXkXlXkXkXlXkXkXlXkXlX9X4.4.XXS.4.4.+.Z 3.4.",
"4.4.4.4.4.4.6.j.b u h 7 H i.@XZ.AXdXiX& & f U I rX:.k I Q Q e.3X8.jXuXaXN.>XMX8.kXlXlXkXkXkXlXkXlXkXkXlXlXlX4.4.4.6.4.+.A 3.4.4.",
"4.4.4.4.4.4.Z.X.9 # + . % @ k CXdXpX4XY F : Q !.eXqXg.! Y N Y.4X3X4XF.Z.,X,XS.9XkXkXkXkXkXkXkXkXkXkXkXlXlXlX4.4.4.&.+.Z 3.4.4.4.",
"4.4.4.4.4.4.C.b e d o % - k j |.-Xk.W.;.7 I q G.hXyX3XD.D.2.@.=.k.V.-.*XR.8.kX9XkXkXkXkXlXlX9X9X9XlXlXkXkX<X4.3.A V A 3.4.4.4.7.",
"4.4.4.4.4.4.G.b a h 6 5 = - Y >XAX-XW.R.=X@X%XE.V.qX' { 1.=.5.;.N b $XU.8X9XlX9XlXkXkXlXlXlXlX9XlXlXkXkXkX7.+.Z A k.3.4.4.4.4.4.",
"4.4.4.4.4.4. XB 1.O.d 6 Q Q W C.,X>XpXtXqXhXgX3XV.4XP.` { 2.a . 0 R.1XzXkXkXlXlXlXkXlXlXlXlX9X9X9X9X8X8.&.@.A @.4.F.4.4.4.4.4.4.",
"4.4.4.4.4.&.}...0X5.f T X.;.h.m @ + < iXAX2XuXP.u.m.m.m.' 1.c 0.F.8XkXkXkXlXlXlXlXlXlXlXlXlX9X9X<X<X4.&.+.3.3.4.4.6.4.4.4.4.4.4.",
"4.4.4.3.Z Z  Xx.sXB.l.H.$XW.B @ j : - u.E._ 0 @ # o q U.6.#.k.xX9X9X7X7X7X5X2X2X0XZXZXfXfX2XE.C.2.2.8.6X6X6.4.4.4.L.4.4.4.4.4.4.",
"4.4.A Z Z Z :X@XVX.X( ( H.sXs.% : l cX!.%Xa.8 k f : Q V :.E m iX9X0.h.<XtXJ w r.~.NXJXJXLXLXPXLXJXNX{.ZXiXx.1.2.4.K.4.4.4.4.4.4.",
"4.$.Z A A 3.L.L.=XC.x f t..XL.U I Q Q.j.sXhXg 6 j j ) s M.[.cXbXzX2XP.eXH.. = j d ~ k.&.CXCXW.,XCXW k Q ) P u.pX=Xh.7.4.4.4.4.4.",
"3.A Z =.3.4.J.L.8...W :X*X*XXX}.q Y g.Y./ f.g.T I I E U.Z.m ;XmXiX9X].Y.u $ - d U U Z.R.dXpXAXDXCXe.G j * 4 u.sX1.;.4.4.4.4.4.4.",
"3.Z A 3.4.4.Z.J.N.M W t.v d.:.:.[ %XgXaXS i XX#XX.n z.F.5.V.X.Q.w.zXzXj.U.n 7 F Q ;.%XaXhXqX&Xc.XX.XY I 6 7 E.rX| 1.4.4.4.4.4.4.",
"+.Z 3.4.4.4.6.j.>.g @ D c.oXd.,.[ _ q.,X).%XC.Y.R.:.C.U.F.a.E X.a.ZX9X0XT.%., b.B.aXdX>X#Xa.N x f.#XB 3 & b aXN.m 6.4.4.4.4.4.4.",
"Z +.7.4.4.4.4.,.>.r 1 W .Xf.z `.>X` _ / /  Xa.;.4Xk.yX4X>.1 # = iXSXxXlX+XZ.' hXrXpXMX~.vXNX;XQ.@XXX).( k M.%Xn J 7.4.4.4.7.4.4.",
"Z 3.4.4.4.4.4.5.N.%.h T z R ^ >XL.P.G.g.#Xg # o '.GXAXg.1 h U U p.B.ZX9XzXu.pXiXhXE.iX0.L nX/.E ;.H.}.^ >.1. .3 a.4.4.4.4.4.4.4.",
"+.4.4.4.4.4.4.2.g.N.C t T p.z.h.j.,.,.&Xm d h I ) aXn.  < k U cXt.C.;XxXkX0XG.p.J a.gX+XQ.i.+XD l..Xd.^ O.O.b > 5.4.4.4.4.4.4.3.",
"3.4.4.4.4.4.4.4.X.>.m.} ^ d.S D L.,XDXCX@ 5 j U ^.qXJ.].7 G G P x.qXH.ZXkXkX9.- j d W ..E d.*X,XL.,Xl.! n C.p | 4.4.4.4.4.4.4.@.",
"4.4.4.4.4.4.4.4.r.n x.O.S M t.H.K.-XCX,XB I F Q e.4XaXdX>...r.G.&XrXOX XzXkXzXH d & 2 x.t.V l.H.g.S ( D 6.h.> <.4.4.4.4.4.4.4.+.",
"4.4.4.4.4.4.4.4.M.w n c h W t.d.oXVXQ.k 9 '  .r.+Xn.q.yXF.dXsXyXK.[.(.Q.fX9X9X0XX o & X.H.j.MXl.d.S h >.B.p  .4.4.4.4.4.4.4.3.&.",
"4.4.4.4.4.4.4.4.4.N 3 c p r ~ ). X$ = = 6 ] 5.wXq._ [ L.&XdXU.aXaXb.~.bX[.zXkXkX9.& B G.,XoX}.S x R O.E.;.3 2.4.4.4.4.4.4.4.Z =.",
"4.4.4.4.4.4.4.4.4.4., B Z.*.C p.m o @ l I W tXrX' OXZ.i f.R.yXqXdX+Xw./.(.iXkXkXD.N 9.8 ,XsX,Xd.R d.qXE.g n.7.4.4.4.4.4.4.&.Z 3.",
"4.4.4.4.4.4.4.4.4.4.%XL s.E.*.r 1 * 5 d I p.gXY.%XdXsXj.W a.E.tXrX>X>X0.q p.uXS.7.2Xg.B v.R.L.W m R.sXB 0.kX4.4.4.4.4.4.=.Z &.4.",
"4.4.4.4.4.4.4.4.4.4.7.6XN B J.K.y % 4 I Y t.Z.K.qXaXOXd @ % q =X` u.dX%XB q @X6.9X9Xb.l.d.z.d.h O.%X>.w kXkX4.4.4.4.4.&.Z =.4.4.",
"4.4.4.4.4.4.4.4.4.4.4.8X7X .v XXR.a r 1 E t.-.D x.CX~.l j - * q G.T.K.O.oXoX,XuXkXkXzXr.T h j >.J.;.N 7XlXlX7.4.4.3.&.Z &.4.4.4.",
"4.4.4.4.4.4.4.4.4.4.4.8X9X1XN c j.rX8.| ; m T l.r.XX@XI - o X 7 T.$XL.rXCXpXx.iXkXkXkX2Xm M 1.Y.X.0 5XlXlX1X4.4.+.A Z &.4.4.4.4.",
"4.4.4.4.4.4.4.4.4.4.4.1X1X7.7.o.c | O.4X#.r : l.l.l.N L 5 4 F m W -XC.d.-.^ c.*XkXkXlXlXy.>.I.b 0 5XlXlXlX8.3.+.Z +.&.4.4.4.4.4.",
"4.4.4.4.4.4.4.4.4.&.+.A 3.1X9XlX5X .y m.pXO.u v f.M -   < 4 2 W S ).V i f l S M P.kXlX9X9Xu.3 ] 9XkXkXlX8.&.Z Z 3.4.4.4.4.4.4.4.",
"4.4.4.4.4.3.3.+.Z Z &.4.1X9XlXlXkX9Xn.3 ..>.*.>.*.4. XM.>.C n ;.%.-.l x v n s %.D.kXkX9XlXA.9.8X8X6X&.+.+.+.&.4.4.4.4.4.4.4.4.4.",
"4.4.4.7.+.A A Z +.3.4.4.1X9XlXlXkXkX9XA.w 9 ..N.I.4XDXGXGXDXDX%XC D.N.2.;.v :.,.B.I.S.<X8.7.7.7.+.Z +.4.4.4.4.4.4.4.4.4.4.4.4.4.",
"4.4.=.Z Z Z A 3.<.4.4.7.4.4.7.4.4.4.4.4.7.4.%.n c N ;.M.L.G.r.r.x.L.C.k.>.:.C h 3 W 4.4.7.+.Z Z Z +.4.4.4.4.4.4.4.4.4.4.4.4.4.4.",
"4.&.Z Z Z =.3.7.4.4.4.4.4.4.4.4.4.4.4.4.4.4.<.Z A v c q q 9 c 3 g c v n | ;.*.1.V.4.4.4.+.Z Z Z 3.4.4.4.4.4.4.4.4.4.4.7.4.4.4.4.",
"4.+.Z +.&.4.4.4.4.4.4.4.4.4.4.4.4.4.4.4.4.4.=.Z A +.4.4.4.4.4.4.7.4.4.4.4.4.4.4.4.4.4.3.Z Z $.3.4.4.4.4.4.4.4.4.4.4.4.4.4.4.4.4.",
"3.Z Z 3.4.4.4.4.4.4.4.4.4.4.4.4.4.4.4.4.4.4.Z Z $.4.4.4.4.4.4.4.4.4.4.4.4.4.4.4.4.4.4.+.Z Z 4.4.4.4.4.4.4.4.4.4.4.4.4.4.4.4.4.4.",
"&.Z &.4.4.4.4.4.4.4.4.4.4.4.4.4.4.4.4.4.4.3.Z +.7.4.4.4.4.4.4.4.4.4.4.4.4.4.4.4.4.4.4.+.A 3.7.4.4.4.4.7.4.4.4.4.4.4.4.4.4.4.4.4.",
"Z Z 4.4.4.4.4.4.4.4.4.4.4.4.4.4.4.4.4.4.4.$.Z 3.4.4.4.4.4.4.4.4.4.4.4.4.4.4.4.4.4.4.3.Z +.4.4.4.4.4.4.4.4.4.4.4.4.4.4.4.4.4.4.4.",
"Z =.7.4.4.4.4.4.4.4.4.4.4.4.4.4.4.4.4.4.4.$.+.4.4.4.4.4.4.7.4.4.4.4.4.4.4.4.4.4.4.4.3.Z 4.4.4.4.4.4.4.4.4.4.4.4.4.4.4.4.4.4.4.4.",
"@.4.4.4.4.4.4.4.4.4.4.4.4.4.4.4.4.4.4.4.4.$.3.4.4.4.4.4.4.4.4.4.4.4.4.4.4.4.4.4.4.4.3.&.4.4.4.4.4.4.4.4.4.4.4.4.4.4.4.4.4.4.4.4.",
"&.4.4.4.4.4.4.4.4.4.4.4.4.4.4.4.4.4.4.4.3.+.4.4.4.4.4.4.4.4.4.4.4.4.4.4.4.4.4.4.4.4.A 3.4.4.4.4.4.4.4.4.4.4.4.4.4.4.4.4.4.4.4.$.",
"4.4.4.4.4.4.4.4.4.4.4.4.4.4.4.4.4.4.4.7.3.=.4.4.4.4.4.4.4.4.4.4.4.4.4.4.4.4.4.4.4.7.$.4.4.4.4.4.4.4.4.4.4.4.4.4.4.4.4.4.4.4.4.@."
};
