/* XPM */
static char *softc2[] = {
/* columns rows colors chars-per-pixel */
"64 64 254 2 ",
"   c #380702",
".  c #341305",
"X  c #490902",
"o  c #530D04",
"O  c #491507",
"+  c #561908",
"@  c #661B04",
"#  c #751A02",
"$  c #522615",
"%  c #652407",
"&  c #74270A",
"*  c #763409",
"=  c #6E2E13",
"-  c #6A2B17",
";  c #773713",
":  c #5E3D26",
">  c #3A5102",
",  c #484C01",
"<  c #594902",
"1  c #4C5702",
"2  c #585702",
"3  c #655B03",
"4  c #744B10",
"5  c #496603",
"6  c #546703",
"7  c #597803",
"8  c #706B0A",
"9  c #667803",
"0  c #747508",
"q  c #714833",
"w  c #7E762B",
"e  c #872A06",
"r  c #942D04",
"t  c #893509",
"y  c #983706",
"u  c #8A3818",
"i  c #983B14",
"p  c #A83904",
"a  c #B33802",
"s  c #A53C16",
"d  c #873F25",
"f  c #9B4306",
"g  c #8D4F11",
"h  c #994619",
"j  c #A94607",
"k  c #B84907",
"l  c #AC560A",
"z  c #B75509",
"x  c #A54816",
"c  c #B94B17",
"v  c #AA5616",
"b  c #B95618",
"n  c #8E7009",
"m  c #B56B17",
"M  c #B86219",
"N  c #8D4F2E",
"B  c #974622",
"V  c #A84C28",
"C  c #B64C22",
"Z  c #AA5528",
"A  c #B75727",
"S  c #A35A35",
"D  c #B35A36",
"F  c #9B7421",
"G  c #BA6428",
"H  c #B7732F",
"J  c #A96739",
"K  c #B96839",
"L  c #C44D05",
"P  c #C94C0A",
"I  c #D14A04",
"U  c #C75709",
"Y  c #D55909",
"T  c #C85917",
"R  c #D55C19",
"E  c #CD6309",
"W  c #D3640C",
"Q  c #D86808",
"!  c #D8730D",
"~  c #C86617",
"^  c #D86717",
"/  c #CA7318",
"(  c #D87518",
")  c #E56909",
"_  c #E67708",
"`  c #F37A08",
"'  c #E36919",
"]  c #E67917",
"[  c #F27A17",
"{  c #C65C27",
"}  c #D15A21",
"|  c #C76726",
" . c #D46C23",
".. c #D86828",
"X. c #C87B27",
"o. c #D87829",
"O. c #C66A37",
"+. c #D66B34",
"@. c #C8753A",
"#. c #D87837",
"$. c #E46D24",
"%. c #E67726",
"&. c #F77622",
"*. c #F77A23",
"=. c #F37F2C",
"-. c #E37735",
";. c #855B43",
":. c #976548",
">. c #936D52",
",. c #AE704B",
"<. c #BA764C",
"1. c #BB7955",
"2. c #AD7C61",
"3. c #C97648",
"4. c #CF7449",
"5. c #D77946",
"6. c #C67C57",
"7. c #5C8402",
"8. c #688605",
"9. c #648B03",
"0. c #758903",
"q. c #699203",
"w. c #779803",
"e. c #718B17",
"r. c #7AA502",
"t. c #7C922E",
"y. c #8F9112",
"u. c #84A704",
"i. c #88AF07",
"p. c #8E972D",
"a. c #A39F28",
"s. c #B38931",
"d. c #B1A232",
"f. c #F3880A",
"g. c #F08C09",
"h. c #E98616",
"j. c #EC831C",
"k. c #F28918",
"l. c #ED951C",
"z. c #F59619",
"x. c #FAA31A",
"c. c #D88627",
"v. c #D58E36",
"b. c #D9843B",
"n. c #E88728",
"m. c #F88526",
"M. c #F98728",
"N. c #F58928",
"B. c #ED9428",
"V. c #F49926",
"C. c #F3932B",
"Z. c #FA942C",
"A. c #FB992D",
"S. c #E78636",
"D. c #F28B39",
"F. c #EB9637",
"G. c #F29333",
"H. c #F59B37",
"J. c #DDA132",
"K. c #F8A528",
"L. c #E9A334",
"P. c #F4A335",
"I. c #FCA331",
"U. c #FEAE34",
"Y. c #F3A23B",
"T. c #F9AA3A",
"R. c #FEB237",
"E. c #FAB63F",
"W. c #AF9B50",
"Q. c #B78B66",
"!. c #BB9468",
"~. c #B38D70",
"^. c #BBA966",
"/. c #C98D4D",
"(. c #DA8547",
"). c #D6964C",
"_. c #C88557",
"`. c #D88958",
"'. c #DA955A",
"]. c #EC8C44",
"[. c #E48748",
"{. c #F38D42",
"}. c #E79748",
"|. c #EC934D",
" X c #F29543",
".X c #F39C44",
"XX c #F29B4C",
"oX c #E68C53",
"OX c #E89757",
"+X c #F39B54",
"@X c #D0A656",
"#X c #F5A243",
"$X c #F5AB44",
"%X c #F7AA49",
"&X c #FDBD44",
"*X c #F9B34A",
"=X c #EDAF52",
"-X c #EBA75A",
";X c #F3A354",
":X c #F4A958",
">X c #F6B35B",
",X c #F9B659",
"<X c #C98C66",
"1X c #D38B64",
"2X c #CB9269",
"3X c #D89867",
"4X c #C9967B",
"5X c #D99C75",
"6X c #E69A66",
"7X c #E99E6F",
"8X c #D8A369",
"9X c #D1B56F",
"0X c #CCA67B",
"qX c #DAA77A",
"wX c #EAA868",
"eX c #F3A967",
"rX c #F6B868",
"tX c #E7A776",
"yX c #EEAF73",
"uX c #ECB379",
"iX c #F4B776",
"pX c #FBC74D",
"aX c #F8CA51",
"sX c #FAD657",
"dX c #FEDB58",
"fX c #FDE35F",
"gX c #DAC16C",
"hX c #F1D46B",
"jX c #F9C377",
"kX c #FEE761",
"lX c #FEE861",
"zX c #BBA38A",
"xX c #CFAE8B",
"cX c #D9AA85",
"vX c #D8B795",
"bX c #E6AC84",
"nX c #E8B687",
"mX c #F4BB86",
"MX c #E5BB95",
"NX c #F2BF93",
"BX c #F6C588",
"VX c #F4CF8B",
"CX c #ECC698",
"ZX c #F5C797",
"AX c #EBCCA7",
"SX c #F3CCA6",
"DX c #EED4AC",
"FX c #F3D4A7",
"GX c #EBD2B4",
"HX c #F3D9B4",
"JX c #FAE1BE",
"KX c #F6DEC1",
"LX c #F2E6CB",
"PX c #F5E6CE",
/* pixels */
"U.U.U.U.U.U.U.U.U.U.U.U.U.U.U.U.U.U.U.U.*.I.U.U.U.U.U.U.U.U.U.U.U.U.U.U.U.U.U.U.U.M.Z.U.U.U.U.U.U.U.U.U.U.U.U.U.U.U.U.U.U.U.I.M.",
"U.U.U.U.U.U.U.U.U.U.U.U.U.U.U.U.U.U.U.Z.M.U.U.U.U.U.U.U.U.U.U.U.U.U.U.U.U.U.U.U.I.&.U.U.U.U.U.U.U.U.U.U.U.U.U.U.U.U.U.U.U.R.m.I.",
"U.U.U.U.R.U.U.U.U.U.U.U.U.U.U.U.U.U.U.m.M.U.R.U.U.U.U.U.U.U.U.U.R.U.U.U.U.U.U.U.Z.&.U.U.U.U.U.U.U.U.U.U.U.U.U.U.U.U.U.U.U.I.&.A.",
"U.U.U.U.U.U.U.U.U.U.U.U.U.U.U.U.U.U.m.&.I.U.U.U.U.U.U.U.U.U.U.U.U.U.U.U.U.U.U.Z.[ A.U.U.U.U.U.U.U.U.U.U.U.U.U.U.U.U.U.U.I.&.m.U.",
"U.U.U.U.U.U.U.U.U.U.R.U.U.U.U.U.U.m.*.I.U.U.U.U.U.U.U.U.U.U.U.U.U.U.U.U.U.U.A.&.Z.U.U.U.U.U.U.U.U.U.U.U.U.U.U.U.U.U.U.I.&.M.U.U.",
"U.U.U.U.U.U.U.U.U.U.U.U.U.U.U.U.m.&.I.U.U.U.U.U.U.U.U.U.U.U.U.U.U.U.U.U.U.Z.&.A.U.U.U.U.U.U.U.U.U.U.U.U.U.U.U.U.U.U.I.&.M.U.U.U.",
"U.U.U.U.U.U.U.U.U.U.U.U.U.I.A.&.*.I.U.U.U.U.U.U.U.U.U.U.U.U.U.U.U.U.I.I.&.&.Z.U.U.U.U.R.U.U.U.U.U.U.U.U.U.U.U.U.I.m.&.m.U.U.U.U.",
"U.U.U.U.U.U.U.U.U.U.U.U.I.*.&.&.I.U.U.U.U.U.U.U.U.U.U.U.U.U.U.U.U.U.m.&.&.A.U.U.U.U.U.U.U.U.U.U.U.U.U.U.U.U.U.Z.&.&.M.U.U.U.U.U.",
"U.U.U.U.U.U.U.R.R.I.I.m.&.m.Z.U.R.U.U.U.U.U.U.U.U.U.U.U.U.U.U.I.A.&.*.m.R.T.R.U.R.U.U.U.U.U.U.U.U.U.U.U.I.A.&.[ m.I.U.U.U.U.U.U.",
"U.U.U.U.U.U.U.Z.M.*.&.&.A.R.U.U.R.R.U.U.U.U.U.U.U.U.U.T.I.m.m.&.&.A.I.,XOXwXU.U.U.U.U.U.U.U.U.U.U.U.M.M.&.&.*.I.U.U.U.U.U.U.U.U.",
"U.U.U.U.I.m.&.&.*.m.U.I.U.U.pXdXfXlXfXfX&XE.E.T.U.J.a.p.^.6XN.Z.:XK.C.S.o.4.jXfXfXpX&XpXR.U.U.U.U.m.&.m.M.M.U.U.U.U.U.U.U.U.U.U.",
"U.U.I.m.&.&.&.A.I.R.pXdXdXdXfXfXfXfXpXP.k._ T ^.0.8.9.9.w.p.n o.|.%.o.7X6Xb._ _ B.aXfXfXaXU.U.U.m.&.I.U.U.R.U.U.U.U.U.U.U.U.U.U.",
"U.I.&.&.[ *.Z.U.U.U.kXkXfXfXfXaXH.f.K.z.z.( N w 9 q.8.q.w.r.w.0 / E 5.b.(.W L } h.v.J.fXR.U.I.M.Y.dXkXkXdXU.U.U.U.U.U.U.U.U.U.U.",
"U.M.&.&.m.U.U.U.U.U.kXkXfXpXj.V.` ` I.V.g.W v s.e.8.7.9.w.w.u.0.n b T T { k p a U ( Q  .#XU.U.aXkXkXkXkXdXU.U.U.U.U.U.U.U.U.U.U.",
"I.&.*.I.U.U.U.U.U.U.kXsXY.` K.I.k.n.jXS.^ ~ |.F 8.9.9.q.w.r.w.q.8./.(.6.Z s y p a Y L U A tXhXkXlXfXkXlXdXR.U.U.U.U.U.U.U.U.U.U.",
"I.&.*.U.U.U.U.U.R.T.aXl.` ` h.*.XXH.>XOX_.rX+XvXp.7 7 7 8.q.q.9.8.g /.'.nX0X:.e s `.`.T j @./ n.%XhXkXkXkXpXU.U.U.U.U.U.U.U.U.U.",
"&.&.U.U.U.U.U.U.P.B.f.f.H.D.-.H.%XjXmXyX+.rX[.uXvX9 5 6 6 7 7 7.8.0 J nX>X^.a.y.y.@XmXOXK A 4.~ n.] H.sXlXpXR.U.U.U.R.U.U.U.U.U.",
"&.A.U.U.U.U.U.iX#XY.f.6X-.eXmXT.%X%X+XD ,.NXSXtXOX3Xy.9 1 8.5 5 6 6 h ).p.t.i.w.0.0.a.eX1Xi s x 3.5.j.K.*X&XU.U.U.U.U.U.U.U.U.U.",
"*.I.U.U.U.U.U.}.I. X[ +XmX6XrXf.I.%XZXSXNXZXHXbX[.wXqX/.8 6 6 > > 8 c.9 e.t.e.9 0 0.d.;X`.@.@.K O.3X`.`.H 0X>XR.U.U.U.U.U.U.U.U.",
"M.U.U.U.$X,XeX+XD.XXV.Y.NX>X%X` ` mXmXuXSX7XtX+XiX-XwX3X:.2 e.5 1 2 0 7 q.w.e.6 9 d.).(.6X| 4.3XnXMX1X4.4.tXxXqXU.U.U.U.U.U.U.Z.",
"U.U.R.%X X:X` bXmX{.` M.K.H.*.' cXPXKXHXLXMX-XBXjXrXuXG Z ; < , 1 6 6 0.9 2 6 9 p.hX/.yXuX(.3.qX2X_.O.3.4.|.eXOXOXU.U.U.U.U.U.m.",
"U.R.T.S.S.:XNXyXeXmX+XZ..XG.^ ..rXBXuXMXAXuXrX,X}.@.v b f 3 0.0.8 g m 0 9 0.a.9XFXFXCXnXCXoX3.B ; @ u V @.OXuXoX( G.*XU.U.U.I.*.",
"U.U.P.^ G.=.$.|.+X+XH._ S.oXc s [.%.wXyXZXH.] z v f O.H p.r.u.9 9 y.h @.3XwXwXDXDXVXCXHXCXOX8X+ N 2.vX1.<.O.| ..S.B.@XT.U.U.A.I.",
"U.U.D.b W ) ) {.{.' $.' ;XcXD 1X+...6Xn.n.^ j Z l #.s.w.r.u.u.9 y.q.W.H '.CXnXDXCXS '.uXwX-X=X<X<XnXcXcX5XO.T [.c.j.B.8XU.U.&.I.",
"U.H.-.T j _ Z..X].bXSXeXmXcXV d V +.4.[.%.-.`.bXvXMXw 9.q.i.i.i.w.7 g H (.bXSXnXOX:.3.>XZXFXuXyXnXCXMX_.1Xx A O.~ #.B.0X*Xm.&.I.",
"U.n.~ r @ z.U.%.U P c Z.iXV { d C cX1X+.5.NXKXSXSXGXW.7 7.r.i.i.w.9 4 /.| yXSXuXyX:.A H.rXCXBX-XK | #.6._.h i T /.(.] ZXbX&.I.U.",
"R.@.N $ g K.x.[.6.V %.m.H.4.+.5.6XGXMXbXHXPXPXPXLXCX7 7.q.i.u.0.0.8.4 q 6.tX6XeX' G u |.XX+XmXrX8XX % S h r f Q C.j.^ h.'.T.R.U.",
"U.(.1X<.b n.@.K s ].[ ;X:XOXbXPXGXZX].SXVXVXJXPXDX^.7.9.r.e.8.9 0.0.2 ; 1.`.7XmXD.(.d #.oX XeXeXnXq   @ t B `.Y S._ ! ^ ( H.U.U.",
"U.S.^ R U Y | 7X{.*.&.ZXoXoXZXrXZXrXBXiX6XiXVXFXCX^.9.q.e.q.9 9 9 3 3 ; K 5.6X6X{.OX- A ].D. XeX-X,.o = V _.#.( '. ./ ~ A 2XU.U.",
"R.^ E -...XXiX`.)  X=.+.mXZXjXjX,X:XBXoX-.-.iXZXVXe.7.9.e.6 6 3 3 3 . . h b.mXoX$.+X;.= ..{.eX%XXXE N K b (.b.o.U | v j h.X.U.U.",
"R.g c.] $.b / n.[ +X=.eX,XT.H.A. X|.[.#.{ k %.[.wX8.7 7 , 1 < < 4 ,.$ $ V ..{.{ { -.,.o Z %.-X=XwXW t Z O.`.MXbXj j / g.l.] U.U.",
"U.S v.B.n.P T m.yX{.eXT.&X*X.XS.$.4.O.L a y T [.H 6 5 , , 1 < ; * @ . : K -.} D j 3XB X >...XX#Xv ! ~ V 3.5X1X3Xv c.l.z.B.( G.U.",
"T.Q./.L.k.%.D.T.].;XK.K.,XrX{.5.4.4.s r r o j S.b.2 6 2 3 < % * ; ; ;.~.S Y T :.qXA.o.O $ j n.%Xo.B.! j 2X5XY Y | h.B.] ! U n.R.",
"R.W.!.B.z.XX.X%.Y Q [ Z.Z.5.k 6.~.# # # = = h n.wXF F g * % g Q.2X2.cX<.J ( |.yXrXB. .  $ h $.N.rXP.[ @.j ~ ! ! E Q ( / f D /.R.",
"U.<XQ.c.f..XG.I a T P ) ..p y e i e B V D e D c.=XyXb.M v @ :.AXDXCXqX<X2X+XiX,XH._ ^ . $ O T _ N.M.$.R l / ( I U b G f e !.MXU.",
"I./.!.<Xk.[ _ I I R Y a r # @ y c p 3.6.7X1X} W =X-XS.S.@.Q.- tXwX'.8XMXyX:X+X%X$XwXA u 2X5XO.W ^ ' b.z l z z k L W E G >.xXcXU.",
"I.cX!.MXP.+X^ L P ..r # # r ..^ k { 5XNXuX5.$...n.uX].#XP.6X+ vXmX-X(.qXeX%XeX.XeX@.j '.`.3X`.P r y f f f f y T Q _ n.S.HXxXxXR.",
"n.nXxX=XH.;X^ L r ;.  t R ' T C x D [.].D.n.].^ ] %.eXBX:XF.@ qX-XXX3XtX;X,X#XeXo.| `.oX6X#.+.z j j f r r A { L Q _ ) _ uXvXxXU.",
"*.nX/.*XD.;XP k @ @ t i k L b 3X6XtXG. X) %.%.T $.-.HXrXz.;X_.CXOX..1X#XI.,XV.C.' O. .6X#.G z l S t j T L } O.6.U Q L U W c.wXU.",
"&.'.*XF.S.%.c V K ..n.) -.+X%.F.iXiXV.k.) ^ T p T ) 6XS.V.z.#.O.n.A 3.>Xz.jXT.C.(.v b b j x 4XA 3X( ' ^ U R T s z P T b ~ ! H.U.",
"N.-XB.%.T L p e R n..X XoX{.l.U.&X*Xz.g.Q I y # c %.uXD.k.z.].CXtXi -.V.T.BXjX6X6.y x h y 1X@.' ] _ Y #.| k b ~ T v x v H K T.K.",
"I.=X}.OXk k i Z ^ n.]. XA.k._ / / f.) E k e X X & k 1X5.%.A. X@.,.- H.M.T.iXiXuXcX<.3X(.#.[.-.OX] oX5X`.k b b <.x e g N ,.Y.R.M.",
"R.U.}.c.| <.r T ] ) U V.n.k k U c.V.Y p e +   X O 3.R oX) +XeX}.O <.N.Z.K.H.+X7X<X`.oXXXF.G.[.+.%.`.G i j | 8Xc.m - : ,.-XU.U.m.",
"U.U.T.(.@.Q.U Q k c z Q W ..D.F.V.U r x T P 6.S   O...T 5.' -.-.zXeXz.#X*XY.] V & t z Q H.] T 1XA p r l ( OXl.V.v q >.8XU.U.I.A.",
"U.U.R.}.>.;.q * M #.].5. .[.o.M r p T %..XF. X6Xc Z #.S.5.) ].OXFX:X%X%XeXXX .t o   @ & Z U (.K j ~ ( l.L.L.=XJ.,.N 8XU.U.U.[ A.",
"U.U.R.U.tXQ.,.c.$XP.K.G.^ +.<X~.y P ' %.n.rX:X] #.+.j o.' -.S.mXmXA.&XH.f.` E y - X % N % v ).-Xk.k.h.o.~ c.F.X.J 2XU.U.U.Z.&.I.",
"U.U.U.U.U.mX0XG S.F.=X*XV.O.6.wX`.p c R -.].B.B.C.yX[.$.} Y ..ZXXX%XR.T.f._ E H ~.2.~.ZXmXrXrXR.P.l.h.h.( m ! H 9XT.U.U.Z.&.Z.U.",
"U.U.U.U.U.E.aX/._.#.! B.rX=XD.[ ] ] $.T +.oXO.S.|.eX:X+X-...I R M.,Xz.P.g.Q | | bXtXNXiX>XrXz.P.$Xl.F.c.E M @.v.T.R.U.Z.&.Z.U.U.",
"U.U.U.U.U.U.U.U.8XvX<.! ] h.G.H.C.T.P.] -.+.4...oX7X;X XR C r z H.*X).aXl.Y / 3.oX-XY.$XP.H.F.c.c.! o.H S @XY.U.U.K.Z.&.Z.U.U.U.",
"U.U.U.U.U.U.U.U.R.}.,.<.6.U ! B.$XrXI.B.k.f.f.j.=.=.#.j # r c %.#X%Xz.g._ W '.`..XH._  XS.] W (.~ v ; vXhXpXT.R.N.*.&.Z.U.U.U.U.",
"U.U.U.U.U.U.U.U.R.U.$X0XxXv c E _ z.z.G.H.z.Z.Z.;XW b e j | #.z.,XS.z ! _ ! [.[. XC.n.] W ^ z h = ~.gXkXkXE.I.m.&.m.Z.U.U.U.U.U.",
"U.U.U.U.U.U.U.U.R.C.m.*.F.@X/.Q.K Q ! _ k.V.V.z i p & j j f l U.! j z ! z #.( }.+Xn.n.6X| A S >.9XhXlXlX&XZ.&.&.I.U.U.U.U.U.U.U.",
"U.U.U.U.U.I.I.m.&.[ V.U.pXfXlXfXhX@Xm ~ E ! M % x =   s e = b ! y k ( ! z h.h.o.n.! b 1.5XqXrXhXfXsXA.m.M.M.Z.U.U.U.U.U.U.U.U.U.",
"U.U.U.R.m.*.*.&.m.I.U.U.pXfXfXlXkXkXfXpXL.'.4 S q ;.S cX2.>.o.5Xj b.#.( #XB.c.6.6XxXxXvXZX*XR.U.m.*.*.U.U.U.U.U.U.U.U.U.U.U.U.U.",
"U.U.A.&.&.&.*.I.U.U.U.U.U.U.R.R.U.U.U.U.T.R.U.H...`.7XMXMX0XtXvXv MX'.P.V.v.3XBXiXrXeX*XU.m.&.&.[ m.U.U.U.U.U.U.U.U.U.U.U.U.U.U.",
"U.C.&.&.&.A.I.U.U.U.U.U.U.U.U.R.U.U.U.U.U.U.I.*.&.&.m.Z.R.U.U.U.T.U.U.R.U.U.R.U.R.U.R.T.m.&.&.*.I.U.U.U.U.U.U.U.U.U.U.U.U.U.U.U.",
"T.m.&.M.Z.U.U.U.U.U.U.U.U.U.U.U.U.U.U.U.U.U.A.&.*.M.U.U.U.U.U.U.R.U.U.U.U.U.U.U.U.U.U.I.&.&.M.I.U.U.U.U.U.U.U.U.U.U.U.U.U.U.U.U.",
"A.&.&.I.U.U.U.U.U.U.U.U.U.U.U.U.U.U.U.U.U.U.&.&.M.U.U.U.U.U.U.U.U.U.U.U.U.U.U.U.U.U.U.M.&.&.U.U.U.U.U.U.U.U.U.U.U.U.U.U.U.U.U.U.",
"A.&.Z.U.U.U.U.U.U.U.U.U.U.U.U.U.U.U.U.U.U.I.[ m.R.U.U.U.U.U.U.U.U.U.U.U.U.U.U.U.U.U.U.m.*.I.R.U.U.U.U.U.U.U.U.U.U.U.U.U.U.U.U.U.",
"&.&.U.U.U.U.U.U.U.U.U.U.U.U.U.U.U.U.U.U.U.m.&.I.U.U.U.U.U.U.U.U.U.U.U.U.U.U.U.U.U.U.A.&.M.U.U.U.U.U.U.U.U.U.U.U.U.U.U.U.U.U.U.U.",
"&.I.U.U.U.U.U.U.U.U.U.U.U.U.U.U.U.U.U.U.R.M.m.U.U.U.U.U.U.U.U.U.U.U.U.U.U.U.U.U.U.U.I.&.R.U.U.U.U.U.U.U.U.U.U.U.U.U.U.U.U.U.U.U.",
"M.U.U.U.U.U.U.U.U.U.U.U.U.U.U.U.U.U.U.U.U.M.I.U.U.U.U.U.U.U.U.U.U.U.U.U.U.U.U.U.U.U.I.A.U.U.U.U.U.U.U.U.U.U.U.U.U.U.U.U.U.U.U.U.",
"Z.U.U.U.U.U.U.U.U.U.U.U.U.U.U.U.U.U.U.U.I.m.U.U.U.U.U.U.U.U.U.U.U.U.U.U.U.U.U.U.U.U.*.I.U.U.U.U.U.U.U.U.U.U.U.U.U.U.U.U.U.U.U.M.",
"U.U.U.U.U.U.U.U.U.U.U.U.U.U.U.U.U.U.U.R.I.A.U.U.U.U.U.U.U.U.U.U.U.U.U.U.U.U.R.U.U.R.M.U.U.U.U.U.U.U.U.U.U.U.U.U.R.U.U.U.U.U.U.M."
};
