/* XPM */
static char *softc6[] = {
/* columns rows colors chars-per-pixel */
"64 64 255 2 ",
"   c #090404",
".  c #160908",
"X  c #19100E",
"o  c #1B1516",
"O  c #2C0A07",
"+  c #2A130B",
"@  c #37170B",
"#  c #291815",
"$  c #351A12",
"%  c #2C221E",
"&  c #382416",
"*  c #1E1E20",
"=  c #352D29",
"-  c #4B150A",
";  c #6C170C",
":  c #761909",
">  c #50290F",
",  c #472917",
"<  c #562817",
"1  c #58361A",
"2  c #6C2F15",
"3  c #7B3719",
"4  c #483126",
"5  c #593826",
"6  c #6D3D26",
"7  c #514F15",
"8  c #75491C",
"9  c #544332",
"0  c #68472A",
"q  c #7A4926",
"w  c #674B34",
"e  c #745231",
"r  c #785636",
"t  c #706F22",
"y  c #725943",
"u  c #76644F",
"i  c #656158",
"p  c #970C07",
"a  c #AE150B",
"s  c #8D3411",
"d  c #AE2F0F",
"f  c #A53617",
"g  c #8D3625",
"h  c #AB372C",
"j  c #CB0E08",
"k  c #D12D0F",
"l  c #C73809",
"z  c #D93909",
"x  c #EA2D08",
"c  c #E73907",
"v  c #E5331F",
"b  c #D43425",
"n  c #8F4A17",
"m  c #97461A",
"M  c #AF4D0F",
"N  c #BA570B",
"B  c #A64819",
"V  c #B64817",
"C  c #B85618",
"Z  c #B96517",
"A  c #B66811",
"S  c #BA741A",
"D  c #884825",
"F  c #984726",
"G  c #995728",
"H  c #8D5131",
"J  c #875A35",
"K  c #A94B2A",
"L  c #A85828",
"P  c #B75629",
"I  c #B54932",
"U  c #A75A35",
"Y  c #8F6737",
"T  c #97673A",
"R  c #A6672A",
"E  c #B76628",
"W  c #AD732A",
"Q  c #BA742A",
"!  c #A56A38",
"~  c #B86834",
"^  c #A87239",
"/  c #B87737",
"(  c #DA4708",
")  c #CE520F",
"_  c #C74718",
"`  c #D7571A",
"'  c #E94707",
"]  c #F04E0B",
"[  c #E95708",
"{  c #E85A17",
"}  c #D36A0C",
"|  c #C6671A",
" . c #D76718",
".. c #C8771A",
"X. c #D5791A",
"o. c #E6650B",
"O. c #F16B0E",
"+. c #F67508",
"@. c #E66717",
"#. c #E7761A",
"$. c #C95824",
"%. c #D05229",
"&. c #E9552B",
"*. c #C76726",
"=. c #D66926",
"-. c #C97A27",
";. c #D57A27",
":. c #CA6937",
">. c #C97836",
",. c #D97736",
"<. c #E87A28",
"1. c #F77522",
"2. c #F57A25",
"3. c #E66836",
"4. c #ED7231",
"5. c #E77837",
"6. c #8B6E4F",
"7. c #956B45",
"8. c #9C7249",
"9. c #9A7956",
"0. c #AA6847",
"q. c #A7654E",
"w. c #A97848",
"e. c #B77947",
"r. c #A67B55",
"t. c #B77252",
"y. c #8F7964",
"u. c #CB5546",
"i. c #D26E4D",
"p. c #C77B45",
"a. c #DA7946",
"s. c #E8764D",
"d. c #E1705E",
"f. c #65830C",
"g. c #7A8050",
"h. c #979917",
"j. c #B98639",
"k. c #D2821B",
"l. c #F28916",
"z. c #CC852B",
"x. c #D88729",
"c. c #D58B2D",
"v. c #CA8738",
"b. c #D48837",
"n. c #DB8C33",
"m. c #DB8D3A",
"M. c #CF9136",
"N. c #DA9136",
"B. c #DD933B",
"V. c #ED862F",
"C. c #F88526",
"Z. c #F88828",
"A. c #E8972A",
"S. c #FA952C",
"D. c #E68A36",
"F. c #E79837",
"G. c #E2943C",
"H. c #E49A3D",
"J. c #F49A38",
"K. c #FCA331",
"L. c #F8AC37",
"P. c #FEAE34",
"I. c #F4A639",
"U. c #FBAD3B",
"Y. c #9E975A",
"T. c #BA864B",
"R. c #AB8558",
"E. c #B48D53",
"W. c #B78857",
"Q. c #92896D",
"!. c #A88966",
"~. c #B88C64",
"^. c #BB9567",
"/. c #AD9673",
"(. c #BA9977",
"). c #B6AF75",
"_. c #CA8747",
"`. c #D88947",
"'. c #CA944A",
"]. c #DA9547",
"[. c #C78956",
"{. c #D88A56",
"}. c #C79459",
"|. c #D89857",
" X c #E78947",
".X c #F48B47",
"XX c #E89746",
"oX c #E49B44",
"OX c #E49D4B",
"+X c #F5994A",
"@X c #E68857",
"#X c #E69857",
"$X c #F49A58",
"%X c #D8A759",
"&X c #ECA344",
"*X c #E6A24A",
"=X c #EAA34B",
"-X c #F4A946",
";X c #E9A758",
":X c #F5A858",
">X c #F4B150",
",X c #F5B35A",
"<X c #CA8D6E",
"1X c #C69968",
"2X c #D69867",
"3X c #E88F6C",
"4X c #E69768",
"5X c #CBA36A",
"6X c #D8A569",
"7X c #CFB76E",
"8X c #CAA577",
"9X c #D5AA77",
"0X c #D9B37C",
"qX c #E8A865",
"wX c #F3A768",
"eX c #ECB86A",
"rX c #F3B766",
"tX c #EAA976",
"yX c #F0A878",
"uX c #EBB576",
"iX c #F3BA79",
"pX c #D2C965",
"aX c #F2C477",
"sX c #B7AC8F",
"dX c #ADA395",
"fX c #CAA984",
"gX c #D6AB87",
"hX c #D9B789",
"jX c #CCAD94",
"kX c #C9B492",
"lX c #D9BB96",
"zX c #E7AB88",
"xX c #EBB987",
"cX c #F4B989",
"vX c #E7BA94",
"bX c #DAC497",
"nX c #D8CB92",
"mX c #F3C687",
"MX c #E9C899",
"NX c #F0CD93",
"BX c #F5E09F",
"VX c #DAC7A4",
"CX c #D5C8AE",
"ZX c #E6CAA6",
"AX c #F0CBA9",
"SX c #EAD4A6",
"DX c #F3D6A7",
"FX c #EAD9B7",
"GX c #F3D8B8",
"HX c #EDE2AF",
"JX c #F3E3B9",
"KX c #E9D9C3",
"LX c #EDE5C8",
"PX c #F2E7C8",
"IX c #F2EBD3",
/* pixels */
"P.P.P.P.P.P.P.P.P.P.P.P.P.P.P.P.P.P.P.P.1.K.P.P.P.P.P.P.P.P.P.P.P.P.P.P.P.P.P.P.P.Z.S.P.P.P.P.P.P.P.P.P.P.P.P.P.P.P.P.P.P.P.K.C.",
"P.P.P.P.P.P.P.P.P.P.P.P.P.P.P.P.P.P.P.S.C.P.P.P.U.>X:XOXH.&X=XoXOX&X*X,X;X-XU.P.K.1.P.P.P.P.P.P.P.P.P.P.P.P.P.P.P.P.P.P.P.P.C.K.",
"P.P.P.P.P.P.P.P.P.P.P.P.P.P.P.P.P.P.P.C.Z.P.I.-X=X=XoXG.N.c.M.c.B.oX*X=X&XoXoXG.F.V.P.P.P.P.P.P.P.P.P.P.P.P.P.P.P.P.P.P.P.K.1.S.",
"P.P.P.P.P.P.P.P.P.P.P.P.P.P.P.P.P.P.C.<.F.n.n.D.x.c.'.v.W R ^ R R j.'.'.N.c.x.n.XXOX=X&X-X-XP.P.P.P.P.P.P.P.P.P.P.P.P.P.K.2.C.P.",
"P.P.P.P.P.P.P.P.P.P.P.P.P.P.P.P.U.D.,.m.n.N.A ) M P }.T.8.w.E.(.T J }.Z A -.Q z.-.M.*XB.G.OXI.P.P.P.P.P.P.P.P.P.P.P.P.K.2.C.P.P.",
"P.P.P.P.P.P.P.P.P.P.P.P.P.P.-XoXm.b.z.c.B.} M h (.1Xw.R.T J 8 2 0 2 w.[.>.E L E.R n Q M.B.H.N.F.P.P.P.P.P.P.P.P.P.P.K.1.C.P.P.P.",
"P.P.P.P.P.P.P.P.P.P.P.P.U.:X].].m.B...| x.E $.9XlX8X7.e & 2 ) N - 5 J bX;.s / 9XY T D 3 M c.c.M.n.J.P.P.P.P.P.P.K.C.1.C.P.P.P.P.",
"P.P.P.P.P.P.P.P.P.P.P.-X;X].m.b.;.-.f d t.qX=.tX1X6.4 % r ) +.l.D , u xXA.*.zXsX0 & 1 q 3 n z.M.n.G.&XU.P.P.P.S.1.1.C.P.P.P.P.P.",
"P.P.P.P.P.P.P.U.P.P.U.#XOX].c...Z M _ l i.4XcXNXfXJ 5 6.0.[  .) 0 o X w xX .@.0.lXp.Y 6.8 H 8 A k.N.=XOX-XS.1.1.C.K.P.P.P.P.P.P.",
"P.P.P.P.P.P.P.S.C..XqXOX].B.z./ G W.R d ] ] d.GXFX!.9.~.U [ o.f o y Q.. 5XK.l.+.{.|._.t t 7 e G W c.oX*XOX.XC.K.P.P.P.P.P.P.P.P.",
"P.P.P.P.K.C.1.1..XqX;X*Xc.-.W e.w.8X9.0 6 d.] s.GXZXlXvXU ' ( D   9 i 9 |.rXJ.l.N z.j./ q u 7 8 T W M.*XOXOX-XP.P.P.P.P.P.P.P.P.",
"P.P.K.C.1.1.1.-XqXOXoXb.j.W.1XfX^.y y kXR.vX&.x i.zXvXt.! _ f w.y.w w Q.MXcXDX$XA S _.'.Q 9Xy.7 Y.nXQ -.G.].].-XP.P.P.P.P.P.P.P.",
"P.K.1.1.1.C.+XqX*XH.k.s w.W.gXfX~.6.kXzX3.4.4.1.4.s.&.( d ~ / [.fX9XvXKXAXGXPXGXX.M.|.`.5.2X~.e Y.).nXR z.N.B.].-XP.P.P.P.P.P.P.",
"P.C.1.1.C.>X;XOXN...Q s J ^.R.!.y 7.e.&.4.O.O.{ ' v 3.5.3.$.p.t.i.s.KXcXAXDXGXcX+XqXqX:XrXD.uX%X%XE.t 9 ).'.N.c.#X>XP.P.P.P.P.P.",
"S.1.2.K.-XqXOXoX..M P p.q (.r 6., + w. X.XC.$XGXd.3.z '  .5.$.gX3Xc s.wXcXDXmXwX$XwXrXD.J.+X+XF.H.mX).Y n R N.n.B.qXP.P.P.P.P.P.",
"K.1.C.P.qXOXOXN.M s ,.hX3 9 9 y.5 @ r @X$XS.1.4.&.4.' k a ` s.zXGX&.] +.s.cXaX$X@Xs.{.MX+X+X$XJ.} pXBXj.8 ! j.x.B.OX,XP.P.P.P.P.",
"2.1.P.>X;X#XB...N V {.FXQ.o * o 9 e 8.T.XX$X1.] { o.[ z ( ( <. XVXfX3Xs.&.$XmX}.6 < 9.MXV.$Xs.wXBXJXnXE.t T.R S B.OX;XU.P.P.P.P.",
"1.S.P.qXOXOXN.} f s ,.NXi e /.*   u R.T :.$X.X5.&.3.=.{ 3.,.5.$.q.p.ZXPXAXwX#XG . O = R.V..X%.d.CXy.0 e t Y 3 n M.=XOX;XP.P.P.P.",
"2.K.>XOXOX*Xx.N d s E.).Q.= 9   o i nXE.P @XcXiX@X@Xa.P P :.:.%.3 hXmXJXtX XV.M . - % T $X3.j a w *   * 7 R.r Y / *X*X;X-XP.P.P.",
"Z.P.=X].oXN.z.A n.[.g.f.Y.Q.g.).nX).pXnXT.8XaXmX@Xd.5 . . F i.%.q `.xXFX<X2X6X~ # o - >.m.P %.a @ X 9 = > / 8.H ^ v.H.oX,XP.P.S.",
"P.P.].B.B.c.E 0.T 6.sXt f.h.h.}.SX7XpXHXPXPXMXtX3Xq.# : O 5 ~ >.! qXNXIXlX[.9X_.g f >.@XB w.5X<XdX# i = g D.8.J _.-.F.F.;XU.P.C.",
"P.&Xm.B.N.T 6 8Xy 0 p.[.Q S h.h.nXHXnXpXPXIXKX9Xd.0.* < + < ! P H 2X*XvXvX{.}.'.-.@X XV q 1XhXbXLXdXy.y.V.rX;XmXeX} R F G.-XK.2.",
"P.*XB.B.].^ D g F _.oXoXA.n.;.;.n.XXNXGXIXKXZX%.:.i.6 , - 2 0.P 0 Q %.d.i.|.1X|.#X`.k d 4 !.9X}.fXZXAXzX$X:XJ.-X+X{ s g b.z.S.K.",
"P.].].G...0.0.%.b.|.B.|.iXzX|.X.,.XX+X+XAXAXq.:._ p.[.w.E M >.P 6 /.hXeXrX;Xp.E L t.kX<X9 5 E.|.2XyX4X$X$X$X1.-X<.` K ; b.XX2.K.",
"-Xm.m.-...^ e.,.`.L W.zXa.i.I a p I wX,X+XAXfXgXe < p.{. X;.,.K 0 kXQ ,X>X+X[.L n R 9X(.6.0 5X;X X@X@X.X$XrXXX1X9X6Xv.: b.].V.K.",
"-XM.b.X.N R :.>.[.W ! $.N $.h i.lXFXNX,XrX4X8XjX4 sXvX#X@XV.,.0., R.#XwXDXPXFX{.k K kXCX!.T._. X$.l k j ` wX;.@ 6 8 n f >.B.F.P.",
"*Xc.c.} V $.Q / _.P B b.#X>.E `.{.tX$XzXeX:XgXr.0 0XsX'. XD.i.gXQ.r CXSXIXFXi.] ] ( - y.sX#X X) l ( &.s. X-Xn.9.4 r.T.E *.OXoXU.",
"].n.n N V *.B < U %._ {.AXxXcXzX/ B M i.#X X{.kXfXN.pX7X;X3.2XvXr.e y kXFXzX{ o.[ V O & |.:X#.vX3X&.:XiX+XXXx.|.9 8.5X_.s OXn.I.",
"'.x.f f *.v.n $ . - f :.tXcX@X_ ; . . - p.{.`.T MXI.pXHXPXzX#X X,.p.Y $ y _ l.l.#.< . 8 eX*X{.ZXa.m.;.x.XX=.E _.6.J W.5Xw.*XB.&X",
"_.A.) s e.MX!.  y r . F {.3X%.I . @ : @ 3 )  X>.bXaXpXHXPXzX[ { 2.V.@.s w < s | N @ ; # [.-.~.^.^ ~ m. X,.G ^ e.8.7.^ 8X(.;X].I.",
"b.x.M : K vX8XX r R.X G {.#Xa.I . # ; + > m ;.a.VXJXBXDXGX@XB O , -.l.:.fX(.G kX[.Q q R %X-.T H 8. X X$.m e.W.W.w.J Y 5X6XH.B.&X",
"v.X.d s z {.nXy.% % & nXhX2Xp.t.9., & 1 8 1  .5.ZXNXmXNXd.( - O ; @ #.D.1XW.}.|.FXFX9XP _.%X%X6X#X`.$.K w.v.}.^.w e R.E.'.N.G.H.",
"c.F.X.L o.f /.SXdXY.1XMX}.hXxXMXVXbX!.^ T 1 V ` bXmXHXgXz ( < + 5 . } wXKX0XBXSXHXIXZX6Xr.2 q U ~ C a j d [.W.% X X J E.R.;X*X*X",
"z.F.k.w.=.#.) }.MXaXhXT.R W.DXmXaXaXMXj.0 3 o.` !.5X1Xe._ } C = # p ( yXJXSXSXMXFXIXgX8X8.  # E.~.{.k ' %.p.r o   $ & D T.>XoXoX",
";.F.|.gXL } o.F v.W.W.w.W.T.vX@X2XDXmX~.d d +._ R.T.! R.:.` } N d ( ( tXq.~.lXPXFXvX^ ^ e = !.5XgXyXk ' %.<X1 . X . - f B.G.n.H.",
"].uX6XhXr.Z #.m W.^.w.[.>.~.AXyXxXZXAXZXz k ] d e.7.J T J s d ) ) ( ' >.a x b <XvXm.T.2 @ 0 T.1XmXDX3Xc %.;X7.< - ; p 2 %Xn.c.*X",
"oXaX9XgX! =.n J ~.5X1XzXd.&.zXcXtX#X#X5.4.` ` M H $ .       @ d %.s.tXgXj x c z k u., . . & 5X6XrX;XcXv @X<.vXb ( o.} d 6X*X].=X",
"B.;X8XE.0.> 3 r.1X}.x.iXv ] &.$X X,X:X#XXXa.{.{.>.C 2 e e 0 , u FXFXFXSXd.b k ; g U X - 1 + A #XeXD.aXwX,._ z ] l.K.*.B ;X*XB.I.",
"`.*X9XR W.8.8.R.^ :.>. Xv x x V.+Xx..._ 3.#X;X_.L -.E /.R.R.R.VXFXLXLXlX(.w.<   e T + > & # M  .V.XX{.qX;XqX&.+.S. .<XW.=XoXN.P.",
"n.B.;X/ [.1Xw.0 G v.I j ] 3.@.V.m.|.T.k ,.tX#X[.(.t.1XZXbX9XnXfXp.[.sX9X8X1X7.& 9.^ D O @ 3 )  .@.5.#X=.z.uX4.+.V.zXy.R.=XN.c.P.",
"V.x.oX>.w.}.1Xr + q U u.b ` 2. .;X[.U $.=.@X,.6XMXgX5X0XbX1X<X:.`.p.r.9.8XE.T.E.R.n R t.e.) f P 3.{ .X] ) | <. X X9Xw ^ *Xn.F.K.",
"K.-.G.v.g 2 G w.> + !.VXd.4.#.;._.Z ;XqX| =.` |.HXhXgXZX<X:.%.k >.G # # 5 T.}.Y 2 T w.{.2XD.k.{ ] [ O.{ c _ W uXaXW > T.H.H.L.Z.",
"U.c.x.X.3 2 L R , @ /.qX<.@.$.P L `.cX$XL *. .b.SXDXZXfXh d.v ` P , $ 0 % r sXFX9.~.8X0Xa. X<.+.+.O.O.O.z ` _.-.2Xw 1 %X&XN.K.C.",
"P.oX-.| g a p.9.  . + _ D.( @XgXp.uXNXiXp.{.*.|.aXuXxX(.p j j %.L $ & e % sXIXLXn ^ W.W.U %.O.#.l.l.C. Xf 4 q E E F n *XF.F.K.S.",
"P.-X>.x.V a 0./.  .   s 5.a.[.vX;XcXcXNXmXxX].9X=X:.>.MXt.a a :./ q # # > kXPXBXkXe.gXCX<Xz l { 1.Z.D. XD 2 - g ~ g v.=XB.I.1.S.",
"P.P.'.-.;.) d 2X4     L `.t.lX<X,.<.s.wXcXtX1XmX:.V XXFXW.8X!.~ 8.T.n n M 6XJXDX4X+.aXSXi.' ' [ o.1.4.=.3.,.L R U m E ].B.S.2.K.",
"P.P.-XS n.#.d h t.G ^ X.OXp.iX{.i.4XzXyXuXR T.eXA.qXaXbX^.!.5 *.v.}.{.`.*.n.DXPX4X+.iX9Xr.' ] ] o.( k g C n , n g s f v.].1.S.P.",
"P.P.P.v.B.-X#.a p.w.W x.OXoXtX3XyXyX5.;.W >.1XnXeXeXBXZXR.r . -.A.eXqX;X! D.:XlX$.+.vXJXvXtXzX3X_ &.@X9.+ , D K s ~ XX`.D.S.P.P.",
"P.P.P.I.-.*XH.#.=.8.0 n ,.6X#X3X.X<.D.e.1X}.hXSXm.xXDXSX5Xe 1 Z A.rXuX>XeX@XF.m.B [ 6XSXIXDXNX(.+ 1X(.= H D 3 s v.&XB.`.S.P.P.P.",
"P.P.P.P.].m.>XF.l t.6.3 >.qX` ) ;.:X_.^.1X[.bXIX2Xd.u.%.{.^.w.~ V.J.uXSXoX.X<.x.*.) | 0XSXb.|.7 . 8 9 r m g h -.F.c.;.J.P.P.P.P.",
"P.P.P.P.U.M.H.:XA.:.CX8Xp.|.z z M N ~.W.8.R.ZXvXv u.h h z 2XR vXD.XXF.SXmXXXo.#.|.~ ) ;.uX`.5X9 $ 4 8.T.D 2 Z A.F.k.D.P.P.P.P.P.",
"P.P.P.P.P.&Xc.G.-XJ.#XZXa.#X@.d r.R.1X8.Y ~.eX&.v v b a j $.R [.uXD.v./.w. .#.k.`.T.e.) ,.uX5X2 Y / n.l.s >.A.D.;.n.P.P.P.P.P.P.",
"P.P.P.P.P.K.OXz.H.&XA. .d 3. .3 w 7.1X9.^.^ [.3.x x x k x d E / ZX{.+ - O > n.A.*Xv.T.w.L C M N } O. .V *.H.H.x.n.P.P.P.P.P.P.P.",
"P.P.P.P.Z.2.V._.k.H.I.V.l k V T T r.8X8X^.j. X4Xb i.3X{.:.E Q / fXQ.@ 8 1 . W.xXSXM./ ^ T.W.e e.0.<XP X.x.G.n.n.P.P.P.P.P.P.P.P.",
"P.P.S.1.2.1.2.-X_.M.=XrXXXk g 8XlXkXfX8X!.q ! 9.5 CXFXmXqX}.-.j.^ u . < , . S A.F.;.Y ! W.}.W.7X1Xv.b.=XF.x.c.P.P.P.P.P.P.P.P.P.",
"P.S.2.1.1.S.K.P.U.M.c.OXmX`.| 1XZXVXlXkXfXT 1     o 5Xx.K Q _.Q T.8 > % # ; C m.m.-.J r R.}.5X0X'.*X&X&Xn.c.P.P.P.P.P.P.P.P.P.P.",
"P.C.1.Z.S.P.P.P.P.L.M.c.eX#X;.8X}.bXbXZXMX1X9.. 4   ! Z s Y ^.^ T G M w.d x b s 2 < < J ^.5X0X9X;X=XG.z.z.L.P.P.P.P.P.P.P.P.P.P.",
"K.1.1.K.P.P.P.P.P.P.P.B.B.;XrXBX>Xz.U r.t.W.8X!.2 > 0 5 0 D G 7.n m >.mX*.' x a 6 r R.8X0X0X6X;X;XG.z.c.L.P.P.P.P.P.P.P.P.P.P.P.",
"S.1.S.P.P.P.P.P.P.P.P.U.OXb.oX;XrXaX;XX.-.z.*X:.L | F 2 2 G t.SXMXF.A.mXi.] x j U [.}.E.|.%X;X=XN.c.F.P.P.P.P.P.P.P.P.P.P.P.P.P.",
"1.1.P.P.P.P.P.P.P.P.P.P.P.=X'.n.oX=X>XI.>X-XC g F K B N [.tX|.,XrXJ.-X}.c ] x j i.%XuX;X=X*XB.z.z.L.P.P.P.P.P.P.P.P.P.P.P.P.P.P.",
"1.K.P.P.P.P.P.P.P.P.P.P.P.P.U.*XM.c.*XoX=X-X-.z.=.*.E ;.k.n.>. X5.$.%.d c x k =.F.H.&XB.N.z.z.H.L.P.P.P.P.P.P.P.P.P.P.P.P.P.P.P.",
"C.P.P.P.P.P.P.P.P.P.P.P.P.P.P.P.L.H.M.z.N.G.H.H.oXF.H.F.F.A.oX-XoXXXXXG.D.G.F.G.B.N.k.-.z.I.P.P.P.P.P.P.P.P.P.P.P.P.P.P.P.P.P.P.",
"S.P.P.P.P.P.P.P.P.P.P.P.P.P.P.P.P.P.L.&X].v.k.k.x.x.N.].n.n.N.].B.D.oXm.G.m.b.-...z.;.K.P.P.P.P.P.P.P.P.P.P.P.P.P.P.P.P.P.P.P.Z.",
"K.P.P.P.P.P.P.P.P.P.P.P.P.P.P.P.P.P.P.U.K.J.H.c.v...A ..A A ....k...k.....| ..z.F.L.Z.P.P.P.P.P.P.P.P.P.P.P.P.P.P.P.P.P.P.P.P.Z."
};
