/* XPM */
static char *softc3[] = {
/* columns rows colors chars-per-pixel */
"64 64 247 2 ",
"   c #1F2407",
".  c #2B3807",
"X  c #383711",
"o  c #483B0A",
"O  c #364B09",
"+  c #3E5605",
"@  c #3B4C1A",
"#  c #54470B",
"$  c #4E510F",
"%  c #455613",
"&  c #695A0A",
"*  c #624C12",
"=  c #6A5A17",
"-  c #715D1C",
";  c #4A6507",
":  c #546A0B",
">  c #5B7907",
",  c #4C6617",
"<  c #58661A",
"1  c #597412",
"2  c #72710E",
"3  c #686218",
"4  c #79681B",
"5  c #687A18",
"6  c #4D4926",
"7  c #5B5728",
"8  c #695A28",
"9  c #5D7927",
"0  c #666A25",
"q  c #7B6A27",
"w  c #7B6D36",
"e  c #727730",
"r  c #7E774A",
"t  c #8F7613",
"y  c #AA7B1D",
"u  c #826B25",
"i  c #877629",
"p  c #957E25",
"a  c #897934",
"s  c #947F34",
"d  c #AB7A25",
"f  c #F77622",
"g  c #F77A23",
"h  c #87794A",
"j  c #5A8011",
"k  c #67860C",
"l  c #748A0D",
"z  c #72940B",
"x  c #6D8B13",
"c  c #68891B",
"v  c #71901C",
"b  c #79991A",
"n  c #688A24",
"m  c #728F28",
"M  c #779826",
"N  c #769937",
"B  c #7EA229",
"V  c #7FA338",
"C  c #779A43",
"Z  c #7CA041",
"A  c #938A16",
"S  c #A88818",
"D  c #B59618",
"F  c #84A51B",
"G  c #90B112",
"H  c #B2B31A",
"J  c #858726",
"K  c #9B8829",
"L  c #8D982F",
"P  c #898738",
"I  c #998636",
"U  c #999638",
"Y  c #A68A29",
"T  c #B48D27",
"R  c #A58B38",
"E  c #A8953A",
"W  c #B39936",
"Q  c #85A729",
"!  c #85A837",
"~  c #94AF31",
"^  c #97B939",
"/  c #B9A52B",
"(  c #ABAA3B",
")  c #BCA338",
"_  c #B9B338",
"`  c #D5B512",
"'  c #C5962A",
"]  c #F88526",
"[  c #F98728",
"{  c #F98828",
"}  c #FA942C",
"|  c #FB982D",
" . c #CAB134",
".. c #FDA431",
"X. c #FEAE34",
"o. c #FAA73C",
"O. c #E5B136",
"+. c #FEB237",
"@. c #FEB83D",
"#. c #D9C626",
"$. c #D1C529",
"%. c #D8C836",
"&. c #988A45",
"*. c #908E4F",
"=. c #9B9747",
"-. c #A18B4A",
";. c #A99646",
":. c #B79E47",
">. c #AA9A55",
",. c #B39C54",
"<. c #88AB45",
"1. c #92AC4D",
"2. c #96BA46",
"3. c #97BA56",
"4. c #A6A548",
"5. c #B8A849",
"6. c #BCB545",
"7. c #A6A757",
"8. c #B8A657",
"9. c #A6B950",
"0. c #B7B559",
"q. c #968D6D",
"w. c #AE9D6B",
"e. c #A5AE66",
"r. c #B9A766",
"t. c #BAB863",
"y. c #C5AB45",
"u. c #DAA64A",
"i. c #CAB548",
"p. c #D4BA48",
"a. c #C3AB56",
"s. c #C9B557",
"d. c #D4B956",
"f. c #FEBE42",
"g. c #F0BB4A",
"h. c #F2BA54",
"j. c #C2AD63",
"k. c #C9B768",
"l. c #D5BC66",
"z. c #CBB974",
"x. c #D5BC77",
"c. c #9BC04B",
"v. c #9DC157",
"b. c #A6C94E",
"n. c #A6C659",
"m. c #9EC065",
"M. c #A6C867",
"N. c #B2CB6B",
"B. c #D3CC4D",
"V. c #CAC356",
"C. c #D9C557",
"Z. c #E3CA4E",
"A. c #FCC64E",
"S. c #FECA4C",
"D. c #FECF50",
"F. c #E7D959",
"G. c #F8D657",
"H. c #FEDA58",
"J. c #ECE055",
"K. c #FEE45F",
"L. c #D6C766",
"P. c #DCC56C",
"I. c #D4CF68",
"U. c #CCC479",
"Y. c #DCC576",
"T. c #DCCB72",
"R. c #D7C478",
"E. c #DCD378",
"W. c #E4C967",
"Q. c #E9D569",
"!. c #F2DC6A",
"~. c #E4CB76",
"^. c #FBCE73",
"/. c #EBD474",
"(. c #ECD37A",
"). c #E8D77B",
"_. c #F3D778",
"`. c #F3DA7C",
"'. c #FEE761",
"]. c #FEE861",
"[. c #F9E568",
"{. c #F2E17A",
"}. c #A49D8A",
"|. c #BBAD8B",
" X c #B7B0A7",
".X c #D1BD89",
"XX c #F5BB86",
"oX c #C9BFB1",
"OX c #C8C88A",
"+X c #D7C787",
"@X c #DBD488",
"#X c #DACB97",
"$X c #DBD59B",
"%X c #E2CB84",
"&X c #E3D284",
"*X c #EAD984",
"=X c #E4D48B",
"-X c #ECD48A",
";X c #F3DC83",
":X c #F4DB89",
">X c #E0CC93",
",X c #E2D593",
"<X c #EBD492",
"1X c #EDDC93",
"2X c #E8D99C",
"3X c #F3DC93",
"4X c #F1D59C",
"5X c #F2DE9B",
"6X c #EEE282",
"7X c #F7E589",
"8X c #EDE39A",
"9X c #F4E294",
"0X c #F9E797",
"qX c #F4E29B",
"wX c #DDD6AA",
"eX c #D2CEB0",
"rX c #F3CBAD",
"tX c #E9D9A7",
"yX c #F2DDA6",
"uX c #E9DBBA",
"iX c #EEE2A7",
"pX c #F4E4A3",
"aX c #F9E5A2",
"sX c #F5E4AB",
"dX c #F8E9A8",
"fX c #F9EBAB",
"gX c #EEE5B8",
"hX c #F3E4B4",
"jX c #F4EAB4",
"kX c #F7E9B7",
"lX c #FAECBC",
"zX c #FBF0B8",
"xX c #D8D4CC",
"cX c #ECDDC9",
"vX c #F8ECC7",
"bX c #FAF1CA",
"nX c #EAE6DA",
"mX c #F5EED6",
"MX c #F8F1D9",
"NX c #E9E8E5",
"BX c #F4ECE8",
"VX c #F8F3E5",
"CX c #F4F3EC",
"ZX c #F5F5F5",
"AX c #F8F7F5",
"SX c #F8F8F6",
"DX c #F9F9F9",
/* pixels */
"X.X.X.X.X.X.X.X.X.X.X.X.X.X.X.X.X.X.X.X.g ..X.X.X.X.X.X.X.X.X.X.X.X.X.X.X.X.X.X.X.[ } X.X.X.X.X.X.X.X.X.X.X.X.X.X.X.X.X.X.X...[ ",
"X.X.X.X.X.X.X.X.X.X.X.X.X.X.X.X.X.X.X.} [ X.X.X.X.X.X.X.X.X.X.X.X.X.X.X.X.X.+.X...g X.X.X.X.X.X.X.X.X.X.X.X.X.X.X.X.X.X.X.X.] ..",
"X.X.X.X.X.X.X.X.X.X.X.X.X.X.X.X.X.X.X.[ [ X.X.X.X.X.X.X.X.X.X.X.X.X.X.X.X.X.X.X.} g X.X.X.X.X.X.X.X.X.X.X.X.X.X.X.X.X.X.X...f | ",
"X.X.X.X.X.X.X.X.X.X.X.X.X.X.X.X.X.X.] f ..X.X.X.X.X.X.X.X.X.X.X.X.X.X.X.X.X.X.} f } X.X.X.X.X.X.X.X.X.X.X.X.X.X.X.X.X.X...f ] +.",
"X.X.X.X.X.X.X.X.X.X.X.X.X.X.X.X.X.] f ..X.X.X.X.X.X.X.X.X.X.X.X.X.X.X.X.X.X.} f } X.X.X.X.X.X.X.X.X.X.X.X.X.X.X.X.X.X...f ] X.X.",
"X.X.X.X.X.X.X.X.X.X.X.X.+.X.X.X.[ g ..X.X.X.X.X.X.X.X.X.X.X.X.X.X.X.X.X.X.} f | X.X.X.X.X.X.X.X.X.X.X.X.X.X.X.X.X.X...f [ X.X.X.",
"X.X.X.X.X.X.X.X.X.X.X.X.X...| f g ..X.X.X.X.X.X.X.X.X.X.X.X.X.X.X.X.X...g f } X.X.X.X.X.X.X.X.X.X.X.X.X.X.X.X.X...] f ] X.X.X.X.",
"X.X.X.X.X.X.X.X.X.X.X.X...g f f | X.X.X.X.X.X.X.X.X.X.X.X.X.X.X.X.X.] f f } X.X.X.X.X.X.X.X.X.X.X.X.X.X.X.X.X.} f f [ X.X.X.X.X.",
"X.X.X.X.X.X.X.+.+.....] f g } X.X.X.X.X.X.X.X.X.X.X.X.X.X.X.X...} f g [ X.X.X.X.X.X.X.X.X.X.X.X.X.X.X.X...| f g ] ..X.X.X.X.X.X.",
"X.X.X.X.X.X.X.} { g f f ..X.X.X.X.X.X.X.X.X.X.X.X.X.X.X...] ] g f } ..X.X.X.X.X.X.X.X.X.X.X.X.X.X.X.[ [ f f ] | X.X.X.X.X.X.X.X.",
"X.X.X.X...] f f g [ X...X.X.A.H.'.'.'.'.f.f.f.X.X.X.X...f f [ { } X.X.@.A.].].].'.S.f.f.X.X.X.X.X.] f ] { { X.X.X.X.X.X.X.X.X.X.",
"X.X...] f f f } ..+.A.H.H.H.K.K.'.'.'.'.'.'.K.f.X.X...f ] ..X.X.f.H.H.'.'.].].].'.'.'.'.D.X.X.X.] f ..X.X.X.X.X.X.X.X.X.X.X.X.X.",
"rXrXrXrXXXXXrX^.g.g.G.G.H.;XZ.C.R.tXuX7XbXMXVXBXMXBXBXVXCXCXCXCXCXCXCXZXnX[.].].'.'.'.'.X.X...[ o.H.'.'.H.X.X.X.X.X.X.X.X.X.X.X.",
"CXZXAXAXsXbX0XG.W.4XyXsXqX3X~.%X#X+XOX$XbXVXCXZXMX$XiXvXbXMXZXZXZXZXZXZXDXbX].].'.'.].].X.X.X.D.K.'.'.'.H.X.X.X.X.X.X.X.X.X.X.X.",
"5X:XyX4X:X:X0X(.tXnXvX5XsXsXyXtX5XhXjXV.=XbX7X;X;XH _ V.E.9XbXAXZXZXCXZXZXDXkX].'.'.'.f.X.X.'.'.'.'.'.'.H.+.X.X.X.X.X.X.X.X.X.X.",
"` O.C. .~.:X4XaX5XsX`.yXhXsX5XsXhX:X<X5XT.zX3X).0.V.N.( _ I.E.MXZXZXZXCXZXZXZX0X'.'.'.f.X.D.'.'.'.'.'.'.'.A.X.X.X.X.X.X.X.X.X.X.",
"O.;XL.V.p.~.=X3X;XqX/.8X{.F.B.Z.Q.E.N.5XL.+X0XU.~ 4 K 5.( _ 6.E.bXZXZXZXZXZXZXZX7X'.H.X.f.'.'.'.'.K.'.'.K.f.X.X.X.X.X.X.X.X.X.X.",
"-X:XyXyXgXhX9XqX8XJ.F.9XJ.B.J.J.B.v.n.3.N.W.lXsX( z.V._ &X).6XZ.F.lXCXZXZXSXZXZXmX'.H.X.H.'.'.'.'.'.'.'.K.A.X.X.X.X.X.X.X.X.X.X.",
"<X~.d. .W.).*XB.%.#.` V. .*XzXOX^ v.v.M.3.*.=XkX&X,XS W i.,X0X{.!.{.gXZXSXZXZXSXDXsXH.@.].].'.'.'.'.'.'.'.f.X.X.X.X.X.X.X.X.X.X.",
"' p.I =.6XZ.$.`  .j.2 ,.r.A ;.b 2.2.2.! m <.m W.:X-XW i.L.x.i.(.dX8XiXSXDXZXZXZXZXCXh.H.'.].'.'.'.'.'.'.].f.X.X.X.X.X.X.X.X.X.} ",
"l._ /.@XfXkX .D &XzXT./.aXtX<.! 2.~ c.B C C C 9 d.`.(.&X!.5X3X9X{.0X0XfXMXSXZXZXZXDXuX'.'.'.'.'.'.'.'.'.].f.X.X.X.X.X.X.X.X.X.{ ",
"3XR.7XfXaX9X .t k.kXkXx.D T.l V b.N.M.m N N N ; r.~.3X`.qX7X!.(.Q.{.!.!.7XMXDXSXDXZXBX!.'.'.'.'.'.'.'.'.].H.X.X.X.X.X.X.X.X...g ",
";X3X0XfX6X7Xy.2 b 7.fX8XtXE.! V c.N.1.<.! Q n % r.L.5X:X/.p. .B.+X1X/.#./.dXmXDXDXZXDXwX'.'.'.'.'.'.'.'.].'.X.X.X.X.X.X.X.X.| ..",
";X_.fXsXaX).Q ^ 2.M 9.pXzXOX3.3.! n.<.m.3.N ; < w U T.:X0Xd.a.D s.t.+XQ.).R.uXZXDXZXDXNX'.'.'.'.'.'.'.'.].].X.X.X.X.X.X.X.X.f ..",
"9X!.6X8XiX! M 3.N.n.N iXqXC.<.M.B ^ v.m.<., . I U.0.s._.fXsXa.s.V.F.b.!.(.wXSXDXSXDXSXAX;X'.'.'.].].K.].K.K.X.X.X.X.X.X.X.] f ..",
"p.U P &X7.z M x n.2.N =.V.@X9 n.c.B Z n 1 : 7 w.I J p.(.~.pXk.2X~._ ).I.3XcXSXDXDXDXDXDXjX'.'.'.].].].].K.K.X.X.X.X.X.X.] f ..X.",
"s.e.N.4.> F ^ x M b.n c @XqX: n V V V c.<.; I I i w l.Q.:XI.( $Xp.Y B.I.=XuXSXDXDXDXDXDXmX'.'.'.].].].].K.K.X.X.X.X.X.] g ..X.X.",
"/ ;.t.4.; 1 ~ ^ x > ; B t.2X4.> x <.v.C % & :.P.C.Y.P.x.pX1X( J d.iX6XE.@XcXSXDXDXDXDXDXZX'.'.'.].].].].].].X.X.X.} ] f ..X.X.X.",
"D i #X,Xe ; ; n Q 1 k > q 6.5.l b N , o # K s.x.L.,XP.Y.;X:X-X=.0 U V.6.R.uXAXDXDXDXDXDXSX7XK.K.K.].'.'.K.A.X...f f g ..X.X.X.X.",
"' / ,.fXT.e k ^ v.b z ; P 8.).L l $ & & I P.2X>.k.x.j.3Xd.`.3X~.s.e 2 t Y.tXAXDXDXSXDXDXSX0X].K.].].'.'.K.+.[ f f | ..X.X.X.X.X.",
"y a d.;X8.#X< ; k z l k F y.V.5.T p I I 5.Y..XgXlXL.1X3X .l.:X5X{.6X,.W %XuXAXDXDXDXDXDXSXzXK.K.K.K.H.@.| [ g { X.X.X.X.X.X.X.X.",
"P.W.`.l.q <Xw.4.2.F l l G l _ a.C.s.8.+Xs.tXhXpXL.iXjXd.W h fXyX .Q.9X=X&XgXDXDXDXDXDXSXSXvXK.K.A.A.X.} [ ....X.X.X.X.X.X.X.+.X.",
"_.(.B.U.7.+XjX$X=.E 2 ; 2 3 i.9XaXaX&XwXvXhXlX>X#XMX.Xd.a.r.pXdX3Xz.a./.0XgXDXDXDXDXDXDXDXmXD.X.X.X.f.H.H.X.X.X.X.X.X.X.X.X.X.X.",
"k.~ B c.9.^ n.@X@XJ 2 & F M ! U.9XdXvXzX0X2X>.s mXmXW.~.-X5XpXpXkXk.V.O._.uXDXDXDXDXDXDXDXcXX.X.X.D.'.'.H.X.X.X.X.X.X.X.X.X.X.X.",
"6.v.v.2.3.^ Q ^ F & 8 U G G ^ z =.wXjXjX$X@XeXuXMXx.,.d.a.~.s.sXqXqX3XC.kXuXDXDXDXDXDXDXDXxXo.f.'.'.'.'.H.X.X.X.X.X.X.X.X.X.X.X.",
" .b.m.M.b.~ v 3 t ;.(.5.F F G F ; c gXvXhX#XvXvXkX.X#XyX>Xr.a.u.d.;XW.d.fXtXZXDXDXDXDXDXDXcXH.'.'.'.'.'.H.X.X.X.X.X.X.X.X.X.X.X.",
"6.M.M.N.n.V + < >.2XpX;.5 G G ^ > ; 1.2XjXzXzXlXY.u.d.y.i.W.(./.~.I.L.z.9XwXBXDXDXDXDXDXDXcX'.'.'.'.'.'.'.f.X.X.X.X.X.X.X.X.X.X.",
"S b n v.3., + U r.lX-X4XL z z Q k ; e k.9XsXpXW.:.y p u p p i - q a.p.;X&X.XNXDXDXDXDXDXDXlX'.'.'.'.'.'.].f.X.X.X.X.X.X.X.X.X.X.",
"S j n N 9 O 5 #XwX5XkX-X;.> l z k ; ; z.*X0X5X4X4Xh a R &.R d.l.x.) y.' l.|.NXDXDXDXDXDXDXfX'.'.'.'.'.'.].f.X.X.X.X.X.X.X.X.X.X.",
"( Z B x % O 0.lXyX_.vX#X,X> l Q z j > 7.R ;.x.sXfXkX/.-X<X5Xk.~.%Xz.d.-Xj. XNXDXDXDXDXDXDX7X'.].'.'.'.'.].f.X.X.X.X.X.X.X.X.X.X.",
"y N b ; . , R.bXtXuXbXjX(.J > v k k > j 0 k.W K a.l.P.k.~.-X4X3X=X5X5X>.;.oXCXSXSXDXSXDXDX[.].].'.'.'.'.].f.X.X.X.X.X.X.X.X.X...",
"y O O . $ $ T.jX+X8.pXw.~.p.2 > ; ; ; + 9 8.W 6 i R - * E u.i.l.z.5.s i j.xXeXxXDXDXDXDXMX'.].].'.'.'.'.].f.X.X.X.X.X.X.X.X.X.[ ",
"d . 0 - J s.I.0X$X+XpXr.R  .) 2 + O O O @ 8.5.w o 4 K 5.a.d.5.a.~..Xh y.OXOXeXDXDXDXDXDXlX'.'.'.'.'.'.'.].A.X.X.X.X.X.X.X.X.X.g ",
"T X *.j._ V.n.8XK &.`.pXyX#Xx.k.J 4 q q p d.P.I a ( ;.4 4 = q j..X~.,X&X0.oXZXDXDXDXDXSX0X'.'.'.'.'.].].].].X.X.X.X.X.X.X.X...| ",
"' a ;.T.s.I.,XE.J &.P.qXlXkXhXx.:.R Y R E h :.j.w I 2 # X $ P =.j.j.U &.}.CXDXDXDXDXDXZX].'.'.'.'.'.'.'.].'.X.X.X.X.X.X.X.X.f ..",
"d =.T.Q.5.B.8X6.P k.,.;X3XvXsX3X-Xx.k.,.s # p z.8.k.,.U _  .i.s.5.8.q.}.NXZXDXDXDXDXDXbX'.'.'.'.'.'.'.'.].].X.X.X.X.X.X.X.} f ..",
"u.r.R./.P.L.*.L =.T.j.;Xd.`.3XaX4X-Xx.-.X s a.:.=X!.8X+X5.;.&.q.h q.}.xXZXDXDXDXDXDXSX7X'.'.'.'.'.'.'.'.].].X.X.X.X.X.X.| f { X.",
"h.l.l.i.i.t & I 8.Q.Q.Q.Y.,.a.a.>.s 8 j.h j.j.8.h @Xw.a a i r r  XxXNXZXZXDXDXDXDXDXMX'.'.'.'.'.'.'.'.'.].].X.X.X.X.X.} f | X.X.",
"' -.-X<X(.&X&XY.a w W.s d.s.a o # # q .XOX*.-.*.j.t.-.# & a q.xXZXSXSXSXDXDXDXDXDXDXdX'.'.'.'.'.'.'.'.'.'.'.X.X.X...| f } X.X.X.",
"u.;.4X%Xa.a.;.i * o ;.W Y p 4 q 4 u Y +Xh o 7 r &.&.P U 4.U e.xXSXDXDXDXDXDXDXDXDXBX[.'.'.'.'.'.'.'.'.'.'.A.X.X.[ g f | X.X.X.X.",
"O.8.s.y s R R R u 4 q u q s - = I l.k.h X 6 7 r a a P ;.,.7.0.9.CXDXDXDXDXDXDXDXSXtX'.'.'.'.'.'.'.'.'.'.'.@...[ f ] { X.X.X.X.X.",
"O.' Y A W R -.5.R 8 a - E Y :.C.&Xk.8 @   X @ r h =.z.x.|.xXxXOXeXSXDXDXDXSXDXDXxXQ.'.'.'.'.'.'.'.'.'.'.f.} f f ..X.X.X.X.X.X.X.",
"X.X.X.X.X.....] f f } X.S.'.'.'.K.].K.K.K.K.K.K.H.H.H.H.S.] ] ..+.@.K.].].'.'.'.].'.'.'.'.H.H.H.H.G.| ] [ [ { +.X.X.X.X.X.X.X.X.",
"X.X.X.+.[ g g f g ..X.X.S.'.'.'.K.K.].D.@.A.f.A.X.+...] f | X.X.X.g.'.].K.K.'.'.H.D.f.A.f.+.X.X.] f ] X.X.X.X.X.X.X.X.X.X.X.X.X.",
"X.+.| f f f g ..X.X.X.X.X.X.X.X.X.X.X.X.+.X.X...f f f g } X.X.X.X.X.X.X.X.X.X.X.X.X...X.X.] f g f ] X.X.X.X.X.X.X.X.X.X.X.X.X.X.",
"X.{ f f f | ..X.X.X.X.X.X.X.X.X.X.X.X.X.X.X...g f f ] | X.X.X.X.X.X.X.X.X.X.X.X.X.X.X.X.] f f f ....X.X.X.X.X.X.X.X.X.X.X.X.X.X.",
"..] f [ } X.X.X.X.X.X.X.X.X.X.X.X.X.X.X.X.X.} g g [ X.X.X.X.X.X.X.X.X.X.X.X.X.X.X.X.X...f f { ..X.X.X.X.X.X.X.X.X.X.X.X.X.X.X.X.",
"..f f ..X.X.X.X.X.+.X.X.X.X.X.X.X.X.X.X.X.X.f f { X.X.X.X.X.X.X.X.X.X.X.X.X.X.X.X.X.X.] f f X.X.X.X.X.X.X.X.X.X.X.X.X.X.X.X.X.X.",
"| f } X.X.X.X.X.X.X.X.X.X.X.X.X.X.X.X.X.X...f ] X.X.X.X.X.X.X.X.X.X.X.X.X.X.X.X.X.X.X.[ f ..X.X.X.X.X.X.X.X.X.X.X.X.X.X.X.X.X.X.",
"f f X.X.X.X.X.X.X.X.X.X.X.X.X.X.X.X.X.X.X.[ f ..X.X.X.X.X.X.X.X.X.X.X.X.X.X.X.X.X.X...f [ X.X.X.X.+.X.X.X.X.X.X.X.X.X.X.X.X.X.X.",
"f ..X.X.X.X.X.X.X.X.X.X.X.X.X.X.X.X.X.X.X.[ { X.X.X.X.X.X.X.X.X.X.X.X.X.X.X.X.X.X.X...f X.X.X.X.X.X.X.X.X.X.X.X.X.X.X.X.X.X.X.X.",
"[ X.X.X.X.X.X.X.X.X.X.X.X.X.X.X.X.X.X.X.X.{ ..X.X.X.X.X.X.X.X.X.+.X.X.X.X.X.X.X.X.X...} X.X.X.X.X.X.X.X.X.X.X.X.X.X.X.X.X.X.X.X.",
"{ X.X.X.X.X.X.X.X.X.X.X.X.X.X.X.X.X.X.+...] X.X.X.X.X.X.X.X.X.X.X.X.X.X.X.X.X.X.X.X.g ..X.X.X.X.X.X.X.X.X.X.X.X.X.X.X.X.X.X.X.{ ",
"X.X.X.X.X.X.X.X.X.X.X.X.X.X.X.X.X.X.X.+...} X.X.X.X.X.X.X.X.X.X.X.X.X.X.X.X.X.X.X.+.[ X.X.X.X.X.X.X.X.X.X.X.X.X.X.X.X.X.X.X.X.[ "
};
