/* XPM */
static char *softc1[] = {
/* columns rows colors chars-per-pixel */
"64 64 227 2 ",
"   c #151719",
".  c #233B06",
"X  c #262F18",
"o  c #1B1E21",
"O  c #1E2223",
"+  c #24292B",
"@  c #332D23",
"#  c #292E31",
"$  c #2C3133",
"%  c #34393D",
"&  c #581A09",
"*  c #522B09",
"=  c #5B3513",
"-  c #673C14",
";  c #683926",
":  c #284308",
">  c #364E07",
",  c #3B4F14",
"<  c #395415",
"1  c #5A4910",
"2  c #475916",
"3  c #69461B",
"4  c #6F4E19",
"5  c #734B1A",
"6  c #5F6818",
"7  c #445C24",
"8  c #574F32",
"9  c #795827",
"0  c #73512A",
"q  c #576C31",
"w  c #71692C",
"e  c #7D7235",
"r  c #393E42",
"t  c #3E4246",
"y  c #42474A",
"u  c #444A4D",
"i  c #575D4C",
"p  c #484E50",
"a  c #4C5255",
"s  c #575954",
"d  c #535A5C",
"f  c #676D50",
"g  c #575E61",
"h  c #5A6265",
"j  c #666A66",
"k  c #636A6D",
"l  c #6A706F",
"z  c #757867",
"x  c #6D7577",
"c  c #747772",
"v  c #777B77",
"b  c #895816",
"n  c #A5731F",
"m  c #895835",
"M  c #83652C",
"N  c #976A2C",
"B  c #92702F",
"V  c #876838",
"C  c #946C3A",
"Z  c #88753B",
"A  c #977739",
"S  c #AA7933",
"D  c #C77B19",
"F  c #F77622",
"G  c #F77A23",
"H  c #815E41",
"J  c #866C46",
"K  c #926D47",
"L  c #977846",
"P  c #9C7B54",
"I  c #A77C4C",
"U  c #AE7750",
"Y  c #887F68",
"T  c #A47A66",
"R  c #748239",
"E  c #718552",
"W  c #7C8479",
"Q  c #94883D",
"!  c #A9823C",
"~  c #B2823B",
"^  c #D49524",
"/  c #F88426",
"(  c #F98728",
")  c #F98929",
"_  c #FA942C",
"`  c #FB982D",
"'  c #E9AD3D",
"]  c #FDA431",
"[  c #FEAE34",
"{  c #FAA53B",
"}  c #FEB237",
"|  c #FEB63C",
" . c #9C834B",
".. c #93894A",
"X. c #998753",
"o. c #A6854A",
"O. c #B4904C",
"+. c #A38553",
"@. c #A48B5C",
"#. c #AB8858",
"$. c #AB935C",
"%. c #B79659",
"&. c #B8A654",
"*. c #8E876C",
"=. c #83867A",
"-. c #958D74",
";. c #98937A",
":. c #A78D63",
">. c #AB9463",
",. c #A99568",
"<. c #AE936E",
"1. c #B69B67",
"2. c #B48B73",
"3. c #B69B77",
"4. c #94A87C",
"5. c #BCA269",
"6. c #A9A872",
"7. c #BEA378",
"8. c #C79A53",
"9. c #CB9A55",
"0. c #CCAD53",
"q. c #F9AE45",
"w. c #FEBE42",
"e. c #FCBB47",
"r. c #EEB557",
"t. c #C49763",
"y. c #C29E73",
"u. c #C6A769",
"i. c #D2B46F",
"p. c #C5AA77",
"a. c #CEB37A",
"s. c #D7B776",
"d. c #EBB770",
"f. c #D9C75B",
"g. c #FCC64E",
"h. c #FECA4C",
"j. c #E0CC56",
"k. c #FECF50",
"l. c #EBD55C",
"z. c #FED253",
"x. c #FEDB58",
"c. c #F5E05E",
"v. c #FEE45F",
"b. c #D9C56F",
"n. c #EACE74",
"m. c #F7E263",
"M. c #FEE761",
"N. c #FEE861",
"B. c #F7E47A",
"V. c #747D80",
"C. c #7D8585",
"Z. c #888C86",
"A. c #8C928F",
"S. c #99988A",
"D. c #979B97",
"F. c #A59E84",
"G. c #B49D8E",
"H. c #99A191",
"J. c #ABA288",
"K. c #B6A987",
"L. c #B2B28A",
"P. c #A7A79A",
"I. c #B4AD93",
"U. c #BAB39B",
"Y. c #939AA0",
"T. c #99A3A5",
"R. c #A5AAA7",
"E. c #ACB1AD",
"W. c #A1ACB0",
"Q. c #ACB2B3",
"!. c #B5B9B6",
"~. c #CBB788",
"^. c #CCB68F",
"/. c #D6B986",
"(. c #C9B49B",
"). c #E3B385",
"_. c #C5BEA6",
"`. c #BCC1BD",
"'. c #DAC689",
"]. c #D8C596",
"[. c #EDD38D",
"{. c #E4CB99",
"}. c #E7D69A",
"|. c #F5E488",
" X c #F1E295",
".X c #CBC4A8",
"XX c #D9CBA4",
"oX c #C5C4B6",
"OX c #CAC6B4",
"+X c #CBCABC",
"@X c #D1CCBA",
"#X c #DAD3B8",
"$X c #E3CDA3",
"%X c #E7D5A9",
"&X c #EBDAAC",
"*X c #EFCFB2",
"=X c #E7DAB7",
"-X c #EBDDBA",
";X c #F1DFB5",
":X c #EBE1A9",
">X c #F7E7A7",
",X c #EDE2BE",
"<X c #F5E5B8",
"1X c #B9BFC2",
"2X c #BCC4C5",
"3X c #CDCDC2",
"4X c #C6CBC9",
"5X c #D3CEC5",
"6X c #CED1C9",
"7X c #D2D1C5",
"8X c #D4D5CB",
"9X c #D9D8CC",
"0X c #CDD1D2",
"qX c #D7D8D2",
"wX c #DBDDDB",
"eX c #E5D7C3",
"rX c #E0DAD3",
"tX c #DFE1DC",
"yX c #EAE2C7",
"uX c #F4E8CB",
"iX c #E4E3DB",
"pX c #F5ECD3",
"aX c #F8F2DC",
"sX c #DFE1E2",
"dX c #E6E8E9",
"fX c #F1F2F4",
"gX c #F8F8F9",
/* pixels */
"[ [ [ [ [ [ [ [ [ [ [ [ [ [ [ [ [ [ [ [ G ] [ [ [ [ [ [ [ [ [ [ [ [ [ [ [ [ [ [ [ / _ [ [ [ [ [ [ [ [ [ [ [ [ [ [ [ [ [ [ [ ] / ",
"[ [ [ [ [ [ [ [ [ [ [ [ [ [ [ [ [ [ [ _ / [ [ [ [ [ [ [ [ [ [ [ [ [ [ [ [ [ [ [ ] G [ [ [ [ [ [ [ [ [ [ [ [ [ [ [ [ [ [ [ [ / ] ",
"[ [ [ [ [ [ [ [ [ [ [ [ [ [ [ [ [ [ [ / / [ [ [ [ [ [ [ [ [ [ [ [ [ [ [ [ [ [ [ _ G [ [ [ [ [ [ [ [ [ [ [ [ [ [ [ [ [ [ [ ] F _ ",
"[ [ [ [ [ [ [ [ [ [ [ [ [ [ [ [ [ [ / F [ [ [ [ [ [ [ [ [ [ [ [ [ [ [ [ [ [ [ _ G _ [ [ [ [ [ [ [ [ [ [ [ [ [ [ [ [ [ [ ] G / } ",
"[ [ [ [ [ [ [ [ [ [ [ [ [ [ [ [ [ / G ] [ [ [ [ [ [ [ [ [ [ [ [ [ [ [ [ [ [ _ F _ [ [ [ [ [ [ [ [ [ [ [ [ [ [ [ [ [ [ ] F / [ [ ",
"[ [ [ [ [ [ [ [ [ [ [ [ } [ [ [ / F ] [ [ [ [ [ [ [ [ [ [ [ [ [ [ [ [ [ [ _ F ` [ [ [ [ [ [ [ [ [ [ [ [ [ [ [ [ [ [ ] G / [ [ [ ",
"[ [ [ [ [ [ [ [ [ [ [ [ [ ] ` F G ] [ [ [ [ [ [ [ [ [ [ [ [ [ [ [ [ [ ] F F _ [ [ [ [ [ [ [ [ [ [ [ [ [ [ [ [ [ ] / F / [ [ [ [ ",
"[ [ [ [ [ [ [ [ [ [ [ [ ] G F F ] [ [ [ [ [ [ [ [ [ [ [ [ [ [ [ [ [ / F F ` [ [ [ [ [ [ [ [ [ [ [ [ [ } [ [ [ _ F F / [ [ [ [ [ ",
"[ [ [ [ [ [ [ } } ] ] / F / ) [ [ [ [ [ [ [ [ [ [ [ [ [ [ [ [ ] _ G G / [ [ [ [ [ [ [ [ [ [ [ [ [ [ [ [ ] _ F F / ] [ [ [ [ [ [ ",
"[ [ [ [ [ [ [ _ ) G F F ] [ [ [ [ [ [ [ [ [ [ [ [ [ [ [ ] ( / F F _ ] [ [ [ [ [ [ [ [ [ [ [ [ [ [ } / / G F / ] [ [ [ [ [ [ [ [ ",
"[ [ [ [ ] / F F G ( [ ] [ [ g.x.M.M.M.M.g.| g.[ [ [ [ ] F F ( ( _ } [ | h.M.M.M.v.k.g.| } [ [ [ [ / F / / / [ [ [ [ [ [ [ [ [ [ ",
"[ [ ] / F F F _ ] [ g.x.x.x.v.v.M.M.M.M.v.v.v.| [ [ ] F / ] [ [ w.x.x.v.M.M.M.M.v.v.v.v.h.[ [ } / F ] [ [ [ [ [ [ [ [ [ [ [ [ [ ",
"[ ] F F F / _ [ [ [ M.M.v.N.N.N.M.M.M.M.N.v.x.[ [ _ ) e.N.N.M.M.v.v.M.M.M.M.M.M.N.N.N.N.} } ] ( { x.v.v.x.[ [ [ [ [ [ [ [ [ [ [ ",
"[ / F F / [ [ [ [ [ M.M.v.v.N.N.M.N.M.M.N.v.z.[ [ [ x.v.N.N.M.M.N.N.M.M.M.M.M.M.N.N.v.v.[ [ } k.v.v.N.v.x.[ [ [ [ [ [ [ [ [ [ [ ",
"` F G ] [ [ [ [ [ [ M.M.M.M.N.N.N.N.N.N.N.N.[ [ g.N.v.N.N.N.N.N.N.N.N.M.M.M.M.M.N.N.N.| [ } v.N.N.N.N.N.x.} [ [ [ [ [ [ [ [ [ [ ",
"] F / [ [ [ [ [ [ [ M.M.M.M.N.N.N.N.N.N.N.N.} } z.N.N.N.N.N.N.N.N.N.N.N.M.M.M.M.N.N.N.g.[ h.v.v.N.N.N.N.v.g.[ [ [ [ [ [ [ [ [ [ ",
"F F [ [ [ [ [ [ [ [ v.v.v.N.M.N.M.M.M.M.M.g.[ z.N.N.N.N.M.M.v.v.M.M.M.M.M.M.M.M.M.M.x.[ w.N.N.N.N.N.N.N.v.w.} [ [ [ [ [ [ [ [ [ ",
"F ` [ [ [ [ [ [ [ [ v.v.N.N.N.N.M.M.M.M.M.w.| v.N.N.N.N.M.M.v.v.M.M.M.N.M.M.M.M.M.M.x.[ x.M.M.N.N.N.N.N.v.w.[ [ [ [ [ [ [ [ [ [ ",
"G ] } [ [ [ [ [ } [ N.N.N.N.N.N.M.M.M.M.v.h.h.v.v.v.M.M.M.|.<X,X%X}.B.N.M.M.M.M.M.M.x.| N.N.N.N.M.M.N.M.v.g.[ [ [ [ [ [ [ [ [ [ ",
"/ [ [ [ [ [ [ [ } } N.v.N.N.N.N.M.M.M.M.x.r.|. X:X&X&X=XyXpX<X=X&X%X=X%X%X=X:X X|.M.w.x.N.N.N.v.M.M.M.M.v.w.[ [ [ [ [ [ [ [ [ _ ",
"[ [ [ [ [ [ [ [ [ [ w.v.N.N.N.N.N.N.n.%X9X8X6X+X_.#X-X;XuX*X*X{./.$X%X$X{.#X_.!.E.8X9X&X[.M.M.v.M.M.N.N.N.h.[ [ [ [ [ [ [ [ [ / ",
"[ [ [ [ [ [ [ [ [ [ w.v.M.N.N.m.}.8XqX5XOX.X@XeX[.' ' &XuXd.U 9.%.u.0.s.'.#XoXP.R.v 4XwXtXtXyX|.M.M.N.v.v.z.[ [ [ [ [ [ [ [ [ G ",
"[ [ [ [ [ [ [ [ [ [ g.N.M.B.&XtXtXqX3XOXOX=X<Xj.q.^ 9.;XuX].~ U t.1.n 8.u.'./._.Z.D.j !.wXsXdXfXpX>XM.v.v.N.} [ [ [ [ [ [ [ _ ] ",
"[ [ [ [ [ [ [ [ [ [ w.c.XXqXiXiXqX8X5XOX@XpXd.9.D 8.<XuX;Xs.N $.%.t.1.1.8.u.0.s.I.v A.s W.wXdXfXfXgXaX|.N.N.} } [ [ [ [ [ [ F ] ",
"[ [ [ [ [ [ [ [ [ [ e.#XqXqX9X8X8X7XOXU.uXuXd.1.O.*XuX<X'.~ N S S O.p.u.a.%.p.8.u.K.v C.s D.sXfXfXgXgXgX>Xv.[ [ [ [ [ [ [ / F ] ",
"[ [ [ [ [ [ [ [ [ q.eX8X7X7XqX8X7X+XU.<X[.pX8.m ^./.;X[.i.u.%.t.1.1.a./.5.1.I >.U y.S.c x D.0XfXfXgXgXgXgX<X[ [ [ [ [ [ / F ] [ ",
"[ [ [ [ [ [ [ [ [ =X7X+X+X@X3X9X6XF.<X>X$Xs.U P %Xt.yXs.n o.%.L S ! %.%.5.p.P 2.2.K.p.S.Y.T.sXsX2XQ.`.sXgXgX*X[ [ [ [ / G ] [ [ ",
"[ [ [ [ [ [ [ [ d.8X+X+XOXOXOX3XoXyX<X'.).9.S m (.uX-Xs.S N b M b V o.o.o.m & m P ~.3.p.G.P.D.c s v R.4X2X2X4Xd.[ _ / F ] [ [ [ ",
"[ [ [ [ [ [ [ [ eX5X8X3XOX.X_.F.;.<Xn.;XuXuXa.^.$X;X$XS B A +.I +.>.<.#.>.A 9 - I ~.I 1.%.~.F.c i i i Z.R.E.Q.G.F F F [ [ [ [ [ ",
"[ [ [ [ [ [ [ } wX+X+X3X_.I.-.=..X[.&XaXaX$X1.p.~.u.I 5 3 9 9 L X.@.+.+.U o.>.I B C b p.o.o.p.F.Y d f Y D.P.E.Q.F ` ] [ [ [ [ [ ",
"[ [ [ [ [ [ } ] rXoX_.(.K.*.Y I.=Xr.&XaXaX$XT b #.5 = 3 - 3 T 2.T @.:.L I A #.1.1.+.@.%.#.A %.K.!.D.Z.R.qXdXdXqX[ [ [ [ [ [ [ [ ",
"[ [ [ [ [ _ / G *X4XI.J.-.z P.+X%Xd.}.yXuX%X{.K #.C 3 L 9 0 K ; J V X.m <.:.m 1.7.L #.+.L A 1.1.G.Q.E.1XdXdXdX5X[ [ [ [ [ [ [ [ ",
"[ [ ] ] F F G / ).sXU.;.*.=.`.+X-X'.<X%X,X$Xa.a.1.B 4 4 9 3 ; & ; 5 >.K 3 3 9 <.<.K o.>.@.L 5.7.;.=.A.E.wX0XdX(.[ [ [ [ [ [ [ [ ",
"[ [ / F F F / [ q.7X8XJ.E H.`.6XyX=X;X,X$X'.&.O.O.L 3 3 3 * = = * <.#.L C V J 5 V V <.1.$.$.@.K.S.c j =.!.4X3Xq.[ [ [ [ [ [ [ [ ",
"[ / F G G ] [ [ [ r.6X6XS.P.`.+X-X-X,XyXeX].&...Z B  .V 3 * * e H T T C M V J - V L 6.>.%.#.>.P *.v j z R.4Xd.[ [ [ [ [ [ [ [ [ ",
"] G G _ ] [ [ [ [ [ [.2X4XE.`.4X#X=XeX].XXXX'.Q B e e  .o.f J 6.T T m m 9 w V 0 L @.$.+.>.L <.-.S.W l D.!.3.] [ [ [ [ [ [ [ [ [ ",
"] F G ] [ [ [ [ [ [ M.{.W.W.2X2X3X#XXXp.&.6.6.R 6 2 1 4 E X.X.Z 6.K A N 9 9 M A L L L ,.1.3.J.H.Z.A.Q.R.-.e.[ [ [ [ [ [ [ [ [ [ ",
"/ G ] [ [ [ [ [ [ [ M.N.].T.C.Y.Q.+X~.L.H.R E q > : , q E E R < . : > 2 9 M 9 4 9 L @.X.:.6.P.R.E.R.C.c l.g.[ [ [ [ [ [ [ [ [ [ ",
"F / [ [ [ [ [ [ [ [ M.M.N.b.C.C.l x A.S.4.4.q > > . X . : E f 2 , . : < 2 Z .. .@.6.K.J.I.R.T.A.V.V.h b.v.w.} [ [ [ [ [ [ [ [ [ ",
"F ] [ [ [ [ [ [ [ [ M.M.v.m.b.k h h g d d W W W W W f i f q 7 . < 2 < 7 q z -.F.J.S.D.Z.C.c x x x h &.M.v.w.[ [ [ [ [ [ [ [ [ [ ",
"/ [ [ [ [ [ [ [ [ [ v.v.v.v.N.l.X.a a p u u a a p s h j v W W W W W =.Z.W W x k h h h k k k k h f j.M.M.v.g.[ [ [ [ [ [ [ [ [ ] ",
"] [ [ [ [ [ [ [ [ [ k.v.N.N.N.N.N.0.q % r r t t y y y y u u p p a a a a a d d d h d h h h a y $.m.M.M.M.v.e.[ [ [ [ [ [ [ [ [ ) ",
"[ [ [ [ [ [ [ [ [ [ h.v.N.N.N.N.N.N.m.&.@ O + $ % % % % % r r y t y y t t u u u u u t t % i f.M.M.M.M.M.N.h.[ [ [ [ [ [ [ [ [ / ",
"[ [ [ [ [ [ [ [ [ [ w.N.v.N.N.N.N.N.N.N.' O.e +       X X + # # $ $ $ $ $ # # # + O # y &.c.M.N.M.M.M.N.N.N.[ [ [ [ [ [ [ [ ] _ ",
"[ [ [ [ [ [ [ [ [ [ w.v.N.v.N.v.v.v.v.g.g.v.v.v.j.&.Q 2                   o O + # 8 &.v.v.v.N.N.M.M.M.M.M.M.[ [ [ [ [ [ [ [ F ] ",
"[ [ [ [ [ [ [ [ [ [ w.v.N.N.N.N.v.v.x.| w.v.v.v.N.N.N.N.l.f.O.e 8 8 w e e Z Q Q ^ [ M.M.N.v.N.N.M.M.M.M.M.M.[ [ [ [ [ [ [ _ G ` ",
"[ [ [ [ [ [ [ [ [ [ w.v.N.v.v.v.v.v.} | N.N.N.v.N.v.N.N.v.v.M.M.v.v.v.N.v.N.v.w.q.M.v.v.N.N.N.N.M.M.M.M.M.M.[ [ [ [ [ [ _ G _ [ ",
"[ [ [ [ [ [ [ [ [ [ [ v.N.N.v.v.v.} w.v.N.N.N.N.N.N.v.v.v.v.M.M.v.v.N.v.v.N.w.} v.M.v.v.N.N.N.N.M.M.M.M.M.M.[ [ [ [ } ) G _ [ [ ",
"[ [ [ [ [ [ [ [ [ [ [ x.M.M.M.x.[ | N.M.M.M.M.M.M.M.M.M.M.M.M.M.N.N.N.N.x.| } x.M.M.M.M.M.M.N.N.M.M.M.M.M.M.[ [ [ ] ` F _ [ [ [ ",
"[ [ [ [ [ [ [ [ [ [ [ x.M.g.w.[ w.M.N.M.M.N.M.M.M.M.M.M.M.M.M.M.N.N.x.| } } v.N.M.M.M.M.M.N.M.N.M.M.M.M.M.h.[ [ ( G G _ [ [ [ [ ",
"[ [ [ [ [ [ [ [ [ [ [ h.g.[ [ e.M.M.M.M.M.M.M.M.M.M.M.M.M.M.M.M.N.x.} [ w.x.N.N.M.M.M.M.M.M.N.N.M.M.M.M.N.w.] / F / ) [ [ [ [ [ ",
"[ [ [ [ [ [ [ [ [ _ / G ] k.x.M.M.M.M.M.M.M.M.M.M.M.M.M.N.N.x.{ ] } | v.v.v.N.N.M.M.M.M.M.M.v.v.M.M.M.M.e.) G F ] [ } [ [ [ [ [ ",
"[ [ [ [ [ ] ] / F F _ [ h.N.N.N.M.M.M.M.M.M.M.v.x.x.x.x.h./ / ] [ w.M.M.v.v.N.N.M.v.v.v.v.x.x.x.x.x.` / / / _ [ [ [ [ [ [ [ [ [ ",
"[ [ [ | / F G F / ] [ [ h.N.M.M.M.N.M.h.w.w.w.g.[ [ ] / F ` [ [ [ w.M.M.v.v.N.N.x.g.| g.w.} } [ / F / [ [ [ [ [ [ [ [ [ [ [ [ [ ",
"[ [ ` F F F G ] [ [ [ [ [ [ [ [ [ [ [ [ [ [ [ ] F F F G _ [ [ [ [ [ [ [ [ [ [ [ [ [ } [ [ / F F F G [ [ [ [ [ [ [ [ [ [ [ [ [ [ ",
"[ _ F F F ` ] } [ [ [ [ [ [ [ [ [ [ [ [ [ [ ] G F F / ` [ [ [ [ [ [ [ [ [ [ [ [ [ [ [ [ / F F G ] [ [ [ [ [ [ [ [ [ [ [ [ [ [ [ ",
"[ G G / _ [ [ [ [ [ [ [ [ [ [ [ [ [ [ [ [ [ ` F G / [ [ [ [ [ [ [ [ [ [ [ [ [ [ [ [ [ ] F F / ] [ [ [ [ [ [ [ [ [ [ [ [ [ [ [ [ ",
"] F F ] [ [ [ [ [ [ [ [ [ [ [ [ [ [ [ [ [ [ F F ) [ [ [ [ [ [ [ [ [ [ [ [ [ [ [ [ [ [ / F F } [ [ [ [ [ [ [ [ [ [ [ [ [ [ [ [ [ ",
"_ F _ [ [ [ [ [ [ [ [ [ [ [ [ [ [ [ [ [ [ ] F / [ [ [ [ [ [ [ [ [ [ [ [ [ [ [ [ [ [ [ / F ] [ [ [ [ [ [ [ [ [ [ [ [ [ [ [ [ [ [ ",
"F F [ [ [ [ [ [ [ [ [ [ [ [ [ [ [ [ [ [ [ / F ] [ [ [ [ [ [ [ [ [ [ [ [ [ [ [ [ [ [ ] F ( [ [ [ [ [ [ [ [ [ [ [ [ [ [ [ [ [ [ [ ",
"F ] [ [ [ [ [ [ [ [ [ [ [ [ [ [ [ [ [ [ [ ) / [ [ [ [ [ [ [ [ [ [ [ [ [ [ [ [ [ [ [ ] F [ [ [ [ [ [ [ } [ [ [ [ [ [ [ [ [ [ [ [ ",
"/ [ [ [ [ [ [ [ [ [ [ [ [ [ [ [ [ [ [ [ [ ) ] [ [ [ [ [ [ [ [ [ [ [ [ [ [ [ [ [ [ [ ] _ [ [ [ [ [ [ [ [ [ [ [ [ [ [ [ [ [ [ [ [ ",
"_ [ [ [ [ [ [ [ [ [ [ [ [ [ [ [ [ [ [ [ ] / [ [ [ [ [ [ [ [ [ [ [ [ [ [ [ [ [ [ } [ G ] [ [ [ [ [ [ [ [ [ [ [ [ [ [ [ [ [ [ [ / ",
"[ [ [ [ [ [ [ [ [ [ [ [ [ [ [ [ [ [ [ } ] ` [ [ [ [ [ [ [ [ [ [ [ [ [ [ [ [ [ [ [ } / [ [ [ [ [ [ [ [ [ [ [ [ [ [ [ [ [ [ [ [ ) "
};
