/* XPM */
static char *wall[] = {
/* columns rows colors chars-per-pixel */
"64 64 24 1 ",
"  c #0E4C86",
". c #0F4D87",
"X c #104D88",
"o c #114E88",
"O c #124E89",
"+ c #1E5594",
"@ c #205696",
"# c #2F62A8",
"$ c #2F63A9",
"% c #3568B1",
"& c #3669B2",
"* c #376AB3",
"= c #376AB4",
"- c #4579CA",
"; c #4B7FD3",
": c #4B7FD4",
"> c #568CE8",
", c #578CE8",
"< c #5990ED",
"1 c #5A90EE",
"2 c #6098FA",
"3 c #639BFF",
"4 c #639CFF",
"5 c #649CFF",
/* pixels */
"OOOOOOOOOOOOOOOOOOOOOOOOOOOOOOOOOOOOOOOOOOOOOOOOOOOOOOOOOOOOOOOO",
"OOOOOOOOOOOOOOOOOOOOOOOOOOOOOOOOOOOOOOOOOOOOOOOOOOOOOOOOOOOOOOOO",
"OOOOOOOOOOOOOOOOOOOOOOOOOOOOOOOOOOOOOOOOOOOOOOOOOOOOOOOOOOOOOOOO",
"OOOOOOOOOOOOOOOOOOOOOOOOOOOOOOOOOOOOOOOOOOOOOOOOOOOOOOOOOOOOOOOO",
"OOOOOOOOOOOOOOOOOOOOOOOOOOOOOOOOOOOOOOOOOOOOOOOOOOOOOOOOOOOOOOOO",
"OOOOOOOOOOOOOOOOOOOOOOOOOOOOOOOOOOOOOOOOOOOOOOOOOOOOOOOOOOOOOOOO",
"OOOOOOOOOOOOOOOOOOOOOOOOOOOOOOOOOOOOOOOOOOOOOOOOOOOOOOOOOOOOOOOO",
"OOOOOOOOOOOOOOOOOOOOOOOOOOOOOOOOOOOOOOOOOOOOOOOOOOOOOOOOOOOOOOOO",
"OOOOOOOOOOOOOOOOOOOOOOXX O O  XXOOOOOOOOOOOOO.....XXOOOOOOOOOOOO",
"OOOOOOOOOOOOOOOOOOOOOOO;>>>>>>>XOOOOOOOOOOOO$>>>>>>>OOOOOOOOOOOO",
"OOOOOOOOOO+&.O151&OO+&532$XX>23-&+X;55*@O.&133;O.;33<+OOOOOOOOOO",
"OOOOOOOOOO15>$+&=&O.15332#X;<2333<;.&&*@O;3333;.$>533&OOOOOOOOOO",
"OOOOOOOO.>33333-%<333333333333333333<%-3333333333333>O.OOOOOOOOO",
"OOOOOOOO.>333333333333333333333333333333333333333333$XOOOOOOOOOO",
"OOOOOOOO.>;>3333333333333333333333333333333333333333+<OOOOOOOOOO",
"OOOOOOOO.>.$333333333333333333333333333333333333333-&3OOOOOOOOOO",
"OOOOOOOO >XX333333333333333333333333333333333333334&&1OOOOOOOOOO",
"OOOOOOOOO>;;3333333333333333333333333333333333333331&&OOOOOOOOOO",
"OOOOOOOO.>333333333333333333333333333333333333333333OOOOOOOOOOOO",
"OOOOOOOOO$333333333333333333333333333333333333333333OOOOOOOOOOOO",
"OOOOOOOOOO<333333333333333333333333333333333333333331+OOOOOOOOOO",
"OOOOOOOOOO%333333333333333333333333333333333333333333&OOOOOOOOOO",
"OOOOOOOOOO.;333333333333333333333333333333333333333333XOOOOOOOOO",
"OOOOOOOOOOO.333333333333333333333333333333333333333333;XOOOOOOOO",
"OOOOOOOOOO@@333333333333333333333333333333333333333322>.OOOOOOOO",
"OOOOOOOOOO=&-333333333333333333333333333333333333333##>.OOOOOOOO",
"OOOOOOOOOO5&%333333333333333333333333333333333333333..>.OOOOOOOO",
"OOOOOOOOOO4&<333333333333333333333333333333333333333;X>.OOOOOOOO",
"OOOOOOOOOO- 2333333333333333333333333333333333333333<<>.OOOOOOOO",
"OOOOOOOOOO.>333333333333333333333333333333333333333333>.OOOOOOOO",
"OOOOOOOOOO+1333333333333333333333333333333333333333322>OOOOOOOOO",
"OOOOOOOOOO&533333333333333333333333333333333333333332-.OOOOOOOOO",
"OOOOOOOOOO-333333333333333333333333333333333333333333&OOOOOOOOOO",
"OOOOOOOO.;333333333333333333333333333333333333333333<+OOOOOOOOOO",
"OOOOOOOO.,333333333333333333333333333333333333333333;.OOOOOOOOOO",
"OOOOOOOO.,113333333333333333333333333333333333333333X:OOOOOOOOOO",
"OOOOOOOO.>O;333333333333333333333333333333333333333<&3OOOOOOOOOO",
"OOOOOOOO.,OO333333333333333333333333333333333333333%&5OOOOOOOOOO",
"OOOOOOOO >##333333333333333333333333333333333333333-*=OOOOOOOOOO",
"OOOOOOOO.>223333333333333333333333333333333333333333@@OOOOOOOOOO",
"OOOOOOOO.;333333333333333333333333333333333333333333OOOOOOOOOOOO",
"OOOOOOOOO.333333333333333333333333333333333333333333;.OOOOOOOOOO",
"OOOOOOOOOO*333333333333333333333333333333333333333333%OOOOOOOOOO",
"OOOOOOOOoX@133333333333333333333333333333333333333333<OOOOOOOOOO",
"OOOOOOOOOOOO333333333333333333333333333333333333333333$OOOOOOOOO",
"OOOOOOOOOOOO333333333333333333333333333333333333333333>.OOOOOOOO",
"OOOOOOOOOO&*1333333333333333333333333333333333333333;;>.OOOOOOOO",
"OOOOOOOOOO1*%333333333333333333333333333333333333333.O>XOOOOOOOO",
"OOOOOOOOOO3%-333333333333333333333333333333333333333$.>.OOOOOOOO",
"OOOOOOOOOO<+3333333333333333333333333333333333333333>;>.OOOOOOOO",
"OOOOOOOOOOO$333333333333333333333333333333333344333333>.OOOOOOOO",
"OOOOOOOOOO >3333333333333-*13333333333333333331&-33333>XOOOOOOOO",
"OOOOOOOOOO%333>$o;2352>o@*%%X;<33331;X$23351OO&&&+$>31OOOOOOOOOO",
"OOOOOOOOOO@<33,.o;33<# O@*33;.@%-34>XO#233&+OO&13<OX&+OOOOOOOOOO",
"OOOOOOOOOO O>>>>,,,#ooOOOOOOOOOO.>>>>>>>;OOOOOOOOOOOOOOOOOOOOOOO",
"OOOOOOOOOO      ooooooOOOOOOOOOO X.X....XOOOOOOOOOOOOOOOOOOOOOOO",
"OOOOOOOOOOOOOOOOOOOOOOOOOOOOOOOO  OOOOOOOOOOOOOOOOOOOOOOOOOOOOOO",
"OOOOOOOOOOOOOOOOOOOOOOOOOOOOOOOOXXOOOOOOOOOOOOOOOOOOOOOOOOOOOOOO",
"OOOOOOOOOOOOOOOOOOOOOOOOOOOOOOOOXooOOOOOOOOOOOOOOOOOOOOOOOOOOOOO",
"OOOOOOOOOOOOOOOOOOOOOOOOOOOOOOOOXoOOOOOOOOOOOOOOOOOOOOOOOOOOOOOO",
"OOOOOOOOOOOOOOOOOOOOOOOOOOOOOOOOOOOOOOOOOOOOOOOOOOOOOOOOOOOOOOOO",
"OOOOOOOOOOOOOOOOOOOOOOOOOOOOOOOOOOOOOOOOOOOOOOOOOOOOOOOOOOOOOOOO",
"OOOOOOOOOOOOOOOOOOOOOOOOOOOOOOOOOOOOOOOOOOOOOOOOOOOOOOOOOOOOOOOO",
"OOOOOOOOOOOOOOOOOOOOOOOOOOOOOOOOOOOOOOOOOOOOOOOOOOOOOOOOOOOOOOOO"
};
